%TF.GenerationSoftware,KiCad,Pcbnew,10.0.0*%
%TF.CreationDate,2026-04-22T04:48:51+05:30*%
%TF.ProjectId,PC_Interface_Card,50435f49-6e74-4657-9266-6163655f4361,rev?*%
%TF.SameCoordinates,PX67fe72cPY7e1d280*%
%TF.FileFunction,Plated,1,2,PTH,Mixed*%
%TF.FilePolarity,Positive*%
%FSLAX46Y46*%
G04 Gerber Fmt 4.6, Leading zero omitted, Abs format (unit mm)*
G04 Created by KiCad (PCBNEW 10.0.0) date 2026-04-22 04:48:51*
%MOMM*%
%LPD*%
G01*
G04 APERTURE LIST*
%TA.AperFunction,ViaDrill*%
%ADD10C,0.300000*%
%TD*%
%TA.AperFunction,ComponentDrill*%
%ADD11C,0.300000*%
%TD*%
%TA.AperFunction,ComponentDrill*%
%ADD12C,0.400000*%
%TD*%
%TA.AperFunction,ComponentDrill*%
%ADD13C,1.000000*%
%TD*%
%TA.AperFunction,ComponentDrill*%
%ADD14C,1.100000*%
%TD*%
%TA.AperFunction,ComponentDrill*%
%ADD15C,1.500000*%
%TD*%
G04 aperture for slot hole*
%TA.AperFunction,ComponentDrill*%
%ADD16C,1.800000*%
%TD*%
%TA.AperFunction,ComponentDrill*%
%ADD17C,2.200000*%
%TD*%
G04 APERTURE END LIST*
D10*
X8419452Y36940000D03*
X8654452Y61180000D03*
X9574452Y53920000D03*
X10064452Y44260000D03*
X11404452Y54490000D03*
X11794452Y40680000D03*
X12584452Y44670000D03*
X13734452Y48050000D03*
X13804452Y45620000D03*
X18054452Y38720000D03*
X18554452Y44670000D03*
X20244452Y45720000D03*
X20244452Y44670000D03*
X22254452Y41935001D03*
X22654452Y49840000D03*
X22866052Y43190000D03*
X24664452Y55480000D03*
X25034452Y58930000D03*
X25854452Y55390000D03*
X25854452Y3075000D03*
X26154452Y49560000D03*
X28904452Y48890000D03*
X28974452Y42680000D03*
X29524452Y48150000D03*
X31964452Y17450000D03*
X33264452Y17450000D03*
X34404452Y17450000D03*
X39354452Y70450000D03*
X39375652Y67445000D03*
X40884452Y41550000D03*
X42864452Y38000000D03*
X43954452Y48040000D03*
X44965652Y67595000D03*
X44994452Y70450000D03*
X46954452Y46685000D03*
X48434452Y48030000D03*
X48544452Y46685000D03*
X48894452Y41920000D03*
X50611652Y43365000D03*
X50914452Y50060000D03*
X55734452Y51990000D03*
X56164452Y58230000D03*
X56404452Y43330000D03*
X58354452Y47705000D03*
X59843452Y47575000D03*
X60664452Y39990000D03*
X61904452Y39840000D03*
X61984452Y43810000D03*
X62608452Y51285000D03*
X62944452Y49470000D03*
X63269452Y37145000D03*
X63284452Y55050000D03*
X63284452Y38790000D03*
X63319652Y46750000D03*
X64024452Y21720000D03*
X64824452Y48760000D03*
X65024452Y44840000D03*
X65148452Y51285000D03*
X65494452Y31540000D03*
X65494452Y29440000D03*
X66424452Y36130000D03*
X67444320Y41600132D03*
X67688452Y51285000D03*
X69474452Y40930000D03*
X69724452Y39140000D03*
X70474452Y67770000D03*
X70694452Y36130000D03*
X70694452Y33180000D03*
X70824452Y40910000D03*
X70924452Y53060000D03*
X71064584Y47429868D03*
X72794452Y58860000D03*
X73454452Y46390000D03*
X74204452Y61430000D03*
X74264452Y42990000D03*
X74384452Y39770000D03*
X74524452Y36220000D03*
X74524452Y33580000D03*
X75054452Y46390000D03*
X75384452Y45290000D03*
X76324452Y31500000D03*
X76326495Y41041332D03*
X77134452Y57690000D03*
X77314452Y56590000D03*
X77434452Y48520000D03*
X77564452Y44270000D03*
X77645652Y50230000D03*
X78534452Y30470000D03*
X78714452Y21200000D03*
X78724320Y24609868D03*
X78854452Y46920000D03*
X78929320Y56984868D03*
X80463452Y63492500D03*
X80463452Y61217500D03*
X80704452Y30780000D03*
X81024452Y32970000D03*
X81174452Y25860000D03*
X82648452Y60405000D03*
X82658452Y57425000D03*
X82744452Y62310000D03*
X83014452Y53450000D03*
X83464452Y51900000D03*
X84104452Y30660000D03*
X84880952Y63795750D03*
X86134452Y58640000D03*
D11*
%TO.C,U4*%
X64153452Y62025000D03*
X64153452Y60625000D03*
X64853452Y62725000D03*
X64853452Y61325000D03*
X64853452Y59925000D03*
X65553452Y62025000D03*
X65553452Y60625000D03*
X66253452Y62725000D03*
X66253452Y61325000D03*
X66253452Y59925000D03*
X66953452Y62025000D03*
X66953452Y60625000D03*
D12*
%TO.C,H2*%
X1465000Y3380000D03*
%TO.C,H1*%
X1946726Y69051726D03*
%TO.C,H2*%
X1948274Y4546726D03*
X1948274Y2213274D03*
%TO.C,H1*%
X2430000Y70218452D03*
X2430000Y67885000D03*
%TO.C,H2*%
X3115000Y5030000D03*
X3115000Y1730000D03*
%TO.C,H1*%
X3596726Y70701726D03*
X3596726Y67401726D03*
%TO.C,H2*%
X4281726Y4546726D03*
X4281726Y2213274D03*
%TO.C,H1*%
X4763452Y70218452D03*
X4763452Y67885000D03*
%TO.C,H2*%
X4765000Y3380000D03*
%TO.C,H1*%
X5246726Y69051726D03*
%TO.C,H7*%
X85310178Y3251726D03*
%TO.C,H6*%
X85748452Y69010000D03*
%TO.C,H7*%
X85793452Y4418452D03*
X85793452Y2085000D03*
%TO.C,H6*%
X86231726Y70176726D03*
X86231726Y67843274D03*
%TO.C,H7*%
X86960178Y4901726D03*
X86960178Y1601726D03*
%TO.C,H6*%
X87398452Y70660000D03*
X87398452Y67360000D03*
%TO.C,H7*%
X88126904Y4418452D03*
X88126904Y2085000D03*
%TO.C,H6*%
X88565178Y70176726D03*
X88565178Y67843274D03*
%TO.C,H7*%
X88610178Y3251726D03*
%TO.C,H6*%
X89048452Y69010000D03*
D13*
%TO.C,SW6*%
X68363452Y23975000D03*
X68813452Y27225000D03*
X68813452Y20725000D03*
X73313452Y27225000D03*
X73313452Y20725000D03*
X73763452Y23975000D03*
%TO.C,MT1*%
X84183452Y25595000D03*
X84183452Y20595000D03*
X86683452Y25595000D03*
X86683452Y23095000D03*
X86683452Y20595000D03*
D14*
%TO.C,SW8*%
X32413452Y65035000D03*
X32413452Y60535000D03*
X38913452Y65035000D03*
X38913452Y60535000D03*
%TO.C,SW7*%
X42673452Y65035000D03*
X42673452Y60535000D03*
X49173452Y65035000D03*
X49173452Y60535000D03*
D15*
%TO.C,SW3*%
X16508452Y30210000D03*
X22858452Y32750000D03*
%TO.C,SW2*%
X33038452Y46450000D03*
%TO.C,SW5*%
X33038452Y30190000D03*
%TO.C,SW4*%
X33043452Y13670000D03*
%TO.C,SW2*%
X39388452Y48990000D03*
%TO.C,SW5*%
X39388452Y32730000D03*
%TO.C,SW4*%
X39393452Y16210000D03*
%TO.C,SW1*%
X49298452Y30190000D03*
X55648452Y32730000D03*
%TO.C,MT1*%
D16*
X86833452Y28495000D02*
X86533452Y28495000D01*
X86833452Y17695000D02*
X86533452Y17695000D01*
D17*
%TO.C,H2*%
X3115000Y3380000D03*
%TO.C,H1*%
X3596726Y69051726D03*
%TO.C,H7*%
X86960178Y3251726D03*
%TO.C,H6*%
X87398452Y69010000D03*
M02*
