%TF.GenerationSoftware,KiCad,Pcbnew,9.0.6*%
%TF.CreationDate,2026-02-15T13:38:13+05:30*%
%TF.ProjectId,PC_Interface_Card,50435f49-6e74-4657-9266-6163655f4361,rev?*%
%TF.SameCoordinates,Original*%
%TF.FileFunction,Soldermask,Bot*%
%TF.FilePolarity,Negative*%
%FSLAX46Y46*%
G04 Gerber Fmt 4.6, Leading zero omitted, Abs format (unit mm)*
G04 Created by KiCad (PCBNEW 9.0.6) date 2026-02-15 13:38:13*
%MOMM*%
%LPD*%
G01*
G04 APERTURE LIST*
G04 Aperture macros list*
%AMRoundRect*
0 Rectangle with rounded corners*
0 $1 Rounding radius*
0 $2 $3 $4 $5 $6 $7 $8 $9 X,Y pos of 4 corners*
0 Add a 4 corners polygon primitive as box body*
4,1,4,$2,$3,$4,$5,$6,$7,$8,$9,$2,$3,0*
0 Add four circle primitives for the rounded corners*
1,1,$1+$1,$2,$3*
1,1,$1+$1,$4,$5*
1,1,$1+$1,$6,$7*
1,1,$1+$1,$8,$9*
0 Add four rect primitives between the rounded corners*
20,1,$1+$1,$2,$3,$4,$5,0*
20,1,$1+$1,$4,$5,$6,$7,0*
20,1,$1+$1,$6,$7,$8,$9,0*
20,1,$1+$1,$8,$9,$2,$3,0*%
G04 Aperture macros list end*
%ADD10R,1.500000X1.500000*%
%ADD11C,1.500000*%
%ADD12C,0.700000*%
%ADD13C,4.400000*%
%ADD14C,2.000000*%
%ADD15C,1.750000*%
%ADD16C,4.000000*%
%ADD17C,2.200000*%
%ADD18RoundRect,0.102000X0.754000X-0.754000X0.754000X0.754000X-0.754000X0.754000X-0.754000X-0.754000X0*%
%ADD19C,1.712000*%
%ADD20O,3.654000X3.354000*%
%ADD21RoundRect,0.200000X-0.275000X0.200000X-0.275000X-0.200000X0.275000X-0.200000X0.275000X0.200000X0*%
%ADD22RoundRect,0.200000X-0.200000X-0.275000X0.200000X-0.275000X0.200000X0.275000X-0.200000X0.275000X0*%
%ADD23RoundRect,0.200000X0.200000X0.275000X-0.200000X0.275000X-0.200000X-0.275000X0.200000X-0.275000X0*%
%ADD24RoundRect,0.225000X-0.225000X-0.250000X0.225000X-0.250000X0.225000X0.250000X-0.225000X0.250000X0*%
G04 APERTURE END LIST*
D10*
%TO.C,SW6*%
X177859000Y-105015000D03*
D11*
X177859000Y-111515000D03*
X182359000Y-105015000D03*
X182359000Y-111515000D03*
X182809000Y-108265000D03*
X177409000Y-108265000D03*
%TD*%
D12*
%TO.C,H6*%
X194794000Y-63230000D03*
X195277274Y-62063274D03*
X195277274Y-64396726D03*
X196444000Y-61580000D03*
D13*
X196444000Y-63230000D03*
D12*
X196444000Y-64880000D03*
X197610726Y-62063274D03*
X197610726Y-64396726D03*
X198094000Y-63230000D03*
%TD*%
D14*
%TO.C,SW7*%
X151719000Y-67205000D03*
X158219000Y-67205000D03*
X151719000Y-71705000D03*
X158219000Y-71705000D03*
%TD*%
D15*
%TO.C,SW4*%
X140819000Y-121110000D03*
D16*
X145899000Y-121110000D03*
D15*
X150979000Y-121110000D03*
D17*
X142089000Y-118570000D03*
X148439000Y-116030000D03*
%TD*%
D12*
%TO.C,H2*%
X110510548Y-128860000D03*
X110993822Y-127693274D03*
X110993822Y-130026726D03*
X112160548Y-127210000D03*
D13*
X112160548Y-128860000D03*
D12*
X112160548Y-130510000D03*
X113327274Y-127693274D03*
X113327274Y-130026726D03*
X113810548Y-128860000D03*
%TD*%
D15*
%TO.C,SW5*%
X140814000Y-104590000D03*
D16*
X145894000Y-104590000D03*
D15*
X150974000Y-104590000D03*
D17*
X142084000Y-102050000D03*
X148434000Y-99510000D03*
%TD*%
D14*
%TO.C,SW8*%
X141459000Y-67205000D03*
X147959000Y-67205000D03*
X141459000Y-71705000D03*
X147959000Y-71705000D03*
%TD*%
D12*
%TO.C,J1*%
X194426500Y-76454250D03*
X194426500Y-70674250D03*
%TD*%
%TO.C,H7*%
X194355726Y-128988274D03*
X194839000Y-127821548D03*
X194839000Y-130155000D03*
X196005726Y-127338274D03*
D13*
X196005726Y-128988274D03*
D12*
X196005726Y-130638274D03*
X197172452Y-127821548D03*
X197172452Y-130155000D03*
X197655726Y-128988274D03*
%TD*%
%TO.C,H1*%
X110992274Y-63188274D03*
X111475548Y-62021548D03*
X111475548Y-64355000D03*
X112642274Y-61538274D03*
D13*
X112642274Y-63188274D03*
D12*
X112642274Y-64838274D03*
X113809000Y-62021548D03*
X113809000Y-64355000D03*
X114292274Y-63188274D03*
%TD*%
D15*
%TO.C,SW3*%
X124284000Y-104570000D03*
D16*
X129364000Y-104570000D03*
D15*
X134444000Y-104570000D03*
D17*
X125554000Y-102030000D03*
X131904000Y-99490000D03*
%TD*%
D15*
%TO.C,SW2*%
X140814000Y-88330000D03*
D16*
X145894000Y-88330000D03*
D15*
X150974000Y-88330000D03*
D17*
X142084000Y-85790000D03*
X148434000Y-83250000D03*
%TD*%
D15*
%TO.C,SW1*%
X157074000Y-104590000D03*
D16*
X162154000Y-104590000D03*
D15*
X167234000Y-104590000D03*
D17*
X158344000Y-102050000D03*
X164694000Y-99510000D03*
%TD*%
D18*
%TO.C,MT1*%
X195729000Y-111645000D03*
D19*
X195729000Y-106645000D03*
X195729000Y-109145000D03*
X193229000Y-111645000D03*
X193229000Y-106645000D03*
D20*
X195729000Y-114545000D03*
X195729000Y-103745000D03*
%TD*%
D21*
%TO.C,R12*%
X167400000Y-84535000D03*
X167400000Y-86185000D03*
%TD*%
D22*
%TO.C,R28*%
X165450000Y-88910000D03*
X167100000Y-88910000D03*
%TD*%
D23*
%TO.C,R6*%
X191704000Y-74815000D03*
X190054000Y-74815000D03*
%TD*%
D22*
%TO.C,R8*%
X117465000Y-95300000D03*
X119115000Y-95300000D03*
%TD*%
D21*
%TO.C,R33*%
X156000000Y-85555000D03*
X156000000Y-87205000D03*
%TD*%
%TO.C,R21*%
X157590000Y-85555000D03*
X157590000Y-87205000D03*
%TD*%
D24*
%TO.C,C13*%
X159657200Y-88875000D03*
X161207200Y-88875000D03*
%TD*%
%TO.C,C15*%
X159657200Y-90455000D03*
X161207200Y-90455000D03*
%TD*%
D23*
%TO.C,R7*%
X191694000Y-71835000D03*
X190044000Y-71835000D03*
%TD*%
M02*
