%TF.GenerationSoftware,KiCad,Pcbnew,10.0.0*%
%TF.CreationDate,2026-04-22T04:48:58+05:30*%
%TF.ProjectId,PC_Interface_Card,50435f49-6e74-4657-9266-6163655f4361,rev?*%
%TF.SameCoordinates,PX67fe72cPY7e1d280*%
%TF.FileFunction,Soldermask,Top*%
%TF.FilePolarity,Negative*%
%FSLAX46Y46*%
G04 Gerber Fmt 4.6, Leading zero omitted, Abs format (unit mm)*
G04 Created by KiCad (PCBNEW 10.0.0) date 2026-04-22 04:48:58*
%MOMM*%
%LPD*%
G01*
G04 APERTURE LIST*
G04 Aperture macros list*
%AMRoundRect*
0 Rectangle with rounded corners*
0 $1 Rounding radius*
0 $2 $3 $4 $5 $6 $7 $8 $9 X,Y pos of 4 corners*
0 Add a 4 corners polygon primitive as box body*
4,1,4,$2,$3,$4,$5,$6,$7,$8,$9,$2,$3,0*
0 Add four circle primitives for the rounded corners*
1,1,$1+$1,$2,$3*
1,1,$1+$1,$4,$5*
1,1,$1+$1,$6,$7*
1,1,$1+$1,$8,$9*
0 Add four rect primitives between the rounded corners*
20,1,$1+$1,$2,$3,$4,$5,0*
20,1,$1+$1,$4,$5,$6,$7,0*
20,1,$1+$1,$6,$7,$8,$9,0*
20,1,$1+$1,$8,$9,$2,$3,0*%
G04 Aperture macros list end*
%ADD10C,0.010000*%
%ADD11RoundRect,0.250000X0.650000X-1.000000X0.650000X1.000000X-0.650000X1.000000X-0.650000X-1.000000X0*%
%ADD12RoundRect,0.102000X0.350000X0.700000X-0.350000X0.700000X-0.350000X-0.700000X0.350000X-0.700000X0*%
%ADD13RoundRect,0.102000X0.500000X0.700000X-0.500000X0.700000X-0.500000X-0.700000X0.500000X-0.700000X0*%
%ADD14RoundRect,0.102000X0.600000X0.600000X-0.600000X0.600000X-0.600000X-0.600000X0.600000X-0.600000X0*%
%ADD15RoundRect,0.102000X0.600000X1.600000X-0.600000X1.600000X-0.600000X-1.600000X0.600000X-1.600000X0*%
%ADD16RoundRect,0.102000X0.600000X0.400000X-0.600000X0.400000X-0.600000X-0.400000X0.600000X-0.400000X0*%
%ADD17RoundRect,0.102000X0.350000X0.600000X-0.350000X0.600000X-0.350000X-0.600000X0.350000X-0.600000X0*%
%ADD18RoundRect,0.102000X-0.485000X0.500000X-0.485000X-0.500000X0.485000X-0.500000X0.485000X0.500000X0*%
%ADD19RoundRect,0.200000X0.275000X-0.200000X0.275000X0.200000X-0.275000X0.200000X-0.275000X-0.200000X0*%
%ADD20RoundRect,0.200000X0.200000X0.275000X-0.200000X0.275000X-0.200000X-0.275000X0.200000X-0.275000X0*%
%ADD21R,1.700000X0.650000*%
%ADD22R,2.899999X1.100000*%
%ADD23R,2.362200X2.159000*%
%ADD24R,1.295400X2.159000*%
%ADD25RoundRect,0.225000X-0.225000X-0.250000X0.225000X-0.250000X0.225000X0.250000X-0.225000X0.250000X0*%
%ADD26RoundRect,0.225000X0.225000X0.250000X-0.225000X0.250000X-0.225000X-0.250000X0.225000X-0.250000X0*%
%ADD27R,1.500000X1.500000*%
%ADD28C,1.500000*%
%ADD29R,1.500000X0.900000*%
%ADD30R,0.900000X1.500000*%
%ADD31C,0.600000*%
%ADD32R,3.900000X3.900000*%
%ADD33RoundRect,0.225000X0.250000X-0.225000X0.250000X0.225000X-0.250000X0.225000X-0.250000X-0.225000X0*%
%ADD34RoundRect,0.200000X-0.275000X0.200000X-0.275000X-0.200000X0.275000X-0.200000X0.275000X0.200000X0*%
%ADD35RoundRect,0.200000X-0.200000X-0.275000X0.200000X-0.275000X0.200000X0.275000X-0.200000X0.275000X0*%
%ADD36C,0.700000*%
%ADD37C,4.400000*%
%ADD38RoundRect,0.150000X0.150000X-0.512500X0.150000X0.512500X-0.150000X0.512500X-0.150000X-0.512500X0*%
%ADD39R,1.117600X0.457200*%
%ADD40R,4.089400X4.191000*%
%ADD41C,2.000000*%
%ADD42C,1.750000*%
%ADD43C,4.000000*%
%ADD44C,2.200000*%
%ADD45R,1.473200X1.828800*%
%ADD46RoundRect,0.102000X0.750000X-0.750000X0.750000X0.750000X-0.750000X0.750000X-0.750000X-0.750000X0*%
%ADD47RoundRect,0.225000X-0.250000X0.225000X-0.250000X-0.225000X0.250000X-0.225000X0.250000X0.225000X0*%
%ADD48RoundRect,0.102000X1.075000X0.475000X-1.075000X0.475000X-1.075000X-0.475000X1.075000X-0.475000X0*%
%ADD49RoundRect,0.102000X1.075000X1.625000X-1.075000X1.625000X-1.075000X-1.625000X1.075000X-1.625000X0*%
%ADD50RoundRect,0.102000X0.754000X-0.754000X0.754000X0.754000X-0.754000X0.754000X-0.754000X-0.754000X0*%
%ADD51C,1.712000*%
%ADD52O,3.654000X3.354000*%
G04 APERTURE END LIST*
D10*
%TO.C,J2*%
X24133452Y69745000D02*
X22433452Y69745000D01*
X22433452Y70995000D01*
X22283452Y71145000D01*
X21933452Y71145000D01*
X21933452Y71845000D01*
X24133452Y71845000D01*
X24133452Y69745000D01*
G36*
X24133452Y69745000D02*
G01*
X22433452Y69745000D01*
X22433452Y70995000D01*
X22283452Y71145000D01*
X21933452Y71145000D01*
X21933452Y71845000D01*
X24133452Y71845000D01*
X24133452Y69745000D01*
G37*
%TO.C,J1*%
X84930952Y61525750D02*
X83680952Y61525750D01*
X83680952Y62225750D01*
X84930952Y62225750D01*
X84930952Y61525750D01*
G36*
X84930952Y61525750D02*
G01*
X83680952Y61525750D01*
X83680952Y62225750D01*
X84930952Y62225750D01*
X84930952Y61525750D01*
G37*
X84930952Y60725750D02*
X83680952Y60725750D01*
X83680952Y61425750D01*
X84930952Y61425750D01*
X84930952Y60725750D01*
G36*
X84930952Y60725750D02*
G01*
X83680952Y60725750D01*
X83680952Y61425750D01*
X84930952Y61425750D01*
X84930952Y60725750D01*
G37*
X84930952Y60225750D02*
X83680952Y60225750D01*
X83680952Y60625750D01*
X84930952Y60625750D01*
X84930952Y60225750D01*
G36*
X84930952Y60225750D02*
G01*
X83680952Y60225750D01*
X83680952Y60625750D01*
X84930952Y60625750D01*
X84930952Y60225750D01*
G37*
X84930952Y59725750D02*
X83680952Y59725750D01*
X83680952Y60125750D01*
X84930952Y60125750D01*
X84930952Y59725750D01*
G36*
X84930952Y59725750D02*
G01*
X83680952Y59725750D01*
X83680952Y60125750D01*
X84930952Y60125750D01*
X84930952Y59725750D01*
G37*
X84930952Y59225750D02*
X83680952Y59225750D01*
X83680952Y59625750D01*
X84930952Y59625750D01*
X84930952Y59225750D01*
G36*
X84930952Y59225750D02*
G01*
X83680952Y59225750D01*
X83680952Y59625750D01*
X84930952Y59625750D01*
X84930952Y59225750D01*
G37*
X84930952Y58725750D02*
X83680952Y58725750D01*
X83680952Y59125750D01*
X84930952Y59125750D01*
X84930952Y58725750D01*
G36*
X84930952Y58725750D02*
G01*
X83680952Y58725750D01*
X83680952Y59125750D01*
X84930952Y59125750D01*
X84930952Y58725750D01*
G37*
X84930952Y58225750D02*
X83680952Y58225750D01*
X83680952Y58625750D01*
X84930952Y58625750D01*
X84930952Y58225750D01*
G36*
X84930952Y58225750D02*
G01*
X83680952Y58225750D01*
X83680952Y58625750D01*
X84930952Y58625750D01*
X84930952Y58225750D01*
G37*
X84930952Y57725750D02*
X83680952Y57725750D01*
X83680952Y58125750D01*
X84930952Y58125750D01*
X84930952Y57725750D01*
G36*
X84930952Y57725750D02*
G01*
X83680952Y57725750D01*
X83680952Y58125750D01*
X84930952Y58125750D01*
X84930952Y57725750D01*
G37*
X84930952Y57225750D02*
X83680952Y57225750D01*
X83680952Y57625750D01*
X84930952Y57625750D01*
X84930952Y57225750D01*
G36*
X84930952Y57225750D02*
G01*
X83680952Y57225750D01*
X83680952Y57625750D01*
X84930952Y57625750D01*
X84930952Y57225750D01*
G37*
X84930952Y56725750D02*
X83680952Y56725750D01*
X83680952Y57125750D01*
X84930952Y57125750D01*
X84930952Y56725750D01*
G36*
X84930952Y56725750D02*
G01*
X83680952Y56725750D01*
X83680952Y57125750D01*
X84930952Y57125750D01*
X84930952Y56725750D01*
G37*
X84930952Y55925750D02*
X83680952Y55925750D01*
X83680952Y56625750D01*
X84930952Y56625750D01*
X84930952Y55925750D01*
G36*
X84930952Y55925750D02*
G01*
X83680952Y55925750D01*
X83680952Y56625750D01*
X84930952Y56625750D01*
X84930952Y55925750D01*
G37*
X84930952Y55125750D02*
X83680952Y55125750D01*
X83680952Y55825750D01*
X84930952Y55825750D01*
X84930952Y55125750D01*
G36*
X84930952Y55125750D02*
G01*
X83680952Y55125750D01*
X83680952Y55825750D01*
X84930952Y55825750D01*
X84930952Y55125750D01*
G37*
%TD*%
D11*
%TO.C,CR1*%
X83353452Y42213600D03*
X83353452Y46213600D03*
%TD*%
D12*
%TO.C,J2*%
X19483452Y55795000D03*
X18383452Y55795000D03*
X17283452Y55795000D03*
X16183452Y55795000D03*
X15083452Y55795000D03*
X13983452Y55795000D03*
X12883452Y55795000D03*
X11783452Y55795000D03*
D13*
X21383452Y55795000D03*
D14*
X9983452Y59995000D03*
D15*
X9983452Y69795000D03*
D16*
X9983452Y66195000D03*
D17*
X10833452Y55695000D03*
%TD*%
D18*
%TO.C,FL1*%
X86513452Y47380000D03*
X86513452Y45910000D03*
%TD*%
D19*
%TO.C,R26*%
X59843452Y47575000D03*
X59843452Y49225000D03*
%TD*%
D20*
%TO.C,R11*%
X82331452Y20590000D03*
X80681452Y20590000D03*
%TD*%
D21*
%TO.C,J4*%
X6553453Y33185001D03*
X6553453Y34435001D03*
X6553453Y35685001D03*
X6553453Y36935001D03*
X6553453Y38185001D03*
X6553453Y39435001D03*
X6553453Y40685001D03*
X6553453Y41935001D03*
X6553453Y43185001D03*
X6553453Y44435001D03*
X6553453Y45685001D03*
D22*
X3203452Y31335002D03*
X3203452Y47535000D03*
%TD*%
D23*
%TO.C,LED5*%
X21424452Y22800000D03*
D24*
X19138452Y22800000D03*
%TD*%
D25*
%TO.C,C8*%
X16443452Y35665000D03*
X17993452Y35665000D03*
%TD*%
D26*
%TO.C,C1*%
X15029452Y52940000D03*
X13479452Y52940000D03*
%TD*%
D25*
%TO.C,C5*%
X49308452Y35545000D03*
X50858452Y35545000D03*
%TD*%
D19*
%TO.C,R32*%
X74083452Y47895000D03*
X74083452Y49545000D03*
%TD*%
%TO.C,R22*%
X65575452Y26567800D03*
X65575452Y28217800D03*
%TD*%
D25*
%TO.C,C3*%
X86323452Y39675000D03*
X87873452Y39675000D03*
%TD*%
D19*
%TO.C,R10*%
X26273452Y46710000D03*
X26273452Y48360000D03*
%TD*%
D27*
%TO.C,SW6*%
X68813452Y27225000D03*
D28*
X68813452Y20725000D03*
X73313452Y27225000D03*
X73313452Y20725000D03*
X73763452Y23975000D03*
X68363452Y23975000D03*
%TD*%
D20*
%TO.C,R15*%
X82316452Y18920000D03*
X80666452Y18920000D03*
%TD*%
D29*
%TO.C,U4*%
X58303452Y69045000D03*
X58303452Y67775000D03*
X58303452Y66505000D03*
X58303452Y65235000D03*
X58303452Y63965000D03*
X58303452Y62695000D03*
X58303452Y61425000D03*
X58303452Y60155000D03*
X58303452Y58885000D03*
X58303452Y57615000D03*
X58303452Y56345000D03*
X58303452Y55075000D03*
X58303452Y53805000D03*
X58303452Y52535000D03*
D30*
X60068452Y51285000D03*
X61338452Y51285000D03*
X62608452Y51285000D03*
X63878452Y51285000D03*
X65148452Y51285000D03*
X66418452Y51285000D03*
X67688452Y51285000D03*
X68958452Y51285000D03*
X70228452Y51285000D03*
X71498452Y51285000D03*
X72768452Y51285000D03*
X74038452Y51285000D03*
D29*
X75803452Y52535000D03*
X75803452Y53805000D03*
X75803452Y55075000D03*
X75803452Y56345000D03*
X75803452Y57615000D03*
X75803452Y58885000D03*
X75803452Y60155000D03*
X75803452Y61425000D03*
X75803452Y62695000D03*
X75803452Y63965000D03*
X75803452Y65235000D03*
X75803452Y66505000D03*
X75803452Y67775000D03*
X75803452Y69045000D03*
D31*
X64153452Y62025000D03*
X64153452Y60625000D03*
X64853452Y62725000D03*
X64853452Y61325000D03*
X64853452Y59925000D03*
X65553452Y62025000D03*
D32*
X65553452Y61325000D03*
D31*
X65553452Y60625000D03*
X66253452Y62725000D03*
X66253452Y61325000D03*
X66253452Y59925000D03*
X66953452Y62025000D03*
X66953452Y60625000D03*
%TD*%
D33*
%TO.C,C16*%
X54763452Y67745000D03*
X54763452Y69295000D03*
%TD*%
D25*
%TO.C,C4*%
X86323452Y41215000D03*
X87873452Y41215000D03*
%TD*%
D20*
%TO.C,R25*%
X19168452Y19655000D03*
X17518452Y19655000D03*
%TD*%
D23*
%TO.C,LED3*%
X37734452Y22580000D03*
D24*
X35448452Y22580000D03*
%TD*%
D26*
%TO.C,C11*%
X82316452Y29360000D03*
X80766452Y29360000D03*
%TD*%
D34*
%TO.C,R4*%
X19914452Y53035000D03*
X19914452Y51385000D03*
%TD*%
D35*
%TO.C,R13*%
X16393452Y37205000D03*
X18043452Y37205000D03*
%TD*%
D26*
%TO.C,C10*%
X82256452Y17230000D03*
X80706452Y17230000D03*
%TD*%
D36*
%TO.C,H6*%
X85748452Y69010000D03*
X86231726Y70176726D03*
X86231726Y67843274D03*
X87398452Y70660000D03*
D37*
X87398452Y69010000D03*
D36*
X87398452Y67360000D03*
X88565178Y70176726D03*
X88565178Y67843274D03*
X89048452Y69010000D03*
%TD*%
D38*
%TO.C,U1*%
X79513452Y61217500D03*
X80463452Y61217500D03*
X81413452Y61217500D03*
X81413452Y63492500D03*
X80463452Y63492500D03*
X79513452Y63492500D03*
%TD*%
D39*
%TO.C,U3*%
X56372852Y45475000D03*
X56372852Y46745000D03*
X56372852Y48015000D03*
X56372852Y49285000D03*
X50581652Y49285000D03*
X50581652Y48015000D03*
X50581652Y46745000D03*
X50581652Y45475000D03*
D40*
X53477252Y47380000D03*
%TD*%
D20*
%TO.C,R23*%
X35428452Y3075000D03*
X33778452Y3075000D03*
%TD*%
D41*
%TO.C,SW7*%
X42673452Y65035000D03*
X49173452Y65035000D03*
X42673452Y60535000D03*
X49173452Y60535000D03*
%TD*%
D42*
%TO.C,SW4*%
X31773452Y11130000D03*
D43*
X36853452Y11130000D03*
D42*
X41933452Y11130000D03*
D44*
X33043452Y13670000D03*
X39393452Y16210000D03*
%TD*%
D45*
%TO.C,F1*%
X83459452Y49915000D03*
X86507452Y49915000D03*
%TD*%
D20*
%TO.C,R19*%
X33038452Y35765000D03*
X31388452Y35765000D03*
%TD*%
D36*
%TO.C,H2*%
X1465000Y3380000D03*
X1948274Y4546726D03*
X1948274Y2213274D03*
X3115000Y5030000D03*
D37*
X3115000Y3380000D03*
D36*
X3115000Y1730000D03*
X4281726Y4546726D03*
X4281726Y2213274D03*
X4765000Y3380000D03*
%TD*%
D42*
%TO.C,SW5*%
X31768452Y27650000D03*
D43*
X36848452Y27650000D03*
D42*
X41928452Y27650000D03*
D44*
X33038452Y30190000D03*
X39388452Y32730000D03*
%TD*%
D20*
%TO.C,R24*%
X65720452Y24642800D03*
X64070452Y24642800D03*
%TD*%
D34*
%TO.C,R5*%
X17864452Y53020000D03*
X17864452Y51370000D03*
%TD*%
D26*
%TO.C,C17*%
X36190652Y67465000D03*
X34640652Y67465000D03*
%TD*%
D41*
%TO.C,SW8*%
X32413452Y65035000D03*
X38913452Y65035000D03*
X32413452Y60535000D03*
X38913452Y60535000D03*
%TD*%
D35*
%TO.C,R27*%
X37725652Y67445000D03*
X39375652Y67445000D03*
%TD*%
D34*
%TO.C,R3*%
X21974452Y53055000D03*
X21974452Y51405000D03*
%TD*%
D19*
%TO.C,R18*%
X28693452Y38990000D03*
X28693452Y40640000D03*
%TD*%
D20*
%TO.C,R16*%
X82376452Y27760000D03*
X80726452Y27760000D03*
%TD*%
D36*
%TO.C,J1*%
X85380952Y55785750D03*
X85380952Y61565750D03*
D46*
X84880952Y53555750D03*
X84880952Y63795750D03*
X88810952Y53555750D03*
X88810952Y63795750D03*
%TD*%
D33*
%TO.C,C7*%
X82266452Y22325000D03*
X82266452Y23875000D03*
%TD*%
D36*
%TO.C,H7*%
X85310178Y3251726D03*
X85793452Y4418452D03*
X85793452Y2085000D03*
X86960178Y4901726D03*
D37*
X86960178Y3251726D03*
D36*
X86960178Y1601726D03*
X88126904Y4418452D03*
X88126904Y2085000D03*
X88610178Y3251726D03*
%TD*%
D26*
%TO.C,C2*%
X15029452Y51220000D03*
X13479452Y51220000D03*
%TD*%
D20*
%TO.C,R20*%
X28958452Y19605000D03*
X27308452Y19605000D03*
%TD*%
D33*
%TO.C,C14*%
X65708452Y20730000D03*
X65708452Y22280000D03*
%TD*%
D36*
%TO.C,H1*%
X1946726Y69051726D03*
X2430000Y70218452D03*
X2430000Y67885000D03*
X3596726Y70701726D03*
D37*
X3596726Y69051726D03*
D36*
X3596726Y67401726D03*
X4763452Y70218452D03*
X4763452Y67885000D03*
X5246726Y69051726D03*
%TD*%
D33*
%TO.C,C6*%
X27903452Y46760000D03*
X27903452Y48310000D03*
%TD*%
D23*
%TO.C,LED2*%
X37894452Y39000000D03*
D24*
X35608452Y39000000D03*
%TD*%
D23*
%TO.C,LED4*%
X37679752Y6270000D03*
D24*
X35393752Y6270000D03*
%TD*%
D19*
%TO.C,R31*%
X61373452Y47565000D03*
X61373452Y49215000D03*
%TD*%
D25*
%TO.C,C12*%
X34498452Y35755000D03*
X36048452Y35755000D03*
%TD*%
D42*
%TO.C,SW3*%
X15238452Y27670000D03*
D43*
X20318452Y27670000D03*
D42*
X25398452Y27670000D03*
D44*
X16508452Y30210000D03*
X22858452Y32750000D03*
%TD*%
D23*
%TO.C,LED1*%
X54078452Y22810000D03*
D24*
X51792452Y22810000D03*
%TD*%
D35*
%TO.C,R30*%
X51669452Y67810000D03*
X53319452Y67810000D03*
%TD*%
D42*
%TO.C,SW2*%
X31768452Y43910000D03*
D43*
X36848452Y43910000D03*
D42*
X41928452Y43910000D03*
D44*
X33038452Y46450000D03*
X39388452Y48990000D03*
%TD*%
D25*
%TO.C,C19*%
X48160652Y67585000D03*
X49710652Y67585000D03*
%TD*%
D34*
%TO.C,R14*%
X25833452Y13790000D03*
X25833452Y12140000D03*
%TD*%
D35*
%TO.C,R9*%
X49258452Y37145000D03*
X50908452Y37145000D03*
%TD*%
%TO.C,R17*%
X51798452Y19595000D03*
X53448452Y19595000D03*
%TD*%
D47*
%TO.C,C9*%
X27423452Y13740000D03*
X27423452Y12190000D03*
%TD*%
D42*
%TO.C,SW1*%
X48028452Y27650000D03*
D43*
X53108452Y27650000D03*
D42*
X58188452Y27650000D03*
D44*
X49298452Y30190000D03*
X55648452Y32730000D03*
%TD*%
D20*
%TO.C,R29*%
X46615652Y67595000D03*
X44965652Y67595000D03*
%TD*%
D34*
%TO.C,R2*%
X9584452Y52925000D03*
X9584452Y51275000D03*
%TD*%
D48*
%TO.C,U2*%
X86323452Y33445000D03*
X86323452Y35745000D03*
X86323452Y38045000D03*
D49*
X80523452Y35745000D03*
%TD*%
D20*
%TO.C,R34*%
X15059452Y49600000D03*
X13409452Y49600000D03*
%TD*%
D34*
%TO.C,R1*%
X11414452Y52920000D03*
X11414452Y51270000D03*
%TD*%
D50*
%TO.C,MT1*%
X86683452Y20595000D03*
D51*
X86683452Y25595000D03*
X86683452Y23095000D03*
X84183452Y20595000D03*
X84183452Y25595000D03*
D52*
X86683452Y17695000D03*
X86683452Y28495000D03*
%TD*%
D33*
%TO.C,C18*%
X56363452Y67745000D03*
X56363452Y69295000D03*
%TD*%
D20*
%TO.C,R35*%
X10169452Y45670000D03*
X8519452Y45670000D03*
%TD*%
M02*
