%TF.GenerationSoftware,KiCad,Pcbnew,9.0.6*%
%TF.CreationDate,2026-02-15T13:38:13+05:30*%
%TF.ProjectId,PC_Interface_Card,50435f49-6e74-4657-9266-6163655f4361,rev?*%
%TF.SameCoordinates,Original*%
%TF.FileFunction,Paste,Top*%
%TF.FilePolarity,Positive*%
%FSLAX46Y46*%
G04 Gerber Fmt 4.6, Leading zero omitted, Abs format (unit mm)*
G04 Created by KiCad (PCBNEW 9.0.6) date 2026-02-15 13:38:13*
%MOMM*%
%LPD*%
G01*
G04 APERTURE LIST*
G04 Aperture macros list*
%AMRoundRect*
0 Rectangle with rounded corners*
0 $1 Rounding radius*
0 $2 $3 $4 $5 $6 $7 $8 $9 X,Y pos of 4 corners*
0 Add a 4 corners polygon primitive as box body*
4,1,4,$2,$3,$4,$5,$6,$7,$8,$9,$2,$3,0*
0 Add four circle primitives for the rounded corners*
1,1,$1+$1,$2,$3*
1,1,$1+$1,$4,$5*
1,1,$1+$1,$6,$7*
1,1,$1+$1,$8,$9*
0 Add four rect primitives between the rounded corners*
20,1,$1+$1,$2,$3,$4,$5,0*
20,1,$1+$1,$4,$5,$6,$7,0*
20,1,$1+$1,$6,$7,$8,$9,0*
20,1,$1+$1,$8,$9,$2,$3,0*%
G04 Aperture macros list end*
%ADD10C,0.010000*%
%ADD11C,0.000000*%
%ADD12R,0.700000X1.400000*%
%ADD13R,1.000000X1.400000*%
%ADD14R,1.200000X1.200000*%
%ADD15R,1.200000X3.200000*%
%ADD16R,1.200000X0.800000*%
%ADD17R,0.700000X1.200000*%
%ADD18R,0.970000X1.000000*%
%ADD19RoundRect,0.200000X0.275000X-0.200000X0.275000X0.200000X-0.275000X0.200000X-0.275000X-0.200000X0*%
%ADD20RoundRect,0.200000X0.200000X0.275000X-0.200000X0.275000X-0.200000X-0.275000X0.200000X-0.275000X0*%
%ADD21R,1.700000X0.650000*%
%ADD22R,2.899999X1.100000*%
%ADD23R,2.362200X2.159000*%
%ADD24R,1.295400X2.159000*%
%ADD25RoundRect,0.225000X-0.225000X-0.250000X0.225000X-0.250000X0.225000X0.250000X-0.225000X0.250000X0*%
%ADD26RoundRect,0.225000X0.225000X0.250000X-0.225000X0.250000X-0.225000X-0.250000X0.225000X-0.250000X0*%
%ADD27R,1.701800X2.184400*%
%ADD28R,0.900000X0.900000*%
%ADD29R,1.500000X0.900000*%
%ADD30R,0.900000X1.500000*%
%ADD31RoundRect,0.225000X0.250000X-0.225000X0.250000X0.225000X-0.250000X0.225000X-0.250000X-0.225000X0*%
%ADD32RoundRect,0.200000X-0.275000X0.200000X-0.275000X-0.200000X0.275000X-0.200000X0.275000X0.200000X0*%
%ADD33RoundRect,0.200000X-0.200000X-0.275000X0.200000X-0.275000X0.200000X0.275000X-0.200000X0.275000X0*%
%ADD34RoundRect,0.150000X0.150000X-0.512500X0.150000X0.512500X-0.150000X0.512500X-0.150000X-0.512500X0*%
%ADD35R,1.117600X0.457200*%
%ADD36R,4.089400X4.191000*%
%ADD37R,1.473200X1.828800*%
%ADD38R,1.150000X0.600000*%
%ADD39R,1.150000X0.300000*%
%ADD40R,1.500000X1.500000*%
%ADD41RoundRect,0.225000X-0.250000X0.225000X-0.250000X-0.225000X0.250000X-0.225000X0.250000X0.225000X0*%
%ADD42R,2.150000X0.950000*%
%ADD43R,2.150000X3.250000*%
G04 APERTURE END LIST*
D10*
%TO.C,J2*%
X133079000Y-62395000D02*
X131579000Y-62395000D01*
X131579000Y-61145000D01*
X131429000Y-60995000D01*
X131079000Y-60995000D01*
X131079000Y-60495000D01*
X133079000Y-60495000D01*
X133079000Y-62395000D01*
G36*
X133079000Y-62395000D02*
G01*
X131579000Y-62395000D01*
X131579000Y-61145000D01*
X131429000Y-60995000D01*
X131079000Y-60995000D01*
X131079000Y-60495000D01*
X133079000Y-60495000D01*
X133079000Y-62395000D01*
G37*
D11*
%TO.C,U3*%
G36*
X161741234Y-84061500D02*
G01*
X160578100Y-84061500D01*
X160578100Y-82864500D01*
X161741234Y-82864500D01*
X161741234Y-84061500D01*
G37*
G36*
X161741234Y-85458500D02*
G01*
X160578100Y-85458500D01*
X160578100Y-84261500D01*
X161741234Y-84261500D01*
X161741234Y-85458500D01*
G37*
G36*
X161741234Y-86855500D02*
G01*
X160578100Y-86855500D01*
X160578100Y-85658500D01*
X161741234Y-85658500D01*
X161741234Y-86855500D01*
G37*
G36*
X163104367Y-84061500D02*
G01*
X161941233Y-84061500D01*
X161941233Y-82864500D01*
X163104367Y-82864500D01*
X163104367Y-84061500D01*
G37*
G36*
X163104367Y-85458500D02*
G01*
X161941233Y-85458500D01*
X161941233Y-84261500D01*
X163104367Y-84261500D01*
X163104367Y-85458500D01*
G37*
G36*
X163104367Y-86855500D02*
G01*
X161941233Y-86855500D01*
X161941233Y-85658500D01*
X163104367Y-85658500D01*
X163104367Y-86855500D01*
G37*
G36*
X164467500Y-84061500D02*
G01*
X163304366Y-84061500D01*
X163304366Y-82864500D01*
X164467500Y-82864500D01*
X164467500Y-84061500D01*
G37*
G36*
X164467500Y-85458500D02*
G01*
X163304366Y-85458500D01*
X163304366Y-84261500D01*
X164467500Y-84261500D01*
X164467500Y-85458500D01*
G37*
G36*
X164467500Y-86855500D02*
G01*
X163304366Y-86855500D01*
X163304366Y-85658500D01*
X164467500Y-85658500D01*
X164467500Y-86855500D01*
G37*
%TD*%
D12*
%TO.C,J2*%
X128529000Y-76445000D03*
X127429000Y-76445000D03*
X126329000Y-76445000D03*
X125229000Y-76445000D03*
X124129000Y-76445000D03*
X123029000Y-76445000D03*
X121929000Y-76445000D03*
X120829000Y-76445000D03*
D13*
X130429000Y-76445000D03*
D14*
X119029000Y-72245000D03*
D15*
X119029000Y-62445000D03*
D16*
X119029000Y-66045000D03*
D17*
X119879000Y-76545000D03*
%TD*%
D18*
%TO.C,FL1*%
X195559000Y-84860000D03*
X195559000Y-86330000D03*
%TD*%
D19*
%TO.C,R26*%
X168889000Y-84665000D03*
X168889000Y-83015000D03*
%TD*%
D20*
%TO.C,R11*%
X191377000Y-111650000D03*
X189727000Y-111650000D03*
%TD*%
D21*
%TO.C,J4*%
X115599001Y-99054999D03*
X115599001Y-97804999D03*
X115599001Y-96554999D03*
X115599001Y-95304999D03*
X115599001Y-94054999D03*
X115599001Y-92804999D03*
X115599001Y-91554999D03*
X115599001Y-90304999D03*
X115599001Y-89054999D03*
X115599001Y-87804999D03*
X115599001Y-86554999D03*
D22*
X112249000Y-100904998D03*
X112249000Y-84705000D03*
%TD*%
D23*
%TO.C,LED5*%
X130470000Y-109440000D03*
D24*
X128184000Y-109440000D03*
%TD*%
D25*
%TO.C,C8*%
X125489000Y-96575000D03*
X127039000Y-96575000D03*
%TD*%
D26*
%TO.C,C1*%
X124075000Y-79300000D03*
X122525000Y-79300000D03*
%TD*%
D25*
%TO.C,C5*%
X158354000Y-96695000D03*
X159904000Y-96695000D03*
%TD*%
D19*
%TO.C,R32*%
X183129000Y-84345000D03*
X183129000Y-82695000D03*
%TD*%
%TO.C,R22*%
X174621000Y-105672200D03*
X174621000Y-104022200D03*
%TD*%
D25*
%TO.C,C3*%
X195369000Y-92565000D03*
X196919000Y-92565000D03*
%TD*%
D27*
%TO.C,CR1*%
X192399000Y-90287000D03*
X192399000Y-85765800D03*
%TD*%
D19*
%TO.C,R10*%
X135319000Y-85530000D03*
X135319000Y-83880000D03*
%TD*%
D20*
%TO.C,R15*%
X191362000Y-113320000D03*
X189712000Y-113320000D03*
%TD*%
D28*
%TO.C,U4*%
X173194606Y-72315000D03*
X173199000Y-69515000D03*
X173199000Y-70915000D03*
X174594606Y-72315000D03*
X174599000Y-69515000D03*
X174599000Y-70915000D03*
X175994606Y-72315000D03*
X175999000Y-69515000D03*
X175999000Y-70915000D03*
D29*
X167349000Y-63195000D03*
X167349000Y-64465000D03*
X167349000Y-65735000D03*
X167349000Y-67005000D03*
X167349000Y-68275000D03*
X167349000Y-69545000D03*
X167349000Y-70815000D03*
X167349000Y-72085000D03*
X167349000Y-73355000D03*
X167349000Y-74625000D03*
X167349000Y-75895000D03*
X167349000Y-77165000D03*
X167349000Y-78435000D03*
X167349000Y-79705000D03*
D30*
X169114000Y-80955000D03*
X170384000Y-80955000D03*
X171654000Y-80955000D03*
X172924000Y-80955000D03*
X174194000Y-80955000D03*
X175464000Y-80955000D03*
X176734000Y-80955000D03*
X178004000Y-80955000D03*
X179274000Y-80955000D03*
X180544000Y-80955000D03*
X181814000Y-80955000D03*
X183084000Y-80955000D03*
D29*
X184849000Y-79705000D03*
X184849000Y-78435000D03*
X184849000Y-77165000D03*
X184849000Y-75895000D03*
X184849000Y-74625000D03*
X184849000Y-73355000D03*
X184849000Y-72085000D03*
X184849000Y-70815000D03*
X184849000Y-69545000D03*
X184849000Y-68275000D03*
X184849000Y-67005000D03*
X184849000Y-65735000D03*
X184849000Y-64465000D03*
X184849000Y-63195000D03*
%TD*%
D31*
%TO.C,C16*%
X163809000Y-64495000D03*
X163809000Y-62945000D03*
%TD*%
D25*
%TO.C,C4*%
X195369000Y-91025000D03*
X196919000Y-91025000D03*
%TD*%
D20*
%TO.C,R25*%
X128214000Y-112585000D03*
X126564000Y-112585000D03*
%TD*%
D23*
%TO.C,LED3*%
X146780000Y-109660000D03*
D24*
X144494000Y-109660000D03*
%TD*%
D26*
%TO.C,C11*%
X191362000Y-102880000D03*
X189812000Y-102880000D03*
%TD*%
D32*
%TO.C,R4*%
X128960000Y-79205000D03*
X128960000Y-80855000D03*
%TD*%
D33*
%TO.C,R13*%
X125439000Y-95035000D03*
X127089000Y-95035000D03*
%TD*%
D26*
%TO.C,C10*%
X191302000Y-115010000D03*
X189752000Y-115010000D03*
%TD*%
D34*
%TO.C,U1*%
X188559000Y-71022500D03*
X189509000Y-71022500D03*
X190459000Y-71022500D03*
X190459000Y-68747500D03*
X189509000Y-68747500D03*
X188559000Y-68747500D03*
%TD*%
D35*
%TO.C,U3*%
X165418400Y-86765000D03*
X165418400Y-85495000D03*
X165418400Y-84225000D03*
X165418400Y-82955000D03*
X159627200Y-82955000D03*
X159627200Y-84225000D03*
X159627200Y-85495000D03*
X159627200Y-86765000D03*
D36*
X162522800Y-84860000D03*
%TD*%
D20*
%TO.C,R23*%
X144474000Y-129165000D03*
X142824000Y-129165000D03*
%TD*%
D37*
%TO.C,F1*%
X192505000Y-82325000D03*
X195553000Y-82325000D03*
%TD*%
D20*
%TO.C,R19*%
X142084000Y-96475000D03*
X140434000Y-96475000D03*
%TD*%
%TO.C,R24*%
X174766000Y-107597200D03*
X173116000Y-107597200D03*
%TD*%
D32*
%TO.C,R5*%
X126910000Y-79220000D03*
X126910000Y-80870000D03*
%TD*%
D26*
%TO.C,C17*%
X145236200Y-64775000D03*
X143686200Y-64775000D03*
%TD*%
D33*
%TO.C,R27*%
X146771200Y-64795000D03*
X148421200Y-64795000D03*
%TD*%
D32*
%TO.C,R3*%
X131020000Y-79185000D03*
X131020000Y-80835000D03*
%TD*%
D19*
%TO.C,R18*%
X137739000Y-93250000D03*
X137739000Y-91600000D03*
%TD*%
D20*
%TO.C,R16*%
X191422000Y-104480000D03*
X189772000Y-104480000D03*
%TD*%
D38*
%TO.C,J1*%
X193351500Y-76764250D03*
X193351500Y-75964250D03*
D39*
X193351500Y-74814250D03*
X193351500Y-73814250D03*
X193351500Y-73314250D03*
X193351500Y-72314250D03*
D38*
X193351500Y-70364250D03*
X193351500Y-71164250D03*
D39*
X193351500Y-71814250D03*
X193351500Y-72814250D03*
X193351500Y-74314250D03*
X193351500Y-75314250D03*
D40*
X193926500Y-78684250D03*
X193926500Y-68444250D03*
X197856500Y-78684250D03*
X197856500Y-68444250D03*
%TD*%
D31*
%TO.C,C7*%
X191312000Y-109915000D03*
X191312000Y-108365000D03*
%TD*%
D26*
%TO.C,C2*%
X124075000Y-81020000D03*
X122525000Y-81020000D03*
%TD*%
D20*
%TO.C,R20*%
X138004000Y-112635000D03*
X136354000Y-112635000D03*
%TD*%
D31*
%TO.C,C14*%
X174754000Y-111510000D03*
X174754000Y-109960000D03*
%TD*%
%TO.C,C6*%
X136949000Y-85480000D03*
X136949000Y-83930000D03*
%TD*%
D23*
%TO.C,LED2*%
X146940000Y-93240000D03*
D24*
X144654000Y-93240000D03*
%TD*%
D23*
%TO.C,LED4*%
X146725300Y-125970000D03*
D24*
X144439300Y-125970000D03*
%TD*%
D19*
%TO.C,R31*%
X170419000Y-84675000D03*
X170419000Y-83025000D03*
%TD*%
D25*
%TO.C,C12*%
X143544000Y-96485000D03*
X145094000Y-96485000D03*
%TD*%
D23*
%TO.C,LED1*%
X163124000Y-109430000D03*
D24*
X160838000Y-109430000D03*
%TD*%
D33*
%TO.C,R30*%
X160715000Y-64430000D03*
X162365000Y-64430000D03*
%TD*%
D25*
%TO.C,C19*%
X157206200Y-64655000D03*
X158756200Y-64655000D03*
%TD*%
D32*
%TO.C,R14*%
X134879000Y-118450000D03*
X134879000Y-120100000D03*
%TD*%
D33*
%TO.C,R9*%
X158304000Y-95095000D03*
X159954000Y-95095000D03*
%TD*%
%TO.C,R17*%
X160844000Y-112645000D03*
X162494000Y-112645000D03*
%TD*%
D41*
%TO.C,C9*%
X136469000Y-118500000D03*
X136469000Y-120050000D03*
%TD*%
D20*
%TO.C,R29*%
X155661200Y-64645000D03*
X154011200Y-64645000D03*
%TD*%
D32*
%TO.C,R2*%
X118630000Y-79315000D03*
X118630000Y-80965000D03*
%TD*%
D42*
%TO.C,U2*%
X195369000Y-98795000D03*
X195369000Y-96495000D03*
X195369000Y-94195000D03*
D43*
X189569000Y-96495000D03*
%TD*%
D20*
%TO.C,R34*%
X124105000Y-82640000D03*
X122455000Y-82640000D03*
%TD*%
D32*
%TO.C,R1*%
X120460000Y-79320000D03*
X120460000Y-80970000D03*
%TD*%
D31*
%TO.C,C18*%
X165409000Y-64495000D03*
X165409000Y-62945000D03*
%TD*%
D20*
%TO.C,R35*%
X119215000Y-86570000D03*
X117565000Y-86570000D03*
%TD*%
M02*
