M48
; DRILL file {KiCad 9.0.6} date 2026-02-15T13:38:08+0530
; FORMAT={-:-/ absolute / metric / decimal}
; #@! TF.CreationDate,2026-02-15T13:38:08+05:30
; #@! TF.GenerationSoftware,Kicad,Pcbnew,9.0.6
; #@! TF.FileFunction,Plated,1,2,PTH
FMAT,2
METRIC
; #@! TA.AperFunction,Plated,PTH,ComponentDrill
T1C0.200
; #@! TA.AperFunction,Plated,PTH,ViaDrill
T2C0.254
; #@! TA.AperFunction,Plated,PTH,ViaDrill
T3C0.300
; #@! TA.AperFunction,Plated,PTH,ComponentDrill
T4C0.400
; #@! TA.AperFunction,Plated,PTH,ComponentDrill
T5C1.000
; #@! TA.AperFunction,Plated,PTH,ComponentDrill
T6C1.100
; #@! TA.AperFunction,Plated,PTH,ComponentDrill
T7C1.500
; #@! TA.AperFunction,Plated,PTH,ComponentDrill
T8C1.800
; #@! TA.AperFunction,Plated,PTH,ComponentDrill
T9C2.200
%
G90
G05
T1
X173.199Y-70.215
X173.199Y-71.615
X173.899Y-69.515
X173.899Y-70.915
X173.899Y-72.315
X174.599Y-70.215
X174.599Y-71.615
X175.299Y-69.515
X175.299Y-70.915
X175.299Y-72.315
X175.999Y-70.215
X175.999Y-71.615
T2
X189.509Y-68.748
X191.79Y-69.93
X192.51Y-80.34
T3
X182.48Y-83.58
T4
X110.511Y-128.86
X110.992Y-63.188
X110.994Y-127.693
X110.994Y-130.027
X111.476Y-62.022
X111.476Y-64.355
X112.161Y-127.21
X112.161Y-130.51
X112.642Y-61.538
X112.642Y-64.838
X113.327Y-127.693
X113.327Y-130.027
X113.809Y-62.022
X113.809Y-64.355
X113.811Y-128.86
X114.292Y-63.188
X194.356Y-128.988
X194.794Y-63.23
X194.839Y-127.822
X194.839Y-130.155
X195.277Y-62.063
X195.277Y-64.397
X196.006Y-127.338
X196.006Y-130.638
X196.444Y-61.58
X196.444Y-64.88
X197.172Y-127.822
X197.172Y-130.155
X197.611Y-62.063
X197.611Y-64.397
X197.656Y-128.988
X198.094Y-63.23
T5
X177.409Y-108.265
X177.859Y-105.015
X177.859Y-111.515
X182.359Y-105.015
X182.359Y-111.515
X182.809Y-108.265
X193.229Y-106.645
X193.229Y-111.645
X195.729Y-106.645
X195.729Y-109.145
X195.729Y-111.645
T6
X141.459Y-67.205
X141.459Y-71.705
X147.959Y-67.205
X147.959Y-71.705
X151.719Y-67.205
X151.719Y-71.705
X158.219Y-67.205
X158.219Y-71.705
T7
X125.554Y-102.03
X131.904Y-99.49
X142.084Y-85.79
X142.084Y-102.05
X142.089Y-118.57
X148.434Y-83.25
X148.434Y-99.51
X148.439Y-116.03
X158.344Y-102.05
X164.694Y-99.51
T9
X112.161Y-128.86
X112.642Y-63.188
X196.006Y-128.988
X196.444Y-63.23
T8
G00X195.579Y-103.745
M15
G01X195.879Y-103.745
M16
G05
G00X195.579Y-114.545
M15
G01X195.879Y-114.545
M16
G05
M30
