%TF.GenerationSoftware,KiCad,Pcbnew,10.0.0*%
%TF.CreationDate,2026-04-22T04:48:58+05:30*%
%TF.ProjectId,PC_Interface_Card,50435f49-6e74-4657-9266-6163655f4361,rev?*%
%TF.SameCoordinates,PX67fe72cPY7e1d280*%
%TF.FileFunction,Copper,L2,Bot*%
%TF.FilePolarity,Positive*%
%FSLAX46Y46*%
G04 Gerber Fmt 4.6, Leading zero omitted, Abs format (unit mm)*
G04 Created by KiCad (PCBNEW 10.0.0) date 2026-04-22 04:48:58*
%MOMM*%
%LPD*%
G01*
G04 APERTURE LIST*
G04 Aperture macros list*
%AMRoundRect*
0 Rectangle with rounded corners*
0 $1 Rounding radius*
0 $2 $3 $4 $5 $6 $7 $8 $9 X,Y pos of 4 corners*
0 Add a 4 corners polygon primitive as box body*
4,1,4,$2,$3,$4,$5,$6,$7,$8,$9,$2,$3,0*
0 Add four circle primitives for the rounded corners*
1,1,$1+$1,$2,$3*
1,1,$1+$1,$4,$5*
1,1,$1+$1,$6,$7*
1,1,$1+$1,$8,$9*
0 Add four rect primitives between the rounded corners*
20,1,$1+$1,$2,$3,$4,$5,0*
20,1,$1+$1,$4,$5,$6,$7,0*
20,1,$1+$1,$6,$7,$8,$9,0*
20,1,$1+$1,$8,$9,$2,$3,0*%
G04 Aperture macros list end*
%TA.AperFunction,ComponentPad*%
%ADD10R,1.500000X1.500000*%
%TD*%
%TA.AperFunction,ComponentPad*%
%ADD11C,1.500000*%
%TD*%
%TA.AperFunction,HeatsinkPad*%
%ADD12C,0.600000*%
%TD*%
%TA.AperFunction,ComponentPad*%
%ADD13C,0.700000*%
%TD*%
%TA.AperFunction,ComponentPad*%
%ADD14C,4.400000*%
%TD*%
%TA.AperFunction,ComponentPad*%
%ADD15C,2.000000*%
%TD*%
%TA.AperFunction,ComponentPad*%
%ADD16C,2.200000*%
%TD*%
%TA.AperFunction,ComponentPad*%
%ADD17R,1.508000X1.508000*%
%TD*%
%TA.AperFunction,ComponentPad*%
%ADD18C,1.508000*%
%TD*%
%TA.AperFunction,ComponentPad*%
%ADD19O,3.450000X3.150000*%
%TD*%
%TA.AperFunction,SMDPad,CuDef*%
%ADD20RoundRect,0.200000X-0.275000X0.200000X-0.275000X-0.200000X0.275000X-0.200000X0.275000X0.200000X0*%
%TD*%
%TA.AperFunction,SMDPad,CuDef*%
%ADD21RoundRect,0.200000X-0.200000X-0.275000X0.200000X-0.275000X0.200000X0.275000X-0.200000X0.275000X0*%
%TD*%
%TA.AperFunction,SMDPad,CuDef*%
%ADD22RoundRect,0.200000X0.200000X0.275000X-0.200000X0.275000X-0.200000X-0.275000X0.200000X-0.275000X0*%
%TD*%
%TA.AperFunction,SMDPad,CuDef*%
%ADD23RoundRect,0.225000X-0.225000X-0.250000X0.225000X-0.250000X0.225000X0.250000X-0.225000X0.250000X0*%
%TD*%
%TA.AperFunction,ViaPad*%
%ADD24C,0.600000*%
%TD*%
%TA.AperFunction,Conductor*%
%ADD25C,0.254000*%
%TD*%
%TA.AperFunction,Conductor*%
%ADD26C,0.203200*%
%TD*%
%TA.AperFunction,Conductor*%
%ADD27C,0.508000*%
%TD*%
%TA.AperFunction,Conductor*%
%ADD28C,0.200000*%
%TD*%
G04 APERTURE END LIST*
D10*
%TO.P,SW6,1,1_1*%
%TO.N,SW_PLAY*%
X68813452Y27225000D03*
D11*
%TO.P,SW6,2,2_2*%
X68813452Y20725000D03*
%TO.P,SW6,3,3_3*%
%TO.N,GND*%
X73313452Y27225000D03*
%TO.P,SW6,4,4_4*%
X73313452Y20725000D03*
%TO.P,SW6,5,+_5*%
%TO.N,Net-(SW6-+)*%
X73763452Y23975000D03*
%TO.P,SW6,6,-_6*%
%TO.N,GND*%
X68363452Y23975000D03*
%TD*%
D12*
%TO.P,U4,41,GND_41*%
%TO.N,GND*%
X64153452Y62025000D03*
X64153452Y60625000D03*
X64853452Y62725000D03*
X64853452Y61325000D03*
X64853452Y59925000D03*
X65553452Y62025000D03*
X65553452Y60625000D03*
X66253452Y62725000D03*
X66253452Y61325000D03*
X66253452Y59925000D03*
X66953452Y62025000D03*
X66953452Y60625000D03*
%TD*%
D13*
%TO.P,H6,1,1_1*%
%TO.N,GND*%
X85748452Y69010000D03*
X86231726Y70176726D03*
X86231726Y67843274D03*
X87398452Y70660000D03*
D14*
X87398452Y69010000D03*
D13*
X87398452Y67360000D03*
X88565178Y70176726D03*
X88565178Y67843274D03*
X89048452Y69010000D03*
%TD*%
D15*
%TO.P,SW7,1,1_1*%
%TO.N,SW_BOOT*%
X42673452Y65035000D03*
X49173452Y65035000D03*
%TO.P,SW7,2,2_2*%
%TO.N,GND*%
X42673452Y60535000D03*
X49173452Y60535000D03*
%TD*%
D16*
%TO.P,SW4,1*%
%TO.N,SW_DN*%
X33043452Y13670000D03*
%TO.P,SW4,2*%
%TO.N,GND*%
X39393452Y16210000D03*
%TD*%
D13*
%TO.P,H2,1,1_1*%
%TO.N,GND*%
X1465000Y3380000D03*
X1948274Y4546726D03*
X1948274Y2213274D03*
X3115000Y5030000D03*
D14*
X3115000Y3380000D03*
D13*
X3115000Y1730000D03*
X4281726Y4546726D03*
X4281726Y2213274D03*
X4765000Y3380000D03*
%TD*%
D16*
%TO.P,SW5,1*%
%TO.N,SW_MENU*%
X33038452Y30190000D03*
%TO.P,SW5,2*%
%TO.N,GND*%
X39388452Y32730000D03*
%TD*%
D15*
%TO.P,SW8,1,1_1*%
%TO.N,SW_EN*%
X32413452Y65035000D03*
X38913452Y65035000D03*
%TO.P,SW8,2,2_2*%
%TO.N,GND*%
X32413452Y60535000D03*
X38913452Y60535000D03*
%TD*%
D13*
%TO.P,H7,1,1_1*%
%TO.N,GND*%
X85310178Y3251726D03*
X85793452Y4418452D03*
X85793452Y2085000D03*
X86960178Y4901726D03*
D14*
X86960178Y3251726D03*
D13*
X86960178Y1601726D03*
X88126904Y4418452D03*
X88126904Y2085000D03*
X88610178Y3251726D03*
%TD*%
%TO.P,H1,1,1_1*%
%TO.N,GND*%
X1946726Y69051726D03*
X2430000Y70218452D03*
X2430000Y67885000D03*
X3596726Y70701726D03*
D14*
X3596726Y69051726D03*
D13*
X3596726Y67401726D03*
X4763452Y70218452D03*
X4763452Y67885000D03*
X5246726Y69051726D03*
%TD*%
D16*
%TO.P,SW3,1*%
%TO.N,SW_RIGHT*%
X16508452Y30210000D03*
%TO.P,SW3,2*%
%TO.N,GND*%
X22858452Y32750000D03*
%TD*%
%TO.P,SW2,1*%
%TO.N,SW_UP*%
X33038452Y46450000D03*
%TO.P,SW2,2*%
%TO.N,GND*%
X39388452Y48990000D03*
%TD*%
%TO.P,SW1,1*%
%TO.N,SW_LEFT*%
X49298452Y30190000D03*
%TO.P,SW1,2*%
%TO.N,GND*%
X55648452Y32730000D03*
%TD*%
D17*
%TO.P,MT1,A*%
%TO.N,ENC_A*%
X86683452Y20595000D03*
D18*
%TO.P,MT1,B*%
%TO.N,ENC_B*%
X86683452Y25595000D03*
%TO.P,MT1,C*%
%TO.N,GND*%
X86683452Y23095000D03*
%TO.P,MT1,D*%
%TO.N,ENC_SW*%
X84183452Y20595000D03*
%TO.P,MT1,E*%
%TO.N,GND*%
X84183452Y25595000D03*
D19*
%TO.P,MT1,SH1,SHIELD_SH1*%
X86683452Y17695000D03*
%TO.P,MT1,SH2,SHIELD__1_SH2*%
X86683452Y28495000D03*
%TD*%
D20*
%TO.P,R12,1*%
%TO.N,Net-(U3-\u002AWP)*%
X58354452Y47705000D03*
%TO.P,R12,2*%
%TO.N,3V3*%
X58354452Y46055000D03*
%TD*%
D21*
%TO.P,R28,1*%
%TO.N,FRAM_CS*%
X56404452Y43330000D03*
%TO.P,R28,2*%
%TO.N,3V3*%
X58054452Y43330000D03*
%TD*%
D22*
%TO.P,R6,1*%
%TO.N,CC1*%
X82658452Y57425000D03*
%TO.P,R6,2*%
%TO.N,GND*%
X81008452Y57425000D03*
%TD*%
D21*
%TO.P,R8,1*%
%TO.N,RST_DISP*%
X8419452Y36940000D03*
%TO.P,R8,2*%
%TO.N,3V3*%
X10069452Y36940000D03*
%TD*%
D20*
%TO.P,R33,1*%
%TO.N,Net-(U3-VDD)*%
X46954452Y46685000D03*
%TO.P,R33,2*%
%TO.N,3V3*%
X46954452Y45035000D03*
%TD*%
%TO.P,R21,1*%
%TO.N,Net-(U3-\u002ARESET)*%
X48544452Y46685000D03*
%TO.P,R21,2*%
%TO.N,3V3*%
X48544452Y45035000D03*
%TD*%
D23*
%TO.P,C13,1*%
%TO.N,Net-(U3-VDD)*%
X50611652Y43365000D03*
%TO.P,C13,2*%
%TO.N,GND*%
X52161652Y43365000D03*
%TD*%
%TO.P,C15,1*%
%TO.N,Net-(U3-VDD)*%
X50611652Y41785000D03*
%TO.P,C15,2*%
%TO.N,GND*%
X52161652Y41785000D03*
%TD*%
D22*
%TO.P,R7,1*%
%TO.N,CC2*%
X82648452Y60405000D03*
%TO.P,R7,2*%
%TO.N,GND*%
X80998452Y60405000D03*
%TD*%
D24*
%TO.N,GND*%
X74384452Y39770000D03*
X34404452Y17450000D03*
X20244452Y45720000D03*
X66424452Y36130000D03*
X13804452Y45620000D03*
X56164452Y58230000D03*
X84104452Y30660000D03*
X59843452Y47575000D03*
X62944452Y49470000D03*
X70474452Y67770000D03*
X69474452Y40930000D03*
X77434452Y48520000D03*
X40884452Y41550000D03*
X18554452Y44670000D03*
X12584452Y44670000D03*
X61984452Y43810000D03*
X74524452Y36220000D03*
X20244452Y44670000D03*
X74264452Y42990000D03*
X80463452Y61217500D03*
X31964452Y17450000D03*
X77314452Y56590000D03*
X74524452Y33580000D03*
X70694452Y33180000D03*
X42864452Y38000000D03*
X65024452Y44840000D03*
X80704452Y30780000D03*
X63284452Y55050000D03*
X70694452Y36130000D03*
X28974452Y42680000D03*
X8654452Y61180000D03*
X69724452Y39140000D03*
X33264452Y17450000D03*
X48894452Y41920000D03*
X83014452Y53450000D03*
X81174452Y25860000D03*
X75384452Y45290000D03*
X86134452Y58640000D03*
X28904452Y48890000D03*
X84880952Y63795750D03*
%TO.N,3V3*%
X39354452Y70450000D03*
X63284452Y38790000D03*
X78534452Y30470000D03*
X65494452Y31540000D03*
X25034452Y58930000D03*
X13734452Y48050000D03*
X26154452Y49560000D03*
X25854452Y3075000D03*
X43954452Y48040000D03*
X39375652Y67445000D03*
X60664452Y39990000D03*
X81024452Y32970000D03*
X22654452Y49840000D03*
X64024452Y21720000D03*
X78714452Y21200000D03*
X18054452Y38720000D03*
X44965652Y67595000D03*
X63269452Y37145000D03*
X78724320Y24609868D03*
X44994452Y70450000D03*
X10064452Y44260000D03*
X65494452Y29440000D03*
%TO.N,SW_UP*%
X61904452Y39840000D03*
%TO.N,SW_RIGHT*%
X67444320Y41600132D03*
X77134452Y57690000D03*
%TO.N,SW_DN*%
X77564452Y44270000D03*
X74204452Y61430000D03*
%TO.N,ENC_SW*%
X76326495Y41041332D03*
X76324452Y31500000D03*
X78929320Y56984868D03*
X77645652Y50230000D03*
%TO.N,SW_BOOT*%
X70924452Y53060000D03*
%TO.N,ENC_A*%
X70824452Y40910000D03*
%TO.N,ENC_B*%
X73454452Y46390000D03*
X75054452Y46390000D03*
X78854452Y46920000D03*
X71064584Y47429868D03*
%TO.N,VUSB*%
X82744452Y62310000D03*
X80463452Y63492500D03*
X83464452Y51900000D03*
%TO.N,CC1*%
X82658452Y57425000D03*
%TO.N,CC2*%
X82648452Y60405000D03*
%TO.N,SCLK*%
X48434452Y48030000D03*
X64824452Y48760000D03*
X11794452Y40680000D03*
X29524452Y48150000D03*
%TO.N,MISO*%
X67688452Y51285000D03*
X63319652Y46750000D03*
X22866052Y43190000D03*
%TO.N,RST_DISP*%
X8419452Y36940000D03*
%TO.N,MOSI*%
X22254452Y41935001D03*
X50914452Y50060000D03*
X65148452Y51285000D03*
%TO.N,D1_SDMMC*%
X25854452Y55390000D03*
X9574452Y53920000D03*
%TO.N,D0_SDMMC*%
X11404452Y54490000D03*
X24664452Y55480000D03*
%TO.N,PWM_DISP*%
X55734452Y51990000D03*
X62608452Y51285000D03*
%TO.N,Net-(U3-\u002AWP)*%
X58354452Y47705000D03*
%TO.N,Net-(U3-\u002ARESET)*%
X48544452Y46685000D03*
%TO.N,FRAM_CS*%
X56404452Y43330000D03*
%TO.N,SW_PLAY*%
X72794452Y58860000D03*
%TO.N,Net-(U3-VDD)*%
X50611652Y43365000D03*
X46954452Y46685000D03*
%TD*%
%TO.N,GND*%
D25*
X82169452Y61576000D02*
X83830452Y61576000D01*
X80998452Y60405000D02*
X82169452Y61576000D01*
X84880952Y62626500D02*
X84880952Y63795750D01*
X83830452Y61576000D02*
X84880952Y62626500D01*
X80998452Y60405000D02*
X80998452Y60682500D01*
X80998452Y60682500D02*
X80463452Y61217500D01*
%TO.N,3V3*%
D26*
X60169452Y46055000D02*
X60664452Y45560000D01*
D25*
X25864452Y49850000D02*
X22664452Y49850000D01*
X43954452Y48040000D02*
X45504452Y46490000D01*
D26*
X63284452Y38790000D02*
X63284452Y37160000D01*
D25*
X46954452Y45035000D02*
X46954452Y41350000D01*
X26274452Y58930000D02*
X25034452Y58930000D01*
X47454452Y40850000D02*
X57664452Y40850000D01*
D27*
X75684452Y20080000D02*
X73234452Y17630000D01*
X46954452Y45035000D02*
X48544452Y45035000D01*
D25*
X46954452Y41350000D02*
X47454452Y40850000D01*
D27*
X81024452Y32960000D02*
X78534452Y30470000D01*
D25*
X17374452Y47400000D02*
X18964452Y48990000D01*
X44994452Y67623800D02*
X44965652Y67595000D01*
X22404452Y48990000D02*
X22654452Y49240000D01*
X46111524Y45035000D02*
X46954452Y45035000D01*
X14354452Y36940000D02*
X15704452Y38290000D01*
D27*
X78714452Y21200000D02*
X78714452Y24600000D01*
D25*
X65494452Y31540000D02*
X65494452Y29440000D01*
X57664452Y40850000D02*
X58054452Y41240000D01*
X58054452Y41240000D02*
X58054452Y43330000D01*
D26*
X58354452Y46055000D02*
X60169452Y46055000D01*
D25*
X26884452Y58320000D02*
X26274452Y58930000D01*
X44994452Y70450000D02*
X44994452Y67623800D01*
D27*
X73234452Y17630000D02*
X70414452Y17630000D01*
X81024452Y32970000D02*
X81024452Y32960000D01*
D25*
X23084452Y50820000D02*
X23084452Y51280000D01*
D27*
X64004452Y21700000D02*
X64024452Y21720000D01*
D25*
X22654452Y50390000D02*
X23084452Y50820000D01*
X45504452Y45642072D02*
X46111524Y45035000D01*
X22664452Y49850000D02*
X22654452Y49840000D01*
X14384452Y47400000D02*
X17374452Y47400000D01*
X39354452Y70450000D02*
X39354452Y67466200D01*
D26*
X63284452Y37160000D02*
X63269452Y37145000D01*
D27*
X70414452Y17630000D02*
X64984452Y17630000D01*
D25*
X13734452Y48050000D02*
X14384452Y47400000D01*
X39354452Y67466200D02*
X39375652Y67445000D01*
X10069452Y36940000D02*
X10069452Y44255000D01*
D26*
X58054452Y43330000D02*
X58054452Y44590000D01*
X60664452Y45560000D02*
X60664452Y39990000D01*
D25*
X25864452Y49850000D02*
X26154452Y49560000D01*
X45504452Y46490000D02*
X45504452Y45642072D01*
X10069452Y36940000D02*
X14354452Y36940000D01*
X23084452Y51280000D02*
X26884452Y55080000D01*
D27*
X75684452Y21570000D02*
X75684452Y20080000D01*
D25*
X26884452Y55080000D02*
X26884452Y58320000D01*
D26*
X58354452Y44890000D02*
X58354452Y46055000D01*
D25*
X10069452Y44255000D02*
X10064452Y44260000D01*
D27*
X78724320Y24609868D02*
X75684452Y21570000D01*
X78714452Y24600000D02*
X78724320Y24609868D01*
X64984452Y17630000D02*
X64004452Y18610000D01*
D25*
X15704452Y38290000D02*
X16134452Y38720000D01*
X22654452Y49840000D02*
X22654452Y50390000D01*
X22654452Y49240000D02*
X22654452Y49840000D01*
D26*
X58054452Y44590000D02*
X58354452Y44890000D01*
D25*
X18964452Y48990000D02*
X22404452Y48990000D01*
X16134452Y38720000D02*
X18054452Y38720000D01*
D27*
X64004452Y18610000D02*
X64004452Y21700000D01*
%TO.N,SW_UP*%
D26*
X45654452Y44880000D02*
X45654452Y39770000D01*
X61411852Y39347400D02*
X61904452Y39840000D01*
X44084452Y46450000D02*
X45654452Y44880000D01*
X33038452Y46450000D02*
X44084452Y46450000D01*
X46077052Y39347400D02*
X61411852Y39347400D01*
X45654452Y39770000D02*
X46077052Y39347400D01*
%TO.N,SW_RIGHT*%
X79404452Y57690000D02*
X79634452Y57460000D01*
X77134452Y57690000D02*
X79404452Y57690000D01*
X79634452Y44780000D02*
X77444452Y42590000D01*
X76504452Y42590000D02*
X75514584Y41600132D01*
X75514584Y41600132D02*
X67444320Y41600132D01*
X79634452Y57460000D02*
X79634452Y44780000D01*
X77444452Y42590000D02*
X76504452Y42590000D01*
X77184452Y57640000D02*
X77134452Y57690000D01*
%TO.N,SW_DN*%
X74204452Y44860000D02*
X74204452Y61430000D01*
X77564452Y44270000D02*
X74794452Y44270000D01*
X74794452Y44270000D02*
X74204452Y44860000D01*
%TO.N,SW_EN*%
X32413452Y65035000D02*
X38913452Y65035000D01*
%TO.N,ENC_SW*%
X78954452Y56959736D02*
X78929320Y56984868D01*
X77645652Y50230000D02*
X78344452Y50230000D01*
X76324452Y41039289D02*
X76326495Y41041332D01*
X76324452Y31500000D02*
X76324452Y41039289D01*
X78344452Y50230000D02*
X78954452Y50840000D01*
X78954452Y50840000D02*
X78954452Y56959736D01*
%TO.N,SW_BOOT*%
X70934452Y53070000D02*
X70924452Y53060000D01*
X49173452Y65035000D02*
X70379452Y65035000D01*
X70379452Y65035000D02*
X70934452Y64480000D01*
X49173452Y65035000D02*
X42673452Y65035000D01*
X70934452Y64480000D02*
X70934452Y53070000D01*
%TO.N,ENC_A*%
X70824452Y40910000D02*
X73054452Y38680000D01*
X73054452Y38680000D02*
X73054452Y30040000D01*
X75104452Y29690000D02*
X80154452Y24640000D01*
X84148452Y23130000D02*
X86683452Y20595000D01*
X80154452Y23640000D02*
X80664452Y23130000D01*
X73054452Y30040000D02*
X73404452Y29690000D01*
X80664452Y23130000D02*
X84148452Y23130000D01*
X80154452Y24640000D02*
X80154452Y23640000D01*
X73404452Y29690000D02*
X75104452Y29690000D01*
%TO.N,ENC_B*%
X72114452Y46380000D02*
X71064584Y47429868D01*
X72114452Y46380000D02*
X73444452Y46380000D01*
X75054452Y46711200D02*
X75263252Y46920000D01*
X73444452Y46380000D02*
X73454452Y46390000D01*
X75054452Y46390000D02*
X75054452Y46711200D01*
X78854452Y46920000D02*
X75263252Y46920000D01*
%TO.N,VUSB*%
D25*
X80524452Y63431500D02*
X80463452Y63492500D01*
X80714452Y62320000D02*
X80524452Y62510000D01*
X82734452Y62320000D02*
X80714452Y62320000D01*
X82744452Y62310000D02*
X82734452Y62320000D01*
X80524452Y62510000D02*
X80524452Y63431500D01*
%TO.N,SCLK*%
D26*
X64824452Y48760000D02*
X48594452Y48760000D01*
X48434452Y48600000D02*
X48434452Y48030000D01*
X19264452Y48150000D02*
X29524452Y48150000D01*
X11794452Y40680000D02*
X19264452Y48150000D01*
X48594452Y48760000D02*
X48434452Y48600000D01*
%TO.N,MISO*%
X67714452Y51259000D02*
X67688452Y51285000D01*
X63319652Y40255200D02*
X63319652Y46750000D01*
X67714452Y47130000D02*
X67714452Y51259000D01*
X63339652Y46730000D02*
X67314452Y46730000D01*
D28*
X27116052Y38940000D02*
X27333452Y38940000D01*
D26*
X63319652Y46750000D02*
X63339652Y46730000D01*
D28*
X22866052Y43190000D02*
X27116052Y38940000D01*
D26*
X27333452Y38940000D02*
X62004452Y38940000D01*
X67314452Y46730000D02*
X67714452Y47130000D01*
X62004452Y38940000D02*
X63319652Y40255200D01*
%TO.N,MOSI*%
X65148452Y50254000D02*
X65148452Y51285000D01*
X22264452Y44400000D02*
X22264452Y41945001D01*
X22944452Y45080000D02*
X22264452Y44400000D01*
X65084452Y51221000D02*
X65148452Y51285000D01*
X64554452Y50040000D02*
X64934452Y50040000D01*
X52904452Y50190000D02*
X64404452Y50190000D01*
X30834452Y49470000D02*
X30834452Y45890000D01*
X22264452Y41945001D02*
X22254452Y41935001D01*
X30024452Y45080000D02*
X22944452Y45080000D01*
X50034452Y50940000D02*
X32304452Y50940000D01*
X50914452Y50060000D02*
X50034452Y50940000D01*
X50914452Y50060000D02*
X52774452Y50060000D01*
X64404452Y50190000D02*
X64554452Y50040000D01*
X52774452Y50060000D02*
X52904452Y50190000D01*
X30834452Y45890000D02*
X30024452Y45080000D01*
X32304452Y50940000D02*
X30834452Y49470000D01*
X64934452Y50040000D02*
X65148452Y50254000D01*
%TO.N,D1_SDMMC*%
X25854452Y55390000D02*
X24304452Y53840000D01*
X9574452Y53920000D02*
X9594252Y53900200D01*
X24304452Y53840000D02*
X10104452Y53840000D01*
X10104452Y53840000D02*
X10024452Y53920000D01*
X10024452Y53920000D02*
X9574452Y53920000D01*
%TO.N,D0_SDMMC*%
X11434452Y54460000D02*
X11404452Y54490000D01*
X23644452Y54460000D02*
X11434452Y54460000D01*
X23644452Y54460000D02*
X24664452Y55480000D01*
%TO.N,PWM_DISP*%
X62564452Y52150000D02*
X62564452Y51329000D01*
X55734452Y51990000D02*
X55754452Y51970000D01*
X55754452Y51970000D02*
X61064452Y51970000D01*
X62564452Y51329000D02*
X62608452Y51285000D01*
X61494452Y52400000D02*
X62314452Y52400000D01*
X62314452Y52400000D02*
X62564452Y52150000D01*
X61064452Y51970000D02*
X61494452Y52400000D01*
%TO.N,SW_PLAY*%
X70884452Y26510000D02*
X70169452Y27225000D01*
X68813452Y20725000D02*
X70029452Y20725000D01*
X68813452Y38011000D02*
X66534452Y40290000D01*
X66534452Y40290000D02*
X66534452Y44170000D01*
X72794452Y49130000D02*
X72794452Y58860000D01*
X66534452Y44170000D02*
X70704452Y48340000D01*
X70029452Y20725000D02*
X70884452Y21580000D01*
X70169452Y27225000D02*
X68813452Y27225000D01*
X70884452Y21580000D02*
X70884452Y26510000D01*
X70704452Y48340000D02*
X72004452Y48340000D01*
X72004452Y48340000D02*
X72794452Y49130000D01*
X68813452Y27225000D02*
X68813452Y38011000D01*
%TO.N,Net-(U3-VDD)*%
X50611652Y41785000D02*
X50611652Y43365000D01*
%TD*%
%TA.AperFunction,Conductor*%
%TO.N,GND*%
G36*
X35378868Y45828215D02*
G01*
X35424623Y45775411D01*
X35434567Y45706253D01*
X35405542Y45642697D01*
X35387315Y45625524D01*
X35361411Y45605648D01*
X35361404Y45605642D01*
X35152810Y45397048D01*
X35152804Y45397041D01*
X34973213Y45162994D01*
X34825710Y44907511D01*
X34825706Y44907501D01*
X34712816Y44634962D01*
X34712813Y44634952D01*
X34638144Y44356279D01*
X34636460Y44349996D01*
X34636458Y44349985D01*
X34597952Y44057514D01*
X34597952Y43762487D01*
X34623403Y43569173D01*
X34636459Y43470007D01*
X34712813Y43185049D01*
X34712816Y43185039D01*
X34825706Y42912500D01*
X34825710Y42912490D01*
X34973213Y42657007D01*
X35152804Y42422960D01*
X35152810Y42422953D01*
X35361404Y42214359D01*
X35361411Y42214353D01*
X35595458Y42034762D01*
X35850941Y41887259D01*
X35850942Y41887259D01*
X35850945Y41887257D01*
X36123500Y41774361D01*
X36408459Y41698007D01*
X36700946Y41659500D01*
X36700953Y41659500D01*
X36995951Y41659500D01*
X36995958Y41659500D01*
X37288445Y41698007D01*
X37573404Y41774361D01*
X37845959Y41887257D01*
X38101446Y42034762D01*
X38335494Y42214354D01*
X38544098Y42422958D01*
X38723690Y42657006D01*
X38871195Y42912493D01*
X38984091Y43185048D01*
X39060445Y43470007D01*
X39098952Y43762494D01*
X39098952Y43998579D01*
X40802952Y43998579D01*
X40802952Y43821421D01*
X40808214Y43788200D01*
X40830666Y43646444D01*
X40885408Y43477961D01*
X40885409Y43477958D01*
X40919683Y43410693D01*
X40965838Y43320110D01*
X41069969Y43176786D01*
X41195238Y43051517D01*
X41338562Y42947386D01*
X41376986Y42927808D01*
X41496409Y42866958D01*
X41496412Y42866957D01*
X41580653Y42839586D01*
X41664897Y42812214D01*
X41839873Y42784500D01*
X41839874Y42784500D01*
X42017030Y42784500D01*
X42017031Y42784500D01*
X42192007Y42812214D01*
X42360494Y42866958D01*
X42518342Y42947386D01*
X42661666Y43051517D01*
X42786935Y43176786D01*
X42891066Y43320110D01*
X42971494Y43477958D01*
X43026238Y43646445D01*
X43053952Y43821421D01*
X43053952Y43998579D01*
X43026238Y44173555D01*
X42992774Y44276548D01*
X42971495Y44342040D01*
X42971494Y44342043D01*
X42920776Y44441581D01*
X42891066Y44499890D01*
X42786935Y44643214D01*
X42661666Y44768483D01*
X42518342Y44872614D01*
X42500314Y44881800D01*
X42360494Y44953043D01*
X42360491Y44953044D01*
X42192008Y45007786D01*
X42104519Y45021643D01*
X42017031Y45035500D01*
X41839873Y45035500D01*
X41781547Y45026262D01*
X41664895Y45007786D01*
X41496412Y44953044D01*
X41496409Y44953043D01*
X41338561Y44872614D01*
X41306748Y44849500D01*
X41195238Y44768483D01*
X41195236Y44768481D01*
X41195235Y44768481D01*
X41069971Y44643217D01*
X41069971Y44643216D01*
X41069969Y44643214D01*
X41025248Y44581662D01*
X40965838Y44499891D01*
X40885409Y44342043D01*
X40885408Y44342040D01*
X40830666Y44173557D01*
X40809542Y44040185D01*
X40802952Y43998579D01*
X39098952Y43998579D01*
X39098952Y44057506D01*
X39060445Y44349993D01*
X38984091Y44634952D01*
X38871195Y44907507D01*
X38870668Y44908419D01*
X38723690Y45162994D01*
X38544099Y45397041D01*
X38544093Y45397048D01*
X38335499Y45605642D01*
X38335492Y45605648D01*
X38309589Y45625524D01*
X38268386Y45681952D01*
X38264231Y45751698D01*
X38298443Y45812618D01*
X38360160Y45845371D01*
X38385075Y45847900D01*
X43783692Y45847900D01*
X43850731Y45828215D01*
X43871373Y45811581D01*
X45016033Y44666921D01*
X45049518Y44605598D01*
X45052352Y44579240D01*
X45052352Y39690733D01*
X45053413Y39682675D01*
X45049970Y39682222D01*
X45048693Y39628354D01*
X45009536Y39570488D01*
X44945310Y39542978D01*
X44930578Y39542100D01*
X27414550Y39542100D01*
X27347511Y39561785D01*
X27326869Y39578419D01*
X23700625Y43204663D01*
X23667140Y43265986D01*
X23666689Y43268153D01*
X23635790Y43423490D01*
X23635789Y43423497D01*
X23616524Y43470007D01*
X23575449Y43569173D01*
X23575442Y43569186D01*
X23487841Y43700289D01*
X23487838Y43700293D01*
X23376344Y43811787D01*
X23376340Y43811790D01*
X23245237Y43899391D01*
X23245224Y43899398D01*
X23099553Y43959736D01*
X23099543Y43959739D01*
X22973539Y43984803D01*
X22911628Y44017188D01*
X22877054Y44077904D01*
X22880795Y44147674D01*
X22910048Y44194099D01*
X23157531Y44441581D01*
X23218854Y44475066D01*
X23245212Y44477900D01*
X30103718Y44477900D01*
X30103720Y44477900D01*
X30256854Y44518933D01*
X30394150Y44598200D01*
X30506252Y44710302D01*
X31316252Y45520302D01*
X31318737Y45524606D01*
X31395519Y45657598D01*
X31401860Y45681266D01*
X31408474Y45693716D01*
X31423432Y45709024D01*
X31434571Y45727299D01*
X31447364Y45733514D01*
X31457306Y45743688D01*
X31478168Y45748479D01*
X31497417Y45757830D01*
X31511538Y45756143D01*
X31525403Y45759326D01*
X31545542Y45752078D01*
X31566793Y45749538D01*
X31577760Y45740483D01*
X31591145Y45735666D01*
X31604168Y45718681D01*
X31620672Y45705055D01*
X31628469Y45691843D01*
X31639503Y45670189D01*
X31664941Y45620263D01*
X31669584Y45611152D01*
X31817653Y45407351D01*
X31817657Y45407346D01*
X31982217Y45242786D01*
X32015702Y45181463D01*
X32010718Y45111771D01*
X31968846Y45055838D01*
X31903382Y45031421D01*
X31875138Y45032632D01*
X31857031Y45035500D01*
X31679873Y45035500D01*
X31621547Y45026262D01*
X31504895Y45007786D01*
X31336412Y44953044D01*
X31336409Y44953043D01*
X31178561Y44872614D01*
X31146748Y44849500D01*
X31035238Y44768483D01*
X31035236Y44768481D01*
X31035235Y44768481D01*
X30909971Y44643217D01*
X30909971Y44643216D01*
X30909969Y44643214D01*
X30865248Y44581662D01*
X30805838Y44499891D01*
X30725409Y44342043D01*
X30725408Y44342040D01*
X30670666Y44173557D01*
X30649542Y44040185D01*
X30642952Y43998579D01*
X30642952Y43821421D01*
X30648214Y43788200D01*
X30670666Y43646444D01*
X30725408Y43477961D01*
X30725409Y43477958D01*
X30759683Y43410693D01*
X30805838Y43320110D01*
X30909969Y43176786D01*
X31035238Y43051517D01*
X31178562Y42947386D01*
X31216986Y42927808D01*
X31336409Y42866958D01*
X31336412Y42866957D01*
X31420653Y42839586D01*
X31504897Y42812214D01*
X31679873Y42784500D01*
X31679874Y42784500D01*
X31857030Y42784500D01*
X31857031Y42784500D01*
X32032007Y42812214D01*
X32200494Y42866958D01*
X32358342Y42947386D01*
X32501666Y43051517D01*
X32626935Y43176786D01*
X32731066Y43320110D01*
X32811494Y43477958D01*
X32866238Y43646445D01*
X32893952Y43821421D01*
X32893952Y43998579D01*
X32866238Y44173555D01*
X32832774Y44276548D01*
X32811495Y44342040D01*
X32811494Y44342043D01*
X32760776Y44441581D01*
X32731066Y44499890D01*
X32626935Y44643214D01*
X32597943Y44672206D01*
X32564458Y44733529D01*
X32569442Y44803221D01*
X32611314Y44859154D01*
X32676778Y44883571D01*
X32705021Y44882361D01*
X32912490Y44849500D01*
X32912491Y44849500D01*
X33164413Y44849500D01*
X33164414Y44849500D01*
X33413237Y44888910D01*
X33652831Y44966759D01*
X33877297Y45081130D01*
X34081108Y45229207D01*
X34259245Y45407344D01*
X34407322Y45611155D01*
X34493452Y45780196D01*
X34541425Y45830991D01*
X34603936Y45847900D01*
X35311829Y45847900D01*
X35378868Y45828215D01*
G37*
%TD.AperFunction*%
%TA.AperFunction,Conductor*%
G36*
X57328049Y48138215D02*
G01*
X57373804Y48085411D01*
X57384501Y48022678D01*
X57378952Y47961616D01*
X57378952Y47448384D01*
X57379659Y47440606D01*
X57385365Y47377808D01*
X57385365Y47377806D01*
X57385366Y47377804D01*
X57435974Y47215394D01*
X57506096Y47099398D01*
X57523982Y47069812D01*
X57626113Y46967681D01*
X57659598Y46906358D01*
X57654614Y46836666D01*
X57626113Y46792319D01*
X57523983Y46690190D01*
X57523982Y46690189D01*
X57435974Y46544607D01*
X57385365Y46382193D01*
X57383149Y46357804D01*
X57378952Y46311616D01*
X57378952Y45798384D01*
X57380875Y45777222D01*
X57385365Y45727808D01*
X57385365Y45727806D01*
X57385366Y45727804D01*
X57435974Y45565394D01*
X57523980Y45419815D01*
X57644267Y45299528D01*
X57675982Y45280356D01*
X57723168Y45228830D01*
X57735007Y45159971D01*
X57707739Y45095642D01*
X57699515Y45086562D01*
X57684757Y45071803D01*
X57684754Y45071800D01*
X57572653Y44959700D01*
X57572651Y44959697D01*
X57493385Y44822403D01*
X57481591Y44778387D01*
X57453140Y44672206D01*
X57452352Y44669267D01*
X57452352Y44244920D01*
X57432667Y44177881D01*
X57416033Y44157239D01*
X57317133Y44058339D01*
X57255810Y44024854D01*
X57186118Y44029838D01*
X57141771Y44058339D01*
X57039640Y44160470D01*
X57005421Y44181156D01*
X56894058Y44248478D01*
X56731648Y44299086D01*
X56731646Y44299087D01*
X56731644Y44299087D01*
X56682230Y44303577D01*
X56661068Y44305500D01*
X56147836Y44305500D01*
X56128597Y44303752D01*
X56077259Y44299087D01*
X55914845Y44248478D01*
X55769263Y44160470D01*
X55648982Y44040189D01*
X55560974Y43894607D01*
X55510365Y43732193D01*
X55503952Y43661614D01*
X55503952Y42998387D01*
X55510365Y42927808D01*
X55510365Y42927806D01*
X55510366Y42927804D01*
X55560974Y42765394D01*
X55627051Y42656089D01*
X55648982Y42619812D01*
X55769263Y42499531D01*
X55769265Y42499530D01*
X55769267Y42499528D01*
X55914846Y42411522D01*
X56077256Y42360914D01*
X56147836Y42354500D01*
X56147839Y42354500D01*
X56661065Y42354500D01*
X56661068Y42354500D01*
X56731648Y42360914D01*
X56894058Y42411522D01*
X57039637Y42499528D01*
X57088751Y42548642D01*
X57141771Y42601661D01*
X57203094Y42635146D01*
X57272786Y42630162D01*
X57317133Y42601661D01*
X57390633Y42528161D01*
X57424118Y42466838D01*
X57426952Y42440480D01*
X57426952Y41601500D01*
X57407267Y41534461D01*
X57354463Y41488706D01*
X57302952Y41477500D01*
X53220514Y41477500D01*
X53153475Y41497185D01*
X53132833Y41513819D01*
X53111652Y41535000D01*
X52285652Y41535000D01*
X52218613Y41554685D01*
X52172858Y41607489D01*
X52161652Y41659000D01*
X52161652Y41785000D01*
X52035652Y41785000D01*
X51968613Y41804685D01*
X51922858Y41857489D01*
X51911652Y41909000D01*
X51911652Y42035000D01*
X52411652Y42035000D01*
X53111651Y42035000D01*
X53111651Y42083308D01*
X53111650Y42083323D01*
X53101507Y42182608D01*
X53048199Y42343482D01*
X53048194Y42343493D01*
X52959227Y42487729D01*
X52954747Y42493395D01*
X52955845Y42494264D01*
X52926153Y42548642D01*
X52931137Y42618334D01*
X52955400Y42656089D01*
X52954747Y42656605D01*
X52959227Y42662272D01*
X53048194Y42806508D01*
X53048199Y42806519D01*
X53101507Y42967394D01*
X53111651Y43066678D01*
X53111652Y43066691D01*
X53111652Y43115000D01*
X52411652Y43115000D01*
X52411652Y42035000D01*
X51911652Y42035000D01*
X51911652Y43615000D01*
X52411652Y43615000D01*
X53111651Y43615000D01*
X53111651Y43663308D01*
X53111650Y43663323D01*
X53101507Y43762608D01*
X53048199Y43923482D01*
X53048194Y43923493D01*
X52959227Y44067729D01*
X52959224Y44067733D01*
X52839384Y44187573D01*
X52839380Y44187576D01*
X52695144Y44276543D01*
X52695133Y44276548D01*
X52534258Y44329856D01*
X52434974Y44340000D01*
X52411652Y44340000D01*
X52411652Y43615000D01*
X51911652Y43615000D01*
X51911652Y44340001D01*
X51888345Y44340000D01*
X51888326Y44339999D01*
X51789044Y44329856D01*
X51628170Y44276548D01*
X51628159Y44276543D01*
X51483923Y44187576D01*
X51483917Y44187572D01*
X51474683Y44178337D01*
X51413359Y44144854D01*
X51343667Y44149841D01*
X51299324Y44178340D01*
X51289696Y44187968D01*
X51289692Y44187971D01*
X51145357Y44276999D01*
X51145351Y44277002D01*
X51145349Y44277003D01*
X51108420Y44289240D01*
X50984361Y44330349D01*
X50884998Y44340500D01*
X50338314Y44340500D01*
X50338296Y44340499D01*
X50238944Y44330350D01*
X50238941Y44330349D01*
X50077957Y44277004D01*
X50077946Y44276999D01*
X49933611Y44187971D01*
X49933607Y44187968D01*
X49813684Y44068045D01*
X49813681Y44068041D01*
X49724653Y43923706D01*
X49724648Y43923695D01*
X49671303Y43762710D01*
X49661152Y43663353D01*
X49661152Y43066663D01*
X49661153Y43066645D01*
X49671302Y42967293D01*
X49671303Y42967290D01*
X49724648Y42806306D01*
X49724653Y42806295D01*
X49813681Y42661960D01*
X49818162Y42656293D01*
X49816964Y42655346D01*
X49846444Y42601358D01*
X49841460Y42531666D01*
X49817434Y42494283D01*
X49818162Y42493707D01*
X49813681Y42488041D01*
X49724653Y42343706D01*
X49724648Y42343695D01*
X49671303Y42182710D01*
X49661152Y42083353D01*
X49661152Y42083345D01*
X49661152Y41796099D01*
X49661153Y41601500D01*
X49641469Y41534461D01*
X49588665Y41488706D01*
X49537153Y41477500D01*
X47765733Y41477500D01*
X47698694Y41497185D01*
X47678052Y41513819D01*
X47618271Y41573600D01*
X47584786Y41634923D01*
X47581952Y41661281D01*
X47581952Y44156500D01*
X47601637Y44223539D01*
X47654441Y44269294D01*
X47705952Y44280500D01*
X47798092Y44280500D01*
X47862240Y44262618D01*
X47979846Y44191522D01*
X48142256Y44140914D01*
X48212836Y44134500D01*
X48212839Y44134500D01*
X48876065Y44134500D01*
X48876068Y44134500D01*
X48946648Y44140914D01*
X49109058Y44191522D01*
X49254637Y44279528D01*
X49374924Y44399815D01*
X49462930Y44545394D01*
X49513538Y44707804D01*
X49519952Y44778384D01*
X49519952Y45291616D01*
X49513538Y45362196D01*
X49462930Y45524606D01*
X49374924Y45670185D01*
X49374922Y45670187D01*
X49374921Y45670189D01*
X49272791Y45772319D01*
X49239306Y45833642D01*
X49244290Y45903334D01*
X49272791Y45947681D01*
X49374920Y46049811D01*
X49374921Y46049812D01*
X49374924Y46049815D01*
X49462930Y46195394D01*
X49513538Y46357804D01*
X49519952Y46428384D01*
X49519952Y46941616D01*
X49513538Y47012196D01*
X49462930Y47174606D01*
X49374924Y47320185D01*
X49374922Y47320187D01*
X49374921Y47320189D01*
X49254640Y47440470D01*
X49254415Y47440606D01*
X49186574Y47481618D01*
X49139388Y47533144D01*
X49127550Y47602004D01*
X49141373Y47646196D01*
X49143839Y47650812D01*
X49143846Y47650821D01*
X49204189Y47796503D01*
X49234952Y47951158D01*
X49234952Y48033900D01*
X49254637Y48100939D01*
X49307441Y48146694D01*
X49358952Y48157900D01*
X57261010Y48157900D01*
X57328049Y48138215D01*
G37*
%TD.AperFunction*%
%TA.AperFunction,Conductor*%
G36*
X70329365Y47026473D02*
G01*
X70343895Y47025433D01*
X70360761Y47012807D01*
X70380077Y47004399D01*
X70397384Y46985390D01*
X70399828Y46983561D01*
X70402541Y46979727D01*
X70402725Y46979525D01*
X70403260Y46978747D01*
X70442795Y46919579D01*
X70446523Y46915851D01*
X70446526Y46915847D01*
X70554291Y46808082D01*
X70554295Y46808079D01*
X70685398Y46720478D01*
X70685411Y46720471D01*
X70790880Y46676785D01*
X70831087Y46660131D01*
X70899547Y46646514D01*
X70983608Y46629792D01*
X71045519Y46597407D01*
X71047098Y46595856D01*
X71744754Y45898200D01*
X71882051Y45818932D01*
X72035184Y45777900D01*
X72892047Y45777900D01*
X72959086Y45758215D01*
X72960938Y45757002D01*
X73075266Y45680610D01*
X73075279Y45680603D01*
X73220950Y45620265D01*
X73220955Y45620263D01*
X73349106Y45594772D01*
X73375605Y45589501D01*
X73375608Y45589500D01*
X73478352Y45589500D01*
X73545391Y45569815D01*
X73591146Y45517011D01*
X73602352Y45465500D01*
X73602352Y44780732D01*
X73629707Y44678643D01*
X73643385Y44627597D01*
X73643386Y44627596D01*
X73685857Y44554034D01*
X73722652Y44490302D01*
X74312652Y43900302D01*
X74424754Y43788200D01*
X74562050Y43708933D01*
X74715184Y43667900D01*
X74873720Y43667900D01*
X76987081Y43667900D01*
X77054120Y43648215D01*
X77055972Y43647002D01*
X77185266Y43560610D01*
X77185278Y43560603D01*
X77281309Y43520827D01*
X77335713Y43476987D01*
X77357778Y43410693D01*
X77340499Y43342993D01*
X77321540Y43318588D01*
X77231371Y43228418D01*
X77170051Y43194934D01*
X77143692Y43192100D01*
X76425184Y43192100D01*
X76323094Y43164745D01*
X76272049Y43151067D01*
X76134755Y43071801D01*
X76134752Y43071799D01*
X75301505Y42238551D01*
X75240182Y42205066D01*
X75213824Y42202232D01*
X68021691Y42202232D01*
X67954652Y42221917D01*
X67952800Y42223130D01*
X67823505Y42309523D01*
X67823492Y42309530D01*
X67677821Y42369868D01*
X67677809Y42369871D01*
X67523165Y42400632D01*
X67523162Y42400632D01*
X67365478Y42400632D01*
X67333191Y42394210D01*
X67284743Y42384573D01*
X67215151Y42390801D01*
X67159974Y42433665D01*
X67136730Y42499555D01*
X67136552Y42506191D01*
X67136552Y43869241D01*
X67156237Y43936280D01*
X67172866Y43956917D01*
X70212882Y46996934D01*
X70231369Y47007029D01*
X70247043Y47021107D01*
X70261419Y47023437D01*
X70274203Y47030417D01*
X70295218Y47028915D01*
X70316013Y47032284D01*
X70329365Y47026473D01*
G37*
%TD.AperFunction*%
%TA.AperFunction,Conductor*%
G36*
X78344120Y46298215D02*
G01*
X78345972Y46297002D01*
X78475266Y46210610D01*
X78475279Y46210603D01*
X78561613Y46174843D01*
X78620955Y46150263D01*
X78733381Y46127900D01*
X78775605Y46119501D01*
X78775608Y46119500D01*
X78908352Y46119500D01*
X78975391Y46099815D01*
X79021146Y46047011D01*
X79032352Y45995500D01*
X79032352Y45080761D01*
X79012667Y45013722D01*
X78996033Y44993080D01*
X78515867Y44512914D01*
X78454544Y44479429D01*
X78384852Y44484413D01*
X78328919Y44526285D01*
X78313625Y44553143D01*
X78273849Y44649174D01*
X78273842Y44649186D01*
X78186241Y44780289D01*
X78186238Y44780293D01*
X78074744Y44891787D01*
X78074740Y44891790D01*
X77943637Y44979391D01*
X77943624Y44979398D01*
X77797953Y45039736D01*
X77797941Y45039739D01*
X77643297Y45070500D01*
X77643294Y45070500D01*
X77485610Y45070500D01*
X77485607Y45070500D01*
X77330962Y45039739D01*
X77330950Y45039736D01*
X77185279Y44979398D01*
X77185266Y44979391D01*
X77055972Y44892998D01*
X76989295Y44872120D01*
X76987081Y44872100D01*
X75095212Y44872100D01*
X75028173Y44891785D01*
X75007531Y44908419D01*
X74842871Y45073079D01*
X74809386Y45134402D01*
X74806552Y45160760D01*
X74806552Y45472034D01*
X74826237Y45539073D01*
X74879041Y45584828D01*
X74948199Y45594772D01*
X74954702Y45593659D01*
X74975610Y45589500D01*
X74975613Y45589500D01*
X75133296Y45589500D01*
X75133297Y45589501D01*
X75287949Y45620263D01*
X75433631Y45680606D01*
X75564741Y45768211D01*
X75676241Y45879711D01*
X75763846Y46010821D01*
X75824189Y46156503D01*
X75836440Y46218091D01*
X75868825Y46280002D01*
X75929540Y46314576D01*
X75958057Y46317900D01*
X78277081Y46317900D01*
X78344120Y46298215D01*
G37*
%TD.AperFunction*%
%TA.AperFunction,Conductor*%
G36*
X38409781Y50318215D02*
G01*
X38430423Y50301581D01*
X39064426Y49667579D01*
X39033194Y49654641D01*
X38910355Y49572563D01*
X38805889Y49468097D01*
X38723811Y49345258D01*
X38710873Y49314026D01*
X38094200Y49930700D01*
X38094199Y49930699D01*
X38020011Y49828587D01*
X37905671Y49604185D01*
X37827849Y49364670D01*
X37788452Y49115929D01*
X37788452Y48864072D01*
X37827849Y48615331D01*
X37905671Y48375816D01*
X38020009Y48151417D01*
X38094200Y48049303D01*
X38094200Y48049302D01*
X38710873Y48665976D01*
X38723811Y48634742D01*
X38805889Y48511903D01*
X38910355Y48407437D01*
X39033194Y48325359D01*
X39064426Y48312423D01*
X38447752Y47695750D01*
X38549868Y47621558D01*
X38774267Y47507220D01*
X39013782Y47429398D01*
X39262524Y47390000D01*
X39514380Y47390000D01*
X39763121Y47429398D01*
X40002636Y47507220D01*
X40227027Y47621554D01*
X40227033Y47621558D01*
X40329149Y47695750D01*
X40329150Y47695750D01*
X39712477Y48312422D01*
X39743710Y48325359D01*
X39866549Y48407437D01*
X39971015Y48511903D01*
X40053093Y48634742D01*
X40066029Y48665975D01*
X40682702Y48049302D01*
X40682702Y48049303D01*
X40756894Y48151419D01*
X40756898Y48151425D01*
X40871232Y48375816D01*
X40949054Y48615331D01*
X40988452Y48864072D01*
X40988452Y49115929D01*
X40949054Y49364670D01*
X40871232Y49604185D01*
X40756894Y49828584D01*
X40682702Y49930699D01*
X40682702Y49930700D01*
X40066029Y49314027D01*
X40053093Y49345258D01*
X39971015Y49468097D01*
X39866549Y49572563D01*
X39743710Y49654641D01*
X39712476Y49667579D01*
X40346480Y50301581D01*
X40407803Y50335066D01*
X40434161Y50337900D01*
X49733692Y50337900D01*
X49800731Y50318215D01*
X49821373Y50301581D01*
X50080439Y50042515D01*
X50113924Y49981192D01*
X50114375Y49979026D01*
X50144713Y49826509D01*
X50144716Y49826499D01*
X50205054Y49680828D01*
X50205061Y49680815D01*
X50289135Y49554991D01*
X50310013Y49488314D01*
X50291529Y49420934D01*
X50239550Y49374243D01*
X50186033Y49362100D01*
X48515184Y49362100D01*
X48413094Y49334745D01*
X48362049Y49321067D01*
X48297704Y49283917D01*
X48224755Y49241801D01*
X48224752Y49241799D01*
X47952653Y48969700D01*
X47952651Y48969697D01*
X47873385Y48832403D01*
X47865962Y48804699D01*
X47832858Y48681154D01*
X47832352Y48679267D01*
X47832352Y48607372D01*
X47812667Y48540333D01*
X47811454Y48538481D01*
X47725061Y48409186D01*
X47725054Y48409173D01*
X47664716Y48263502D01*
X47664713Y48263490D01*
X47633952Y48108847D01*
X47633952Y47951154D01*
X47664713Y47796511D01*
X47664716Y47796499D01*
X47716918Y47670471D01*
X47724387Y47601002D01*
X47693111Y47538523D01*
X47633022Y47502871D01*
X47563197Y47505365D01*
X47538210Y47516900D01*
X47519058Y47528478D01*
X47356648Y47579086D01*
X47356646Y47579087D01*
X47356644Y47579087D01*
X47307230Y47583577D01*
X47286068Y47585500D01*
X46622836Y47585500D01*
X46603597Y47583752D01*
X46552259Y47579087D01*
X46389845Y47528478D01*
X46244263Y47440470D01*
X46123982Y47320189D01*
X46079630Y47246821D01*
X46039554Y47180527D01*
X46035973Y47174604D01*
X46018903Y47119824D01*
X45980166Y47061677D01*
X45916140Y47033703D01*
X45847155Y47044785D01*
X45812837Y47069034D01*
X44779543Y48102328D01*
X44746058Y48163651D01*
X44745635Y48165677D01*
X44724189Y48273497D01*
X44702707Y48325359D01*
X44663849Y48419173D01*
X44663842Y48419186D01*
X44576241Y48550289D01*
X44576238Y48550293D01*
X44464744Y48661787D01*
X44464740Y48661790D01*
X44333637Y48749391D01*
X44333624Y48749398D01*
X44187953Y48809736D01*
X44187941Y48809739D01*
X44033297Y48840500D01*
X44033294Y48840500D01*
X43875610Y48840500D01*
X43875607Y48840500D01*
X43720962Y48809739D01*
X43720950Y48809736D01*
X43575279Y48749398D01*
X43575266Y48749391D01*
X43444163Y48661790D01*
X43444159Y48661787D01*
X43332665Y48550293D01*
X43332662Y48550289D01*
X43245061Y48419186D01*
X43245054Y48419173D01*
X43184716Y48273502D01*
X43184713Y48273490D01*
X43153952Y48118847D01*
X43153952Y47961154D01*
X43184713Y47806511D01*
X43184716Y47806499D01*
X43245054Y47660828D01*
X43245061Y47660815D01*
X43332662Y47529712D01*
X43332665Y47529708D01*
X43444159Y47418214D01*
X43444163Y47418211D01*
X43575266Y47330610D01*
X43575279Y47330603D01*
X43671709Y47290661D01*
X43726113Y47246821D01*
X43748178Y47180527D01*
X43730899Y47112827D01*
X43679762Y47065216D01*
X43624257Y47052100D01*
X34603936Y47052100D01*
X34536897Y47071785D01*
X34493452Y47119805D01*
X34407322Y47288845D01*
X34388683Y47314500D01*
X34259250Y47492650D01*
X34259246Y47492655D01*
X34081106Y47670795D01*
X34081101Y47670799D01*
X33877300Y47818868D01*
X33877299Y47818869D01*
X33877297Y47818870D01*
X33807199Y47854587D01*
X33652835Y47933240D01*
X33413237Y48011090D01*
X33291736Y48030334D01*
X33164414Y48050500D01*
X32912490Y48050500D01*
X32807683Y48033900D01*
X32663666Y48011090D01*
X32424068Y47933240D01*
X32199603Y47818868D01*
X31995802Y47670799D01*
X31995797Y47670795D01*
X31817657Y47492655D01*
X31817653Y47492650D01*
X31669581Y47288845D01*
X31667037Y47284693D01*
X31665382Y47285707D01*
X31623042Y47240893D01*
X31555218Y47224111D01*
X31489087Y47246661D01*
X31445646Y47301384D01*
X31436552Y47347996D01*
X31436552Y49169240D01*
X31456237Y49236279D01*
X31472871Y49256921D01*
X32517531Y50301581D01*
X32578854Y50335066D01*
X32605212Y50337900D01*
X38342742Y50337900D01*
X38409781Y50318215D01*
G37*
%TD.AperFunction*%
%TA.AperFunction,Conductor*%
G36*
X91502539Y71699815D02*
G01*
X91548294Y71647011D01*
X91559500Y71595500D01*
X91559500Y424500D01*
X91539815Y357461D01*
X91487011Y311706D01*
X91435500Y300500D01*
X424500Y300500D01*
X357461Y320185D01*
X311706Y372989D01*
X300500Y424500D01*
X300500Y3153847D01*
X25053952Y3153847D01*
X25053952Y2996154D01*
X25084713Y2841511D01*
X25084716Y2841499D01*
X25145054Y2695828D01*
X25145061Y2695815D01*
X25232662Y2564712D01*
X25232665Y2564708D01*
X25344159Y2453214D01*
X25344163Y2453211D01*
X25475266Y2365610D01*
X25475279Y2365603D01*
X25620950Y2305265D01*
X25620955Y2305263D01*
X25775605Y2274501D01*
X25775608Y2274500D01*
X25775610Y2274500D01*
X25933296Y2274500D01*
X25933297Y2274501D01*
X26087949Y2305263D01*
X26233631Y2365606D01*
X26364741Y2453211D01*
X26476241Y2564711D01*
X26563846Y2695821D01*
X26624189Y2841503D01*
X26654952Y2996158D01*
X26654952Y3153842D01*
X26654952Y3153845D01*
X26654951Y3153847D01*
X26624190Y3308490D01*
X26624189Y3308497D01*
X26624187Y3308502D01*
X26563849Y3454173D01*
X26563842Y3454186D01*
X26476241Y3585289D01*
X26476238Y3585293D01*
X26364744Y3696787D01*
X26364740Y3696790D01*
X26233637Y3784391D01*
X26233624Y3784398D01*
X26087953Y3844736D01*
X26087941Y3844739D01*
X25933297Y3875500D01*
X25933294Y3875500D01*
X25775610Y3875500D01*
X25775607Y3875500D01*
X25620962Y3844739D01*
X25620950Y3844736D01*
X25475279Y3784398D01*
X25475266Y3784391D01*
X25344163Y3696790D01*
X25344159Y3696787D01*
X25232665Y3585293D01*
X25232662Y3585289D01*
X25145061Y3454186D01*
X25145054Y3454173D01*
X25084716Y3308502D01*
X25084713Y3308490D01*
X25053952Y3153847D01*
X300500Y3153847D01*
X300500Y11218579D01*
X30647952Y11218579D01*
X30647952Y11041422D01*
X30675666Y10866444D01*
X30730408Y10697961D01*
X30730409Y10697958D01*
X30810838Y10540110D01*
X30914969Y10396786D01*
X31040238Y10271517D01*
X31183562Y10167386D01*
X31252029Y10132500D01*
X31341409Y10086958D01*
X31341412Y10086957D01*
X31425653Y10059586D01*
X31509897Y10032214D01*
X31684873Y10004500D01*
X31684874Y10004500D01*
X31862030Y10004500D01*
X31862031Y10004500D01*
X32037007Y10032214D01*
X32205494Y10086958D01*
X32363342Y10167386D01*
X32506666Y10271517D01*
X32631935Y10396786D01*
X32736066Y10540110D01*
X32816494Y10697958D01*
X32871238Y10866445D01*
X32898952Y11041421D01*
X32898952Y11218579D01*
X32889617Y11277514D01*
X34602952Y11277514D01*
X34602952Y10982487D01*
X34618230Y10866445D01*
X34641459Y10690007D01*
X34717813Y10405049D01*
X34717816Y10405039D01*
X34830706Y10132500D01*
X34830710Y10132490D01*
X34978213Y9877007D01*
X35157804Y9642960D01*
X35157810Y9642953D01*
X35366404Y9434359D01*
X35366411Y9434353D01*
X35600458Y9254762D01*
X35855941Y9107259D01*
X35855942Y9107259D01*
X35855945Y9107257D01*
X36128500Y8994361D01*
X36413459Y8918007D01*
X36705946Y8879500D01*
X36705953Y8879500D01*
X37000951Y8879500D01*
X37000958Y8879500D01*
X37293445Y8918007D01*
X37578404Y8994361D01*
X37850959Y9107257D01*
X38106446Y9254762D01*
X38340494Y9434354D01*
X38549098Y9642958D01*
X38728690Y9877006D01*
X38876195Y10132493D01*
X38989091Y10405048D01*
X39065445Y10690007D01*
X39103952Y10982494D01*
X39103952Y11218579D01*
X40807952Y11218579D01*
X40807952Y11041422D01*
X40835666Y10866444D01*
X40890408Y10697961D01*
X40890409Y10697958D01*
X40970838Y10540110D01*
X41074969Y10396786D01*
X41200238Y10271517D01*
X41343562Y10167386D01*
X41412029Y10132500D01*
X41501409Y10086958D01*
X41501412Y10086957D01*
X41585653Y10059586D01*
X41669897Y10032214D01*
X41844873Y10004500D01*
X41844874Y10004500D01*
X42022030Y10004500D01*
X42022031Y10004500D01*
X42197007Y10032214D01*
X42365494Y10086958D01*
X42523342Y10167386D01*
X42666666Y10271517D01*
X42791935Y10396786D01*
X42896066Y10540110D01*
X42976494Y10697958D01*
X43031238Y10866445D01*
X43058952Y11041421D01*
X43058952Y11218579D01*
X43031238Y11393555D01*
X42976494Y11562042D01*
X42976494Y11562043D01*
X42896065Y11719891D01*
X42791935Y11863214D01*
X42666666Y11988483D01*
X42523342Y12092614D01*
X42365494Y12173043D01*
X42365491Y12173044D01*
X42197008Y12227786D01*
X42040138Y12252632D01*
X42022031Y12255500D01*
X41844873Y12255500D01*
X41826766Y12252632D01*
X41669895Y12227786D01*
X41501412Y12173044D01*
X41501409Y12173043D01*
X41343561Y12092614D01*
X41311748Y12069500D01*
X41200238Y11988483D01*
X41200236Y11988481D01*
X41200235Y11988481D01*
X41074971Y11863217D01*
X41074971Y11863216D01*
X41074969Y11863214D01*
X41030248Y11801662D01*
X40970838Y11719891D01*
X40890409Y11562043D01*
X40890408Y11562040D01*
X40835666Y11393557D01*
X40807952Y11218579D01*
X39103952Y11218579D01*
X39103952Y11277506D01*
X39065445Y11569993D01*
X38989091Y11854952D01*
X38876195Y12127507D01*
X38849905Y12173042D01*
X38728690Y12382994D01*
X38549099Y12617041D01*
X38549093Y12617048D01*
X38340499Y12825642D01*
X38340492Y12825648D01*
X38106445Y13005239D01*
X37850962Y13152742D01*
X37850952Y13152746D01*
X37578413Y13265636D01*
X37578406Y13265638D01*
X37578404Y13265639D01*
X37293445Y13341993D01*
X37244565Y13348429D01*
X37000965Y13380500D01*
X37000958Y13380500D01*
X36705946Y13380500D01*
X36705938Y13380500D01*
X36427537Y13343847D01*
X36413459Y13341993D01*
X36238880Y13295215D01*
X36128500Y13265639D01*
X36128490Y13265636D01*
X35855951Y13152746D01*
X35855941Y13152742D01*
X35600458Y13005239D01*
X35366411Y12825648D01*
X35366404Y12825642D01*
X35157810Y12617048D01*
X35157804Y12617041D01*
X34978213Y12382994D01*
X34830710Y12127511D01*
X34830706Y12127501D01*
X34717816Y11854962D01*
X34717813Y11854952D01*
X34681624Y11719890D01*
X34641460Y11569996D01*
X34641458Y11569985D01*
X34602952Y11277514D01*
X32889617Y11277514D01*
X32871238Y11393555D01*
X32816494Y11562042D01*
X32816494Y11562043D01*
X32736065Y11719891D01*
X32631935Y11863214D01*
X32602943Y11892206D01*
X32569458Y11953529D01*
X32574442Y12023221D01*
X32616314Y12079154D01*
X32681778Y12103571D01*
X32710021Y12102361D01*
X32917490Y12069500D01*
X32917491Y12069500D01*
X33169413Y12069500D01*
X33169414Y12069500D01*
X33418237Y12108910D01*
X33657831Y12186759D01*
X33882297Y12301130D01*
X34086108Y12449207D01*
X34264245Y12627344D01*
X34412322Y12831155D01*
X34526693Y13055621D01*
X34604542Y13295215D01*
X34643952Y13544038D01*
X34643952Y13795962D01*
X34604542Y14044785D01*
X34526693Y14284379D01*
X34526691Y14284382D01*
X34526691Y14284384D01*
X34485199Y14365816D01*
X34412322Y14508845D01*
X34310205Y14649398D01*
X34264250Y14712650D01*
X34264246Y14712655D01*
X34086106Y14890795D01*
X34086101Y14890799D01*
X33882300Y15038868D01*
X33882299Y15038869D01*
X33882297Y15038870D01*
X33812199Y15074587D01*
X33657835Y15153240D01*
X33418237Y15231090D01*
X33169414Y15270500D01*
X32917490Y15270500D01*
X32793078Y15250795D01*
X32668666Y15231090D01*
X32429068Y15153240D01*
X32204603Y15038868D01*
X32000802Y14890799D01*
X32000797Y14890795D01*
X31822657Y14712655D01*
X31822653Y14712650D01*
X31674584Y14508849D01*
X31560212Y14284384D01*
X31482362Y14044786D01*
X31442952Y13795962D01*
X31442952Y13544039D01*
X31482362Y13295215D01*
X31560212Y13055617D01*
X31674584Y12831152D01*
X31822653Y12627351D01*
X31822657Y12627346D01*
X31987217Y12462786D01*
X32020702Y12401463D01*
X32015718Y12331771D01*
X31973846Y12275838D01*
X31908382Y12251421D01*
X31880138Y12252632D01*
X31862031Y12255500D01*
X31684873Y12255500D01*
X31666766Y12252632D01*
X31509895Y12227786D01*
X31341412Y12173044D01*
X31341409Y12173043D01*
X31183561Y12092614D01*
X31151748Y12069500D01*
X31040238Y11988483D01*
X31040236Y11988481D01*
X31040235Y11988481D01*
X30914971Y11863217D01*
X30914971Y11863216D01*
X30914969Y11863214D01*
X30870248Y11801662D01*
X30810838Y11719891D01*
X30730409Y11562043D01*
X30730408Y11562040D01*
X30675666Y11393557D01*
X30647952Y11218579D01*
X300500Y11218579D01*
X300500Y16335929D01*
X37793452Y16335929D01*
X37793452Y16084072D01*
X37832849Y15835331D01*
X37910671Y15595816D01*
X38025009Y15371417D01*
X38099200Y15269303D01*
X38099200Y15269302D01*
X38715873Y15885976D01*
X38728811Y15854742D01*
X38810889Y15731903D01*
X38915355Y15627437D01*
X39038194Y15545359D01*
X39069426Y15532423D01*
X38452752Y14915750D01*
X38554868Y14841558D01*
X38779267Y14727220D01*
X39018782Y14649398D01*
X39267524Y14610000D01*
X39519380Y14610000D01*
X39768121Y14649398D01*
X40007636Y14727220D01*
X40232027Y14841554D01*
X40232033Y14841558D01*
X40334149Y14915750D01*
X40334150Y14915750D01*
X39717477Y15532422D01*
X39748710Y15545359D01*
X39871549Y15627437D01*
X39976015Y15731903D01*
X40058093Y15854742D01*
X40071029Y15885975D01*
X40687702Y15269302D01*
X40687702Y15269303D01*
X40761894Y15371419D01*
X40761898Y15371425D01*
X40876232Y15595816D01*
X40954054Y15835331D01*
X40993452Y16084072D01*
X40993452Y16335929D01*
X40954054Y16584670D01*
X40876232Y16824185D01*
X40761894Y17048584D01*
X40687702Y17150699D01*
X40687702Y17150700D01*
X40071029Y16534027D01*
X40058093Y16565258D01*
X39976015Y16688097D01*
X39871549Y16792563D01*
X39748710Y16874641D01*
X39717476Y16887579D01*
X40334150Y17504252D01*
X40232035Y17578443D01*
X40007636Y17692781D01*
X39768121Y17770603D01*
X39519380Y17810000D01*
X39267524Y17810000D01*
X39018782Y17770603D01*
X38779267Y17692781D01*
X38554865Y17578441D01*
X38452753Y17504253D01*
X38452752Y17504252D01*
X39069426Y16887579D01*
X39038194Y16874641D01*
X38915355Y16792563D01*
X38810889Y16688097D01*
X38728811Y16565258D01*
X38715873Y16534026D01*
X38099200Y17150700D01*
X38099199Y17150699D01*
X38025011Y17048587D01*
X37910671Y16824185D01*
X37832849Y16584670D01*
X37793452Y16335929D01*
X300500Y16335929D01*
X300500Y24073383D01*
X67113452Y24073383D01*
X67113452Y23876618D01*
X67144230Y23682295D01*
X67205033Y23495165D01*
X67294357Y23319855D01*
X67319771Y23284875D01*
X67319772Y23284875D01*
X67880489Y23845592D01*
X67897527Y23782007D01*
X67963353Y23667993D01*
X68056445Y23574901D01*
X68170459Y23509075D01*
X68234042Y23492038D01*
X67673325Y22931323D01*
X67673325Y22931322D01*
X67708310Y22905904D01*
X67883616Y22816582D01*
X68070746Y22755779D01*
X68265070Y22725000D01*
X68461834Y22725000D01*
X68656157Y22755779D01*
X68843287Y22816582D01*
X69018595Y22905905D01*
X69053577Y22931322D01*
X69053578Y22931322D01*
X68492862Y23492038D01*
X68556445Y23509075D01*
X68670459Y23574901D01*
X68763551Y23667993D01*
X68829377Y23782007D01*
X68846414Y23845591D01*
X69407130Y23284874D01*
X69407130Y23284875D01*
X69432547Y23319857D01*
X69521870Y23495165D01*
X69582673Y23682295D01*
X69613452Y23876618D01*
X69613452Y24073383D01*
X69582673Y24267706D01*
X69521870Y24454836D01*
X69432548Y24630142D01*
X69407130Y24665127D01*
X69407129Y24665127D01*
X68846414Y24104411D01*
X68829377Y24167993D01*
X68763551Y24282007D01*
X68670459Y24375099D01*
X68556445Y24440925D01*
X68492861Y24457963D01*
X69053577Y25018680D01*
X69053577Y25018681D01*
X69018597Y25044095D01*
X68843287Y25133419D01*
X68656157Y25194222D01*
X68461834Y25225000D01*
X68265070Y25225000D01*
X68070746Y25194222D01*
X67883613Y25133418D01*
X67708315Y25044101D01*
X67708311Y25044098D01*
X67673325Y25018680D01*
X67673324Y25018680D01*
X68234042Y24457963D01*
X68170459Y24440925D01*
X68056445Y24375099D01*
X67963353Y24282007D01*
X67897527Y24167993D01*
X67880489Y24104410D01*
X67319772Y24665128D01*
X67319772Y24665127D01*
X67294354Y24630141D01*
X67294351Y24630137D01*
X67205034Y24454839D01*
X67144230Y24267706D01*
X67113452Y24073383D01*
X300500Y24073383D01*
X300500Y27758579D01*
X14112952Y27758579D01*
X14112952Y27581421D01*
X14116120Y27561422D01*
X14140666Y27406444D01*
X14195408Y27237961D01*
X14195409Y27237958D01*
X14253517Y27123917D01*
X14275838Y27080110D01*
X14379969Y26936786D01*
X14505238Y26811517D01*
X14648562Y26707386D01*
X14687814Y26687386D01*
X14806409Y26626958D01*
X14806412Y26626957D01*
X14890653Y26599586D01*
X14974897Y26572214D01*
X15149873Y26544500D01*
X15149874Y26544500D01*
X15327030Y26544500D01*
X15327031Y26544500D01*
X15502007Y26572214D01*
X15670494Y26626958D01*
X15828342Y26707386D01*
X15971666Y26811517D01*
X16096935Y26936786D01*
X16201066Y27080110D01*
X16281494Y27237958D01*
X16336238Y27406445D01*
X16363952Y27581421D01*
X16363952Y27758579D01*
X16354617Y27817514D01*
X18067952Y27817514D01*
X18067952Y27522487D01*
X18094166Y27323383D01*
X18106459Y27230007D01*
X18159513Y27032007D01*
X18182813Y26945049D01*
X18182816Y26945039D01*
X18295706Y26672500D01*
X18295710Y26672490D01*
X18443213Y26417007D01*
X18622804Y26182960D01*
X18622810Y26182953D01*
X18831404Y25974359D01*
X18831411Y25974353D01*
X19065458Y25794762D01*
X19320941Y25647259D01*
X19320942Y25647259D01*
X19320945Y25647257D01*
X19593500Y25534361D01*
X19878459Y25458007D01*
X20170946Y25419500D01*
X20170953Y25419500D01*
X20465951Y25419500D01*
X20465958Y25419500D01*
X20758445Y25458007D01*
X21043404Y25534361D01*
X21315959Y25647257D01*
X21571446Y25794762D01*
X21805494Y25974354D01*
X22014098Y26182958D01*
X22193690Y26417006D01*
X22341195Y26672493D01*
X22454091Y26945048D01*
X22530445Y27230007D01*
X22568952Y27522494D01*
X22568952Y27758579D01*
X24272952Y27758579D01*
X24272952Y27581421D01*
X24276120Y27561422D01*
X24300666Y27406444D01*
X24355408Y27237961D01*
X24355409Y27237958D01*
X24413517Y27123917D01*
X24435838Y27080110D01*
X24539969Y26936786D01*
X24665238Y26811517D01*
X24808562Y26707386D01*
X24847814Y26687386D01*
X24966409Y26626958D01*
X24966412Y26626957D01*
X25050653Y26599586D01*
X25134897Y26572214D01*
X25309873Y26544500D01*
X25309874Y26544500D01*
X25487030Y26544500D01*
X25487031Y26544500D01*
X25662007Y26572214D01*
X25830494Y26626958D01*
X25988342Y26707386D01*
X26131666Y26811517D01*
X26256935Y26936786D01*
X26361066Y27080110D01*
X26441494Y27237958D01*
X26496238Y27406445D01*
X26523952Y27581421D01*
X26523952Y27738579D01*
X30642952Y27738579D01*
X30642952Y27561421D01*
X30649118Y27522494D01*
X30670666Y27386444D01*
X30725408Y27217961D01*
X30725409Y27217958D01*
X30795647Y27080110D01*
X30805838Y27060110D01*
X30909969Y26916786D01*
X31035238Y26791517D01*
X31178562Y26687386D01*
X31207797Y26672490D01*
X31336409Y26606958D01*
X31336412Y26606957D01*
X31390855Y26589268D01*
X31504897Y26552214D01*
X31679873Y26524500D01*
X31679874Y26524500D01*
X31857030Y26524500D01*
X31857031Y26524500D01*
X32032007Y26552214D01*
X32200494Y26606958D01*
X32358342Y26687386D01*
X32501666Y26791517D01*
X32626935Y26916786D01*
X32731066Y27060110D01*
X32811494Y27217958D01*
X32866238Y27386445D01*
X32893952Y27561421D01*
X32893952Y27738579D01*
X32884617Y27797514D01*
X34597952Y27797514D01*
X34597952Y27502487D01*
X34625819Y27290826D01*
X34636459Y27210007D01*
X34710871Y26932295D01*
X34712813Y26925049D01*
X34712816Y26925039D01*
X34811255Y26687387D01*
X34825709Y26652493D01*
X34840452Y26626958D01*
X34973213Y26397007D01*
X35152804Y26162960D01*
X35152810Y26162953D01*
X35361404Y25954359D01*
X35361411Y25954353D01*
X35595458Y25774762D01*
X35850941Y25627259D01*
X35850942Y25627259D01*
X35850945Y25627257D01*
X36123500Y25514361D01*
X36408459Y25438007D01*
X36681904Y25402007D01*
X36689119Y25401057D01*
X36700946Y25399500D01*
X36700953Y25399500D01*
X36995951Y25399500D01*
X36995958Y25399500D01*
X37288445Y25438007D01*
X37573404Y25514361D01*
X37845959Y25627257D01*
X38101446Y25774762D01*
X38335494Y25954354D01*
X38544098Y26162958D01*
X38723690Y26397006D01*
X38871195Y26652493D01*
X38984091Y26925048D01*
X39060445Y27210007D01*
X39098952Y27502494D01*
X39098952Y27738579D01*
X40802952Y27738579D01*
X40802952Y27561421D01*
X40809118Y27522494D01*
X40830666Y27386444D01*
X40885408Y27217961D01*
X40885409Y27217958D01*
X40955647Y27080110D01*
X40965838Y27060110D01*
X41069969Y26916786D01*
X41195238Y26791517D01*
X41338562Y26687386D01*
X41367797Y26672490D01*
X41496409Y26606958D01*
X41496412Y26606957D01*
X41550855Y26589268D01*
X41664897Y26552214D01*
X41839873Y26524500D01*
X41839874Y26524500D01*
X42017030Y26524500D01*
X42017031Y26524500D01*
X42192007Y26552214D01*
X42360494Y26606958D01*
X42518342Y26687386D01*
X42661666Y26791517D01*
X42786935Y26916786D01*
X42891066Y27060110D01*
X42971494Y27217958D01*
X43026238Y27386445D01*
X43053952Y27561421D01*
X43053952Y27738579D01*
X46902952Y27738579D01*
X46902952Y27561421D01*
X46909118Y27522494D01*
X46930666Y27386444D01*
X46985408Y27217961D01*
X46985409Y27217958D01*
X47055647Y27080110D01*
X47065838Y27060110D01*
X47169969Y26916786D01*
X47295238Y26791517D01*
X47438562Y26687386D01*
X47467797Y26672490D01*
X47596409Y26606958D01*
X47596412Y26606957D01*
X47650855Y26589268D01*
X47764897Y26552214D01*
X47939873Y26524500D01*
X47939874Y26524500D01*
X48117030Y26524500D01*
X48117031Y26524500D01*
X48292007Y26552214D01*
X48460494Y26606958D01*
X48618342Y26687386D01*
X48761666Y26791517D01*
X48886935Y26916786D01*
X48991066Y27060110D01*
X49071494Y27217958D01*
X49126238Y27386445D01*
X49153952Y27561421D01*
X49153952Y27738579D01*
X49144617Y27797514D01*
X50857952Y27797514D01*
X50857952Y27502487D01*
X50885819Y27290826D01*
X50896459Y27210007D01*
X50970871Y26932295D01*
X50972813Y26925049D01*
X50972816Y26925039D01*
X51071255Y26687387D01*
X51085709Y26652493D01*
X51100452Y26626958D01*
X51233213Y26397007D01*
X51412804Y26162960D01*
X51412810Y26162953D01*
X51621404Y25954359D01*
X51621411Y25954353D01*
X51855458Y25774762D01*
X52110941Y25627259D01*
X52110942Y25627259D01*
X52110945Y25627257D01*
X52383500Y25514361D01*
X52668459Y25438007D01*
X52941904Y25402007D01*
X52949119Y25401057D01*
X52960946Y25399500D01*
X52960953Y25399500D01*
X53255951Y25399500D01*
X53255958Y25399500D01*
X53548445Y25438007D01*
X53833404Y25514361D01*
X54105959Y25627257D01*
X54361446Y25774762D01*
X54595494Y25954354D01*
X54804098Y26162958D01*
X54983690Y26397006D01*
X55131195Y26652493D01*
X55244091Y26925048D01*
X55320445Y27210007D01*
X55358952Y27502494D01*
X55358952Y27738579D01*
X57062952Y27738579D01*
X57062952Y27561421D01*
X57069118Y27522494D01*
X57090666Y27386444D01*
X57145408Y27217961D01*
X57145409Y27217958D01*
X57215647Y27080110D01*
X57225838Y27060110D01*
X57329969Y26916786D01*
X57455238Y26791517D01*
X57598562Y26687386D01*
X57627797Y26672490D01*
X57756409Y26606958D01*
X57756412Y26606957D01*
X57810855Y26589268D01*
X57924897Y26552214D01*
X58099873Y26524500D01*
X58099874Y26524500D01*
X58277030Y26524500D01*
X58277031Y26524500D01*
X58452007Y26552214D01*
X58620494Y26606958D01*
X58778342Y26687386D01*
X58921666Y26791517D01*
X59046935Y26916786D01*
X59151066Y27060110D01*
X59231494Y27217958D01*
X59286238Y27386445D01*
X59313952Y27561421D01*
X59313952Y27738579D01*
X59286238Y27913555D01*
X59250715Y28022884D01*
X59231495Y28082040D01*
X59231494Y28082043D01*
X59162558Y28217336D01*
X59151066Y28239890D01*
X59046935Y28383214D01*
X58921666Y28508483D01*
X58778342Y28612614D01*
X58765507Y28619154D01*
X58620494Y28693043D01*
X58620491Y28693044D01*
X58452008Y28747786D01*
X58295138Y28772632D01*
X58277031Y28775500D01*
X58099873Y28775500D01*
X58081766Y28772632D01*
X57924895Y28747786D01*
X57756412Y28693044D01*
X57756409Y28693043D01*
X57598561Y28612614D01*
X57566748Y28589500D01*
X57455238Y28508483D01*
X57455236Y28508481D01*
X57455235Y28508481D01*
X57329971Y28383217D01*
X57329971Y28383216D01*
X57329969Y28383214D01*
X57293158Y28332548D01*
X57225838Y28239891D01*
X57145409Y28082043D01*
X57145408Y28082040D01*
X57090666Y27913557D01*
X57069856Y27782167D01*
X57062952Y27738579D01*
X55358952Y27738579D01*
X55358952Y27797506D01*
X55320445Y28089993D01*
X55244091Y28374952D01*
X55232384Y28403214D01*
X55188781Y28508481D01*
X55131195Y28647507D01*
X55130384Y28648911D01*
X54983690Y28902994D01*
X54804099Y29137041D01*
X54804093Y29137048D01*
X54595499Y29345642D01*
X54595492Y29345648D01*
X54361445Y29525239D01*
X54105962Y29672742D01*
X54105952Y29672746D01*
X53833413Y29785636D01*
X53833406Y29785638D01*
X53833404Y29785639D01*
X53548445Y29861993D01*
X53499565Y29868429D01*
X53255965Y29900500D01*
X53255958Y29900500D01*
X52960946Y29900500D01*
X52960938Y29900500D01*
X52682537Y29863847D01*
X52668459Y29861993D01*
X52383500Y29785639D01*
X52383490Y29785636D01*
X52110951Y29672746D01*
X52110941Y29672742D01*
X51855458Y29525239D01*
X51621411Y29345648D01*
X51621404Y29345642D01*
X51412810Y29137048D01*
X51412804Y29137041D01*
X51233213Y28902994D01*
X51085710Y28647511D01*
X51085706Y28647501D01*
X50972816Y28374962D01*
X50972813Y28374952D01*
X50899688Y28102042D01*
X50896460Y28089996D01*
X50896458Y28089985D01*
X50857952Y27797514D01*
X49144617Y27797514D01*
X49126238Y27913555D01*
X49090715Y28022884D01*
X49071495Y28082040D01*
X49071494Y28082043D01*
X49002558Y28217336D01*
X48991066Y28239890D01*
X48886935Y28383214D01*
X48857943Y28412206D01*
X48824458Y28473529D01*
X48829442Y28543221D01*
X48871314Y28599154D01*
X48936778Y28623571D01*
X48965021Y28622361D01*
X49172490Y28589500D01*
X49172491Y28589500D01*
X49424413Y28589500D01*
X49424414Y28589500D01*
X49673237Y28628910D01*
X49912831Y28706759D01*
X50137297Y28821130D01*
X50341108Y28969207D01*
X50519245Y29147344D01*
X50667322Y29351155D01*
X50781693Y29575621D01*
X50859542Y29815215D01*
X50898952Y30064038D01*
X50898952Y30315962D01*
X50859542Y30564785D01*
X50781693Y30804379D01*
X50781691Y30804382D01*
X50781691Y30804384D01*
X50687263Y30989708D01*
X50667322Y31028845D01*
X50571436Y31160821D01*
X50519250Y31232650D01*
X50519246Y31232655D01*
X50341106Y31410795D01*
X50341101Y31410799D01*
X50137300Y31558868D01*
X50137299Y31558869D01*
X50137297Y31558870D01*
X50067199Y31594587D01*
X49912835Y31673240D01*
X49673237Y31751090D01*
X49424414Y31790500D01*
X49172490Y31790500D01*
X49065170Y31773502D01*
X48923666Y31751090D01*
X48684068Y31673240D01*
X48459603Y31558868D01*
X48255802Y31410799D01*
X48255797Y31410795D01*
X48077657Y31232655D01*
X48077653Y31232650D01*
X47929584Y31028849D01*
X47815212Y30804384D01*
X47743860Y30584785D01*
X47737362Y30564785D01*
X47697952Y30315962D01*
X47697952Y30064038D01*
X47729305Y29866084D01*
X47737362Y29815215D01*
X47815212Y29575617D01*
X47844141Y29518842D01*
X47924864Y29360414D01*
X47929584Y29351152D01*
X48077653Y29147351D01*
X48077657Y29147346D01*
X48242217Y28982786D01*
X48275702Y28921463D01*
X48270718Y28851771D01*
X48228846Y28795838D01*
X48163382Y28771421D01*
X48135138Y28772632D01*
X48117031Y28775500D01*
X47939873Y28775500D01*
X47921766Y28772632D01*
X47764895Y28747786D01*
X47596412Y28693044D01*
X47596409Y28693043D01*
X47438561Y28612614D01*
X47406748Y28589500D01*
X47295238Y28508483D01*
X47295236Y28508481D01*
X47295235Y28508481D01*
X47169971Y28383217D01*
X47169971Y28383216D01*
X47169969Y28383214D01*
X47133158Y28332548D01*
X47065838Y28239891D01*
X46985409Y28082043D01*
X46985408Y28082040D01*
X46930666Y27913557D01*
X46909856Y27782167D01*
X46902952Y27738579D01*
X43053952Y27738579D01*
X43026238Y27913555D01*
X42990715Y28022884D01*
X42971495Y28082040D01*
X42971494Y28082043D01*
X42902558Y28217336D01*
X42891066Y28239890D01*
X42786935Y28383214D01*
X42661666Y28508483D01*
X42518342Y28612614D01*
X42505507Y28619154D01*
X42360494Y28693043D01*
X42360491Y28693044D01*
X42192008Y28747786D01*
X42035138Y28772632D01*
X42017031Y28775500D01*
X41839873Y28775500D01*
X41821766Y28772632D01*
X41664895Y28747786D01*
X41496412Y28693044D01*
X41496409Y28693043D01*
X41338561Y28612614D01*
X41306748Y28589500D01*
X41195238Y28508483D01*
X41195236Y28508481D01*
X41195235Y28508481D01*
X41069971Y28383217D01*
X41069971Y28383216D01*
X41069969Y28383214D01*
X41033158Y28332548D01*
X40965838Y28239891D01*
X40885409Y28082043D01*
X40885408Y28082040D01*
X40830666Y27913557D01*
X40809856Y27782167D01*
X40802952Y27738579D01*
X39098952Y27738579D01*
X39098952Y27797506D01*
X39060445Y28089993D01*
X38984091Y28374952D01*
X38972384Y28403214D01*
X38928781Y28508481D01*
X38871195Y28647507D01*
X38870384Y28648911D01*
X38723690Y28902994D01*
X38544099Y29137041D01*
X38544093Y29137048D01*
X38335499Y29345642D01*
X38335492Y29345648D01*
X38101445Y29525239D01*
X37845962Y29672742D01*
X37845952Y29672746D01*
X37573413Y29785636D01*
X37573406Y29785638D01*
X37573404Y29785639D01*
X37288445Y29861993D01*
X37239565Y29868429D01*
X36995965Y29900500D01*
X36995958Y29900500D01*
X36700946Y29900500D01*
X36700938Y29900500D01*
X36422537Y29863847D01*
X36408459Y29861993D01*
X36123500Y29785639D01*
X36123490Y29785636D01*
X35850951Y29672746D01*
X35850941Y29672742D01*
X35595458Y29525239D01*
X35361411Y29345648D01*
X35361404Y29345642D01*
X35152810Y29137048D01*
X35152804Y29137041D01*
X34973213Y28902994D01*
X34825710Y28647511D01*
X34825706Y28647501D01*
X34712816Y28374962D01*
X34712813Y28374952D01*
X34639688Y28102042D01*
X34636460Y28089996D01*
X34636458Y28089985D01*
X34597952Y27797514D01*
X32884617Y27797514D01*
X32866238Y27913555D01*
X32830715Y28022884D01*
X32811495Y28082040D01*
X32811494Y28082043D01*
X32742558Y28217336D01*
X32731066Y28239890D01*
X32626935Y28383214D01*
X32597943Y28412206D01*
X32564458Y28473529D01*
X32569442Y28543221D01*
X32611314Y28599154D01*
X32676778Y28623571D01*
X32705021Y28622361D01*
X32912490Y28589500D01*
X32912491Y28589500D01*
X33164413Y28589500D01*
X33164414Y28589500D01*
X33413237Y28628910D01*
X33652831Y28706759D01*
X33877297Y28821130D01*
X34081108Y28969207D01*
X34259245Y29147344D01*
X34407322Y29351155D01*
X34521693Y29575621D01*
X34599542Y29815215D01*
X34638952Y30064038D01*
X34638952Y30315962D01*
X34599542Y30564785D01*
X34521693Y30804379D01*
X34521691Y30804382D01*
X34521691Y30804384D01*
X34427263Y30989708D01*
X34407322Y31028845D01*
X34311436Y31160821D01*
X34259250Y31232650D01*
X34259246Y31232655D01*
X34081106Y31410795D01*
X34081101Y31410799D01*
X33877300Y31558868D01*
X33877299Y31558869D01*
X33877297Y31558870D01*
X33807199Y31594587D01*
X33652835Y31673240D01*
X33413237Y31751090D01*
X33164414Y31790500D01*
X32912490Y31790500D01*
X32805170Y31773502D01*
X32663666Y31751090D01*
X32424068Y31673240D01*
X32199603Y31558868D01*
X31995802Y31410799D01*
X31995797Y31410795D01*
X31817657Y31232655D01*
X31817653Y31232650D01*
X31669584Y31028849D01*
X31555212Y30804384D01*
X31483860Y30584785D01*
X31477362Y30564785D01*
X31437952Y30315962D01*
X31437952Y30064038D01*
X31469305Y29866084D01*
X31477362Y29815215D01*
X31555212Y29575617D01*
X31584141Y29518842D01*
X31664864Y29360414D01*
X31669584Y29351152D01*
X31817653Y29147351D01*
X31817657Y29147346D01*
X31982217Y28982786D01*
X32015702Y28921463D01*
X32010718Y28851771D01*
X31968846Y28795838D01*
X31903382Y28771421D01*
X31875138Y28772632D01*
X31857031Y28775500D01*
X31679873Y28775500D01*
X31661766Y28772632D01*
X31504895Y28747786D01*
X31336412Y28693044D01*
X31336409Y28693043D01*
X31178561Y28612614D01*
X31146748Y28589500D01*
X31035238Y28508483D01*
X31035236Y28508481D01*
X31035235Y28508481D01*
X30909971Y28383217D01*
X30909971Y28383216D01*
X30909969Y28383214D01*
X30873158Y28332548D01*
X30805838Y28239891D01*
X30725409Y28082043D01*
X30725408Y28082040D01*
X30670666Y27913557D01*
X30649856Y27782167D01*
X30642952Y27738579D01*
X26523952Y27738579D01*
X26523952Y27758579D01*
X26496238Y27933555D01*
X26447993Y28082040D01*
X26441495Y28102040D01*
X26441494Y28102043D01*
X26375032Y28232480D01*
X26361066Y28259890D01*
X26256935Y28403214D01*
X26131666Y28528483D01*
X25988342Y28632614D01*
X25974826Y28639501D01*
X25830494Y28713043D01*
X25830491Y28713044D01*
X25662008Y28767786D01*
X25505138Y28792632D01*
X25487031Y28795500D01*
X25309873Y28795500D01*
X25291766Y28792632D01*
X25134895Y28767786D01*
X24966412Y28713044D01*
X24966409Y28713043D01*
X24808561Y28632614D01*
X24741158Y28583642D01*
X24665238Y28528483D01*
X24665236Y28528481D01*
X24665235Y28528481D01*
X24539971Y28403217D01*
X24539971Y28403216D01*
X24539969Y28403214D01*
X24495248Y28341662D01*
X24435838Y28259891D01*
X24355409Y28102043D01*
X24355408Y28102040D01*
X24300666Y27933557D01*
X24279117Y27797500D01*
X24272952Y27758579D01*
X22568952Y27758579D01*
X22568952Y27817506D01*
X22530445Y28109993D01*
X22454091Y28394952D01*
X22449366Y28406358D01*
X22398781Y28528481D01*
X22341195Y28667507D01*
X22339604Y28670262D01*
X22193690Y28922994D01*
X22014099Y29157041D01*
X22014093Y29157048D01*
X21805499Y29365642D01*
X21805492Y29365648D01*
X21571445Y29545239D01*
X21315962Y29692742D01*
X21315952Y29692746D01*
X21043413Y29805636D01*
X21043406Y29805638D01*
X21043404Y29805639D01*
X20758445Y29881993D01*
X20709565Y29888429D01*
X20465965Y29920500D01*
X20465958Y29920500D01*
X20170946Y29920500D01*
X20170938Y29920500D01*
X19892537Y29883847D01*
X19878459Y29881993D01*
X19644032Y29819179D01*
X19593500Y29805639D01*
X19593490Y29805636D01*
X19320951Y29692746D01*
X19320941Y29692742D01*
X19065458Y29545239D01*
X18831411Y29365648D01*
X18831404Y29365642D01*
X18622810Y29157048D01*
X18622804Y29157041D01*
X18443213Y28922994D01*
X18295710Y28667511D01*
X18295706Y28667501D01*
X18182816Y28394962D01*
X18182813Y28394952D01*
X18135220Y28217329D01*
X18106460Y28109996D01*
X18106458Y28109985D01*
X18067952Y27817514D01*
X16354617Y27817514D01*
X16336238Y27933555D01*
X16287993Y28082040D01*
X16281495Y28102040D01*
X16281494Y28102043D01*
X16215032Y28232480D01*
X16201066Y28259890D01*
X16096935Y28403214D01*
X16067943Y28432206D01*
X16034458Y28493529D01*
X16039442Y28563221D01*
X16081314Y28619154D01*
X16146778Y28643571D01*
X16175021Y28642361D01*
X16382490Y28609500D01*
X16382491Y28609500D01*
X16634413Y28609500D01*
X16634414Y28609500D01*
X16883237Y28648910D01*
X17122831Y28726759D01*
X17347297Y28841130D01*
X17551108Y28989207D01*
X17729245Y29167344D01*
X17877322Y29371155D01*
X17991693Y29595621D01*
X18069542Y29835215D01*
X18108952Y30084038D01*
X18108952Y30335962D01*
X18069542Y30584785D01*
X17991693Y30824379D01*
X17991691Y30824382D01*
X17991691Y30824384D01*
X17950199Y30905816D01*
X17877322Y31048845D01*
X17825029Y31120821D01*
X17729250Y31252650D01*
X17729246Y31252655D01*
X17551106Y31430795D01*
X17551101Y31430799D01*
X17347300Y31578868D01*
X17347299Y31578869D01*
X17347297Y31578870D01*
X17277199Y31614587D01*
X17122835Y31693240D01*
X16883237Y31771090D01*
X16868008Y31773502D01*
X16634414Y31810500D01*
X16382490Y31810500D01*
X16258078Y31790795D01*
X16133666Y31771090D01*
X15894068Y31693240D01*
X15669603Y31578868D01*
X15465802Y31430799D01*
X15465797Y31430795D01*
X15287657Y31252655D01*
X15287653Y31252650D01*
X15139584Y31048849D01*
X15025212Y30824384D01*
X14984635Y30699500D01*
X14947362Y30584785D01*
X14907952Y30335962D01*
X14907952Y30084038D01*
X14927644Y29959711D01*
X14947362Y29835215D01*
X15025212Y29595617D01*
X15103865Y29441253D01*
X15127432Y29395000D01*
X15139584Y29371152D01*
X15287653Y29167351D01*
X15287657Y29167346D01*
X15452217Y29002786D01*
X15485702Y28941463D01*
X15480718Y28871771D01*
X15438846Y28815838D01*
X15373382Y28791421D01*
X15345138Y28792632D01*
X15327031Y28795500D01*
X15149873Y28795500D01*
X15131766Y28792632D01*
X14974895Y28767786D01*
X14806412Y28713044D01*
X14806409Y28713043D01*
X14648561Y28632614D01*
X14581158Y28583642D01*
X14505238Y28528483D01*
X14505236Y28528481D01*
X14505235Y28528481D01*
X14379971Y28403217D01*
X14379971Y28403216D01*
X14379969Y28403214D01*
X14335248Y28341662D01*
X14275838Y28259891D01*
X14195409Y28102043D01*
X14195408Y28102040D01*
X14140666Y27933557D01*
X14119117Y27797500D01*
X14112952Y27758579D01*
X300500Y27758579D01*
X300500Y32875929D01*
X21258452Y32875929D01*
X21258452Y32624072D01*
X21297849Y32375331D01*
X21375671Y32135816D01*
X21490009Y31911417D01*
X21564200Y31809303D01*
X21564200Y31809302D01*
X22180873Y32425976D01*
X22193811Y32394742D01*
X22275889Y32271903D01*
X22380355Y32167437D01*
X22503194Y32085359D01*
X22534426Y32072423D01*
X21917752Y31455750D01*
X22019868Y31381558D01*
X22244267Y31267220D01*
X22483782Y31189398D01*
X22732524Y31150000D01*
X22984380Y31150000D01*
X23233121Y31189398D01*
X23472636Y31267220D01*
X23697027Y31381554D01*
X23697033Y31381558D01*
X23799149Y31455750D01*
X23799150Y31455750D01*
X23182477Y32072422D01*
X23213710Y32085359D01*
X23336549Y32167437D01*
X23441015Y32271903D01*
X23523093Y32394742D01*
X23536029Y32425975D01*
X24152702Y31809302D01*
X24152702Y31809303D01*
X24226894Y31911419D01*
X24226898Y31911425D01*
X24341232Y32135816D01*
X24419054Y32375331D01*
X24458452Y32624072D01*
X24458452Y32855929D01*
X37788452Y32855929D01*
X37788452Y32604072D01*
X37827849Y32355331D01*
X37905671Y32115816D01*
X38020009Y31891417D01*
X38094200Y31789303D01*
X38094200Y31789302D01*
X38710873Y32405976D01*
X38723811Y32374742D01*
X38805889Y32251903D01*
X38910355Y32147437D01*
X39033194Y32065359D01*
X39064426Y32052423D01*
X38447752Y31435750D01*
X38549868Y31361558D01*
X38774267Y31247220D01*
X39013782Y31169398D01*
X39262524Y31130000D01*
X39514380Y31130000D01*
X39763121Y31169398D01*
X40002636Y31247220D01*
X40227027Y31361554D01*
X40227033Y31361558D01*
X40329149Y31435750D01*
X40329150Y31435750D01*
X39712477Y32052422D01*
X39743710Y32065359D01*
X39866549Y32147437D01*
X39971015Y32251903D01*
X40053093Y32374742D01*
X40066029Y32405975D01*
X40682702Y31789302D01*
X40682702Y31789303D01*
X40756894Y31891419D01*
X40756898Y31891425D01*
X40871232Y32115816D01*
X40949054Y32355331D01*
X40988452Y32604072D01*
X40988452Y32855929D01*
X54048452Y32855929D01*
X54048452Y32604072D01*
X54087849Y32355331D01*
X54165671Y32115816D01*
X54280009Y31891417D01*
X54354200Y31789303D01*
X54354200Y31789302D01*
X54970873Y32405976D01*
X54983811Y32374742D01*
X55065889Y32251903D01*
X55170355Y32147437D01*
X55293194Y32065359D01*
X55324426Y32052423D01*
X54707752Y31435750D01*
X54809868Y31361558D01*
X55034267Y31247220D01*
X55273782Y31169398D01*
X55522524Y31130000D01*
X55774380Y31130000D01*
X56023121Y31169398D01*
X56262636Y31247220D01*
X56487027Y31361554D01*
X56487033Y31361558D01*
X56589149Y31435750D01*
X56589150Y31435750D01*
X56487647Y31537253D01*
X56406053Y31618847D01*
X64693952Y31618847D01*
X64693952Y31461154D01*
X64724713Y31306511D01*
X64724716Y31306499D01*
X64785055Y31160826D01*
X64785056Y31160825D01*
X64785058Y31160821D01*
X64846054Y31069535D01*
X64866932Y31002858D01*
X64866952Y31000644D01*
X64866952Y29979358D01*
X64847267Y29912319D01*
X64846054Y29910467D01*
X64785061Y29819186D01*
X64785054Y29819173D01*
X64724716Y29673502D01*
X64724713Y29673490D01*
X64693952Y29518847D01*
X64693952Y29361154D01*
X64724713Y29206511D01*
X64724716Y29206499D01*
X64785054Y29060828D01*
X64785061Y29060815D01*
X64872662Y28929712D01*
X64872665Y28929708D01*
X64984159Y28818214D01*
X64984163Y28818211D01*
X65115266Y28730610D01*
X65115279Y28730603D01*
X65205961Y28693042D01*
X65260955Y28670263D01*
X65375387Y28647501D01*
X65415605Y28639501D01*
X65415608Y28639500D01*
X65415610Y28639500D01*
X65573296Y28639500D01*
X65573297Y28639501D01*
X65727949Y28670263D01*
X65840618Y28716933D01*
X65873624Y28730603D01*
X65873624Y28730604D01*
X65873631Y28730606D01*
X66004741Y28818211D01*
X66116241Y28929711D01*
X66203846Y29060821D01*
X66264189Y29206503D01*
X66294952Y29361158D01*
X66294952Y29518842D01*
X66294952Y29518845D01*
X66294951Y29518847D01*
X66279680Y29595617D01*
X66264189Y29673497D01*
X66253102Y29700263D01*
X66203849Y29819173D01*
X66203842Y29819186D01*
X66142850Y29910467D01*
X66121972Y29977145D01*
X66121952Y29979358D01*
X66121952Y31000644D01*
X66141637Y31067683D01*
X66142850Y31069535D01*
X66203846Y31160821D01*
X66264189Y31306503D01*
X66294952Y31461158D01*
X66294952Y31618842D01*
X66294952Y31618845D01*
X66294951Y31618847D01*
X66272147Y31733490D01*
X66264189Y31773497D01*
X66264187Y31773502D01*
X66203849Y31919173D01*
X66203842Y31919186D01*
X66116241Y32050289D01*
X66116238Y32050293D01*
X66004744Y32161787D01*
X66004740Y32161790D01*
X65873637Y32249391D01*
X65873624Y32249398D01*
X65727953Y32309736D01*
X65727941Y32309739D01*
X65573297Y32340500D01*
X65573294Y32340500D01*
X65415610Y32340500D01*
X65415607Y32340500D01*
X65260962Y32309739D01*
X65260950Y32309736D01*
X65115279Y32249398D01*
X65115266Y32249391D01*
X64984163Y32161790D01*
X64984159Y32161787D01*
X64872665Y32050293D01*
X64872662Y32050289D01*
X64785061Y31919186D01*
X64785054Y31919173D01*
X64724716Y31773502D01*
X64724713Y31773490D01*
X64693952Y31618847D01*
X56406053Y31618847D01*
X55972477Y32052422D01*
X56003710Y32065359D01*
X56126549Y32147437D01*
X56231015Y32251903D01*
X56313093Y32374742D01*
X56326030Y32405975D01*
X56942702Y31789302D01*
X56942702Y31789303D01*
X57016894Y31891419D01*
X57016898Y31891425D01*
X57131232Y32115816D01*
X57209054Y32355331D01*
X57248452Y32604072D01*
X57248452Y32855929D01*
X57209054Y33104670D01*
X57131232Y33344185D01*
X57016894Y33568584D01*
X56942702Y33670699D01*
X56942702Y33670700D01*
X56326029Y33054027D01*
X56313093Y33085258D01*
X56231015Y33208097D01*
X56126549Y33312563D01*
X56003710Y33394641D01*
X55972476Y33407579D01*
X56589150Y34024252D01*
X56487035Y34098443D01*
X56262636Y34212781D01*
X56023121Y34290603D01*
X55774380Y34330000D01*
X55522524Y34330000D01*
X55273782Y34290603D01*
X55034267Y34212781D01*
X54809865Y34098441D01*
X54707753Y34024253D01*
X54707752Y34024252D01*
X55324426Y33407579D01*
X55293194Y33394641D01*
X55170355Y33312563D01*
X55065889Y33208097D01*
X54983811Y33085258D01*
X54970873Y33054026D01*
X54354200Y33670700D01*
X54354199Y33670699D01*
X54280011Y33568587D01*
X54165671Y33344185D01*
X54087849Y33104670D01*
X54048452Y32855929D01*
X40988452Y32855929D01*
X40949054Y33104670D01*
X40871232Y33344185D01*
X40756894Y33568584D01*
X40682702Y33670699D01*
X40682702Y33670700D01*
X40066029Y33054027D01*
X40053093Y33085258D01*
X39971015Y33208097D01*
X39866549Y33312563D01*
X39743710Y33394641D01*
X39712476Y33407579D01*
X40329150Y34024252D01*
X40227035Y34098443D01*
X40002636Y34212781D01*
X39763121Y34290603D01*
X39514380Y34330000D01*
X39262524Y34330000D01*
X39013782Y34290603D01*
X38774267Y34212781D01*
X38549865Y34098441D01*
X38447753Y34024253D01*
X38447752Y34024252D01*
X39064426Y33407579D01*
X39033194Y33394641D01*
X38910355Y33312563D01*
X38805889Y33208097D01*
X38723811Y33085258D01*
X38710873Y33054026D01*
X38094200Y33670700D01*
X38094199Y33670699D01*
X38020011Y33568587D01*
X37905671Y33344185D01*
X37827849Y33104670D01*
X37788452Y32855929D01*
X24458452Y32855929D01*
X24458452Y32875929D01*
X24419054Y33124670D01*
X24341232Y33364185D01*
X24226894Y33588584D01*
X24152702Y33690699D01*
X24152702Y33690700D01*
X23536029Y33074027D01*
X23523093Y33105258D01*
X23441015Y33228097D01*
X23336549Y33332563D01*
X23213710Y33414641D01*
X23182476Y33427579D01*
X23799150Y34044252D01*
X23697035Y34118443D01*
X23472636Y34232781D01*
X23233121Y34310603D01*
X22984380Y34350000D01*
X22732524Y34350000D01*
X22483782Y34310603D01*
X22244267Y34232781D01*
X22019865Y34118441D01*
X21917753Y34044253D01*
X21917752Y34044252D01*
X22534426Y33427579D01*
X22503194Y33414641D01*
X22380355Y33332563D01*
X22275889Y33228097D01*
X22193811Y33105258D01*
X22180873Y33074026D01*
X21564200Y33690700D01*
X21564199Y33690699D01*
X21490011Y33588587D01*
X21375671Y33364185D01*
X21297849Y33124670D01*
X21258452Y32875929D01*
X300500Y32875929D01*
X300500Y37271614D01*
X7518952Y37271614D01*
X7518952Y36608387D01*
X7525365Y36537808D01*
X7525365Y36537806D01*
X7525366Y36537804D01*
X7575974Y36375394D01*
X7621649Y36299838D01*
X7663982Y36229812D01*
X7784263Y36109531D01*
X7784265Y36109530D01*
X7784267Y36109528D01*
X7929846Y36021522D01*
X8092256Y35970914D01*
X8162836Y35964500D01*
X8162839Y35964500D01*
X8676065Y35964500D01*
X8676068Y35964500D01*
X8746648Y35970914D01*
X8909058Y36021522D01*
X9054637Y36109528D01*
X9054641Y36109532D01*
X9156771Y36211661D01*
X9218094Y36245146D01*
X9287786Y36240162D01*
X9332133Y36211661D01*
X9434263Y36109531D01*
X9434265Y36109530D01*
X9434267Y36109528D01*
X9579846Y36021522D01*
X9742256Y35970914D01*
X9812836Y35964500D01*
X9812839Y35964500D01*
X10326065Y35964500D01*
X10326068Y35964500D01*
X10396648Y35970914D01*
X10559058Y36021522D01*
X10704637Y36109528D01*
X10824924Y36229815D01*
X10838729Y36252651D01*
X10890257Y36299838D01*
X10944845Y36312500D01*
X14416256Y36312500D01*
X14416257Y36312501D01*
X14537487Y36336614D01*
X14630792Y36375263D01*
X14651685Y36383917D01*
X14754460Y36452589D01*
X14841863Y36539992D01*
X16191863Y37889992D01*
X16358052Y38056181D01*
X16419375Y38089666D01*
X16445733Y38092500D01*
X17515095Y38092500D01*
X17582134Y38072815D01*
X17583986Y38071602D01*
X17675266Y38010610D01*
X17675279Y38010603D01*
X17820950Y37950265D01*
X17820955Y37950263D01*
X17975605Y37919501D01*
X17975608Y37919500D01*
X17975610Y37919500D01*
X18133296Y37919500D01*
X18133297Y37919501D01*
X18287949Y37950263D01*
X18433631Y38010606D01*
X18564741Y38098211D01*
X18676241Y38209711D01*
X18763846Y38340821D01*
X18824189Y38486503D01*
X18854952Y38641158D01*
X18854952Y38798842D01*
X18854952Y38798845D01*
X18854951Y38798847D01*
X18824190Y38953490D01*
X18824189Y38953497D01*
X18795197Y39023490D01*
X18763849Y39099173D01*
X18763842Y39099186D01*
X18676241Y39230289D01*
X18676238Y39230293D01*
X18564744Y39341787D01*
X18564740Y39341790D01*
X18433637Y39429391D01*
X18433624Y39429398D01*
X18287953Y39489736D01*
X18287941Y39489739D01*
X18133297Y39520500D01*
X18133294Y39520500D01*
X17975610Y39520500D01*
X17975607Y39520500D01*
X17820962Y39489739D01*
X17820950Y39489736D01*
X17675279Y39429398D01*
X17675266Y39429391D01*
X17583986Y39368398D01*
X17517309Y39347520D01*
X17515095Y39347500D01*
X16072644Y39347500D01*
X15951425Y39323388D01*
X15951413Y39323385D01*
X15895656Y39300290D01*
X15895657Y39300289D01*
X15837215Y39276082D01*
X15745052Y39214499D01*
X15745050Y39214498D01*
X15734445Y39207413D01*
X15734440Y39207409D01*
X15304444Y38777411D01*
X14130852Y37603819D01*
X14069529Y37570334D01*
X14043171Y37567500D01*
X10944845Y37567500D01*
X10877806Y37587185D01*
X10838729Y37627349D01*
X10824923Y37650186D01*
X10824920Y37650190D01*
X10733271Y37741839D01*
X10699786Y37803162D01*
X10696952Y37829520D01*
X10696952Y43728127D01*
X10716637Y43795166D01*
X10717850Y43797018D01*
X10773846Y43880821D01*
X10834189Y44026503D01*
X10864952Y44181158D01*
X10864952Y44338842D01*
X10864952Y44338845D01*
X10864951Y44338847D01*
X10864315Y44342043D01*
X10834189Y44493497D01*
X10823086Y44520302D01*
X10773849Y44639173D01*
X10773842Y44639186D01*
X10686241Y44770289D01*
X10686238Y44770293D01*
X10574744Y44881787D01*
X10574740Y44881790D01*
X10443637Y44969391D01*
X10443624Y44969398D01*
X10297953Y45029736D01*
X10297941Y45029739D01*
X10143297Y45060500D01*
X10143294Y45060500D01*
X9985610Y45060500D01*
X9985607Y45060500D01*
X9830962Y45029739D01*
X9830950Y45029736D01*
X9685279Y44969398D01*
X9685266Y44969391D01*
X9554163Y44881790D01*
X9554159Y44881787D01*
X9442665Y44770293D01*
X9442662Y44770289D01*
X9355061Y44639186D01*
X9355054Y44639173D01*
X9294716Y44493502D01*
X9294713Y44493490D01*
X9263952Y44338847D01*
X9263952Y44181154D01*
X9294713Y44026511D01*
X9294716Y44026499D01*
X9355055Y43880826D01*
X9355056Y43880825D01*
X9355058Y43880821D01*
X9416945Y43788202D01*
X9421054Y43782052D01*
X9441932Y43715375D01*
X9441952Y43713161D01*
X9441952Y37829520D01*
X9422267Y37762481D01*
X9405633Y37741839D01*
X9332133Y37668339D01*
X9270810Y37634854D01*
X9201118Y37639838D01*
X9156771Y37668339D01*
X9054640Y37770470D01*
X9046951Y37775118D01*
X8909058Y37858478D01*
X8746648Y37909086D01*
X8746646Y37909087D01*
X8746644Y37909087D01*
X8697230Y37913577D01*
X8676068Y37915500D01*
X8162836Y37915500D01*
X8143597Y37913752D01*
X8092259Y37909087D01*
X7929845Y37858478D01*
X7784263Y37770470D01*
X7663982Y37650189D01*
X7575974Y37504607D01*
X7525365Y37342193D01*
X7518952Y37271614D01*
X300500Y37271614D01*
X300500Y53998847D01*
X8773952Y53998847D01*
X8773952Y53841154D01*
X8804713Y53686511D01*
X8804716Y53686499D01*
X8865054Y53540828D01*
X8865061Y53540815D01*
X8952662Y53409712D01*
X8952665Y53409708D01*
X9064159Y53298214D01*
X9064163Y53298211D01*
X9195266Y53210610D01*
X9195279Y53210603D01*
X9304384Y53165411D01*
X9340955Y53150263D01*
X9495605Y53119501D01*
X9495608Y53119500D01*
X9495610Y53119500D01*
X9653296Y53119500D01*
X9653297Y53119501D01*
X9807949Y53150263D01*
X9953631Y53210606D01*
X9963205Y53217004D01*
X10029881Y53237880D01*
X10032094Y53237900D01*
X10183720Y53237900D01*
X23855571Y53237900D01*
X23922610Y53218215D01*
X23968365Y53165411D01*
X23978309Y53096253D01*
X23949284Y53032697D01*
X23943252Y53026219D01*
X22684444Y51767411D01*
X22633643Y51716610D01*
X22597041Y51680008D01*
X22528367Y51577230D01*
X22521810Y51561403D01*
X22521811Y51561402D01*
X22481067Y51463038D01*
X22481064Y51463028D01*
X22461335Y51363841D01*
X22456952Y51341808D01*
X22456952Y51131281D01*
X22437267Y51064242D01*
X22420633Y51043600D01*
X22254444Y50877411D01*
X22228823Y50851790D01*
X22167038Y50790006D01*
X22167037Y50790004D01*
X22098375Y50687244D01*
X22098370Y50687236D01*
X22098369Y50687233D01*
X22094840Y50678713D01*
X22088419Y50663211D01*
X22051066Y50573036D01*
X22051064Y50573028D01*
X22031499Y50474672D01*
X22031500Y50474671D01*
X22026952Y50451804D01*
X22026952Y50379358D01*
X22007267Y50312319D01*
X22006054Y50310467D01*
X21945061Y50219186D01*
X21945054Y50219173D01*
X21884716Y50073502D01*
X21884713Y50073490D01*
X21853952Y49918847D01*
X21853952Y49761156D01*
X21854549Y49755093D01*
X21852073Y49754850D01*
X21846834Y49696128D01*
X21803984Y49640940D01*
X21738100Y49617679D01*
X21731433Y49617500D01*
X18902644Y49617500D01*
X18781425Y49593389D01*
X18781425Y49593388D01*
X18781422Y49593387D01*
X18781418Y49593386D01*
X18714522Y49565677D01*
X18714520Y49565677D01*
X18667222Y49546085D01*
X18667212Y49546080D01*
X18592161Y49495931D01*
X18592160Y49495930D01*
X18564441Y49477410D01*
X18564440Y49477409D01*
X17150852Y48063819D01*
X17089529Y48030334D01*
X17063171Y48027500D01*
X14695733Y48027500D01*
X14628694Y48047185D01*
X14608052Y48063819D01*
X14559543Y48112328D01*
X14526058Y48173651D01*
X14525635Y48175677D01*
X14504189Y48283497D01*
X14463879Y48380815D01*
X14443849Y48429173D01*
X14443842Y48429186D01*
X14356241Y48560289D01*
X14356238Y48560293D01*
X14244744Y48671787D01*
X14244740Y48671790D01*
X14113637Y48759391D01*
X14113624Y48759398D01*
X13967953Y48819736D01*
X13967941Y48819739D01*
X13813297Y48850500D01*
X13813294Y48850500D01*
X13655610Y48850500D01*
X13655607Y48850500D01*
X13500962Y48819739D01*
X13500950Y48819736D01*
X13355279Y48759398D01*
X13355266Y48759391D01*
X13224163Y48671790D01*
X13224159Y48671787D01*
X13112665Y48560293D01*
X13112662Y48560289D01*
X13025061Y48429186D01*
X13025054Y48429173D01*
X12964716Y48283502D01*
X12964713Y48283490D01*
X12933952Y48128847D01*
X12933952Y47971154D01*
X12964713Y47816511D01*
X12964716Y47816499D01*
X13025054Y47670828D01*
X13025061Y47670815D01*
X13112662Y47539712D01*
X13112665Y47539708D01*
X13224159Y47428214D01*
X13224163Y47428211D01*
X13355266Y47340610D01*
X13355279Y47340603D01*
X13404564Y47320189D01*
X13500955Y47280263D01*
X13608637Y47258844D01*
X13670544Y47226461D01*
X13672124Y47224909D01*
X13897041Y46999992D01*
X13947505Y46949528D01*
X13984445Y46912588D01*
X14087212Y46843921D01*
X14087225Y46843914D01*
X14122584Y46829268D01*
X14122585Y46829268D01*
X14201418Y46796614D01*
X14322644Y46772501D01*
X14322648Y46772500D01*
X14322649Y46772500D01*
X14446255Y46772500D01*
X16736092Y46772500D01*
X16803131Y46752815D01*
X16848886Y46700011D01*
X16858830Y46630853D01*
X16829805Y46567297D01*
X16823773Y46560819D01*
X11776966Y41514013D01*
X11715643Y41480528D01*
X11713477Y41480077D01*
X11560960Y41449739D01*
X11560950Y41449736D01*
X11415279Y41389398D01*
X11415266Y41389391D01*
X11284163Y41301790D01*
X11284159Y41301787D01*
X11172665Y41190293D01*
X11172662Y41190289D01*
X11085061Y41059186D01*
X11085054Y41059173D01*
X11024716Y40913502D01*
X11024713Y40913490D01*
X10993952Y40758847D01*
X10993952Y40601154D01*
X11024713Y40446511D01*
X11024716Y40446499D01*
X11085054Y40300828D01*
X11085061Y40300815D01*
X11172662Y40169712D01*
X11172665Y40169708D01*
X11284159Y40058214D01*
X11284163Y40058211D01*
X11415266Y39970610D01*
X11415279Y39970603D01*
X11560950Y39910265D01*
X11560955Y39910263D01*
X11715605Y39879501D01*
X11715608Y39879500D01*
X11715610Y39879500D01*
X11873296Y39879500D01*
X11873297Y39879501D01*
X12027949Y39910263D01*
X12149730Y39960706D01*
X12173624Y39970603D01*
X12173624Y39970604D01*
X12173631Y39970606D01*
X12304741Y40058211D01*
X12416241Y40169711D01*
X12503846Y40300821D01*
X12564189Y40446503D01*
X12594528Y40599025D01*
X12626913Y40660936D01*
X12628408Y40662459D01*
X19477531Y47511581D01*
X19538854Y47545066D01*
X19565212Y47547900D01*
X28947081Y47547900D01*
X29014120Y47528215D01*
X29015972Y47527002D01*
X29145266Y47440610D01*
X29145279Y47440603D01*
X29290950Y47380265D01*
X29290955Y47380263D01*
X29414657Y47355657D01*
X29445605Y47349501D01*
X29445608Y47349500D01*
X29445610Y47349500D01*
X29603296Y47349500D01*
X29603297Y47349501D01*
X29757949Y47380263D01*
X29903303Y47440470D01*
X29903624Y47440603D01*
X29903624Y47440604D01*
X29903631Y47440606D01*
X30034741Y47528211D01*
X30034741Y47528212D01*
X30039461Y47531365D01*
X30106138Y47552243D01*
X30173518Y47533759D01*
X30220209Y47481780D01*
X30232352Y47428263D01*
X30232352Y46190760D01*
X30212667Y46123721D01*
X30196033Y46103079D01*
X29811373Y45718419D01*
X29750050Y45684934D01*
X29723692Y45682100D01*
X22865184Y45682100D01*
X22820718Y45670185D01*
X22712048Y45641067D01*
X22712043Y45641064D01*
X22606744Y45580270D01*
X22606744Y45580269D01*
X22574755Y45561801D01*
X22574752Y45561799D01*
X21782653Y44769700D01*
X21782651Y44769697D01*
X21703385Y44632403D01*
X21702097Y44627597D01*
X21665309Y44490301D01*
X21662352Y44479267D01*
X21662352Y42525835D01*
X21642667Y42458796D01*
X21634209Y42447174D01*
X21632661Y42445288D01*
X21545061Y42314187D01*
X21545054Y42314174D01*
X21484716Y42168503D01*
X21484713Y42168491D01*
X21453952Y42013848D01*
X21453952Y41856155D01*
X21484713Y41701512D01*
X21484716Y41701500D01*
X21545054Y41555829D01*
X21545061Y41555816D01*
X21632662Y41424713D01*
X21632665Y41424709D01*
X21744159Y41313215D01*
X21744163Y41313212D01*
X21875266Y41225611D01*
X21875279Y41225604D01*
X22016848Y41166965D01*
X22020955Y41165264D01*
X22175605Y41134502D01*
X22175608Y41134501D01*
X22175610Y41134501D01*
X22333296Y41134501D01*
X22333297Y41134502D01*
X22487949Y41165264D01*
X22633631Y41225607D01*
X22764741Y41313212D01*
X22876241Y41424712D01*
X22963846Y41555822D01*
X23024189Y41701504D01*
X23054952Y41856159D01*
X23054952Y41856166D01*
X23055549Y41862219D01*
X23057741Y41862004D01*
X23074637Y41919542D01*
X23127441Y41965297D01*
X23196599Y41975241D01*
X23260155Y41946216D01*
X23266632Y41940185D01*
X26747336Y38459480D01*
X26747338Y38459479D01*
X26747342Y38459476D01*
X26831627Y38410815D01*
X26884268Y38380423D01*
X27036995Y38339499D01*
X27036997Y38339499D01*
X27202706Y38339499D01*
X27202722Y38339500D01*
X27233904Y38339500D01*
X27250091Y38338439D01*
X27254183Y38337901D01*
X27254184Y38337900D01*
X27254185Y38337900D01*
X62083718Y38337900D01*
X62083720Y38337900D01*
X62236854Y38378933D01*
X62374150Y38458200D01*
X62374156Y38458207D01*
X62380595Y38463146D01*
X62382114Y38461167D01*
X62432413Y38488643D01*
X62502105Y38483672D01*
X62558046Y38441811D01*
X62563096Y38434541D01*
X62569102Y38425198D01*
X62575058Y38410821D01*
X62662060Y38280614D01*
X62662655Y38279688D01*
X62672208Y38247173D01*
X62682332Y38214843D01*
X62682352Y38212629D01*
X62682352Y37741341D01*
X62662667Y37674302D01*
X62651295Y37660191D01*
X62651528Y37659999D01*
X62647662Y37655289D01*
X62560061Y37524186D01*
X62560054Y37524173D01*
X62499716Y37378502D01*
X62499713Y37378490D01*
X62468952Y37223847D01*
X62468952Y37066154D01*
X62499713Y36911511D01*
X62499716Y36911499D01*
X62560054Y36765828D01*
X62560061Y36765815D01*
X62647662Y36634712D01*
X62647665Y36634708D01*
X62759159Y36523214D01*
X62759163Y36523211D01*
X62890266Y36435610D01*
X62890279Y36435603D01*
X63015062Y36383917D01*
X63035955Y36375263D01*
X63188961Y36344828D01*
X63190605Y36344501D01*
X63190608Y36344500D01*
X63190610Y36344500D01*
X63348296Y36344500D01*
X63348297Y36344501D01*
X63502949Y36375263D01*
X63648631Y36435606D01*
X63779741Y36523211D01*
X63891241Y36634711D01*
X63978846Y36765821D01*
X64039189Y36911503D01*
X64069952Y37066158D01*
X64069952Y37223842D01*
X64069952Y37223845D01*
X64069951Y37223847D01*
X64046410Y37342193D01*
X64039189Y37378497D01*
X64039187Y37378502D01*
X63978849Y37524173D01*
X63978842Y37524186D01*
X63907450Y37631032D01*
X63886572Y37697710D01*
X63886552Y37699923D01*
X63886552Y38212629D01*
X63906237Y38279668D01*
X63907450Y38281520D01*
X63993842Y38410815D01*
X63993842Y38410816D01*
X63993846Y38410821D01*
X64002040Y38430602D01*
X64024022Y38483672D01*
X64054189Y38556503D01*
X64084952Y38711158D01*
X64084952Y38868842D01*
X64084952Y38868845D01*
X64084951Y38868847D01*
X64054190Y39023490D01*
X64054189Y39023497D01*
X64043336Y39049698D01*
X63993849Y39169173D01*
X63993842Y39169186D01*
X63906241Y39300289D01*
X63906238Y39300293D01*
X63794744Y39411787D01*
X63794740Y39411790D01*
X63663637Y39499391D01*
X63663623Y39499398D01*
X63659510Y39501102D01*
X63605109Y39544947D01*
X63583049Y39611242D01*
X63600332Y39678940D01*
X63619280Y39703332D01*
X63801452Y39885502D01*
X63880720Y40022799D01*
X63921752Y40175932D01*
X63921752Y40334468D01*
X63921752Y46003900D01*
X63941437Y46070939D01*
X63994241Y46116694D01*
X64045752Y46127900D01*
X67341492Y46127900D01*
X67408531Y46108215D01*
X67454286Y46055411D01*
X67464230Y45986253D01*
X67435205Y45922697D01*
X67429173Y45916219D01*
X66052653Y44539700D01*
X66052651Y44539697D01*
X65973385Y44402403D01*
X65957211Y44342042D01*
X65932352Y44249268D01*
X65932352Y40210732D01*
X65941676Y40175935D01*
X65973385Y40057597D01*
X65973386Y40057596D01*
X66035794Y39949502D01*
X66035795Y39949500D01*
X66052651Y39920303D01*
X68175033Y37797921D01*
X68208518Y37736598D01*
X68211352Y37710240D01*
X68211352Y28599500D01*
X68191667Y28532461D01*
X68138863Y28486706D01*
X68087354Y28475500D01*
X68015582Y28475500D01*
X68015575Y28475499D01*
X67955968Y28469092D01*
X67821123Y28418798D01*
X67821116Y28418794D01*
X67705907Y28332548D01*
X67705904Y28332545D01*
X67619658Y28217336D01*
X67619654Y28217329D01*
X67569360Y28082483D01*
X67562953Y28022884D01*
X67562953Y28022877D01*
X67562952Y28022865D01*
X67562952Y26427130D01*
X67562953Y26427124D01*
X67569360Y26367517D01*
X67619654Y26232672D01*
X67619658Y26232665D01*
X67705904Y26117456D01*
X67705907Y26117453D01*
X67821116Y26031207D01*
X67821123Y26031203D01*
X67955969Y25980909D01*
X67955968Y25980909D01*
X67962896Y25980165D01*
X68015579Y25974500D01*
X69611324Y25974501D01*
X69670935Y25980909D01*
X69805783Y26031204D01*
X69920998Y26117454D01*
X70007248Y26232669D01*
X70014646Y26252505D01*
X70022142Y26272601D01*
X70064013Y26328535D01*
X70129477Y26352952D01*
X70197750Y26338101D01*
X70226005Y26316949D01*
X70246033Y26296921D01*
X70279518Y26235598D01*
X70282352Y26209240D01*
X70282352Y21880761D01*
X70262667Y21813722D01*
X70246033Y21793080D01*
X69964757Y21511805D01*
X69903434Y21478320D01*
X69833742Y21483304D01*
X69777809Y21525176D01*
X69776759Y21526600D01*
X69767284Y21539640D01*
X69767280Y21539646D01*
X69628098Y21678828D01*
X69468857Y21794524D01*
X69460382Y21798842D01*
X69293481Y21883883D01*
X69106278Y21944710D01*
X68911874Y21975500D01*
X68911869Y21975500D01*
X68715035Y21975500D01*
X68715030Y21975500D01*
X68520625Y21944710D01*
X68333422Y21883883D01*
X68158046Y21794524D01*
X68067193Y21728515D01*
X67998806Y21678828D01*
X67998804Y21678826D01*
X67998803Y21678826D01*
X67859626Y21539649D01*
X67859626Y21539648D01*
X67859624Y21539646D01*
X67827683Y21495683D01*
X67743928Y21380406D01*
X67654569Y21205030D01*
X67593742Y21017827D01*
X67562952Y20823423D01*
X67562952Y20626578D01*
X67593742Y20432174D01*
X67654569Y20244971D01*
X67742812Y20071786D01*
X67743928Y20069595D01*
X67859624Y19910354D01*
X67998806Y19771172D01*
X68158047Y19655476D01*
X68240907Y19613257D01*
X68333422Y19566118D01*
X68333424Y19566118D01*
X68333427Y19566116D01*
X68430438Y19534595D01*
X68520625Y19505291D01*
X68715030Y19474500D01*
X68715035Y19474500D01*
X68911874Y19474500D01*
X69106278Y19505291D01*
X69107780Y19505779D01*
X69293477Y19566116D01*
X69468857Y19655476D01*
X69628098Y19771172D01*
X69767280Y19910354D01*
X69882976Y20069595D01*
X69882975Y20069595D01*
X69884568Y20071786D01*
X69939899Y20114451D01*
X69984886Y20122900D01*
X70108718Y20122900D01*
X70108720Y20122900D01*
X70261854Y20163933D01*
X70399150Y20243200D01*
X70511252Y20355302D01*
X71366252Y21210302D01*
X71445520Y21347599D01*
X71486552Y21500732D01*
X71486552Y21659268D01*
X71486552Y24073423D01*
X72512952Y24073423D01*
X72512952Y23876578D01*
X72543742Y23682174D01*
X72604569Y23494971D01*
X72651937Y23402007D01*
X72693928Y23319595D01*
X72809624Y23160354D01*
X72948806Y23021172D01*
X73108047Y22905476D01*
X73190907Y22863257D01*
X73283422Y22816118D01*
X73283424Y22816118D01*
X73283427Y22816116D01*
X73369980Y22787993D01*
X73470625Y22755291D01*
X73665030Y22724500D01*
X73665035Y22724500D01*
X73861874Y22724500D01*
X74056278Y22755291D01*
X74071700Y22760302D01*
X74243477Y22816116D01*
X74418857Y22905476D01*
X74578098Y23021172D01*
X74717280Y23160354D01*
X74832976Y23319595D01*
X74922336Y23494975D01*
X74983161Y23682174D01*
X74983180Y23682295D01*
X75013952Y23876578D01*
X75013952Y24073423D01*
X74983161Y24267827D01*
X74943268Y24390602D01*
X74922336Y24455025D01*
X74922334Y24455028D01*
X74922334Y24455030D01*
X74874729Y24548459D01*
X74832976Y24630405D01*
X74717280Y24789646D01*
X74578098Y24928828D01*
X74418857Y25044524D01*
X74371405Y25068702D01*
X74243481Y25133883D01*
X74056278Y25194710D01*
X73861874Y25225500D01*
X73861869Y25225500D01*
X73665035Y25225500D01*
X73665030Y25225500D01*
X73470625Y25194710D01*
X73283422Y25133883D01*
X73108046Y25044524D01*
X73060116Y25009700D01*
X72948806Y24928828D01*
X72948804Y24928826D01*
X72948803Y24928826D01*
X72809626Y24789649D01*
X72809626Y24789648D01*
X72809624Y24789646D01*
X72800984Y24777754D01*
X72693928Y24630406D01*
X72604569Y24455030D01*
X72543742Y24267827D01*
X72512952Y24073423D01*
X71486552Y24073423D01*
X71486552Y26589268D01*
X71469611Y26652493D01*
X71445520Y26742401D01*
X71397889Y26824901D01*
X71366254Y26879695D01*
X71366250Y26879700D01*
X70922567Y27323383D01*
X72063452Y27323383D01*
X72063452Y27126618D01*
X72094230Y26932295D01*
X72155033Y26745165D01*
X72244357Y26569855D01*
X72269771Y26534875D01*
X72269772Y26534875D01*
X72830489Y27095592D01*
X72847527Y27032007D01*
X72913353Y26917993D01*
X73006445Y26824901D01*
X73120459Y26759075D01*
X73184042Y26742038D01*
X72623325Y26181323D01*
X72623325Y26181322D01*
X72658310Y26155904D01*
X72833616Y26066582D01*
X73020746Y26005779D01*
X73215070Y25975000D01*
X73411834Y25975000D01*
X73606157Y26005779D01*
X73793287Y26066582D01*
X73968595Y26155905D01*
X74003577Y26181322D01*
X74003578Y26181322D01*
X73442862Y26742038D01*
X73506445Y26759075D01*
X73620459Y26824901D01*
X73713551Y26917993D01*
X73779377Y27032007D01*
X73796414Y27095590D01*
X74357130Y26534874D01*
X74357130Y26534875D01*
X74382547Y26569857D01*
X74471870Y26745165D01*
X74532673Y26932295D01*
X74563452Y27126618D01*
X74563452Y27323383D01*
X74532673Y27517706D01*
X74471870Y27704836D01*
X74382548Y27880142D01*
X74357130Y27915127D01*
X74357129Y27915127D01*
X73796414Y27354411D01*
X73779377Y27417993D01*
X73713551Y27532007D01*
X73620459Y27625099D01*
X73506445Y27690925D01*
X73442861Y27707963D01*
X74003577Y28268680D01*
X74003577Y28268681D01*
X73968597Y28294095D01*
X73793287Y28383419D01*
X73606157Y28444222D01*
X73411834Y28475000D01*
X73215070Y28475000D01*
X73020746Y28444222D01*
X72833613Y28383418D01*
X72658315Y28294101D01*
X72658311Y28294098D01*
X72623325Y28268680D01*
X72623324Y28268680D01*
X73184042Y27707963D01*
X73120459Y27690925D01*
X73006445Y27625099D01*
X72913353Y27532007D01*
X72847527Y27417993D01*
X72830489Y27354410D01*
X72269772Y27915128D01*
X72269772Y27915127D01*
X72244354Y27880141D01*
X72244351Y27880137D01*
X72155034Y27704839D01*
X72094230Y27517706D01*
X72063452Y27323383D01*
X70922567Y27323383D01*
X70539151Y27706799D01*
X70539150Y27706800D01*
X70401854Y27786067D01*
X70401855Y27786067D01*
X70341769Y27802167D01*
X70248720Y27827100D01*
X70248718Y27827100D01*
X70187951Y27827100D01*
X70120912Y27846785D01*
X70075157Y27899589D01*
X70063951Y27951100D01*
X70063951Y28022871D01*
X70063950Y28022877D01*
X70063949Y28022884D01*
X70057591Y28082040D01*
X70057543Y28082484D01*
X70021885Y28178088D01*
X70007249Y28217329D01*
X70007245Y28217336D01*
X69920999Y28332545D01*
X69920996Y28332548D01*
X69805787Y28418794D01*
X69805780Y28418798D01*
X69670934Y28469092D01*
X69670935Y28469092D01*
X69611335Y28475499D01*
X69611333Y28475500D01*
X69611325Y28475500D01*
X69611317Y28475500D01*
X69539552Y28475500D01*
X69472513Y28495185D01*
X69426758Y28547989D01*
X69415552Y28599500D01*
X69415552Y38090266D01*
X69415552Y38090268D01*
X69401279Y38143535D01*
X69374520Y38243401D01*
X69296271Y38378933D01*
X69295254Y38380695D01*
X69295250Y38380700D01*
X67172871Y40503079D01*
X67139386Y40564402D01*
X67136552Y40590760D01*
X67136552Y40694074D01*
X67156237Y40761113D01*
X67209041Y40806868D01*
X67278199Y40816812D01*
X67284744Y40815691D01*
X67365475Y40799632D01*
X67365478Y40799632D01*
X67523164Y40799632D01*
X67523165Y40799633D01*
X67677817Y40830395D01*
X67823499Y40890738D01*
X67901366Y40942767D01*
X67952800Y40977134D01*
X68019477Y40998012D01*
X68021691Y40998032D01*
X69899952Y40998032D01*
X69966991Y40978347D01*
X70012746Y40925543D01*
X70023952Y40874032D01*
X70023952Y40831154D01*
X70054713Y40676511D01*
X70054716Y40676499D01*
X70115054Y40530828D01*
X70115061Y40530815D01*
X70202662Y40399712D01*
X70202665Y40399708D01*
X70314159Y40288214D01*
X70314163Y40288211D01*
X70445266Y40200610D01*
X70445279Y40200603D01*
X70590950Y40140265D01*
X70590955Y40140263D01*
X70659415Y40126646D01*
X70743476Y40109924D01*
X70805387Y40077539D01*
X70806966Y40075988D01*
X72416033Y38466921D01*
X72449518Y38405598D01*
X72452352Y38379240D01*
X72452352Y29960732D01*
X72473451Y29881992D01*
X72493385Y29807597D01*
X72493386Y29807596D01*
X72529817Y29744495D01*
X72555353Y29700265D01*
X72571242Y29672743D01*
X72572652Y29670302D01*
X72922652Y29320302D01*
X73034754Y29208200D01*
X73172050Y29128933D01*
X73325184Y29087900D01*
X74803692Y29087900D01*
X74870731Y29068215D01*
X74891373Y29051581D01*
X78410882Y25532072D01*
X78444367Y25470749D01*
X78439383Y25401057D01*
X78397511Y25345124D01*
X78370654Y25329830D01*
X78345143Y25319264D01*
X78345134Y25319259D01*
X78214031Y25231658D01*
X78214027Y25231655D01*
X78102533Y25120161D01*
X78102527Y25120153D01*
X78014927Y24989051D01*
X78009125Y24975043D01*
X77982247Y24934821D01*
X75098395Y22050970D01*
X75098394Y22050969D01*
X75015824Y21927393D01*
X75015823Y21927391D01*
X75015822Y21927389D01*
X74997802Y21883884D01*
X74962578Y21798845D01*
X74962578Y21798844D01*
X74958946Y21790077D01*
X74958945Y21790073D01*
X74929951Y21644315D01*
X74929951Y21489575D01*
X74929952Y21489554D01*
X74929952Y20443887D01*
X74910267Y20376848D01*
X74893633Y20356206D01*
X74687537Y20150111D01*
X74626214Y20116626D01*
X74556522Y20121610D01*
X74500589Y20163482D01*
X74476172Y20228946D01*
X74481925Y20276111D01*
X74532673Y20432297D01*
X74563452Y20626618D01*
X74563452Y20823383D01*
X74532673Y21017706D01*
X74471870Y21204836D01*
X74382548Y21380142D01*
X74357130Y21415127D01*
X74357129Y21415127D01*
X73796414Y20854410D01*
X73779377Y20917993D01*
X73713551Y21032007D01*
X73620459Y21125099D01*
X73506445Y21190925D01*
X73442861Y21207963D01*
X74003577Y21768680D01*
X74003577Y21768681D01*
X73968597Y21794095D01*
X73793287Y21883419D01*
X73606157Y21944222D01*
X73411834Y21975000D01*
X73215070Y21975000D01*
X73020746Y21944222D01*
X72833613Y21883418D01*
X72658315Y21794101D01*
X72658311Y21794098D01*
X72623325Y21768680D01*
X72623324Y21768680D01*
X73184042Y21207963D01*
X73120459Y21190925D01*
X73006445Y21125099D01*
X72913353Y21032007D01*
X72847527Y20917993D01*
X72830489Y20854410D01*
X72269772Y21415128D01*
X72269772Y21415127D01*
X72244354Y21380141D01*
X72244351Y21380137D01*
X72155034Y21204839D01*
X72094230Y21017706D01*
X72063452Y20823383D01*
X72063452Y20626618D01*
X72094230Y20432295D01*
X72155033Y20245165D01*
X72244357Y20069855D01*
X72269771Y20034875D01*
X72269772Y20034875D01*
X72830489Y20595592D01*
X72847527Y20532007D01*
X72913353Y20417993D01*
X73006445Y20324901D01*
X73120459Y20259075D01*
X73184042Y20242038D01*
X72623325Y19681323D01*
X72623325Y19681322D01*
X72658310Y19655904D01*
X72833616Y19566582D01*
X73020746Y19505779D01*
X73215070Y19475000D01*
X73411834Y19475000D01*
X73606155Y19505779D01*
X73762341Y19556527D01*
X73832182Y19558522D01*
X73892015Y19522442D01*
X73922844Y19459742D01*
X73914880Y19390327D01*
X73888341Y19350915D01*
X72958246Y18420819D01*
X72896923Y18387334D01*
X72870565Y18384500D01*
X65348338Y18384500D01*
X65281299Y18404185D01*
X65260657Y18420819D01*
X64795271Y18886206D01*
X64761786Y18947529D01*
X64758952Y18973887D01*
X64758952Y21376768D01*
X64768391Y21424220D01*
X64787470Y21470283D01*
X64794189Y21486503D01*
X64824952Y21641158D01*
X64824952Y21798842D01*
X64824952Y21798844D01*
X64824952Y21798845D01*
X64824951Y21798847D01*
X64816150Y21843092D01*
X64794189Y21953497D01*
X64754855Y22048459D01*
X64733849Y22099173D01*
X64733842Y22099186D01*
X64646241Y22230289D01*
X64646238Y22230293D01*
X64534744Y22341787D01*
X64534740Y22341790D01*
X64403637Y22429391D01*
X64403624Y22429398D01*
X64257953Y22489736D01*
X64257941Y22489739D01*
X64103297Y22520500D01*
X64103294Y22520500D01*
X63945610Y22520500D01*
X63945607Y22520500D01*
X63790962Y22489739D01*
X63790950Y22489736D01*
X63645279Y22429398D01*
X63645266Y22429391D01*
X63514163Y22341790D01*
X63514159Y22341787D01*
X63402665Y22230293D01*
X63402662Y22230289D01*
X63315061Y22099186D01*
X63315054Y22099173D01*
X63254716Y21953502D01*
X63254713Y21953490D01*
X63223952Y21798847D01*
X63223952Y21798844D01*
X63223952Y21798842D01*
X63223952Y21641158D01*
X63223952Y21641156D01*
X63223951Y21641156D01*
X63247569Y21522429D01*
X63249952Y21498237D01*
X63249952Y18689448D01*
X63249951Y18689422D01*
X63249951Y18684312D01*
X63249951Y18535688D01*
X63249951Y18535686D01*
X63249950Y18535686D01*
X63278945Y18389927D01*
X63278948Y18389917D01*
X63335818Y18252619D01*
X63335824Y18252608D01*
X63418394Y18129032D01*
X63418395Y18129031D01*
X64394052Y17153376D01*
X64394073Y17153353D01*
X64503480Y17043946D01*
X64503487Y17043940D01*
X64627060Y16961372D01*
X64627061Y16961372D01*
X64627062Y16961371D01*
X64764372Y16904495D01*
X64910135Y16875501D01*
X64910139Y16875500D01*
X64910140Y16875500D01*
X65058764Y16875500D01*
X70340140Y16875500D01*
X73154006Y16875500D01*
X73154026Y16875499D01*
X73160140Y16875499D01*
X73308766Y16875499D01*
X73345461Y16882800D01*
X73430346Y16899685D01*
X73454532Y16904495D01*
X73511407Y16928054D01*
X73591841Y16961370D01*
X73715418Y17043941D01*
X74364258Y17692781D01*
X75164046Y18492570D01*
X76165415Y19493940D01*
X76165418Y19493941D01*
X76270511Y19599034D01*
X76353081Y19722610D01*
X76409957Y19859920D01*
X76438952Y20005688D01*
X76438952Y21206114D01*
X76458637Y21273153D01*
X76475271Y21293795D01*
X77748271Y22566795D01*
X77809594Y22600280D01*
X77879286Y22595296D01*
X77935219Y22553424D01*
X77959636Y22487960D01*
X77959952Y22479114D01*
X77959952Y21494947D01*
X77950514Y21447499D01*
X77944715Y21433497D01*
X77944714Y21433494D01*
X77944712Y21433489D01*
X77913952Y21278847D01*
X77913952Y21121154D01*
X77944713Y20966511D01*
X77944716Y20966499D01*
X78005054Y20820828D01*
X78005061Y20820815D01*
X78092662Y20689712D01*
X78092665Y20689708D01*
X78204159Y20578214D01*
X78204163Y20578211D01*
X78335266Y20490610D01*
X78335279Y20490603D01*
X78458778Y20439449D01*
X78480955Y20430263D01*
X78635605Y20399501D01*
X78635608Y20399500D01*
X78635610Y20399500D01*
X78793296Y20399500D01*
X78793297Y20399501D01*
X78947949Y20430263D01*
X79093631Y20490606D01*
X79224741Y20578211D01*
X79336241Y20689711D01*
X79423846Y20820821D01*
X79484189Y20966503D01*
X79514952Y21121158D01*
X79514952Y21278842D01*
X79514952Y21278845D01*
X79514951Y21278847D01*
X79484191Y21433489D01*
X79484190Y21433492D01*
X79484189Y21433497D01*
X79478389Y21447499D01*
X79468952Y21494947D01*
X79468952Y23174640D01*
X79488637Y23241679D01*
X79541441Y23287434D01*
X79610599Y23297378D01*
X79674155Y23268353D01*
X79680633Y23262321D01*
X80182652Y22760302D01*
X80294754Y22648200D01*
X80432050Y22568933D01*
X80585184Y22527900D01*
X83847692Y22527900D01*
X83914731Y22508215D01*
X83935373Y22491581D01*
X84365773Y22061181D01*
X84399258Y21999858D01*
X84394274Y21930166D01*
X84352402Y21874233D01*
X84286938Y21849816D01*
X84278092Y21849500D01*
X84084716Y21849500D01*
X83889688Y21818611D01*
X83701893Y21757592D01*
X83525947Y21667942D01*
X83366205Y21551885D01*
X83226567Y21412247D01*
X83110510Y21252505D01*
X83110508Y21252501D01*
X83021877Y21078554D01*
X83020860Y21076559D01*
X82959841Y20888764D01*
X82928952Y20693737D01*
X82928952Y20496264D01*
X82959841Y20301237D01*
X83017787Y20122900D01*
X83020861Y20113439D01*
X83075766Y20005684D01*
X83110510Y19937496D01*
X83226567Y19777754D01*
X83366205Y19638116D01*
X83475759Y19558522D01*
X83525951Y19522056D01*
X83701891Y19432409D01*
X83827089Y19391730D01*
X83889688Y19371390D01*
X84084716Y19340500D01*
X84084721Y19340500D01*
X84282188Y19340500D01*
X84477215Y19371390D01*
X84665013Y19432409D01*
X84840953Y19522056D01*
X84946905Y19599034D01*
X85000698Y19638116D01*
X85000700Y19638119D01*
X85000704Y19638121D01*
X85140331Y19777748D01*
X85204634Y19866256D01*
X85259962Y19908920D01*
X85329575Y19914901D01*
X85391371Y19882296D01*
X85424707Y19825536D01*
X85428952Y19809728D01*
X85428953Y19793128D01*
X85435361Y19733517D01*
X85485607Y19598798D01*
X85487133Y19593120D01*
X85486453Y19563826D01*
X85488544Y19534595D01*
X85485652Y19529301D01*
X85485513Y19523269D01*
X85469104Y19498994D01*
X85455059Y19473272D01*
X85448116Y19467946D01*
X85446385Y19465383D01*
X85442740Y19463820D01*
X85429380Y19453568D01*
X85378175Y19424005D01*
X85378161Y19423995D01*
X85162375Y19258417D01*
X85162368Y19258411D01*
X84970041Y19066084D01*
X84970035Y19066077D01*
X84804454Y18850287D01*
X84668451Y18614726D01*
X84668443Y18614710D01*
X84564355Y18363417D01*
X84493956Y18100680D01*
X84473459Y17945000D01*
X85665548Y17945000D01*
X85633452Y17783642D01*
X85633452Y17606358D01*
X85665548Y17445000D01*
X84473460Y17445000D01*
X84493956Y17289321D01*
X84564355Y17026584D01*
X84668443Y16775291D01*
X84668451Y16775275D01*
X84804454Y16539714D01*
X84970035Y16323924D01*
X84970041Y16323917D01*
X85162368Y16131590D01*
X85162375Y16131584D01*
X85378165Y15966003D01*
X85613726Y15830000D01*
X85613742Y15829992D01*
X85865035Y15725904D01*
X86127772Y15655504D01*
X86397439Y15620002D01*
X86397456Y15620000D01*
X86433452Y15620000D01*
X86433452Y16797260D01*
X86444810Y16795000D01*
X86922094Y16795000D01*
X86933452Y16797260D01*
X86933452Y15620000D01*
X86969448Y15620000D01*
X86969464Y15620002D01*
X87239131Y15655504D01*
X87501868Y15725904D01*
X87753161Y15829992D01*
X87753177Y15830000D01*
X87988738Y15966003D01*
X88204528Y16131584D01*
X88204535Y16131590D01*
X88396862Y16323917D01*
X88396868Y16323924D01*
X88562449Y16539714D01*
X88698452Y16775275D01*
X88698460Y16775291D01*
X88802548Y17026584D01*
X88872947Y17289321D01*
X88893444Y17445000D01*
X87701356Y17445000D01*
X87733452Y17606358D01*
X87733452Y17783642D01*
X87701356Y17945000D01*
X88893444Y17945000D01*
X88872947Y18100680D01*
X88802548Y18363417D01*
X88698460Y18614710D01*
X88698452Y18614726D01*
X88562449Y18850287D01*
X88396868Y19066077D01*
X88396862Y19066084D01*
X88204535Y19258411D01*
X88204528Y19258417D01*
X87988742Y19423995D01*
X87988733Y19424001D01*
X87937524Y19453567D01*
X87889309Y19504135D01*
X87876087Y19572742D01*
X87883343Y19604287D01*
X87895961Y19638116D01*
X87931543Y19733517D01*
X87937952Y19793127D01*
X87937951Y21396872D01*
X87931543Y21456483D01*
X87923398Y21478320D01*
X87881249Y21591329D01*
X87881245Y21591336D01*
X87794999Y21706545D01*
X87794996Y21706548D01*
X87679787Y21792794D01*
X87679780Y21792798D01*
X87544934Y21843092D01*
X87544935Y21843092D01*
X87485335Y21849499D01*
X87485333Y21849500D01*
X87485325Y21849500D01*
X87485317Y21849500D01*
X87484230Y21849500D01*
X87483986Y21849572D01*
X87482000Y21849678D01*
X87482025Y21850148D01*
X87417191Y21869185D01*
X87371436Y21921989D01*
X87361492Y21991147D01*
X87374103Y22018763D01*
X87376440Y22048459D01*
X86812860Y22612038D01*
X86876445Y22629075D01*
X86990459Y22694901D01*
X87083551Y22787993D01*
X87149377Y22902007D01*
X87166414Y22965591D01*
X87729993Y22402012D01*
X87729995Y22402012D01*
X87755968Y22437759D01*
X87845578Y22613627D01*
X87906575Y22801354D01*
X87937452Y22996303D01*
X87937452Y23193698D01*
X87906575Y23388647D01*
X87845578Y23576374D01*
X87755972Y23752232D01*
X87755964Y23752245D01*
X87729994Y23787990D01*
X87729993Y23787991D01*
X87166414Y23224411D01*
X87149377Y23287993D01*
X87083551Y23402007D01*
X86990459Y23495099D01*
X86876445Y23560925D01*
X86812861Y23577963D01*
X87376441Y24141543D01*
X87340691Y24167517D01*
X87209750Y24234235D01*
X87158954Y24282210D01*
X87142159Y24350031D01*
X87164697Y24416166D01*
X87209746Y24455203D01*
X87340953Y24522056D01*
X87377294Y24548459D01*
X87500698Y24638116D01*
X87500700Y24638119D01*
X87500704Y24638121D01*
X87640331Y24777748D01*
X87640333Y24777752D01*
X87640336Y24777754D01*
X87691231Y24847808D01*
X87756396Y24937499D01*
X87846043Y25113439D01*
X87907062Y25301237D01*
X87914013Y25345124D01*
X87937952Y25496264D01*
X87937952Y25693737D01*
X87907062Y25888764D01*
X87869041Y26005779D01*
X87846043Y26076561D01*
X87756396Y26252501D01*
X87709572Y26316949D01*
X87637468Y26416194D01*
X87639378Y26417582D01*
X87614736Y26472418D01*
X87625097Y26541515D01*
X87671171Y26594041D01*
X87690127Y26603884D01*
X87753166Y26629995D01*
X87753172Y26629998D01*
X87988738Y26766003D01*
X88204528Y26931584D01*
X88204535Y26931590D01*
X88396862Y27123917D01*
X88396868Y27123924D01*
X88562449Y27339714D01*
X88698452Y27575275D01*
X88698460Y27575291D01*
X88802548Y27826584D01*
X88872947Y28089321D01*
X88893444Y28245000D01*
X87701356Y28245000D01*
X87733452Y28406358D01*
X87733452Y28583642D01*
X87701356Y28745000D01*
X88893444Y28745000D01*
X88872947Y28900680D01*
X88802548Y29163417D01*
X88698460Y29414710D01*
X88698452Y29414726D01*
X88562449Y29650287D01*
X88396868Y29866077D01*
X88396862Y29866084D01*
X88204535Y30058411D01*
X88204528Y30058417D01*
X87988738Y30223998D01*
X87753177Y30360001D01*
X87753161Y30360009D01*
X87501868Y30464097D01*
X87239131Y30534497D01*
X86969464Y30569999D01*
X86969448Y30570000D01*
X86933452Y30570000D01*
X86933452Y29392741D01*
X86922094Y29395000D01*
X86444810Y29395000D01*
X86433452Y29392741D01*
X86433452Y30570000D01*
X86397456Y30570000D01*
X86397439Y30569999D01*
X86127772Y30534497D01*
X85865035Y30464097D01*
X85613742Y30360009D01*
X85613726Y30360001D01*
X85378165Y30223998D01*
X85162375Y30058417D01*
X85162368Y30058411D01*
X84970041Y29866084D01*
X84970035Y29866077D01*
X84804454Y29650287D01*
X84668451Y29414726D01*
X84668443Y29414710D01*
X84564355Y29163417D01*
X84493956Y28900680D01*
X84473459Y28745000D01*
X85665548Y28745000D01*
X85633452Y28583642D01*
X85633452Y28406358D01*
X85665548Y28245000D01*
X84473460Y28245000D01*
X84493956Y28089321D01*
X84564355Y27826584D01*
X84668443Y27575291D01*
X84668451Y27575275D01*
X84804454Y27339714D01*
X84970035Y27123924D01*
X84970041Y27123917D01*
X85162368Y26931590D01*
X85162375Y26931584D01*
X85378165Y26766003D01*
X85613731Y26629998D01*
X85613745Y26629991D01*
X85676776Y26603883D01*
X85731180Y26560043D01*
X85753245Y26493749D01*
X85735966Y26426049D01*
X85729109Y26416432D01*
X85729436Y26416194D01*
X85610508Y26252503D01*
X85543655Y26121298D01*
X85495681Y26070503D01*
X85427859Y26053708D01*
X85361725Y26076246D01*
X85322686Y26121299D01*
X85255972Y26252232D01*
X85255964Y26252245D01*
X85229994Y26287990D01*
X85229993Y26287991D01*
X84666414Y25724411D01*
X84649377Y25787993D01*
X84583551Y25902007D01*
X84490459Y25995099D01*
X84376445Y26060925D01*
X84312861Y26077963D01*
X84876441Y26641543D01*
X84840691Y26667517D01*
X84664825Y26757127D01*
X84477098Y26818124D01*
X84282149Y26849000D01*
X84084755Y26849000D01*
X83889805Y26818124D01*
X83702078Y26757127D01*
X83526214Y26667518D01*
X83526212Y26667517D01*
X83490462Y26641544D01*
X83490462Y26641543D01*
X84054043Y26077963D01*
X83990459Y26060925D01*
X83876445Y25995099D01*
X83783353Y25902007D01*
X83717527Y25787993D01*
X83700489Y25724410D01*
X83136909Y26287990D01*
X83136908Y26287990D01*
X83110935Y26252240D01*
X83110934Y26252238D01*
X83021325Y26076374D01*
X82960328Y25888647D01*
X82929452Y25693698D01*
X82929452Y25496303D01*
X82960328Y25301354D01*
X83021325Y25113627D01*
X83110935Y24937761D01*
X83136909Y24902012D01*
X83136909Y24902011D01*
X83700489Y25465591D01*
X83717527Y25402007D01*
X83783353Y25287993D01*
X83876445Y25194901D01*
X83990459Y25129075D01*
X84054042Y25112038D01*
X83490461Y24548459D01*
X83490462Y24548458D01*
X83526207Y24522488D01*
X83526220Y24522480D01*
X83702078Y24432874D01*
X83889805Y24371877D01*
X84084755Y24341000D01*
X84282149Y24341000D01*
X84477098Y24371877D01*
X84664825Y24432874D01*
X84840693Y24522484D01*
X84876440Y24548457D01*
X84876440Y24548459D01*
X84312862Y25112038D01*
X84376445Y25129075D01*
X84490459Y25194901D01*
X84583551Y25287993D01*
X84649377Y25402007D01*
X84666414Y25465591D01*
X85229993Y24902012D01*
X85229995Y24902012D01*
X85255968Y24937759D01*
X85322687Y25068702D01*
X85370661Y25119498D01*
X85438482Y25136293D01*
X85504617Y25113756D01*
X85543654Y25068706D01*
X85573721Y25009697D01*
X85610510Y24937495D01*
X85726567Y24777754D01*
X85866205Y24638116D01*
X85989610Y24548459D01*
X86025951Y24522056D01*
X86157154Y24455204D01*
X86207949Y24407230D01*
X86224744Y24339409D01*
X86202206Y24273274D01*
X86157153Y24234235D01*
X86026214Y24167518D01*
X86026212Y24167517D01*
X85990462Y24141544D01*
X85990462Y24141543D01*
X86554043Y23577963D01*
X86490459Y23560925D01*
X86376445Y23495099D01*
X86283353Y23402007D01*
X86217527Y23287993D01*
X86200489Y23224409D01*
X85636909Y23787990D01*
X85636908Y23787990D01*
X85610935Y23752240D01*
X85610934Y23752238D01*
X85521325Y23576374D01*
X85460328Y23388647D01*
X85429452Y23193698D01*
X85429452Y22999860D01*
X85409767Y22932821D01*
X85356963Y22887066D01*
X85287805Y22877122D01*
X85224249Y22906147D01*
X85217771Y22912179D01*
X84518151Y23611799D01*
X84518150Y23611800D01*
X84380854Y23691067D01*
X84380855Y23691067D01*
X84329809Y23704745D01*
X84227720Y23732100D01*
X84227718Y23732100D01*
X80965212Y23732100D01*
X80898173Y23751785D01*
X80877531Y23768419D01*
X80792871Y23853079D01*
X80759386Y23914402D01*
X80756552Y23940760D01*
X80756552Y24719267D01*
X80740880Y24777754D01*
X80715519Y24872402D01*
X80636252Y25009698D01*
X80524150Y25121800D01*
X75474150Y30171800D01*
X75408440Y30209737D01*
X75408440Y30209738D01*
X75408438Y30209738D01*
X75336856Y30251066D01*
X75336855Y30251067D01*
X75285809Y30264745D01*
X75183720Y30292100D01*
X75183718Y30292100D01*
X73780552Y30292100D01*
X73713513Y30311785D01*
X73667758Y30364589D01*
X73656552Y30416100D01*
X73656552Y30548847D01*
X77733952Y30548847D01*
X77733952Y30391154D01*
X77764713Y30236511D01*
X77764716Y30236499D01*
X77825054Y30090828D01*
X77825061Y30090815D01*
X77912662Y29959712D01*
X77912665Y29959708D01*
X78024159Y29848214D01*
X78024163Y29848211D01*
X78155266Y29760610D01*
X78155279Y29760603D01*
X78300950Y29700265D01*
X78300955Y29700263D01*
X78451573Y29670303D01*
X78455605Y29669501D01*
X78455608Y29669500D01*
X78455610Y29669500D01*
X78613296Y29669500D01*
X78613297Y29669501D01*
X78767949Y29700263D01*
X78913631Y29760606D01*
X79044741Y29848211D01*
X79156241Y29959711D01*
X79243846Y30090821D01*
X79249643Y30104818D01*
X79276522Y30145047D01*
X81366475Y32235001D01*
X81398850Y32256628D01*
X81398259Y32257735D01*
X81403618Y32260601D01*
X81403631Y32260606D01*
X81534741Y32348211D01*
X81646241Y32459711D01*
X81733846Y32590821D01*
X81794189Y32736503D01*
X81824952Y32891158D01*
X81824952Y33048842D01*
X81824952Y33048845D01*
X81824951Y33048847D01*
X81794190Y33203490D01*
X81794189Y33203497D01*
X81792284Y33208097D01*
X81733849Y33349173D01*
X81733842Y33349186D01*
X81646241Y33480289D01*
X81646238Y33480293D01*
X81534744Y33591787D01*
X81534740Y33591790D01*
X81403637Y33679391D01*
X81403624Y33679398D01*
X81257953Y33739736D01*
X81257941Y33739739D01*
X81103297Y33770500D01*
X81103294Y33770500D01*
X80945610Y33770500D01*
X80945607Y33770500D01*
X80790962Y33739739D01*
X80790950Y33739736D01*
X80645279Y33679398D01*
X80645266Y33679391D01*
X80514163Y33591790D01*
X80514159Y33591787D01*
X80402665Y33480293D01*
X80402659Y33480285D01*
X80315059Y33349182D01*
X80315056Y33349177D01*
X80302185Y33318105D01*
X80275307Y33277881D01*
X78209497Y31212072D01*
X78169274Y31185194D01*
X78155271Y31179394D01*
X78155270Y31179393D01*
X78024167Y31091793D01*
X78024159Y31091787D01*
X77912665Y30980293D01*
X77912662Y30980289D01*
X77825061Y30849186D01*
X77825054Y30849173D01*
X77764716Y30703502D01*
X77764713Y30703490D01*
X77733952Y30548847D01*
X73656552Y30548847D01*
X73656552Y38759267D01*
X73645947Y38798845D01*
X73615519Y38912402D01*
X73536252Y39049698D01*
X73424150Y39161800D01*
X71799599Y40786351D01*
X71766114Y40847674D01*
X71771098Y40917366D01*
X71812970Y40973299D01*
X71878434Y40997716D01*
X71887280Y40998032D01*
X75417161Y40998032D01*
X75484200Y40978347D01*
X75529955Y40925543D01*
X75538778Y40898223D01*
X75556756Y40807843D01*
X75556759Y40807831D01*
X75617097Y40662160D01*
X75617104Y40662147D01*
X75701454Y40535910D01*
X75722332Y40469233D01*
X75722352Y40467019D01*
X75722352Y32077372D01*
X75702667Y32010333D01*
X75701454Y32008481D01*
X75615061Y31879186D01*
X75615054Y31879173D01*
X75554716Y31733502D01*
X75554713Y31733490D01*
X75523952Y31578847D01*
X75523952Y31421154D01*
X75554713Y31266511D01*
X75554716Y31266499D01*
X75615054Y31120828D01*
X75615061Y31120815D01*
X75702662Y30989712D01*
X75702665Y30989708D01*
X75814159Y30878214D01*
X75814163Y30878211D01*
X75945266Y30790610D01*
X75945279Y30790603D01*
X76090950Y30730265D01*
X76090955Y30730263D01*
X76225491Y30703502D01*
X76245605Y30699501D01*
X76245608Y30699500D01*
X76245610Y30699500D01*
X76403296Y30699500D01*
X76403297Y30699501D01*
X76557949Y30730263D01*
X76703631Y30790606D01*
X76834741Y30878211D01*
X76946241Y30989711D01*
X77033846Y31120821D01*
X77094189Y31266503D01*
X77124952Y31421158D01*
X77124952Y31578842D01*
X77124952Y31578845D01*
X77124951Y31578847D01*
X77106175Y31673241D01*
X77094189Y31733497D01*
X77078618Y31771090D01*
X77033849Y31879173D01*
X77033842Y31879186D01*
X76947450Y32008481D01*
X76926572Y32075159D01*
X76926552Y32077372D01*
X76926552Y40460904D01*
X76946237Y40527943D01*
X76947450Y40529795D01*
X77000047Y40608511D01*
X77035889Y40662153D01*
X77096232Y40807835D01*
X77126995Y40962490D01*
X77126995Y41120174D01*
X77126995Y41120177D01*
X77126994Y41120179D01*
X77118026Y41165264D01*
X77096232Y41274829D01*
X77085065Y41301789D01*
X77035892Y41420505D01*
X77035885Y41420518D01*
X76948284Y41551621D01*
X76948281Y41551625D01*
X76836787Y41663119D01*
X76836783Y41663122D01*
X76718008Y41742486D01*
X76673203Y41796099D01*
X76664496Y41865424D01*
X76694651Y41928451D01*
X76699189Y41933240D01*
X76717534Y41951585D01*
X76778857Y41985067D01*
X76805212Y41987900D01*
X77523718Y41987900D01*
X77523720Y41987900D01*
X77676854Y42028933D01*
X77814150Y42108200D01*
X77926252Y42220302D01*
X80116252Y44410302D01*
X80195520Y44547599D01*
X80236552Y44700732D01*
X80236552Y44859268D01*
X80236552Y51978847D01*
X82663952Y51978847D01*
X82663952Y51821154D01*
X82694713Y51666511D01*
X82694716Y51666499D01*
X82755054Y51520828D01*
X82755061Y51520815D01*
X82842662Y51389712D01*
X82842665Y51389708D01*
X82954159Y51278214D01*
X82954163Y51278211D01*
X83085266Y51190610D01*
X83085279Y51190603D01*
X83205610Y51140761D01*
X83230955Y51130263D01*
X83385605Y51099501D01*
X83385608Y51099500D01*
X83385610Y51099500D01*
X83543296Y51099500D01*
X83543297Y51099501D01*
X83697949Y51130263D01*
X83843631Y51190606D01*
X83974741Y51278211D01*
X84086241Y51389711D01*
X84173846Y51520821D01*
X84234189Y51666503D01*
X84264952Y51821158D01*
X84264952Y51978842D01*
X84264952Y51978845D01*
X84264951Y51978847D01*
X84261858Y51994398D01*
X84234189Y52133497D01*
X84194520Y52229268D01*
X84173849Y52279173D01*
X84173842Y52279186D01*
X84086241Y52410289D01*
X84086238Y52410293D01*
X83974744Y52521787D01*
X83974740Y52521790D01*
X83843637Y52609391D01*
X83843624Y52609398D01*
X83697953Y52669736D01*
X83697941Y52669739D01*
X83543297Y52700500D01*
X83543294Y52700500D01*
X83385610Y52700500D01*
X83385607Y52700500D01*
X83230962Y52669739D01*
X83230950Y52669736D01*
X83085279Y52609398D01*
X83085266Y52609391D01*
X82954163Y52521790D01*
X82954159Y52521787D01*
X82842665Y52410293D01*
X82842662Y52410289D01*
X82755061Y52279186D01*
X82755054Y52279173D01*
X82694716Y52133502D01*
X82694713Y52133490D01*
X82663952Y51978847D01*
X80236552Y51978847D01*
X80236552Y55864807D01*
X84780452Y55864807D01*
X84780452Y55706693D01*
X84820069Y55558842D01*
X84821375Y55553967D01*
X84821378Y55553960D01*
X84900427Y55417041D01*
X84900431Y55417036D01*
X84900432Y55417034D01*
X85012236Y55305230D01*
X85012238Y55305229D01*
X85012242Y55305226D01*
X85149161Y55226177D01*
X85149168Y55226173D01*
X85301895Y55185250D01*
X85301897Y55185250D01*
X85460007Y55185250D01*
X85460009Y55185250D01*
X85612736Y55226173D01*
X85749668Y55305230D01*
X85861472Y55417034D01*
X85940529Y55553966D01*
X85981452Y55706693D01*
X85981452Y55864807D01*
X85940529Y56017534D01*
X85893268Y56099394D01*
X85861476Y56154460D01*
X85861470Y56154468D01*
X85749669Y56266269D01*
X85749661Y56266275D01*
X85612742Y56345324D01*
X85612738Y56345326D01*
X85612736Y56345327D01*
X85460009Y56386250D01*
X85301895Y56386250D01*
X85149168Y56345327D01*
X85149161Y56345324D01*
X85012242Y56266275D01*
X85012234Y56266269D01*
X84900433Y56154468D01*
X84900427Y56154460D01*
X84821378Y56017541D01*
X84821375Y56017534D01*
X84780452Y55864807D01*
X80236552Y55864807D01*
X80236552Y56457903D01*
X80256237Y56524942D01*
X80309041Y56570697D01*
X80378199Y56580641D01*
X80424702Y56564020D01*
X80519056Y56506981D01*
X80519055Y56506981D01*
X80681346Y56456410D01*
X80681345Y56456410D01*
X80751860Y56450002D01*
X80751878Y56450001D01*
X80758451Y56450002D01*
X80758452Y56450002D01*
X80758452Y58400000D01*
X81258452Y58400000D01*
X81258452Y56450001D01*
X81265033Y56450001D01*
X81335554Y56456409D01*
X81335559Y56456410D01*
X81497848Y56506982D01*
X81643329Y56594928D01*
X81643330Y56594929D01*
X81745415Y56697015D01*
X81806738Y56730501D01*
X81876429Y56725517D01*
X81920778Y56697016D01*
X82023263Y56594531D01*
X82023265Y56594530D01*
X82023267Y56594528D01*
X82168846Y56506522D01*
X82331256Y56455914D01*
X82401836Y56449500D01*
X82401839Y56449500D01*
X82915065Y56449500D01*
X82915068Y56449500D01*
X82985648Y56455914D01*
X83148058Y56506522D01*
X83293637Y56594528D01*
X83413924Y56714815D01*
X83501930Y56860394D01*
X83552538Y57022804D01*
X83558952Y57093384D01*
X83558952Y57756616D01*
X83552538Y57827196D01*
X83501930Y57989606D01*
X83413924Y58135185D01*
X83413922Y58135187D01*
X83413921Y58135189D01*
X83293640Y58255470D01*
X83245051Y58284843D01*
X83148058Y58343478D01*
X82985648Y58394086D01*
X82985646Y58394087D01*
X82985644Y58394087D01*
X82936230Y58398577D01*
X82915068Y58400500D01*
X82401836Y58400500D01*
X82382597Y58398752D01*
X82331259Y58394087D01*
X82168845Y58343478D01*
X82023263Y58255470D01*
X82023262Y58255469D01*
X81920779Y58152985D01*
X81859456Y58119500D01*
X81789764Y58124484D01*
X81745417Y58152985D01*
X81643329Y58255073D01*
X81497847Y58343020D01*
X81497848Y58343020D01*
X81335557Y58393591D01*
X81335558Y58393591D01*
X81265024Y58400000D01*
X81258452Y58400000D01*
X80758452Y58400000D01*
X80758451Y58400001D01*
X80751888Y58400000D01*
X80751869Y58399999D01*
X80681349Y58393592D01*
X80681344Y58393591D01*
X80519055Y58343019D01*
X80373574Y58255073D01*
X80253379Y58134878D01*
X80168616Y57994663D01*
X80117088Y57947475D01*
X80048228Y57935637D01*
X79983900Y57962906D01*
X79974818Y57971132D01*
X79774151Y58171799D01*
X79774150Y58171800D01*
X79636854Y58251067D01*
X79636855Y58251067D01*
X79580449Y58266181D01*
X79483720Y58292100D01*
X79483718Y58292100D01*
X77711823Y58292100D01*
X77644784Y58311785D01*
X77642932Y58312998D01*
X77513637Y58399391D01*
X77513624Y58399398D01*
X77367953Y58459736D01*
X77367941Y58459739D01*
X77213297Y58490500D01*
X77213294Y58490500D01*
X77055610Y58490500D01*
X77055607Y58490500D01*
X76900962Y58459739D01*
X76900950Y58459736D01*
X76755279Y58399398D01*
X76755266Y58399391D01*
X76624163Y58311790D01*
X76624159Y58311787D01*
X76512665Y58200293D01*
X76512662Y58200289D01*
X76425061Y58069186D01*
X76425054Y58069173D01*
X76364716Y57923502D01*
X76364713Y57923490D01*
X76333952Y57768847D01*
X76333952Y57611154D01*
X76364713Y57456511D01*
X76364716Y57456499D01*
X76425054Y57310828D01*
X76425061Y57310815D01*
X76512662Y57179712D01*
X76512665Y57179708D01*
X76624158Y57068215D01*
X76624163Y57068211D01*
X76755266Y56980610D01*
X76755279Y56980603D01*
X76900950Y56920265D01*
X76900955Y56920263D01*
X77055605Y56889501D01*
X77055608Y56889500D01*
X77055610Y56889500D01*
X77213296Y56889500D01*
X77213297Y56889501D01*
X77367949Y56920263D01*
X77513631Y56980606D01*
X77642932Y57067002D01*
X77709609Y57087880D01*
X77711823Y57087900D01*
X78004820Y57087900D01*
X78071859Y57068215D01*
X78117614Y57015411D01*
X78128820Y56963900D01*
X78128820Y56906022D01*
X78159581Y56751379D01*
X78159584Y56751367D01*
X78219922Y56605696D01*
X78219929Y56605683D01*
X78286187Y56506522D01*
X78307531Y56474579D01*
X78316031Y56466079D01*
X78349517Y56404759D01*
X78352352Y56378396D01*
X78352352Y51140761D01*
X78332667Y51073722D01*
X78316033Y51053079D01*
X78203202Y50940249D01*
X78141879Y50906765D01*
X78072187Y50911749D01*
X78046630Y50924829D01*
X78024837Y50939391D01*
X78024824Y50939398D01*
X77879153Y50999736D01*
X77879141Y50999739D01*
X77724497Y51030500D01*
X77724494Y51030500D01*
X77566810Y51030500D01*
X77566807Y51030500D01*
X77412162Y50999739D01*
X77412150Y50999736D01*
X77266479Y50939398D01*
X77266466Y50939391D01*
X77135363Y50851790D01*
X77135359Y50851787D01*
X77023865Y50740293D01*
X77023862Y50740289D01*
X76936261Y50609186D01*
X76936254Y50609173D01*
X76875916Y50463502D01*
X76875913Y50463490D01*
X76845152Y50308847D01*
X76845152Y50151154D01*
X76875913Y49996511D01*
X76875916Y49996499D01*
X76936254Y49850828D01*
X76936261Y49850815D01*
X77023862Y49719712D01*
X77023865Y49719708D01*
X77135359Y49608214D01*
X77135363Y49608211D01*
X77266466Y49520610D01*
X77266479Y49520603D01*
X77393242Y49468097D01*
X77412155Y49460263D01*
X77542277Y49434380D01*
X77566805Y49429501D01*
X77566808Y49429500D01*
X77566810Y49429500D01*
X77724496Y49429500D01*
X77724497Y49429501D01*
X77879149Y49460263D01*
X78024831Y49520606D01*
X78024837Y49520610D01*
X78154132Y49607002D01*
X78220809Y49627880D01*
X78223023Y49627900D01*
X78423718Y49627900D01*
X78423720Y49627900D01*
X78576854Y49668933D01*
X78714150Y49748200D01*
X78820671Y49854721D01*
X78881994Y49888206D01*
X78951686Y49883222D01*
X79007619Y49841350D01*
X79032036Y49775886D01*
X79032352Y49767040D01*
X79032352Y47844500D01*
X79012667Y47777461D01*
X78959863Y47731706D01*
X78908352Y47720500D01*
X78775607Y47720500D01*
X78620962Y47689739D01*
X78620950Y47689736D01*
X78475279Y47629398D01*
X78475266Y47629391D01*
X78345972Y47542998D01*
X78279295Y47522120D01*
X78277081Y47522100D01*
X75183984Y47522100D01*
X75112222Y47502871D01*
X75030848Y47481067D01*
X75030843Y47481064D01*
X74992551Y47458956D01*
X74924651Y47442483D01*
X74858624Y47465336D01*
X74815434Y47520257D01*
X74806552Y47566343D01*
X74806552Y60073418D01*
X80098453Y60073418D01*
X80104860Y60002898D01*
X80104861Y60002893D01*
X80155433Y59840604D01*
X80243379Y59695123D01*
X80363574Y59574928D01*
X80509056Y59486981D01*
X80509055Y59486981D01*
X80671346Y59436410D01*
X80671345Y59436410D01*
X80741860Y59430002D01*
X80741878Y59430001D01*
X80748451Y59430002D01*
X80748452Y59430002D01*
X80748452Y60155000D01*
X80098453Y60155000D01*
X80098453Y60073418D01*
X74806552Y60073418D01*
X74806552Y60736573D01*
X80098452Y60736573D01*
X80098452Y60655000D01*
X80748452Y60655000D01*
X80748452Y61380000D01*
X80748451Y61380001D01*
X80741888Y61380000D01*
X80741869Y61379999D01*
X80671349Y61373592D01*
X80671344Y61373591D01*
X80509055Y61323019D01*
X80363574Y61235073D01*
X80243379Y61114878D01*
X80155432Y60969396D01*
X80104861Y60807107D01*
X80098452Y60736573D01*
X74806552Y60736573D01*
X74806552Y60852629D01*
X74826237Y60919668D01*
X74827450Y60921520D01*
X74913842Y61050815D01*
X74913842Y61050816D01*
X74913846Y61050821D01*
X74974189Y61196503D01*
X75004952Y61351158D01*
X75004952Y61508842D01*
X75004952Y61508845D01*
X75004951Y61508847D01*
X74991577Y61576081D01*
X74974189Y61663497D01*
X74952188Y61716613D01*
X74913849Y61809173D01*
X74913842Y61809186D01*
X74826241Y61940289D01*
X74826238Y61940293D01*
X74714744Y62051787D01*
X74714740Y62051790D01*
X74583637Y62139391D01*
X74583624Y62139398D01*
X74437953Y62199736D01*
X74437941Y62199739D01*
X74283297Y62230500D01*
X74283294Y62230500D01*
X74125610Y62230500D01*
X74125607Y62230500D01*
X73970962Y62199739D01*
X73970950Y62199736D01*
X73825279Y62139398D01*
X73825266Y62139391D01*
X73694163Y62051790D01*
X73694159Y62051787D01*
X73582665Y61940293D01*
X73582662Y61940289D01*
X73495061Y61809186D01*
X73495054Y61809173D01*
X73434716Y61663502D01*
X73434713Y61663490D01*
X73403952Y61508847D01*
X73403952Y61351154D01*
X73434713Y61196511D01*
X73434716Y61196499D01*
X73495054Y61050828D01*
X73495061Y61050815D01*
X73581454Y60921520D01*
X73602332Y60854843D01*
X73602352Y60852629D01*
X73602352Y59483541D01*
X73582667Y59416502D01*
X73529863Y59370747D01*
X73460705Y59360803D01*
X73397149Y59389828D01*
X73390671Y59395860D01*
X73304744Y59481787D01*
X73304740Y59481790D01*
X73173637Y59569391D01*
X73173624Y59569398D01*
X73027953Y59629736D01*
X73027941Y59629739D01*
X72873297Y59660500D01*
X72873294Y59660500D01*
X72715610Y59660500D01*
X72715607Y59660500D01*
X72560962Y59629739D01*
X72560950Y59629736D01*
X72415279Y59569398D01*
X72415266Y59569391D01*
X72284163Y59481790D01*
X72284159Y59481787D01*
X72172665Y59370293D01*
X72172662Y59370289D01*
X72085061Y59239186D01*
X72085054Y59239173D01*
X72024716Y59093502D01*
X72024713Y59093490D01*
X71993952Y58938847D01*
X71993952Y58781154D01*
X72024713Y58626511D01*
X72024716Y58626499D01*
X72085054Y58480828D01*
X72085061Y58480815D01*
X72171454Y58351520D01*
X72192332Y58284843D01*
X72192352Y58282629D01*
X72192352Y49430760D01*
X72172667Y49363721D01*
X72156033Y49343079D01*
X71791373Y48978419D01*
X71730050Y48944934D01*
X71703692Y48942100D01*
X70783720Y48942100D01*
X70625184Y48942100D01*
X70541721Y48919736D01*
X70472049Y48901068D01*
X70472048Y48901067D01*
X70334757Y48821803D01*
X70334752Y48821799D01*
X68528233Y47015279D01*
X68466910Y46981794D01*
X68397218Y46986778D01*
X68341285Y47028650D01*
X68316868Y47094114D01*
X68316552Y47102960D01*
X68316552Y50746542D01*
X68336237Y50813581D01*
X68337450Y50815433D01*
X68347007Y50829736D01*
X68397846Y50905821D01*
X68458189Y51051503D01*
X68488952Y51206158D01*
X68488952Y51363842D01*
X68488952Y51363845D01*
X68488951Y51363847D01*
X68479983Y51408933D01*
X68458189Y51518497D01*
X68457226Y51520821D01*
X68397849Y51664173D01*
X68397842Y51664186D01*
X68310241Y51795289D01*
X68310238Y51795293D01*
X68198744Y51906787D01*
X68198740Y51906790D01*
X68067637Y51994391D01*
X68067624Y51994398D01*
X67921953Y52054736D01*
X67921941Y52054739D01*
X67767297Y52085500D01*
X67767294Y52085500D01*
X67609610Y52085500D01*
X67609607Y52085500D01*
X67454962Y52054739D01*
X67454950Y52054736D01*
X67309279Y51994398D01*
X67309266Y51994391D01*
X67178163Y51906790D01*
X67178159Y51906787D01*
X67066665Y51795293D01*
X67066662Y51795289D01*
X66979061Y51664186D01*
X66979054Y51664173D01*
X66918716Y51518502D01*
X66918713Y51518490D01*
X66887952Y51363847D01*
X66887952Y51206154D01*
X66918713Y51051511D01*
X66918716Y51051499D01*
X66979054Y50905828D01*
X66979061Y50905815D01*
X67066662Y50774712D01*
X67066664Y50774709D01*
X67076030Y50765344D01*
X67109517Y50704023D01*
X67112352Y50677660D01*
X67112352Y47456100D01*
X67092667Y47389061D01*
X67039863Y47343306D01*
X66988352Y47332100D01*
X63920993Y47332100D01*
X63853954Y47351785D01*
X63833312Y47368419D01*
X63829944Y47371787D01*
X63829940Y47371790D01*
X63698837Y47459391D01*
X63698824Y47459398D01*
X63553153Y47519736D01*
X63553141Y47519739D01*
X63398497Y47550500D01*
X63398494Y47550500D01*
X63240810Y47550500D01*
X63240807Y47550500D01*
X63086162Y47519739D01*
X63086150Y47519736D01*
X62940479Y47459398D01*
X62940466Y47459391D01*
X62809363Y47371790D01*
X62809359Y47371787D01*
X62697865Y47260293D01*
X62697862Y47260289D01*
X62610261Y47129186D01*
X62610254Y47129173D01*
X62549916Y46983502D01*
X62549913Y46983490D01*
X62519152Y46828847D01*
X62519152Y46671154D01*
X62549913Y46516511D01*
X62549916Y46516499D01*
X62610254Y46370828D01*
X62610261Y46370815D01*
X62696654Y46241520D01*
X62717532Y46174843D01*
X62717552Y46172629D01*
X62717552Y40555961D01*
X62697867Y40488922D01*
X62681233Y40468280D01*
X62632423Y40419470D01*
X62571100Y40385985D01*
X62501408Y40390969D01*
X62457061Y40419470D01*
X62414744Y40461787D01*
X62414740Y40461790D01*
X62283637Y40549391D01*
X62283624Y40549398D01*
X62137953Y40609736D01*
X62137941Y40609739D01*
X61983297Y40640500D01*
X61983294Y40640500D01*
X61825610Y40640500D01*
X61825607Y40640500D01*
X61670962Y40609739D01*
X61670950Y40609736D01*
X61525279Y40549398D01*
X61525268Y40549392D01*
X61459442Y40505408D01*
X61392765Y40484531D01*
X61325385Y40503016D01*
X61278695Y40554995D01*
X61266552Y40608511D01*
X61266552Y45639267D01*
X61266070Y45641064D01*
X61249306Y45703629D01*
X61225520Y45792401D01*
X61175111Y45879712D01*
X61146254Y45929695D01*
X61146250Y45929700D01*
X60539152Y46536799D01*
X60539150Y46536800D01*
X60525632Y46544604D01*
X60525627Y46544607D01*
X60401856Y46616066D01*
X60401855Y46616067D01*
X60346673Y46630853D01*
X60248720Y46657100D01*
X60248718Y46657100D01*
X59269372Y46657100D01*
X59202333Y46676785D01*
X59181691Y46693419D01*
X59082791Y46792319D01*
X59049306Y46853642D01*
X59054290Y46923334D01*
X59082791Y46967681D01*
X59184920Y47069811D01*
X59184921Y47069812D01*
X59184924Y47069815D01*
X59272930Y47215394D01*
X59323538Y47377804D01*
X59329952Y47448384D01*
X59329952Y47961616D01*
X59324403Y48022678D01*
X59337940Y48091224D01*
X59386386Y48141570D01*
X59447894Y48157900D01*
X64247081Y48157900D01*
X64314120Y48138215D01*
X64315972Y48137002D01*
X64445266Y48050610D01*
X64445279Y48050603D01*
X64590950Y47990265D01*
X64590955Y47990263D01*
X64734972Y47961616D01*
X64745605Y47959501D01*
X64745608Y47959500D01*
X64745610Y47959500D01*
X64903296Y47959500D01*
X64903297Y47959501D01*
X65057949Y47990263D01*
X65203631Y48050606D01*
X65334741Y48138211D01*
X65334743Y48138213D01*
X65334746Y48138215D01*
X65446238Y48249708D01*
X65446241Y48249711D01*
X65533846Y48380821D01*
X65594189Y48526503D01*
X65624952Y48681158D01*
X65624952Y48838842D01*
X65624952Y48838845D01*
X65624951Y48838847D01*
X65622612Y48850606D01*
X65594189Y48993497D01*
X65557613Y49081800D01*
X65533849Y49139173D01*
X65533842Y49139186D01*
X65446241Y49270289D01*
X65446238Y49270293D01*
X65334744Y49381787D01*
X65330033Y49385653D01*
X65331101Y49386956D01*
X65291474Y49434380D01*
X65282771Y49503705D01*
X65312930Y49566731D01*
X65317455Y49571506D01*
X65416252Y49670302D01*
X65630252Y49884302D01*
X65709520Y50021599D01*
X65750552Y50174732D01*
X65750552Y50333268D01*
X65750552Y50707629D01*
X65770237Y50774668D01*
X65771450Y50776520D01*
X65857842Y50905815D01*
X65857842Y50905816D01*
X65857846Y50905821D01*
X65860302Y50911749D01*
X65883899Y50968719D01*
X65918189Y51051503D01*
X65948952Y51206158D01*
X65948952Y51363842D01*
X65948952Y51363845D01*
X65948951Y51363847D01*
X65939983Y51408933D01*
X65918189Y51518497D01*
X65917226Y51520821D01*
X65857849Y51664173D01*
X65857842Y51664186D01*
X65770241Y51795289D01*
X65770238Y51795293D01*
X65658744Y51906787D01*
X65658740Y51906790D01*
X65527637Y51994391D01*
X65527624Y51994398D01*
X65381953Y52054736D01*
X65381941Y52054739D01*
X65227297Y52085500D01*
X65227294Y52085500D01*
X65069610Y52085500D01*
X65069607Y52085500D01*
X64914962Y52054739D01*
X64914950Y52054736D01*
X64769279Y51994398D01*
X64769266Y51994391D01*
X64638163Y51906790D01*
X64638159Y51906787D01*
X64526665Y51795293D01*
X64526662Y51795289D01*
X64439061Y51664186D01*
X64439054Y51664173D01*
X64378716Y51518502D01*
X64378713Y51518490D01*
X64347952Y51363847D01*
X64347952Y51206154D01*
X64378713Y51051511D01*
X64378716Y51051499D01*
X64415145Y50963552D01*
X64422614Y50894083D01*
X64391339Y50831604D01*
X64331250Y50795952D01*
X64300584Y50792100D01*
X63456320Y50792100D01*
X63389281Y50811785D01*
X63343526Y50864589D01*
X63333582Y50933747D01*
X63341759Y50963552D01*
X63378187Y51051499D01*
X63378189Y51051503D01*
X63408952Y51206158D01*
X63408952Y51363842D01*
X63408952Y51363845D01*
X63408951Y51363847D01*
X63399983Y51408933D01*
X63378189Y51518497D01*
X63377226Y51520821D01*
X63317849Y51664173D01*
X63317842Y51664186D01*
X63230241Y51795289D01*
X63230238Y51795293D01*
X63202871Y51822660D01*
X63169386Y51883983D01*
X63166552Y51910341D01*
X63166552Y52229267D01*
X63158451Y52259501D01*
X63125519Y52382402D01*
X63046252Y52519698D01*
X62934150Y52631800D01*
X62684150Y52881800D01*
X62546854Y52961067D01*
X62546855Y52961067D01*
X62495809Y52974745D01*
X62393720Y53002100D01*
X61415184Y53002100D01*
X61313094Y52974745D01*
X61262049Y52961067D01*
X61124755Y52881801D01*
X61124752Y52881799D01*
X60851373Y52608419D01*
X60790050Y52574934D01*
X60763692Y52572100D01*
X56335793Y52572100D01*
X56268754Y52591785D01*
X56248112Y52608419D01*
X56244744Y52611787D01*
X56244740Y52611790D01*
X56113637Y52699391D01*
X56113624Y52699398D01*
X55967953Y52759736D01*
X55967941Y52759739D01*
X55813297Y52790500D01*
X55813294Y52790500D01*
X55655610Y52790500D01*
X55655607Y52790500D01*
X55500962Y52759739D01*
X55500950Y52759736D01*
X55355279Y52699398D01*
X55355266Y52699391D01*
X55224163Y52611790D01*
X55224159Y52611787D01*
X55112665Y52500293D01*
X55112662Y52500289D01*
X55025061Y52369186D01*
X55025054Y52369173D01*
X54964716Y52223502D01*
X54964713Y52223490D01*
X54933952Y52068847D01*
X54933952Y51911154D01*
X54964713Y51756511D01*
X54964716Y51756499D01*
X55025054Y51610828D01*
X55025061Y51610815D01*
X55112662Y51479712D01*
X55112665Y51479708D01*
X55224159Y51368214D01*
X55224163Y51368211D01*
X55355266Y51280610D01*
X55355279Y51280603D01*
X55500950Y51220265D01*
X55500955Y51220263D01*
X55650030Y51190610D01*
X55655605Y51189501D01*
X55655608Y51189500D01*
X55655610Y51189500D01*
X55813296Y51189500D01*
X55813297Y51189501D01*
X55967949Y51220263D01*
X56113631Y51280606D01*
X56213000Y51347002D01*
X56279678Y51367880D01*
X56281891Y51367900D01*
X61143718Y51367900D01*
X61143720Y51367900D01*
X61296854Y51408933D01*
X61434150Y51488200D01*
X61546252Y51600302D01*
X61662562Y51716613D01*
X61723881Y51750095D01*
X61793573Y51745111D01*
X61849507Y51703240D01*
X61873924Y51637776D01*
X61864802Y51581478D01*
X61838715Y51518497D01*
X61838713Y51518490D01*
X61807952Y51363847D01*
X61807952Y51206154D01*
X61838713Y51051511D01*
X61838716Y51051499D01*
X61875145Y50963552D01*
X61882614Y50894083D01*
X61851339Y50831604D01*
X61791250Y50795952D01*
X61760584Y50792100D01*
X52825184Y50792100D01*
X52748617Y50771584D01*
X52672048Y50751067D01*
X52672043Y50751065D01*
X52558485Y50685502D01*
X52558485Y50685501D01*
X52546726Y50678713D01*
X52484728Y50662100D01*
X51491823Y50662100D01*
X51424784Y50681785D01*
X51422932Y50682998D01*
X51293637Y50769391D01*
X51293624Y50769398D01*
X51147953Y50829736D01*
X51147943Y50829739D01*
X50995426Y50860077D01*
X50933515Y50892462D01*
X50931937Y50894013D01*
X50404151Y51421799D01*
X50404146Y51421803D01*
X50382336Y51434394D01*
X50368989Y51442100D01*
X50266856Y51501066D01*
X50266855Y51501067D01*
X50201832Y51518490D01*
X50113720Y51542100D01*
X32225184Y51542100D01*
X32148617Y51521584D01*
X32072048Y51501067D01*
X32072047Y51501066D01*
X32014948Y51468100D01*
X31969915Y51442100D01*
X31961124Y51437025D01*
X31934757Y51421803D01*
X31934752Y51421799D01*
X30352653Y49839700D01*
X30352651Y49839697D01*
X30273385Y49702403D01*
X30264417Y49668934D01*
X30234746Y49558200D01*
X30232352Y49549267D01*
X30232352Y48871738D01*
X30212667Y48804699D01*
X30159863Y48758944D01*
X30090705Y48749000D01*
X30039461Y48768636D01*
X29903637Y48859391D01*
X29903624Y48859398D01*
X29757953Y48919736D01*
X29757941Y48919739D01*
X29603297Y48950500D01*
X29603294Y48950500D01*
X29445610Y48950500D01*
X29445607Y48950500D01*
X29290962Y48919739D01*
X29290950Y48919736D01*
X29145279Y48859398D01*
X29145266Y48859391D01*
X29015972Y48772998D01*
X28949295Y48752120D01*
X28947081Y48752100D01*
X26777993Y48752100D01*
X26710954Y48771785D01*
X26665199Y48824589D01*
X26655255Y48893747D01*
X26684280Y48957303D01*
X26690312Y48963781D01*
X26776238Y49049708D01*
X26776241Y49049711D01*
X26863846Y49180821D01*
X26924189Y49326503D01*
X26954952Y49481158D01*
X26954952Y49638842D01*
X26954952Y49638845D01*
X26954951Y49638847D01*
X26940563Y49711178D01*
X26924189Y49793497D01*
X26909656Y49828584D01*
X26863849Y49939173D01*
X26863842Y49939186D01*
X26776241Y50070289D01*
X26776238Y50070293D01*
X26664744Y50181787D01*
X26664740Y50181790D01*
X26533637Y50269391D01*
X26533624Y50269398D01*
X26387953Y50329736D01*
X26387943Y50329739D01*
X26252658Y50356649D01*
X26217259Y50369524D01*
X26212478Y50372144D01*
X26161685Y50406083D01*
X26122287Y50422402D01*
X26116060Y50424982D01*
X26116059Y50424982D01*
X26047487Y50453386D01*
X26047479Y50453388D01*
X25926259Y50477500D01*
X25926255Y50477500D01*
X23806659Y50477500D01*
X23739620Y50497185D01*
X23693865Y50549989D01*
X23683921Y50619147D01*
X23687475Y50635140D01*
X23711951Y50758193D01*
X23711952Y50758196D01*
X23711952Y50968719D01*
X23731637Y51035758D01*
X23748271Y51056400D01*
X27371861Y54679990D01*
X27371863Y54679992D01*
X27392089Y54710263D01*
X27440535Y54782767D01*
X27464397Y54840375D01*
X27476328Y54869178D01*
X27487836Y54896962D01*
X27487838Y54896966D01*
X27511952Y55018197D01*
X27511952Y55141804D01*
X27511952Y58381803D01*
X27511952Y58381806D01*
X27487838Y58503030D01*
X27487837Y58503031D01*
X27487837Y58503035D01*
X27468041Y58550828D01*
X27440538Y58617227D01*
X27440531Y58617240D01*
X27371864Y58720007D01*
X27371863Y58720008D01*
X27284460Y58807411D01*
X27056871Y59035000D01*
X26820667Y59271205D01*
X26820634Y59271237D01*
X26674460Y59417411D01*
X26668988Y59421067D01*
X26659636Y59427316D01*
X26659634Y59427318D01*
X26571691Y59486080D01*
X26571678Y59486087D01*
X26538237Y59499938D01*
X26457487Y59533386D01*
X26457479Y59533388D01*
X26336259Y59557500D01*
X26336255Y59557500D01*
X25573809Y59557500D01*
X25506770Y59577185D01*
X25504918Y59578398D01*
X25413637Y59639391D01*
X25413624Y59639398D01*
X25267953Y59699736D01*
X25267941Y59699739D01*
X25113297Y59730500D01*
X25113294Y59730500D01*
X24955610Y59730500D01*
X24955607Y59730500D01*
X24800962Y59699739D01*
X24800950Y59699736D01*
X24655279Y59639398D01*
X24655266Y59639391D01*
X24524163Y59551790D01*
X24524159Y59551787D01*
X24412665Y59440293D01*
X24412662Y59440289D01*
X24325061Y59309186D01*
X24325054Y59309173D01*
X24264716Y59163502D01*
X24264713Y59163490D01*
X24233952Y59008847D01*
X24233952Y58851154D01*
X24264713Y58696511D01*
X24264716Y58696499D01*
X24325054Y58550828D01*
X24325061Y58550815D01*
X24412662Y58419712D01*
X24412665Y58419708D01*
X24524159Y58308214D01*
X24524163Y58308211D01*
X24655266Y58220610D01*
X24655279Y58220603D01*
X24773102Y58171800D01*
X24800955Y58160263D01*
X24955605Y58129501D01*
X24955608Y58129500D01*
X24955610Y58129500D01*
X25113296Y58129500D01*
X25113297Y58129501D01*
X25267949Y58160263D01*
X25413631Y58220606D01*
X25459219Y58251067D01*
X25504918Y58281602D01*
X25571595Y58302480D01*
X25573809Y58302500D01*
X25963171Y58302500D01*
X26030210Y58282815D01*
X26050852Y58266181D01*
X26220633Y58096400D01*
X26254118Y58035077D01*
X26256952Y58008719D01*
X26256952Y56275313D01*
X26237267Y56208274D01*
X26184463Y56162519D01*
X26115305Y56152575D01*
X26093919Y56158441D01*
X26093776Y56157969D01*
X26087952Y56159736D01*
X26087949Y56159737D01*
X26087944Y56159738D01*
X26087941Y56159739D01*
X25933297Y56190500D01*
X25933294Y56190500D01*
X25775610Y56190500D01*
X25775607Y56190500D01*
X25620962Y56159739D01*
X25620950Y56159736D01*
X25475279Y56099398D01*
X25475268Y56099392D01*
X25381165Y56036514D01*
X25314488Y56015637D01*
X25247108Y56034122D01*
X25224593Y56051937D01*
X25174744Y56101787D01*
X25174740Y56101790D01*
X25043637Y56189391D01*
X25043624Y56189398D01*
X24897953Y56249736D01*
X24897941Y56249739D01*
X24743297Y56280500D01*
X24743294Y56280500D01*
X24585610Y56280500D01*
X24585607Y56280500D01*
X24430962Y56249739D01*
X24430950Y56249736D01*
X24285279Y56189398D01*
X24285266Y56189391D01*
X24154163Y56101790D01*
X24154159Y56101787D01*
X24042665Y55990293D01*
X24042662Y55990289D01*
X23955061Y55859186D01*
X23955054Y55859173D01*
X23894716Y55713502D01*
X23894713Y55713492D01*
X23864375Y55560975D01*
X23831990Y55499064D01*
X23830439Y55497486D01*
X23431373Y55098419D01*
X23370050Y55064934D01*
X23343692Y55062100D01*
X12015793Y55062100D01*
X11948754Y55081785D01*
X11928112Y55098419D01*
X11914744Y55111787D01*
X11914740Y55111790D01*
X11783637Y55199391D01*
X11783624Y55199398D01*
X11637953Y55259736D01*
X11637941Y55259739D01*
X11483297Y55290500D01*
X11483294Y55290500D01*
X11325610Y55290500D01*
X11325607Y55290500D01*
X11170962Y55259739D01*
X11170950Y55259736D01*
X11025279Y55199398D01*
X11025266Y55199391D01*
X10894163Y55111790D01*
X10894159Y55111787D01*
X10782665Y55000293D01*
X10782662Y55000289D01*
X10695061Y54869186D01*
X10695057Y54869177D01*
X10634716Y54723502D01*
X10634713Y54723490D01*
X10603952Y54568847D01*
X10603952Y54566100D01*
X10603545Y54564716D01*
X10603355Y54562782D01*
X10602988Y54562819D01*
X10584267Y54499061D01*
X10531463Y54453306D01*
X10479952Y54442100D01*
X10357573Y54442100D01*
X10295575Y54458712D01*
X10256854Y54481067D01*
X10256847Y54481070D01*
X10136781Y54513243D01*
X10090924Y54539719D01*
X10089451Y54537924D01*
X10084740Y54541790D01*
X9953637Y54629391D01*
X9953624Y54629398D01*
X9807953Y54689736D01*
X9807941Y54689739D01*
X9653297Y54720500D01*
X9653294Y54720500D01*
X9495610Y54720500D01*
X9495607Y54720500D01*
X9340962Y54689739D01*
X9340950Y54689736D01*
X9195279Y54629398D01*
X9195266Y54629391D01*
X9064163Y54541790D01*
X9064159Y54541787D01*
X8952665Y54430293D01*
X8952662Y54430289D01*
X8865061Y54299186D01*
X8865054Y54299173D01*
X8804716Y54153502D01*
X8804713Y54153490D01*
X8773952Y53998847D01*
X300500Y53998847D01*
X300500Y60653053D01*
X30913452Y60653053D01*
X30913452Y60416948D01*
X30950386Y60183753D01*
X31023349Y59959198D01*
X31130539Y59748826D01*
X31190790Y59665896D01*
X31190792Y59665895D01*
X31889664Y60364767D01*
X31900934Y60322708D01*
X31973342Y60197292D01*
X32075744Y60094890D01*
X32201160Y60022482D01*
X32243217Y60011213D01*
X31544345Y59312342D01*
X31627280Y59252086D01*
X31837649Y59144898D01*
X32062204Y59071935D01*
X32062203Y59071935D01*
X32295400Y59035000D01*
X32531504Y59035000D01*
X32764699Y59071935D01*
X32989254Y59144898D01*
X33199615Y59252082D01*
X33199621Y59252086D01*
X33282556Y59312342D01*
X33282557Y59312342D01*
X32583685Y60011213D01*
X32625744Y60022482D01*
X32751160Y60094890D01*
X32853562Y60197292D01*
X32925970Y60322708D01*
X32937239Y60364766D01*
X33636110Y59665895D01*
X33636110Y59665896D01*
X33696366Y59748831D01*
X33696370Y59748837D01*
X33803554Y59959198D01*
X33876517Y60183753D01*
X33913452Y60416948D01*
X33913452Y60653053D01*
X37413452Y60653053D01*
X37413452Y60416948D01*
X37450386Y60183753D01*
X37523349Y59959198D01*
X37630539Y59748826D01*
X37690790Y59665896D01*
X37690792Y59665895D01*
X38389664Y60364767D01*
X38400934Y60322708D01*
X38473342Y60197292D01*
X38575744Y60094890D01*
X38701160Y60022482D01*
X38743217Y60011213D01*
X38044345Y59312342D01*
X38127280Y59252086D01*
X38337649Y59144898D01*
X38562204Y59071935D01*
X38562203Y59071935D01*
X38795400Y59035000D01*
X39031504Y59035000D01*
X39264699Y59071935D01*
X39489254Y59144898D01*
X39699615Y59252082D01*
X39699621Y59252086D01*
X39782556Y59312342D01*
X39782557Y59312342D01*
X39083685Y60011213D01*
X39125744Y60022482D01*
X39251160Y60094890D01*
X39353562Y60197292D01*
X39425970Y60322708D01*
X39437239Y60364766D01*
X40136110Y59665895D01*
X40136110Y59665896D01*
X40196366Y59748831D01*
X40196370Y59748837D01*
X40303554Y59959198D01*
X40376517Y60183753D01*
X40413452Y60416948D01*
X40413452Y60653053D01*
X41173452Y60653053D01*
X41173452Y60416948D01*
X41210386Y60183753D01*
X41283349Y59959198D01*
X41390539Y59748826D01*
X41450790Y59665896D01*
X41450792Y59665895D01*
X42149664Y60364767D01*
X42160934Y60322708D01*
X42233342Y60197292D01*
X42335744Y60094890D01*
X42461160Y60022482D01*
X42503217Y60011213D01*
X41804345Y59312342D01*
X41887280Y59252086D01*
X42097649Y59144898D01*
X42322204Y59071935D01*
X42322203Y59071935D01*
X42555400Y59035000D01*
X42791504Y59035000D01*
X43024699Y59071935D01*
X43249254Y59144898D01*
X43459615Y59252082D01*
X43459621Y59252086D01*
X43542556Y59312342D01*
X43542557Y59312342D01*
X42843685Y60011213D01*
X42885744Y60022482D01*
X43011160Y60094890D01*
X43113562Y60197292D01*
X43185970Y60322708D01*
X43197239Y60364766D01*
X43896110Y59665895D01*
X43896110Y59665896D01*
X43956366Y59748831D01*
X43956370Y59748837D01*
X44063554Y59959198D01*
X44136517Y60183753D01*
X44173452Y60416948D01*
X44173452Y60653053D01*
X47673452Y60653053D01*
X47673452Y60416948D01*
X47710386Y60183753D01*
X47783349Y59959198D01*
X47890539Y59748826D01*
X47950790Y59665896D01*
X47950792Y59665895D01*
X48649664Y60364767D01*
X48660934Y60322708D01*
X48733342Y60197292D01*
X48835744Y60094890D01*
X48961160Y60022482D01*
X49003217Y60011213D01*
X48304345Y59312342D01*
X48387280Y59252086D01*
X48597649Y59144898D01*
X48822204Y59071935D01*
X48822203Y59071935D01*
X49055400Y59035000D01*
X49291504Y59035000D01*
X49524699Y59071935D01*
X49749254Y59144898D01*
X49959615Y59252082D01*
X49959621Y59252086D01*
X50042556Y59312342D01*
X50042557Y59312342D01*
X49343685Y60011213D01*
X49385744Y60022482D01*
X49511160Y60094890D01*
X49613562Y60197292D01*
X49685970Y60322708D01*
X49697239Y60364766D01*
X50396110Y59665895D01*
X50396110Y59665896D01*
X50456366Y59748831D01*
X50456370Y59748837D01*
X50563554Y59959198D01*
X50636517Y60183753D01*
X50673452Y60416948D01*
X50673452Y60653053D01*
X50636517Y60886248D01*
X50563554Y61110803D01*
X50456366Y61321172D01*
X50396110Y61404106D01*
X50396110Y61404107D01*
X49697239Y60705235D01*
X49685970Y60747292D01*
X49613562Y60872708D01*
X49511160Y60975110D01*
X49385744Y61047518D01*
X49343686Y61058788D01*
X50042557Y61757660D01*
X50042556Y61757662D01*
X49959626Y61817913D01*
X49749254Y61925103D01*
X49524699Y61998066D01*
X49524700Y61998066D01*
X49291504Y62035000D01*
X49055400Y62035000D01*
X48822204Y61998066D01*
X48597649Y61925103D01*
X48387282Y61817916D01*
X48304346Y61757660D01*
X49003218Y61058788D01*
X48961160Y61047518D01*
X48835744Y60975110D01*
X48733342Y60872708D01*
X48660934Y60747292D01*
X48649664Y60705234D01*
X47950792Y61404106D01*
X47890536Y61321170D01*
X47783349Y61110803D01*
X47710386Y60886248D01*
X47673452Y60653053D01*
X44173452Y60653053D01*
X44136517Y60886248D01*
X44063554Y61110803D01*
X43956366Y61321172D01*
X43896110Y61404106D01*
X43896110Y61404107D01*
X43197239Y60705235D01*
X43185970Y60747292D01*
X43113562Y60872708D01*
X43011160Y60975110D01*
X42885744Y61047518D01*
X42843686Y61058788D01*
X43542557Y61757660D01*
X43542556Y61757661D01*
X43459626Y61817913D01*
X43249254Y61925103D01*
X43024699Y61998066D01*
X43024700Y61998066D01*
X42791504Y62035000D01*
X42555400Y62035000D01*
X42322204Y61998066D01*
X42097649Y61925103D01*
X41887282Y61817916D01*
X41804346Y61757660D01*
X42503218Y61058788D01*
X42461160Y61047518D01*
X42335744Y60975110D01*
X42233342Y60872708D01*
X42160934Y60747292D01*
X42149664Y60705234D01*
X41450792Y61404106D01*
X41390536Y61321170D01*
X41283349Y61110803D01*
X41210386Y60886248D01*
X41173452Y60653053D01*
X40413452Y60653053D01*
X40376517Y60886248D01*
X40303554Y61110803D01*
X40196366Y61321172D01*
X40136110Y61404106D01*
X40136110Y61404107D01*
X39437239Y60705235D01*
X39425970Y60747292D01*
X39353562Y60872708D01*
X39251160Y60975110D01*
X39125744Y61047518D01*
X39083686Y61058788D01*
X39782557Y61757660D01*
X39782556Y61757661D01*
X39699626Y61817913D01*
X39489254Y61925103D01*
X39264699Y61998066D01*
X39264700Y61998066D01*
X39031504Y62035000D01*
X38795400Y62035000D01*
X38562204Y61998066D01*
X38337649Y61925103D01*
X38127282Y61817916D01*
X38044346Y61757660D01*
X38743218Y61058788D01*
X38701160Y61047518D01*
X38575744Y60975110D01*
X38473342Y60872708D01*
X38400934Y60747292D01*
X38389664Y60705234D01*
X37690792Y61404106D01*
X37630536Y61321170D01*
X37523349Y61110803D01*
X37450386Y60886248D01*
X37413452Y60653053D01*
X33913452Y60653053D01*
X33876517Y60886248D01*
X33803554Y61110803D01*
X33696366Y61321172D01*
X33636110Y61404106D01*
X33636110Y61404107D01*
X32937239Y60705235D01*
X32925970Y60747292D01*
X32853562Y60872708D01*
X32751160Y60975110D01*
X32625744Y61047518D01*
X32583686Y61058788D01*
X33282557Y61757660D01*
X33282556Y61757661D01*
X33199626Y61817913D01*
X32989254Y61925103D01*
X32764699Y61998066D01*
X32764700Y61998066D01*
X32531504Y62035000D01*
X32295400Y62035000D01*
X32062204Y61998066D01*
X31837649Y61925103D01*
X31627282Y61817916D01*
X31544346Y61757660D01*
X32243218Y61058788D01*
X32201160Y61047518D01*
X32075744Y60975110D01*
X31973342Y60872708D01*
X31900934Y60747292D01*
X31889664Y60705234D01*
X31190792Y61404106D01*
X31130536Y61321170D01*
X31023349Y61110803D01*
X30950386Y60886248D01*
X30913452Y60653053D01*
X300500Y60653053D01*
X300500Y65153098D01*
X30912952Y65153098D01*
X30912952Y64916903D01*
X30949898Y64683632D01*
X31022885Y64459004D01*
X31070684Y64365195D01*
X31130109Y64248567D01*
X31268935Y64057490D01*
X31435942Y63890483D01*
X31627019Y63751657D01*
X31726443Y63700998D01*
X31837455Y63644434D01*
X31837457Y63644434D01*
X31837460Y63644432D01*
X31957864Y63605311D01*
X32062083Y63571447D01*
X32295355Y63534500D01*
X32295360Y63534500D01*
X32531549Y63534500D01*
X32764820Y63571447D01*
X32989444Y63644432D01*
X33199885Y63751657D01*
X33390962Y63890483D01*
X33557969Y64057490D01*
X33696795Y64248567D01*
X33756220Y64365195D01*
X33804195Y64415991D01*
X33866705Y64432900D01*
X37460199Y64432900D01*
X37527238Y64413215D01*
X37570684Y64365195D01*
X37630109Y64248567D01*
X37768935Y64057490D01*
X37935942Y63890483D01*
X38127019Y63751657D01*
X38226443Y63700998D01*
X38337455Y63644434D01*
X38337457Y63644434D01*
X38337460Y63644432D01*
X38457864Y63605311D01*
X38562083Y63571447D01*
X38795355Y63534500D01*
X38795360Y63534500D01*
X39031549Y63534500D01*
X39264820Y63571447D01*
X39489444Y63644432D01*
X39699885Y63751657D01*
X39890962Y63890483D01*
X40057969Y64057490D01*
X40196795Y64248567D01*
X40304020Y64459008D01*
X40377005Y64683632D01*
X40403307Y64849695D01*
X40413952Y64916903D01*
X40413952Y65153098D01*
X41172952Y65153098D01*
X41172952Y64916903D01*
X41209898Y64683632D01*
X41282885Y64459004D01*
X41330684Y64365195D01*
X41390109Y64248567D01*
X41528935Y64057490D01*
X41695942Y63890483D01*
X41887019Y63751657D01*
X41986443Y63700998D01*
X42097455Y63644434D01*
X42097457Y63644434D01*
X42097460Y63644432D01*
X42217864Y63605311D01*
X42322083Y63571447D01*
X42555355Y63534500D01*
X42555360Y63534500D01*
X42791549Y63534500D01*
X43024820Y63571447D01*
X43249444Y63644432D01*
X43459885Y63751657D01*
X43650962Y63890483D01*
X43817969Y64057490D01*
X43956795Y64248567D01*
X44016220Y64365195D01*
X44064195Y64415991D01*
X44126705Y64432900D01*
X47720199Y64432900D01*
X47787238Y64413215D01*
X47830684Y64365195D01*
X47890109Y64248567D01*
X48028935Y64057490D01*
X48195942Y63890483D01*
X48387019Y63751657D01*
X48486443Y63700998D01*
X48597455Y63644434D01*
X48597457Y63644434D01*
X48597460Y63644432D01*
X48717864Y63605311D01*
X48822083Y63571447D01*
X49055355Y63534500D01*
X49055360Y63534500D01*
X49291549Y63534500D01*
X49524820Y63571447D01*
X49749444Y63644432D01*
X49959885Y63751657D01*
X50150962Y63890483D01*
X50317969Y64057490D01*
X50456795Y64248567D01*
X50516220Y64365195D01*
X50564195Y64415991D01*
X50626705Y64432900D01*
X70078692Y64432900D01*
X70145731Y64413215D01*
X70166373Y64396581D01*
X70296033Y64266921D01*
X70329518Y64205598D01*
X70332352Y64179240D01*
X70332352Y53650834D01*
X70312667Y53583795D01*
X70304209Y53572173D01*
X70302661Y53570287D01*
X70215061Y53439186D01*
X70215054Y53439173D01*
X70154716Y53293502D01*
X70154713Y53293490D01*
X70123952Y53138847D01*
X70123952Y52981154D01*
X70154713Y52826511D01*
X70154716Y52826499D01*
X70215054Y52680828D01*
X70215061Y52680815D01*
X70302662Y52549712D01*
X70302665Y52549708D01*
X70414159Y52438214D01*
X70414163Y52438211D01*
X70545266Y52350610D01*
X70545279Y52350603D01*
X70690950Y52290265D01*
X70690955Y52290263D01*
X70845605Y52259501D01*
X70845608Y52259500D01*
X70845610Y52259500D01*
X71003296Y52259500D01*
X71003297Y52259501D01*
X71157949Y52290263D01*
X71303631Y52350606D01*
X71434741Y52438211D01*
X71546241Y52549711D01*
X71633846Y52680821D01*
X71694189Y52826503D01*
X71724952Y52981158D01*
X71724952Y53138842D01*
X71724952Y53138845D01*
X71724951Y53138847D01*
X71710678Y53210603D01*
X71694189Y53293497D01*
X71692235Y53298214D01*
X71633849Y53439173D01*
X71633842Y53439186D01*
X71557450Y53553515D01*
X71536572Y53620193D01*
X71536552Y53622406D01*
X71536552Y63571347D01*
X79662952Y63571347D01*
X79662952Y63413654D01*
X79693713Y63259011D01*
X79693716Y63258999D01*
X79754054Y63113328D01*
X79754061Y63113315D01*
X79841662Y62982212D01*
X79841664Y62982209D01*
X79860631Y62963243D01*
X79894118Y62901921D01*
X79896952Y62875560D01*
X79896952Y62448193D01*
X79908758Y62388842D01*
X79921066Y62326965D01*
X79949551Y62258197D01*
X79968369Y62212767D01*
X80030183Y62120256D01*
X80037041Y62109992D01*
X80227041Y61919992D01*
X80314444Y61832589D01*
X80314446Y61832587D01*
X80314448Y61832586D01*
X80417208Y61763924D01*
X80417210Y61763923D01*
X80417219Y61763917D01*
X80442224Y61753560D01*
X80464523Y61744323D01*
X80506706Y61726851D01*
X80531418Y61716614D01*
X80652644Y61692501D01*
X80652648Y61692500D01*
X80652649Y61692500D01*
X82190128Y61692500D01*
X82257167Y61672815D01*
X82259019Y61671602D01*
X82367505Y61599114D01*
X82412310Y61545502D01*
X82421017Y61476177D01*
X82390863Y61413150D01*
X82331420Y61376430D01*
X82322818Y61374397D01*
X82321265Y61374088D01*
X82321259Y61374087D01*
X82321256Y61374086D01*
X82221926Y61343134D01*
X82158845Y61323478D01*
X82013263Y61235470D01*
X82013262Y61235469D01*
X81910779Y61132985D01*
X81849456Y61099500D01*
X81779764Y61104484D01*
X81735417Y61132985D01*
X81633329Y61235073D01*
X81487847Y61323020D01*
X81487848Y61323020D01*
X81325557Y61373591D01*
X81325558Y61373591D01*
X81255024Y61380000D01*
X81248452Y61380000D01*
X81248452Y59430001D01*
X81255033Y59430001D01*
X81325554Y59436409D01*
X81325559Y59436410D01*
X81487848Y59486982D01*
X81633329Y59574928D01*
X81633330Y59574929D01*
X81735415Y59677015D01*
X81796738Y59710501D01*
X81866429Y59705517D01*
X81910778Y59677016D01*
X82013263Y59574531D01*
X82013265Y59574530D01*
X82013267Y59574528D01*
X82158846Y59486522D01*
X82321256Y59435914D01*
X82391836Y59429500D01*
X82391839Y59429500D01*
X82905065Y59429500D01*
X82905068Y59429500D01*
X82975648Y59435914D01*
X83138058Y59486522D01*
X83283637Y59574528D01*
X83403924Y59694815D01*
X83491930Y59840394D01*
X83542538Y60002804D01*
X83548952Y60073384D01*
X83548952Y60736616D01*
X83542538Y60807196D01*
X83491930Y60969606D01*
X83403924Y61115185D01*
X83403922Y61115187D01*
X83403921Y61115189D01*
X83283640Y61235470D01*
X83283637Y61235472D01*
X83138058Y61323478D01*
X83138056Y61323479D01*
X83138054Y61323480D01*
X83138055Y61323480D01*
X83074981Y61343134D01*
X83016833Y61381871D01*
X82988859Y61445897D01*
X82999941Y61514882D01*
X83046559Y61566925D01*
X83064411Y61576077D01*
X83123631Y61600606D01*
X83189782Y61644807D01*
X84780452Y61644807D01*
X84780452Y61486693D01*
X84818919Y61343134D01*
X84821375Y61333967D01*
X84821378Y61333960D01*
X84900427Y61197041D01*
X84900431Y61197036D01*
X84900432Y61197034D01*
X85012236Y61085230D01*
X85012238Y61085229D01*
X85012242Y61085226D01*
X85149161Y61006177D01*
X85149168Y61006173D01*
X85301895Y60965250D01*
X85301897Y60965250D01*
X85460007Y60965250D01*
X85460009Y60965250D01*
X85612736Y61006173D01*
X85749668Y61085230D01*
X85861472Y61197034D01*
X85940529Y61333966D01*
X85981452Y61486693D01*
X85981452Y61644807D01*
X85940529Y61797534D01*
X85920290Y61832589D01*
X85861476Y61934460D01*
X85861470Y61934468D01*
X85749669Y62046269D01*
X85749661Y62046275D01*
X85612742Y62125324D01*
X85612738Y62125326D01*
X85612736Y62125327D01*
X85460009Y62166250D01*
X85301895Y62166250D01*
X85149168Y62125327D01*
X85149161Y62125324D01*
X85012242Y62046275D01*
X85012234Y62046269D01*
X84900433Y61934468D01*
X84900427Y61934460D01*
X84821378Y61797541D01*
X84821375Y61797534D01*
X84780452Y61644807D01*
X83189782Y61644807D01*
X83254741Y61688211D01*
X83259031Y61692501D01*
X83307146Y61740615D01*
X83366238Y61799708D01*
X83366241Y61799711D01*
X83453846Y61930821D01*
X83514189Y62076503D01*
X83544952Y62231158D01*
X83544952Y62388842D01*
X83544952Y62388845D01*
X83544951Y62388847D01*
X83514190Y62543490D01*
X83514189Y62543497D01*
X83514187Y62543502D01*
X83453849Y62689173D01*
X83453842Y62689186D01*
X83366241Y62820289D01*
X83366238Y62820293D01*
X83254744Y62931787D01*
X83254740Y62931790D01*
X83123637Y63019391D01*
X83123624Y63019398D01*
X82977953Y63079736D01*
X82977941Y63079739D01*
X82823297Y63110500D01*
X82823294Y63110500D01*
X82665610Y63110500D01*
X82665607Y63110500D01*
X82510962Y63079739D01*
X82510950Y63079736D01*
X82365279Y63019398D01*
X82365267Y63019391D01*
X82288952Y62968398D01*
X82222275Y62947520D01*
X82220061Y62947500D01*
X81289740Y62947500D01*
X81222701Y62967185D01*
X81176946Y63019989D01*
X81167002Y63089147D01*
X81175179Y63118952D01*
X81233187Y63258999D01*
X81233189Y63259003D01*
X81263952Y63413658D01*
X81263952Y63571342D01*
X81263952Y63571345D01*
X81263951Y63571347D01*
X81233190Y63725990D01*
X81233189Y63725997D01*
X81233187Y63726002D01*
X81172849Y63871673D01*
X81172842Y63871686D01*
X81085241Y64002789D01*
X81085238Y64002793D01*
X80973744Y64114287D01*
X80973740Y64114290D01*
X80842637Y64201891D01*
X80842624Y64201898D01*
X80696953Y64262236D01*
X80696941Y64262239D01*
X80542297Y64293000D01*
X80542294Y64293000D01*
X80384610Y64293000D01*
X80384607Y64293000D01*
X80229962Y64262239D01*
X80229950Y64262236D01*
X80084279Y64201898D01*
X80084266Y64201891D01*
X79953163Y64114290D01*
X79953159Y64114287D01*
X79841665Y64002793D01*
X79841662Y64002789D01*
X79754061Y63871686D01*
X79754054Y63871673D01*
X79693716Y63726002D01*
X79693713Y63725990D01*
X79662952Y63571347D01*
X71536552Y63571347D01*
X71536552Y64559266D01*
X71536552Y64559268D01*
X71508140Y64665302D01*
X71495520Y64712401D01*
X71416252Y64849698D01*
X70749150Y65516800D01*
X70749149Y65516801D01*
X70735468Y65524699D01*
X70721788Y65532598D01*
X70611860Y65596064D01*
X70611855Y65596067D01*
X70556136Y65610997D01*
X70458720Y65637100D01*
X70458718Y65637100D01*
X50626705Y65637100D01*
X50559666Y65656785D01*
X50516220Y65704805D01*
X50456794Y65821434D01*
X50317969Y66012510D01*
X50150962Y66179517D01*
X49959885Y66318343D01*
X49749448Y66425567D01*
X49524820Y66498554D01*
X49291549Y66535500D01*
X49291544Y66535500D01*
X49055360Y66535500D01*
X49055355Y66535500D01*
X48822083Y66498554D01*
X48597455Y66425567D01*
X48387018Y66318343D01*
X48278002Y66239138D01*
X48195942Y66179517D01*
X48195940Y66179515D01*
X48195939Y66179515D01*
X48028937Y66012513D01*
X48028937Y66012512D01*
X48028935Y66012510D01*
X47969314Y65930450D01*
X47890109Y65821434D01*
X47830684Y65704805D01*
X47782709Y65654009D01*
X47720199Y65637100D01*
X44126705Y65637100D01*
X44059666Y65656785D01*
X44016220Y65704805D01*
X43956794Y65821434D01*
X43817969Y66012510D01*
X43650962Y66179517D01*
X43459885Y66318343D01*
X43249448Y66425567D01*
X43024820Y66498554D01*
X42791549Y66535500D01*
X42791544Y66535500D01*
X42555360Y66535500D01*
X42555355Y66535500D01*
X42322083Y66498554D01*
X42097455Y66425567D01*
X41887018Y66318343D01*
X41778002Y66239138D01*
X41695942Y66179517D01*
X41695940Y66179515D01*
X41695939Y66179515D01*
X41528937Y66012513D01*
X41528937Y66012512D01*
X41528935Y66012510D01*
X41469314Y65930450D01*
X41390109Y65821434D01*
X41282885Y65610997D01*
X41209898Y65386369D01*
X41172952Y65153098D01*
X40413952Y65153098D01*
X40377005Y65386369D01*
X40304018Y65610997D01*
X40196794Y65821434D01*
X40057969Y66012510D01*
X39890962Y66179517D01*
X39699885Y66318343D01*
X39489444Y66425568D01*
X39489445Y66425568D01*
X39489207Y66425689D01*
X39438411Y66473664D01*
X39421616Y66541485D01*
X39444153Y66607620D01*
X39498869Y66651071D01*
X39521302Y66657790D01*
X39609149Y66675263D01*
X39754831Y66735606D01*
X39885941Y66823211D01*
X39997441Y66934711D01*
X40085046Y67065821D01*
X40145389Y67211503D01*
X40176152Y67366158D01*
X40176152Y67523842D01*
X40176152Y67523845D01*
X40176151Y67523847D01*
X40149916Y67655743D01*
X40146314Y67673847D01*
X44165152Y67673847D01*
X44165152Y67516154D01*
X44195913Y67361511D01*
X44195916Y67361499D01*
X44256254Y67215828D01*
X44256261Y67215815D01*
X44343862Y67084712D01*
X44343865Y67084708D01*
X44455359Y66973214D01*
X44455363Y66973211D01*
X44586466Y66885610D01*
X44586479Y66885603D01*
X44732150Y66825265D01*
X44732155Y66825263D01*
X44886805Y66794501D01*
X44886808Y66794500D01*
X44886810Y66794500D01*
X45044496Y66794500D01*
X45044497Y66794501D01*
X45199149Y66825263D01*
X45344831Y66885606D01*
X45475941Y66973211D01*
X45587441Y67084711D01*
X45675046Y67215821D01*
X45735389Y67361503D01*
X45766152Y67516158D01*
X45766152Y67673842D01*
X45766152Y67673845D01*
X45766151Y67673847D01*
X45736248Y67824179D01*
X45735389Y67828497D01*
X45699553Y67915014D01*
X45675047Y67974178D01*
X45675045Y67974181D01*
X45642850Y68022365D01*
X45621972Y68089042D01*
X45621952Y68091255D01*
X45621952Y69910644D01*
X45641637Y69977683D01*
X45642850Y69979535D01*
X45703846Y70070821D01*
X45764189Y70216503D01*
X45794952Y70371158D01*
X45794952Y70528842D01*
X45794952Y70528845D01*
X45794951Y70528847D01*
X45764190Y70683490D01*
X45764189Y70683497D01*
X45764187Y70683502D01*
X45703849Y70829173D01*
X45703842Y70829186D01*
X45616241Y70960289D01*
X45616238Y70960293D01*
X45504744Y71071787D01*
X45504740Y71071790D01*
X45373637Y71159391D01*
X45373624Y71159398D01*
X45227953Y71219736D01*
X45227941Y71219739D01*
X45073297Y71250500D01*
X45073294Y71250500D01*
X44915610Y71250500D01*
X44915607Y71250500D01*
X44760962Y71219739D01*
X44760950Y71219736D01*
X44615279Y71159398D01*
X44615266Y71159391D01*
X44484163Y71071790D01*
X44484159Y71071787D01*
X44372665Y70960293D01*
X44372662Y70960289D01*
X44285061Y70829186D01*
X44285054Y70829173D01*
X44224716Y70683502D01*
X44224713Y70683490D01*
X44193952Y70528847D01*
X44193952Y70371154D01*
X44224713Y70216511D01*
X44224716Y70216499D01*
X44285055Y70070826D01*
X44285056Y70070825D01*
X44285058Y70070821D01*
X44346054Y69979535D01*
X44366932Y69912858D01*
X44366952Y69910644D01*
X44366952Y68177460D01*
X44347267Y68110421D01*
X44346054Y68108569D01*
X44256261Y67974186D01*
X44256254Y67974173D01*
X44195916Y67828502D01*
X44195913Y67828490D01*
X44165152Y67673847D01*
X40146314Y67673847D01*
X40145390Y67678493D01*
X40145387Y67678502D01*
X40085049Y67824173D01*
X40085042Y67824186D01*
X40002850Y67947195D01*
X39981972Y68013873D01*
X39981952Y68016086D01*
X39981952Y69910644D01*
X40001637Y69977683D01*
X40002850Y69979535D01*
X40063846Y70070821D01*
X40124189Y70216503D01*
X40154952Y70371158D01*
X40154952Y70528842D01*
X40154952Y70528845D01*
X40154951Y70528847D01*
X40124190Y70683490D01*
X40124189Y70683497D01*
X40124187Y70683502D01*
X40063849Y70829173D01*
X40063842Y70829186D01*
X39976241Y70960289D01*
X39976238Y70960293D01*
X39864744Y71071787D01*
X39864740Y71071790D01*
X39733637Y71159391D01*
X39733624Y71159398D01*
X39587953Y71219736D01*
X39587941Y71219739D01*
X39433297Y71250500D01*
X39433294Y71250500D01*
X39275610Y71250500D01*
X39275607Y71250500D01*
X39120962Y71219739D01*
X39120950Y71219736D01*
X38975279Y71159398D01*
X38975266Y71159391D01*
X38844163Y71071790D01*
X38844159Y71071787D01*
X38732665Y70960293D01*
X38732662Y70960289D01*
X38645061Y70829186D01*
X38645054Y70829173D01*
X38584716Y70683502D01*
X38584713Y70683490D01*
X38553952Y70528847D01*
X38553952Y70371154D01*
X38584713Y70216511D01*
X38584716Y70216499D01*
X38645055Y70070826D01*
X38645056Y70070825D01*
X38645058Y70070821D01*
X38706054Y69979535D01*
X38726932Y69912858D01*
X38726952Y69910644D01*
X38726952Y67952630D01*
X38707267Y67885591D01*
X38706054Y67883739D01*
X38666261Y67824186D01*
X38666254Y67824173D01*
X38605916Y67678502D01*
X38605913Y67678490D01*
X38575152Y67523847D01*
X38575152Y67366154D01*
X38605913Y67211511D01*
X38605916Y67211499D01*
X38666254Y67065828D01*
X38666261Y67065815D01*
X38753862Y66934712D01*
X38753865Y66934708D01*
X38865359Y66823214D01*
X38865363Y66823211D01*
X38956070Y66762602D01*
X39000875Y66708990D01*
X39009582Y66639665D01*
X38979428Y66576637D01*
X38919984Y66539918D01*
X38887179Y66535500D01*
X38795355Y66535500D01*
X38562083Y66498554D01*
X38337455Y66425567D01*
X38127018Y66318343D01*
X38018002Y66239138D01*
X37935942Y66179517D01*
X37935940Y66179515D01*
X37935939Y66179515D01*
X37768937Y66012513D01*
X37768937Y66012512D01*
X37768935Y66012510D01*
X37709314Y65930450D01*
X37630109Y65821434D01*
X37570684Y65704805D01*
X37522709Y65654009D01*
X37460199Y65637100D01*
X33866705Y65637100D01*
X33799666Y65656785D01*
X33756220Y65704805D01*
X33696794Y65821434D01*
X33557969Y66012510D01*
X33390962Y66179517D01*
X33199885Y66318343D01*
X32989448Y66425567D01*
X32764820Y66498554D01*
X32531549Y66535500D01*
X32531544Y66535500D01*
X32295360Y66535500D01*
X32295355Y66535500D01*
X32062083Y66498554D01*
X31837455Y66425567D01*
X31627018Y66318343D01*
X31518002Y66239138D01*
X31435942Y66179517D01*
X31435940Y66179515D01*
X31435939Y66179515D01*
X31268937Y66012513D01*
X31268937Y66012512D01*
X31268935Y66012510D01*
X31209314Y65930450D01*
X31130109Y65821434D01*
X31022885Y65610997D01*
X30949898Y65386369D01*
X30912952Y65153098D01*
X300500Y65153098D01*
X300500Y71595500D01*
X320185Y71662539D01*
X372989Y71708294D01*
X424500Y71719500D01*
X91435500Y71719500D01*
X91502539Y71699815D01*
G37*
%TD.AperFunction*%
%TD*%
M02*
