%TF.GenerationSoftware,KiCad,Pcbnew,10.0.0*%
%TF.CreationDate,2026-04-22T04:48:58+05:30*%
%TF.ProjectId,PC_Interface_Card,50435f49-6e74-4657-9266-6163655f4361,rev?*%
%TF.SameCoordinates,PX67fe72cPY7e1d280*%
%TF.FileFunction,Legend,Bot*%
%TF.FilePolarity,Positive*%
%FSLAX46Y46*%
G04 Gerber Fmt 4.6, Leading zero omitted, Abs format (unit mm)*
G04 Created by KiCad (PCBNEW 10.0.0) date 2026-04-22 04:48:58*
%MOMM*%
%LPD*%
G01*
G04 APERTURE LIST*
%ADD10C,0.150000*%
%ADD11C,0.508000*%
%ADD12C,0.120000*%
G04 APERTURE END LIST*
D10*
X61257309Y45535181D02*
X61590642Y46011372D01*
X61828737Y45535181D02*
X61828737Y46535181D01*
X61828737Y46535181D02*
X61447785Y46535181D01*
X61447785Y46535181D02*
X61352547Y46487562D01*
X61352547Y46487562D02*
X61304928Y46439943D01*
X61304928Y46439943D02*
X61257309Y46344705D01*
X61257309Y46344705D02*
X61257309Y46201848D01*
X61257309Y46201848D02*
X61304928Y46106610D01*
X61304928Y46106610D02*
X61352547Y46058991D01*
X61352547Y46058991D02*
X61447785Y46011372D01*
X61447785Y46011372D02*
X61828737Y46011372D01*
X60304928Y45535181D02*
X60876356Y45535181D01*
X60590642Y45535181D02*
X60590642Y46535181D01*
X60590642Y46535181D02*
X60685880Y46392324D01*
X60685880Y46392324D02*
X60781118Y46297086D01*
X60781118Y46297086D02*
X60876356Y46249467D01*
X59923975Y46439943D02*
X59876356Y46487562D01*
X59876356Y46487562D02*
X59781118Y46535181D01*
X59781118Y46535181D02*
X59543023Y46535181D01*
X59543023Y46535181D02*
X59447785Y46487562D01*
X59447785Y46487562D02*
X59400166Y46439943D01*
X59400166Y46439943D02*
X59352547Y46344705D01*
X59352547Y46344705D02*
X59352547Y46249467D01*
X59352547Y46249467D02*
X59400166Y46106610D01*
X59400166Y46106610D02*
X59971594Y45535181D01*
X59971594Y45535181D02*
X59352547Y45535181D01*
X57872309Y41445181D02*
X58205642Y41921372D01*
X58443737Y41445181D02*
X58443737Y42445181D01*
X58443737Y42445181D02*
X58062785Y42445181D01*
X58062785Y42445181D02*
X57967547Y42397562D01*
X57967547Y42397562D02*
X57919928Y42349943D01*
X57919928Y42349943D02*
X57872309Y42254705D01*
X57872309Y42254705D02*
X57872309Y42111848D01*
X57872309Y42111848D02*
X57919928Y42016610D01*
X57919928Y42016610D02*
X57967547Y41968991D01*
X57967547Y41968991D02*
X58062785Y41921372D01*
X58062785Y41921372D02*
X58443737Y41921372D01*
X57491356Y42349943D02*
X57443737Y42397562D01*
X57443737Y42397562D02*
X57348499Y42445181D01*
X57348499Y42445181D02*
X57110404Y42445181D01*
X57110404Y42445181D02*
X57015166Y42397562D01*
X57015166Y42397562D02*
X56967547Y42349943D01*
X56967547Y42349943D02*
X56919928Y42254705D01*
X56919928Y42254705D02*
X56919928Y42159467D01*
X56919928Y42159467D02*
X56967547Y42016610D01*
X56967547Y42016610D02*
X57538975Y41445181D01*
X57538975Y41445181D02*
X56919928Y41445181D01*
X56348499Y42016610D02*
X56443737Y42064229D01*
X56443737Y42064229D02*
X56491356Y42111848D01*
X56491356Y42111848D02*
X56538975Y42207086D01*
X56538975Y42207086D02*
X56538975Y42254705D01*
X56538975Y42254705D02*
X56491356Y42349943D01*
X56491356Y42349943D02*
X56443737Y42397562D01*
X56443737Y42397562D02*
X56348499Y42445181D01*
X56348499Y42445181D02*
X56158023Y42445181D01*
X56158023Y42445181D02*
X56062785Y42397562D01*
X56062785Y42397562D02*
X56015166Y42349943D01*
X56015166Y42349943D02*
X55967547Y42254705D01*
X55967547Y42254705D02*
X55967547Y42207086D01*
X55967547Y42207086D02*
X56015166Y42111848D01*
X56015166Y42111848D02*
X56062785Y42064229D01*
X56062785Y42064229D02*
X56158023Y42016610D01*
X56158023Y42016610D02*
X56348499Y42016610D01*
X56348499Y42016610D02*
X56443737Y41968991D01*
X56443737Y41968991D02*
X56491356Y41921372D01*
X56491356Y41921372D02*
X56538975Y41826134D01*
X56538975Y41826134D02*
X56538975Y41635658D01*
X56538975Y41635658D02*
X56491356Y41540420D01*
X56491356Y41540420D02*
X56443737Y41492800D01*
X56443737Y41492800D02*
X56348499Y41445181D01*
X56348499Y41445181D02*
X56158023Y41445181D01*
X56158023Y41445181D02*
X56062785Y41492800D01*
X56062785Y41492800D02*
X56015166Y41540420D01*
X56015166Y41540420D02*
X55967547Y41635658D01*
X55967547Y41635658D02*
X55967547Y41826134D01*
X55967547Y41826134D02*
X56015166Y41921372D01*
X56015166Y41921372D02*
X56062785Y41968991D01*
X56062785Y41968991D02*
X56158023Y42016610D01*
X79580118Y56950181D02*
X79913451Y57426372D01*
X80151546Y56950181D02*
X80151546Y57950181D01*
X80151546Y57950181D02*
X79770594Y57950181D01*
X79770594Y57950181D02*
X79675356Y57902562D01*
X79675356Y57902562D02*
X79627737Y57854943D01*
X79627737Y57854943D02*
X79580118Y57759705D01*
X79580118Y57759705D02*
X79580118Y57616848D01*
X79580118Y57616848D02*
X79627737Y57521610D01*
X79627737Y57521610D02*
X79675356Y57473991D01*
X79675356Y57473991D02*
X79770594Y57426372D01*
X79770594Y57426372D02*
X80151546Y57426372D01*
X78722975Y57950181D02*
X78913451Y57950181D01*
X78913451Y57950181D02*
X79008689Y57902562D01*
X79008689Y57902562D02*
X79056308Y57854943D01*
X79056308Y57854943D02*
X79151546Y57712086D01*
X79151546Y57712086D02*
X79199165Y57521610D01*
X79199165Y57521610D02*
X79199165Y57140658D01*
X79199165Y57140658D02*
X79151546Y57045420D01*
X79151546Y57045420D02*
X79103927Y56997800D01*
X79103927Y56997800D02*
X79008689Y56950181D01*
X79008689Y56950181D02*
X78818213Y56950181D01*
X78818213Y56950181D02*
X78722975Y56997800D01*
X78722975Y56997800D02*
X78675356Y57045420D01*
X78675356Y57045420D02*
X78627737Y57140658D01*
X78627737Y57140658D02*
X78627737Y57378753D01*
X78627737Y57378753D02*
X78675356Y57473991D01*
X78675356Y57473991D02*
X78722975Y57521610D01*
X78722975Y57521610D02*
X78818213Y57569229D01*
X78818213Y57569229D02*
X79008689Y57569229D01*
X79008689Y57569229D02*
X79103927Y57521610D01*
X79103927Y57521610D02*
X79151546Y57473991D01*
X79151546Y57473991D02*
X79199165Y57378753D01*
X9411118Y35055181D02*
X9744451Y35531372D01*
X9982546Y35055181D02*
X9982546Y36055181D01*
X9982546Y36055181D02*
X9601594Y36055181D01*
X9601594Y36055181D02*
X9506356Y36007562D01*
X9506356Y36007562D02*
X9458737Y35959943D01*
X9458737Y35959943D02*
X9411118Y35864705D01*
X9411118Y35864705D02*
X9411118Y35721848D01*
X9411118Y35721848D02*
X9458737Y35626610D01*
X9458737Y35626610D02*
X9506356Y35578991D01*
X9506356Y35578991D02*
X9601594Y35531372D01*
X9601594Y35531372D02*
X9982546Y35531372D01*
X8839689Y35626610D02*
X8934927Y35674229D01*
X8934927Y35674229D02*
X8982546Y35721848D01*
X8982546Y35721848D02*
X9030165Y35817086D01*
X9030165Y35817086D02*
X9030165Y35864705D01*
X9030165Y35864705D02*
X8982546Y35959943D01*
X8982546Y35959943D02*
X8934927Y36007562D01*
X8934927Y36007562D02*
X8839689Y36055181D01*
X8839689Y36055181D02*
X8649213Y36055181D01*
X8649213Y36055181D02*
X8553975Y36007562D01*
X8553975Y36007562D02*
X8506356Y35959943D01*
X8506356Y35959943D02*
X8458737Y35864705D01*
X8458737Y35864705D02*
X8458737Y35817086D01*
X8458737Y35817086D02*
X8506356Y35721848D01*
X8506356Y35721848D02*
X8553975Y35674229D01*
X8553975Y35674229D02*
X8649213Y35626610D01*
X8649213Y35626610D02*
X8839689Y35626610D01*
X8839689Y35626610D02*
X8934927Y35578991D01*
X8934927Y35578991D02*
X8982546Y35531372D01*
X8982546Y35531372D02*
X9030165Y35436134D01*
X9030165Y35436134D02*
X9030165Y35245658D01*
X9030165Y35245658D02*
X8982546Y35150420D01*
X8982546Y35150420D02*
X8934927Y35102800D01*
X8934927Y35102800D02*
X8839689Y35055181D01*
X8839689Y35055181D02*
X8649213Y35055181D01*
X8649213Y35055181D02*
X8553975Y35102800D01*
X8553975Y35102800D02*
X8506356Y35150420D01*
X8506356Y35150420D02*
X8458737Y35245658D01*
X8458737Y35245658D02*
X8458737Y35436134D01*
X8458737Y35436134D02*
X8506356Y35531372D01*
X8506356Y35531372D02*
X8553975Y35578991D01*
X8553975Y35578991D02*
X8649213Y35626610D01*
X45929271Y46512858D02*
X45453080Y46846191D01*
X45929271Y47084286D02*
X44929271Y47084286D01*
X44929271Y47084286D02*
X44929271Y46703334D01*
X44929271Y46703334D02*
X44976890Y46608096D01*
X44976890Y46608096D02*
X45024509Y46560477D01*
X45024509Y46560477D02*
X45119747Y46512858D01*
X45119747Y46512858D02*
X45262604Y46512858D01*
X45262604Y46512858D02*
X45357842Y46560477D01*
X45357842Y46560477D02*
X45405461Y46608096D01*
X45405461Y46608096D02*
X45453080Y46703334D01*
X45453080Y46703334D02*
X45453080Y47084286D01*
X44929271Y46179524D02*
X44929271Y45560477D01*
X44929271Y45560477D02*
X45310223Y45893810D01*
X45310223Y45893810D02*
X45310223Y45750953D01*
X45310223Y45750953D02*
X45357842Y45655715D01*
X45357842Y45655715D02*
X45405461Y45608096D01*
X45405461Y45608096D02*
X45500699Y45560477D01*
X45500699Y45560477D02*
X45738794Y45560477D01*
X45738794Y45560477D02*
X45834032Y45608096D01*
X45834032Y45608096D02*
X45881652Y45655715D01*
X45881652Y45655715D02*
X45929271Y45750953D01*
X45929271Y45750953D02*
X45929271Y46036667D01*
X45929271Y46036667D02*
X45881652Y46131905D01*
X45881652Y46131905D02*
X45834032Y46179524D01*
X44929271Y45227143D02*
X44929271Y44608096D01*
X44929271Y44608096D02*
X45310223Y44941429D01*
X45310223Y44941429D02*
X45310223Y44798572D01*
X45310223Y44798572D02*
X45357842Y44703334D01*
X45357842Y44703334D02*
X45405461Y44655715D01*
X45405461Y44655715D02*
X45500699Y44608096D01*
X45500699Y44608096D02*
X45738794Y44608096D01*
X45738794Y44608096D02*
X45834032Y44655715D01*
X45834032Y44655715D02*
X45881652Y44703334D01*
X45881652Y44703334D02*
X45929271Y44798572D01*
X45929271Y44798572D02*
X45929271Y45084286D01*
X45929271Y45084286D02*
X45881652Y45179524D01*
X45881652Y45179524D02*
X45834032Y45227143D01*
X50519271Y46652858D02*
X50043080Y46986191D01*
X50519271Y47224286D02*
X49519271Y47224286D01*
X49519271Y47224286D02*
X49519271Y46843334D01*
X49519271Y46843334D02*
X49566890Y46748096D01*
X49566890Y46748096D02*
X49614509Y46700477D01*
X49614509Y46700477D02*
X49709747Y46652858D01*
X49709747Y46652858D02*
X49852604Y46652858D01*
X49852604Y46652858D02*
X49947842Y46700477D01*
X49947842Y46700477D02*
X49995461Y46748096D01*
X49995461Y46748096D02*
X50043080Y46843334D01*
X50043080Y46843334D02*
X50043080Y47224286D01*
X49614509Y46271905D02*
X49566890Y46224286D01*
X49566890Y46224286D02*
X49519271Y46129048D01*
X49519271Y46129048D02*
X49519271Y45890953D01*
X49519271Y45890953D02*
X49566890Y45795715D01*
X49566890Y45795715D02*
X49614509Y45748096D01*
X49614509Y45748096D02*
X49709747Y45700477D01*
X49709747Y45700477D02*
X49804985Y45700477D01*
X49804985Y45700477D02*
X49947842Y45748096D01*
X49947842Y45748096D02*
X50519271Y46319524D01*
X50519271Y46319524D02*
X50519271Y45700477D01*
X50519271Y44748096D02*
X50519271Y45319524D01*
X50519271Y45033810D02*
X49519271Y45033810D01*
X49519271Y45033810D02*
X49662128Y45129048D01*
X49662128Y45129048D02*
X49757366Y45224286D01*
X49757366Y45224286D02*
X49804985Y45319524D01*
X49137309Y42970420D02*
X49184928Y42922800D01*
X49184928Y42922800D02*
X49327785Y42875181D01*
X49327785Y42875181D02*
X49423023Y42875181D01*
X49423023Y42875181D02*
X49565880Y42922800D01*
X49565880Y42922800D02*
X49661118Y43018039D01*
X49661118Y43018039D02*
X49708737Y43113277D01*
X49708737Y43113277D02*
X49756356Y43303753D01*
X49756356Y43303753D02*
X49756356Y43446610D01*
X49756356Y43446610D02*
X49708737Y43637086D01*
X49708737Y43637086D02*
X49661118Y43732324D01*
X49661118Y43732324D02*
X49565880Y43827562D01*
X49565880Y43827562D02*
X49423023Y43875181D01*
X49423023Y43875181D02*
X49327785Y43875181D01*
X49327785Y43875181D02*
X49184928Y43827562D01*
X49184928Y43827562D02*
X49137309Y43779943D01*
X48184928Y42875181D02*
X48756356Y42875181D01*
X48470642Y42875181D02*
X48470642Y43875181D01*
X48470642Y43875181D02*
X48565880Y43732324D01*
X48565880Y43732324D02*
X48661118Y43637086D01*
X48661118Y43637086D02*
X48756356Y43589467D01*
X47851594Y43875181D02*
X47232547Y43875181D01*
X47232547Y43875181D02*
X47565880Y43494229D01*
X47565880Y43494229D02*
X47423023Y43494229D01*
X47423023Y43494229D02*
X47327785Y43446610D01*
X47327785Y43446610D02*
X47280166Y43398991D01*
X47280166Y43398991D02*
X47232547Y43303753D01*
X47232547Y43303753D02*
X47232547Y43065658D01*
X47232547Y43065658D02*
X47280166Y42970420D01*
X47280166Y42970420D02*
X47327785Y42922800D01*
X47327785Y42922800D02*
X47423023Y42875181D01*
X47423023Y42875181D02*
X47708737Y42875181D01*
X47708737Y42875181D02*
X47803975Y42922800D01*
X47803975Y42922800D02*
X47851594Y42970420D01*
X48977309Y41410420D02*
X49024928Y41362800D01*
X49024928Y41362800D02*
X49167785Y41315181D01*
X49167785Y41315181D02*
X49263023Y41315181D01*
X49263023Y41315181D02*
X49405880Y41362800D01*
X49405880Y41362800D02*
X49501118Y41458039D01*
X49501118Y41458039D02*
X49548737Y41553277D01*
X49548737Y41553277D02*
X49596356Y41743753D01*
X49596356Y41743753D02*
X49596356Y41886610D01*
X49596356Y41886610D02*
X49548737Y42077086D01*
X49548737Y42077086D02*
X49501118Y42172324D01*
X49501118Y42172324D02*
X49405880Y42267562D01*
X49405880Y42267562D02*
X49263023Y42315181D01*
X49263023Y42315181D02*
X49167785Y42315181D01*
X49167785Y42315181D02*
X49024928Y42267562D01*
X49024928Y42267562D02*
X48977309Y42219943D01*
X48024928Y41315181D02*
X48596356Y41315181D01*
X48310642Y41315181D02*
X48310642Y42315181D01*
X48310642Y42315181D02*
X48405880Y42172324D01*
X48405880Y42172324D02*
X48501118Y42077086D01*
X48501118Y42077086D02*
X48596356Y42029467D01*
X47120166Y42315181D02*
X47596356Y42315181D01*
X47596356Y42315181D02*
X47643975Y41838991D01*
X47643975Y41838991D02*
X47596356Y41886610D01*
X47596356Y41886610D02*
X47501118Y41934229D01*
X47501118Y41934229D02*
X47263023Y41934229D01*
X47263023Y41934229D02*
X47167785Y41886610D01*
X47167785Y41886610D02*
X47120166Y41838991D01*
X47120166Y41838991D02*
X47072547Y41743753D01*
X47072547Y41743753D02*
X47072547Y41505658D01*
X47072547Y41505658D02*
X47120166Y41410420D01*
X47120166Y41410420D02*
X47167785Y41362800D01*
X47167785Y41362800D02*
X47263023Y41315181D01*
X47263023Y41315181D02*
X47501118Y41315181D01*
X47501118Y41315181D02*
X47596356Y41362800D01*
X47596356Y41362800D02*
X47643975Y41410420D01*
X79510118Y59980181D02*
X79843451Y60456372D01*
X80081546Y59980181D02*
X80081546Y60980181D01*
X80081546Y60980181D02*
X79700594Y60980181D01*
X79700594Y60980181D02*
X79605356Y60932562D01*
X79605356Y60932562D02*
X79557737Y60884943D01*
X79557737Y60884943D02*
X79510118Y60789705D01*
X79510118Y60789705D02*
X79510118Y60646848D01*
X79510118Y60646848D02*
X79557737Y60551610D01*
X79557737Y60551610D02*
X79605356Y60503991D01*
X79605356Y60503991D02*
X79700594Y60456372D01*
X79700594Y60456372D02*
X80081546Y60456372D01*
X79176784Y60980181D02*
X78510118Y60980181D01*
X78510118Y60980181D02*
X78938689Y59980181D01*
%TO.C,J4*%
D11*
X6934453Y29033701D02*
G75*
G02*
X6172453Y29033701I-381000J0D01*
G01*
X6172453Y29033701D02*
G75*
G02*
X6934453Y29033701I381000J0D01*
G01*
%TO.C,R12*%
D12*
X57831952Y47117258D02*
X57831952Y46642742D01*
X58876952Y47117258D02*
X58876952Y46642742D01*
%TO.C,R28*%
X56992194Y43852500D02*
X57466710Y43852500D01*
X56992194Y42807500D02*
X57466710Y42807500D01*
%TO.C,R6*%
X82070710Y57947500D02*
X81596194Y57947500D01*
X82070710Y56902500D02*
X81596194Y56902500D01*
%TO.C,R8*%
X9007194Y37462500D02*
X9481710Y37462500D01*
X9007194Y36417500D02*
X9481710Y36417500D01*
%TO.C,R33*%
X46431952Y46097258D02*
X46431952Y45622742D01*
X47476952Y46097258D02*
X47476952Y45622742D01*
%TO.C,R21*%
X48021952Y46097258D02*
X48021952Y45622742D01*
X49066952Y46097258D02*
X49066952Y45622742D01*
%TO.C,C13*%
X51246072Y43875000D02*
X51527232Y43875000D01*
X51246072Y42855000D02*
X51527232Y42855000D01*
%TO.C,C15*%
X51246072Y42295000D02*
X51527232Y42295000D01*
X51246072Y41275000D02*
X51527232Y41275000D01*
%TO.C,R7*%
X82060710Y60927500D02*
X81586194Y60927500D01*
X82060710Y59882500D02*
X81586194Y59882500D01*
%TD*%
M02*
