%TF.GenerationSoftware,KiCad,Pcbnew,9.0.6*%
%TF.CreationDate,2026-02-15T13:38:13+05:30*%
%TF.ProjectId,PC_Interface_Card,50435f49-6e74-4657-9266-6163655f4361,rev?*%
%TF.SameCoordinates,Original*%
%TF.FileFunction,Copper,L2,Bot*%
%TF.FilePolarity,Positive*%
%FSLAX46Y46*%
G04 Gerber Fmt 4.6, Leading zero omitted, Abs format (unit mm)*
G04 Created by KiCad (PCBNEW 9.0.6) date 2026-02-15 13:38:13*
%MOMM*%
%LPD*%
G01*
G04 APERTURE LIST*
G04 Aperture macros list*
%AMRoundRect*
0 Rectangle with rounded corners*
0 $1 Rounding radius*
0 $2 $3 $4 $5 $6 $7 $8 $9 X,Y pos of 4 corners*
0 Add a 4 corners polygon primitive as box body*
4,1,4,$2,$3,$4,$5,$6,$7,$8,$9,$2,$3,0*
0 Add four circle primitives for the rounded corners*
1,1,$1+$1,$2,$3*
1,1,$1+$1,$4,$5*
1,1,$1+$1,$6,$7*
1,1,$1+$1,$8,$9*
0 Add four rect primitives between the rounded corners*
20,1,$1+$1,$2,$3,$4,$5,0*
20,1,$1+$1,$4,$5,$6,$7,0*
20,1,$1+$1,$6,$7,$8,$9,0*
20,1,$1+$1,$8,$9,$2,$3,0*%
G04 Aperture macros list end*
%TA.AperFunction,ComponentPad*%
%ADD10R,1.500000X1.500000*%
%TD*%
%TA.AperFunction,ComponentPad*%
%ADD11C,1.500000*%
%TD*%
%TA.AperFunction,HeatsinkPad*%
%ADD12C,0.600000*%
%TD*%
%TA.AperFunction,ComponentPad*%
%ADD13C,0.700000*%
%TD*%
%TA.AperFunction,ComponentPad*%
%ADD14C,4.400000*%
%TD*%
%TA.AperFunction,ComponentPad*%
%ADD15C,2.000000*%
%TD*%
%TA.AperFunction,ComponentPad*%
%ADD16C,2.200000*%
%TD*%
%TA.AperFunction,ComponentPad*%
%ADD17R,1.508000X1.508000*%
%TD*%
%TA.AperFunction,ComponentPad*%
%ADD18C,1.508000*%
%TD*%
%TA.AperFunction,ComponentPad*%
%ADD19O,3.450000X3.150000*%
%TD*%
%TA.AperFunction,SMDPad,CuDef*%
%ADD20RoundRect,0.200000X-0.275000X0.200000X-0.275000X-0.200000X0.275000X-0.200000X0.275000X0.200000X0*%
%TD*%
%TA.AperFunction,SMDPad,CuDef*%
%ADD21RoundRect,0.200000X-0.200000X-0.275000X0.200000X-0.275000X0.200000X0.275000X-0.200000X0.275000X0*%
%TD*%
%TA.AperFunction,SMDPad,CuDef*%
%ADD22RoundRect,0.200000X0.200000X0.275000X-0.200000X0.275000X-0.200000X-0.275000X0.200000X-0.275000X0*%
%TD*%
%TA.AperFunction,SMDPad,CuDef*%
%ADD23RoundRect,0.225000X-0.225000X-0.250000X0.225000X-0.250000X0.225000X0.250000X-0.225000X0.250000X0*%
%TD*%
%TA.AperFunction,ViaPad*%
%ADD24C,0.508000*%
%TD*%
%TA.AperFunction,Conductor*%
%ADD25C,0.254000*%
%TD*%
%TA.AperFunction,Conductor*%
%ADD26C,0.203200*%
%TD*%
%TA.AperFunction,Conductor*%
%ADD27C,0.508000*%
%TD*%
G04 APERTURE END LIST*
D10*
%TO.P,SW6,1,1*%
%TO.N,SW_PLAY*%
X177859000Y-105015000D03*
D11*
%TO.P,SW6,2,2*%
X177859000Y-111515000D03*
%TO.P,SW6,3,3*%
%TO.N,GND*%
X182359000Y-105015000D03*
%TO.P,SW6,4,4*%
X182359000Y-111515000D03*
%TO.P,SW6,5,+*%
%TO.N,Net-(SW6-+)*%
X182809000Y-108265000D03*
%TO.P,SW6,6,-*%
%TO.N,GND*%
X177409000Y-108265000D03*
%TD*%
D12*
%TO.P,U4,41,GND*%
%TO.N,GND*%
X173199000Y-70215000D03*
X173199000Y-71615000D03*
X173899000Y-69515000D03*
X173899000Y-70915000D03*
X173899000Y-72315000D03*
X174599000Y-70215000D03*
X174599000Y-71615000D03*
X175299000Y-69515000D03*
X175299000Y-70915000D03*
X175299000Y-72315000D03*
X175999000Y-70215000D03*
X175999000Y-71615000D03*
%TD*%
D13*
%TO.P,H6,1,1*%
%TO.N,GND*%
X194794000Y-63230000D03*
X195277274Y-62063274D03*
X195277274Y-64396726D03*
X196444000Y-61580000D03*
D14*
X196444000Y-63230000D03*
D13*
X196444000Y-64880000D03*
X197610726Y-62063274D03*
X197610726Y-64396726D03*
X198094000Y-63230000D03*
%TD*%
D15*
%TO.P,SW7,1,1*%
%TO.N,SW_BOOT*%
X151719000Y-67205000D03*
X158219000Y-67205000D03*
%TO.P,SW7,2,2*%
%TO.N,GND*%
X151719000Y-71705000D03*
X158219000Y-71705000D03*
%TD*%
D16*
%TO.P,SW4,1*%
%TO.N,SW_DN*%
X142089000Y-118570000D03*
%TO.P,SW4,2*%
%TO.N,GND*%
X148439000Y-116030000D03*
%TD*%
D13*
%TO.P,H2,1,1*%
%TO.N,GND*%
X110510548Y-128860000D03*
X110993822Y-127693274D03*
X110993822Y-130026726D03*
X112160548Y-127210000D03*
D14*
X112160548Y-128860000D03*
D13*
X112160548Y-130510000D03*
X113327274Y-127693274D03*
X113327274Y-130026726D03*
X113810548Y-128860000D03*
%TD*%
D16*
%TO.P,SW5,1*%
%TO.N,SW_MENU*%
X142084000Y-102050000D03*
%TO.P,SW5,2*%
%TO.N,GND*%
X148434000Y-99510000D03*
%TD*%
D15*
%TO.P,SW8,1,1*%
%TO.N,SW_EN*%
X141459000Y-67205000D03*
X147959000Y-67205000D03*
%TO.P,SW8,2,2*%
%TO.N,GND*%
X141459000Y-71705000D03*
X147959000Y-71705000D03*
%TD*%
D13*
%TO.P,H7,1,1*%
%TO.N,GND*%
X194355726Y-128988274D03*
X194839000Y-127821548D03*
X194839000Y-130155000D03*
X196005726Y-127338274D03*
D14*
X196005726Y-128988274D03*
D13*
X196005726Y-130638274D03*
X197172452Y-127821548D03*
X197172452Y-130155000D03*
X197655726Y-128988274D03*
%TD*%
%TO.P,H1,1,1*%
%TO.N,GND*%
X110992274Y-63188274D03*
X111475548Y-62021548D03*
X111475548Y-64355000D03*
X112642274Y-61538274D03*
D14*
X112642274Y-63188274D03*
D13*
X112642274Y-64838274D03*
X113809000Y-62021548D03*
X113809000Y-64355000D03*
X114292274Y-63188274D03*
%TD*%
D16*
%TO.P,SW3,1*%
%TO.N,SW_RIGHT*%
X125554000Y-102030000D03*
%TO.P,SW3,2*%
%TO.N,GND*%
X131904000Y-99490000D03*
%TD*%
%TO.P,SW2,1*%
%TO.N,SW_UP*%
X142084000Y-85790000D03*
%TO.P,SW2,2*%
%TO.N,GND*%
X148434000Y-83250000D03*
%TD*%
%TO.P,SW1,1*%
%TO.N,SW_LEFT*%
X158344000Y-102050000D03*
%TO.P,SW1,2*%
%TO.N,GND*%
X164694000Y-99510000D03*
%TD*%
D17*
%TO.P,MT1,A*%
%TO.N,ENC_A*%
X195729000Y-111645000D03*
D18*
%TO.P,MT1,B*%
%TO.N,ENC_B*%
X195729000Y-106645000D03*
%TO.P,MT1,C*%
%TO.N,GND*%
X195729000Y-109145000D03*
%TO.P,MT1,D*%
%TO.N,ENC_SW*%
X193229000Y-111645000D03*
%TO.P,MT1,E*%
%TO.N,GND*%
X193229000Y-106645000D03*
D19*
%TO.P,MT1,SH1,SHIELD*%
X195729000Y-114545000D03*
%TO.P,MT1,SH2,SHIELD__1*%
X195729000Y-103745000D03*
%TD*%
D20*
%TO.P,R12,1*%
%TO.N,Net-(U3-\u002AWP)*%
X167400000Y-84535000D03*
%TO.P,R12,2*%
%TO.N,3V3*%
X167400000Y-86185000D03*
%TD*%
D21*
%TO.P,R28,1*%
%TO.N,FRAM_CS*%
X165450000Y-88910000D03*
%TO.P,R28,2*%
%TO.N,3V3*%
X167100000Y-88910000D03*
%TD*%
D22*
%TO.P,R6,1*%
%TO.N,CC1*%
X191704000Y-74815000D03*
%TO.P,R6,2*%
%TO.N,GND*%
X190054000Y-74815000D03*
%TD*%
D21*
%TO.P,R8,1*%
%TO.N,RST_DISP*%
X117465000Y-95300000D03*
%TO.P,R8,2*%
%TO.N,3V3*%
X119115000Y-95300000D03*
%TD*%
D20*
%TO.P,R33,1*%
%TO.N,Net-(U3-VDD)*%
X156000000Y-85555000D03*
%TO.P,R33,2*%
%TO.N,3V3*%
X156000000Y-87205000D03*
%TD*%
%TO.P,R21,1*%
%TO.N,Net-(U3-\u002ARESET)*%
X157590000Y-85555000D03*
%TO.P,R21,2*%
%TO.N,3V3*%
X157590000Y-87205000D03*
%TD*%
D23*
%TO.P,C13,1*%
%TO.N,Net-(U3-VDD)*%
X159657200Y-88875000D03*
%TO.P,C13,2*%
%TO.N,GND*%
X161207200Y-88875000D03*
%TD*%
%TO.P,C15,1*%
%TO.N,Net-(U3-VDD)*%
X159657200Y-90455000D03*
%TO.P,C15,2*%
%TO.N,GND*%
X161207200Y-90455000D03*
%TD*%
D22*
%TO.P,R7,1*%
%TO.N,CC2*%
X191694000Y-71835000D03*
%TO.P,R7,2*%
%TO.N,GND*%
X190044000Y-71835000D03*
%TD*%
D24*
%TO.N,*%
X182480000Y-83580000D03*
%TO.N,GND*%
X183430000Y-92470000D03*
X143450000Y-114790000D03*
X129290000Y-86520000D03*
X175470000Y-96110000D03*
X122850000Y-86620000D03*
X165210000Y-74010000D03*
X193150000Y-101580000D03*
X168889000Y-84665000D03*
X171990000Y-82770000D03*
X179520000Y-64470000D03*
X178520000Y-91310000D03*
X186480000Y-83720000D03*
X149930000Y-90690000D03*
X127600000Y-87570000D03*
X121630000Y-87570000D03*
X171030000Y-88430000D03*
X183570000Y-96020000D03*
X129290000Y-87570000D03*
X183310000Y-89250000D03*
X141010000Y-114790000D03*
X186360000Y-75650000D03*
X183570000Y-98660000D03*
X138050000Y-83300000D03*
X179740000Y-99060000D03*
X151910000Y-94240000D03*
X174070000Y-87400000D03*
X189750000Y-101460000D03*
X172330000Y-77190000D03*
X189509000Y-71022500D03*
X179740000Y-96110000D03*
X138020000Y-89560000D03*
X117700000Y-71060000D03*
X178770000Y-93100000D03*
X142310000Y-114790000D03*
X157940000Y-90320000D03*
X192060000Y-78790000D03*
X190220000Y-106380000D03*
X184430000Y-86950000D03*
X195180000Y-73600000D03*
X193926500Y-68444250D03*
%TO.N,3V3*%
X148400000Y-61790000D03*
X172330000Y-93450000D03*
X187580000Y-101770000D03*
X174540000Y-100700000D03*
X153190000Y-84800000D03*
X134080000Y-73310000D03*
X122780000Y-84190000D03*
X135200000Y-82680000D03*
X136825000Y-129165000D03*
X132129000Y-82390000D03*
X148421200Y-64795000D03*
X169710000Y-92250000D03*
X190070000Y-99270000D03*
X173070000Y-110520000D03*
X187760000Y-111040000D03*
X127100000Y-93520000D03*
X154011200Y-64645000D03*
X172315000Y-95095000D03*
X187769868Y-107630132D03*
X154040000Y-61790000D03*
X119110000Y-87980000D03*
X174540000Y-102800000D03*
%TO.N,SW_UP*%
X171049868Y-92039868D03*
%TO.N,SW_RIGHT*%
X176489868Y-90639868D03*
X186180000Y-74550000D03*
%TO.N,SW_DN*%
X186610000Y-87970000D03*
X183250000Y-70810000D03*
%TO.N,ENC_SW*%
X185372043Y-91198668D03*
X185370000Y-100740000D03*
X187974868Y-75255132D03*
X186691200Y-82010000D03*
%TO.N,SW_BOOT*%
X179970000Y-79180000D03*
%TO.N,ENC_A*%
X179870000Y-91330000D03*
%TO.N,ENC_B*%
X182660000Y-85860000D03*
X187900000Y-85320000D03*
X180110132Y-84810132D03*
X183808800Y-85820000D03*
%TO.N,VUSB*%
X191790000Y-69930000D03*
X189509000Y-68747500D03*
X192510000Y-80340000D03*
%TO.N,CC1*%
X191704000Y-74815000D03*
%TO.N,CC2*%
X191694000Y-71835000D03*
%TO.N,SCLK*%
X157480000Y-84210000D03*
X173870000Y-83480000D03*
X120840000Y-91560000D03*
X138570000Y-84090000D03*
%TO.N,MISO*%
X132129000Y-89050000D03*
X176734000Y-80955000D03*
X172365200Y-85490000D03*
%TO.N,RST_DISP*%
X117465000Y-95300000D03*
%TO.N,MOSI*%
X132129000Y-90300000D03*
X159960000Y-82180000D03*
X174194000Y-80955000D03*
%TO.N,D1_SDMMC*%
X118620000Y-78320000D03*
X134611050Y-76649214D03*
%TO.N,D0_SDMMC*%
X134650000Y-75788800D03*
X120480000Y-77780000D03*
%TO.N,PWM_DISP*%
X164780000Y-80250000D03*
X171654000Y-80955000D03*
%TO.N,Net-(U3-\u002AWP)*%
X167400000Y-84535000D03*
%TO.N,Net-(U3-\u002ARESET)*%
X157590000Y-85555000D03*
%TO.N,FRAM_CS*%
X165450000Y-88910000D03*
%TO.N,SW_PLAY*%
X181840000Y-73380000D03*
%TO.N,Net-(U3-VDD)*%
X159657200Y-88875000D03*
X156000000Y-85555000D03*
%TD*%
D25*
%TO.N,GND*%
X191215000Y-70664000D02*
X192876000Y-70664000D01*
X190044000Y-71835000D02*
X191215000Y-70664000D01*
X193926500Y-69613500D02*
X193926500Y-68444250D01*
X192876000Y-70664000D02*
X193926500Y-69613500D01*
X190044000Y-71835000D02*
X190044000Y-71557500D01*
X190044000Y-71557500D02*
X189509000Y-71022500D01*
D26*
%TO.N,3V3*%
X169215000Y-86185000D02*
X169710000Y-86680000D01*
D25*
X123430000Y-84840000D02*
X122780000Y-84190000D01*
X132130000Y-82390000D02*
X131270000Y-83250000D01*
D26*
X172330000Y-93450000D02*
X172330000Y-95080000D01*
D25*
X156000000Y-87205000D02*
X156000000Y-90890000D01*
X156500000Y-91390000D02*
X166710000Y-91390000D01*
D27*
X184730000Y-112160000D02*
X182280000Y-114610000D01*
X156000000Y-87205000D02*
X157590000Y-87205000D01*
D25*
X156000000Y-90890000D02*
X156500000Y-91390000D01*
X135320000Y-73310000D02*
X135930000Y-73920000D01*
D27*
X190070000Y-99280000D02*
X187580000Y-101770000D01*
D25*
X154040000Y-64616200D02*
X154011200Y-64645000D01*
X123400000Y-95300000D02*
X124750000Y-93950000D01*
D27*
X187760000Y-111040000D02*
X187760000Y-107640000D01*
D25*
X153190000Y-84800000D02*
X153190000Y-85237928D01*
X174540000Y-100700000D02*
X174540000Y-102800000D01*
X166710000Y-91390000D02*
X167100000Y-91000000D01*
X167100000Y-91000000D02*
X167100000Y-88910000D01*
D26*
X167400000Y-86185000D02*
X169215000Y-86185000D01*
D25*
X132130000Y-80960000D02*
X132130000Y-82390000D01*
X128010000Y-83250000D02*
X126420000Y-84840000D01*
X154040000Y-61790000D02*
X154040000Y-64616200D01*
D27*
X182280000Y-114610000D02*
X179460000Y-114610000D01*
X190070000Y-99270000D02*
X190070000Y-99280000D01*
D25*
X132129000Y-82390000D02*
X134910000Y-82390000D01*
D27*
X173050000Y-110540000D02*
X173070000Y-110520000D01*
D25*
X148400000Y-61790000D02*
X148400000Y-64773800D01*
D26*
X172330000Y-95080000D02*
X172315000Y-95095000D01*
D27*
X179460000Y-114610000D02*
X174030000Y-114610000D01*
D25*
X132130000Y-82390000D02*
X132129000Y-82390000D01*
X148400000Y-64773800D02*
X148421200Y-64795000D01*
X119115000Y-95300000D02*
X119115000Y-87985000D01*
X126420000Y-84840000D02*
X123430000Y-84840000D01*
D26*
X167100000Y-88910000D02*
X167100000Y-87650000D01*
D25*
X134080000Y-73310000D02*
X135320000Y-73310000D01*
D26*
X169710000Y-86680000D02*
X169710000Y-92250000D01*
D25*
X134910000Y-82390000D02*
X135200000Y-82680000D01*
X119115000Y-95300000D02*
X123400000Y-95300000D01*
X131270000Y-83250000D02*
X128010000Y-83250000D01*
D27*
X184730000Y-110670000D02*
X184730000Y-112160000D01*
D25*
X153190000Y-85237928D02*
X155157072Y-87205000D01*
D26*
X167400000Y-87350000D02*
X167400000Y-86185000D01*
D25*
X119115000Y-87985000D02*
X119110000Y-87980000D01*
D27*
X187769868Y-107630132D02*
X184730000Y-110670000D01*
D25*
X135930000Y-73920000D02*
X135930000Y-77160000D01*
X135930000Y-77160000D02*
X132130000Y-80960000D01*
D27*
X187760000Y-107640000D02*
X187769868Y-107630132D01*
X174030000Y-114610000D02*
X173050000Y-113630000D01*
D25*
X124750000Y-93950000D02*
X125180000Y-93520000D01*
D26*
X167100000Y-87650000D02*
X167400000Y-87350000D01*
D25*
X155157072Y-87205000D02*
X156000000Y-87205000D01*
X125180000Y-93520000D02*
X127100000Y-93520000D01*
D27*
X173050000Y-113630000D02*
X173050000Y-110540000D01*
D26*
%TO.N,SW_UP*%
X153130000Y-85790000D02*
X153720000Y-86380000D01*
X154700000Y-87360000D02*
X154700000Y-92470000D01*
X154700000Y-92470000D02*
X155122600Y-92892600D01*
X156820000Y-92892600D02*
X170197136Y-92892600D01*
X142084000Y-85790000D02*
X153130000Y-85790000D01*
X170197136Y-92892600D02*
X171049868Y-92039868D01*
X153720000Y-86380000D02*
X154700000Y-87360000D01*
X155122600Y-92892600D02*
X156820000Y-92892600D01*
%TO.N,SW_RIGHT*%
X176489868Y-90639868D02*
X185500132Y-90639868D01*
X188680000Y-87460000D02*
X188680000Y-81160000D01*
X186490000Y-89650000D02*
X188680000Y-87460000D01*
X188680000Y-75170000D02*
X188110000Y-74600000D01*
X186230000Y-74600000D02*
X186180000Y-74550000D01*
X185500132Y-90639868D02*
X186490000Y-89650000D01*
X188680000Y-81160000D02*
X188680000Y-75170000D01*
X188110000Y-74600000D02*
X186230000Y-74600000D01*
%TO.N,SW_DN*%
X183250000Y-87380000D02*
X183250000Y-70810000D01*
X186610000Y-87970000D02*
X183840000Y-87970000D01*
X183840000Y-87970000D02*
X183250000Y-87380000D01*
%TO.N,SW_EN*%
X141459000Y-67205000D02*
X147959000Y-67205000D01*
%TO.N,ENC_SW*%
X188000000Y-75280264D02*
X187974868Y-75255132D01*
X186691200Y-82010000D02*
X187390000Y-82010000D01*
X185370000Y-91200711D02*
X185372043Y-91198668D01*
X185370000Y-100740000D02*
X185370000Y-91200711D01*
X187390000Y-82010000D02*
X188000000Y-81400000D01*
X188000000Y-81400000D02*
X188000000Y-75280264D01*
%TO.N,SW_BOOT*%
X179980000Y-79170000D02*
X179970000Y-79180000D01*
X158219000Y-67205000D02*
X179425000Y-67205000D01*
X179425000Y-67205000D02*
X179980000Y-67760000D01*
X158219000Y-67205000D02*
X151719000Y-67205000D01*
X179980000Y-67760000D02*
X179980000Y-79170000D01*
%TO.N,ENC_A*%
X193194000Y-109110000D02*
X192010000Y-109110000D01*
X192010000Y-109110000D02*
X190040000Y-109110000D01*
X182100000Y-93560000D02*
X179870000Y-91330000D01*
X195729000Y-111645000D02*
X193194000Y-109110000D01*
X190040000Y-109110000D02*
X182100000Y-101170000D01*
X182100000Y-101170000D02*
X182100000Y-93560000D01*
%TO.N,ENC_B*%
X184308800Y-85320000D02*
X183808800Y-85820000D01*
X181160000Y-85860000D02*
X180110132Y-84810132D01*
X182660000Y-85860000D02*
X181160000Y-85860000D01*
X187900000Y-85320000D02*
X184308800Y-85320000D01*
D25*
%TO.N,VUSB*%
X189570000Y-68808500D02*
X189509000Y-68747500D01*
X189760000Y-69920000D02*
X189570000Y-69730000D01*
X191780000Y-69920000D02*
X189760000Y-69920000D01*
X191790000Y-69930000D02*
X191780000Y-69920000D01*
X189570000Y-69730000D02*
X189570000Y-68808500D01*
D26*
%TO.N,SCLK*%
X173870000Y-83480000D02*
X157640000Y-83480000D01*
X157480000Y-83640000D02*
X157480000Y-84210000D01*
X128310000Y-84090000D02*
X138570000Y-84090000D01*
X120840000Y-91560000D02*
X128310000Y-84090000D01*
X157640000Y-83480000D02*
X157480000Y-83640000D01*
%TO.N,MISO*%
X176760000Y-80981000D02*
X176734000Y-80955000D01*
X176760000Y-85110000D02*
X176760000Y-80981000D01*
X170580000Y-93300000D02*
X172365200Y-91514800D01*
X132129000Y-89050000D02*
X136379000Y-93300000D01*
X172385200Y-85510000D02*
X176360000Y-85510000D01*
X172365200Y-85490000D02*
X172385200Y-85510000D01*
X176360000Y-85510000D02*
X176760000Y-85110000D01*
X172365200Y-91514800D02*
X172365200Y-85490000D01*
X136379000Y-93300000D02*
X170580000Y-93300000D01*
%TO.N,MOSI*%
X141350000Y-81300000D02*
X159080000Y-81300000D01*
X132129000Y-90300000D02*
X131310000Y-89481000D01*
X174130000Y-81019000D02*
X174194000Y-80955000D01*
X159960000Y-82180000D02*
X174000000Y-82180000D01*
X131310000Y-87840000D02*
X131990000Y-87160000D01*
X139880000Y-86350000D02*
X139880000Y-82770000D01*
X174000000Y-82180000D02*
X174194000Y-81986000D01*
X131310000Y-89481000D02*
X131310000Y-87840000D01*
X174194000Y-81986000D02*
X174194000Y-80955000D01*
X139070000Y-87160000D02*
X139880000Y-86350000D01*
X159080000Y-81300000D02*
X159960000Y-82180000D01*
X139880000Y-82770000D02*
X141350000Y-81300000D01*
X131990000Y-87160000D02*
X139070000Y-87160000D01*
%TO.N,D1_SDMMC*%
X118620000Y-78320000D02*
X118639800Y-78339800D01*
X132920464Y-78339800D02*
X134611050Y-76649214D01*
X118639800Y-78339800D02*
X132920464Y-78339800D01*
%TO.N,D0_SDMMC*%
X120480000Y-77780000D02*
X132690000Y-77780000D01*
X132690000Y-77780000D02*
X133710000Y-76760000D01*
X134650000Y-75820000D02*
X134650000Y-75788800D01*
X133710000Y-76760000D02*
X134650000Y-75820000D01*
%TO.N,PWM_DISP*%
X171610000Y-80090000D02*
X171610000Y-80911000D01*
X164780000Y-80250000D02*
X164800000Y-80270000D01*
X164800000Y-80270000D02*
X170110000Y-80270000D01*
X171610000Y-80911000D02*
X171654000Y-80955000D01*
X170540000Y-79840000D02*
X171360000Y-79840000D01*
X171360000Y-79840000D02*
X171610000Y-80090000D01*
X170110000Y-80270000D02*
X170540000Y-79840000D01*
%TO.N,SW_PLAY*%
X176030000Y-88100000D02*
X181840000Y-82290000D01*
X179930000Y-105730000D02*
X179215000Y-105015000D01*
X177859000Y-111515000D02*
X179075000Y-111515000D01*
X177859000Y-105015000D02*
X177859000Y-94229000D01*
X179075000Y-111515000D02*
X179930000Y-110660000D01*
X181840000Y-82290000D02*
X181840000Y-73380000D01*
X179215000Y-105015000D02*
X177859000Y-105015000D01*
X175580000Y-91950000D02*
X175580000Y-89400000D01*
X175580000Y-88550000D02*
X176030000Y-88100000D01*
X175580000Y-89400000D02*
X175580000Y-88550000D01*
X177859000Y-94229000D02*
X175580000Y-91950000D01*
X179930000Y-110660000D02*
X179930000Y-105730000D01*
%TO.N,Net-(U3-VDD)*%
X159657200Y-90455000D02*
X159657200Y-88875000D01*
%TD*%
%TA.AperFunction,Conductor*%
%TO.N,GND*%
G36*
X179661931Y-85422079D02*
G01*
X179687480Y-85435155D01*
X179752742Y-85478761D01*
X179890052Y-85535637D01*
X179970611Y-85551661D01*
X180032518Y-85584044D01*
X180034098Y-85585596D01*
X180790302Y-86341800D01*
X180927599Y-86421068D01*
X181080732Y-86462100D01*
X182165426Y-86462100D01*
X182232465Y-86481785D01*
X182234315Y-86482996D01*
X182302610Y-86528629D01*
X182439920Y-86585505D01*
X182487845Y-86595037D01*
X182548091Y-86607022D01*
X182610002Y-86639407D01*
X182644576Y-86700122D01*
X182647900Y-86728639D01*
X182647900Y-87459268D01*
X182675255Y-87561357D01*
X182688933Y-87612403D01*
X182688934Y-87612404D01*
X182701635Y-87634402D01*
X182731405Y-87685966D01*
X182768200Y-87749698D01*
X183358200Y-88339698D01*
X183470302Y-88451800D01*
X183607598Y-88531067D01*
X183760732Y-88572100D01*
X183919268Y-88572100D01*
X186115426Y-88572100D01*
X186128628Y-88575295D01*
X186138767Y-88574317D01*
X186159194Y-88582694D01*
X186172132Y-88585826D01*
X186178432Y-88589066D01*
X186252610Y-88638629D01*
X186366786Y-88685922D01*
X186371318Y-88688253D01*
X186393076Y-88708956D01*
X186416468Y-88727806D01*
X186418128Y-88732793D01*
X186421935Y-88736416D01*
X186429046Y-88765599D01*
X186438533Y-88794100D01*
X186437233Y-88799191D01*
X186438478Y-88804299D01*
X186428681Y-88832700D01*
X186421254Y-88861800D01*
X186416558Y-88867844D01*
X186415694Y-88870350D01*
X186412904Y-88872548D01*
X186402293Y-88886208D01*
X186120302Y-89168200D01*
X185287053Y-90001449D01*
X185225730Y-90034934D01*
X185199372Y-90037768D01*
X176984442Y-90037768D01*
X176917403Y-90018083D01*
X176915552Y-90016871D01*
X176892471Y-90001449D01*
X176847258Y-89971239D01*
X176709948Y-89914363D01*
X176709940Y-89914361D01*
X176564184Y-89885368D01*
X176564180Y-89885368D01*
X176415556Y-89885368D01*
X176388503Y-89890749D01*
X176330290Y-89902328D01*
X176260699Y-89896099D01*
X176205522Y-89853236D01*
X176182278Y-89787346D01*
X176182100Y-89780710D01*
X176182100Y-88850760D01*
X176201785Y-88783721D01*
X176218419Y-88763079D01*
X176511800Y-88469698D01*
X177261804Y-87719694D01*
X179530918Y-85450578D01*
X179592239Y-85417095D01*
X179661931Y-85422079D01*
G37*
%TD.AperFunction*%
%TA.AperFunction,Conductor*%
G36*
X187423570Y-85927427D02*
G01*
X187442478Y-85927765D01*
X187470698Y-85941266D01*
X187472465Y-85941785D01*
X187474315Y-85942996D01*
X187542610Y-85988629D01*
X187679920Y-86045505D01*
X187808424Y-86071066D01*
X187825683Y-86074499D01*
X187825687Y-86074500D01*
X187953900Y-86074500D01*
X188020939Y-86094185D01*
X188066694Y-86146989D01*
X188077900Y-86198500D01*
X188077900Y-87159240D01*
X188058215Y-87226279D01*
X188041581Y-87246921D01*
X187526208Y-87762293D01*
X187464885Y-87795778D01*
X187395193Y-87790794D01*
X187339260Y-87748922D01*
X187323968Y-87722067D01*
X187287656Y-87634402D01*
X187278630Y-87612611D01*
X187278628Y-87612608D01*
X187196060Y-87489035D01*
X187196054Y-87489028D01*
X187090971Y-87383945D01*
X187090964Y-87383939D01*
X186967391Y-87301371D01*
X186830080Y-87244495D01*
X186830072Y-87244493D01*
X186684316Y-87215500D01*
X186684312Y-87215500D01*
X186535688Y-87215500D01*
X186535683Y-87215500D01*
X186389927Y-87244493D01*
X186389919Y-87244495D01*
X186252611Y-87301370D01*
X186184316Y-87347003D01*
X186117638Y-87367880D01*
X186115426Y-87367900D01*
X184140760Y-87367900D01*
X184111319Y-87359255D01*
X184081333Y-87352732D01*
X184076317Y-87348977D01*
X184073721Y-87348215D01*
X184053079Y-87331581D01*
X183888419Y-87166921D01*
X183854934Y-87105598D01*
X183852100Y-87079240D01*
X183852100Y-86682432D01*
X183871785Y-86615393D01*
X183924589Y-86569638D01*
X183951899Y-86560817D01*
X184028880Y-86545505D01*
X184166190Y-86488629D01*
X184289766Y-86406059D01*
X184394859Y-86300966D01*
X184477429Y-86177390D01*
X184534305Y-86040080D01*
X184537920Y-86021908D01*
X184570305Y-85959998D01*
X184631021Y-85925423D01*
X184659537Y-85922100D01*
X187405426Y-85922100D01*
X187423570Y-85927427D01*
G37*
%TD.AperFunction*%
%TA.AperFunction,Conductor*%
G36*
X144417847Y-86411785D02*
G01*
X144463602Y-86464589D01*
X144473546Y-86533747D01*
X144444521Y-86597303D01*
X144426295Y-86614476D01*
X144404310Y-86631345D01*
X144195345Y-86840310D01*
X144195339Y-86840317D01*
X144015436Y-87074771D01*
X144015425Y-87074787D01*
X143867665Y-87330713D01*
X143867660Y-87330724D01*
X143754566Y-87603757D01*
X143704450Y-87790794D01*
X143678076Y-87889225D01*
X143677128Y-87896424D01*
X143639500Y-88182224D01*
X143639500Y-88477775D01*
X143667785Y-88692608D01*
X143678076Y-88770775D01*
X143687059Y-88804299D01*
X143754566Y-89056242D01*
X143867660Y-89329275D01*
X143867665Y-89329286D01*
X144015425Y-89585212D01*
X144015436Y-89585228D01*
X144195339Y-89819682D01*
X144195345Y-89819689D01*
X144404310Y-90028654D01*
X144404317Y-90028660D01*
X144441631Y-90057292D01*
X144638780Y-90208570D01*
X144638787Y-90208574D01*
X144894713Y-90356334D01*
X144894718Y-90356336D01*
X144894721Y-90356338D01*
X145006480Y-90402630D01*
X145167757Y-90469433D01*
X145167758Y-90469433D01*
X145167760Y-90469434D01*
X145453225Y-90545924D01*
X145746232Y-90584500D01*
X145746239Y-90584500D01*
X146041761Y-90584500D01*
X146041768Y-90584500D01*
X146334775Y-90545924D01*
X146620240Y-90469434D01*
X146893279Y-90356338D01*
X147149220Y-90208570D01*
X147383684Y-90028659D01*
X147592659Y-89819684D01*
X147772570Y-89585220D01*
X147920338Y-89329279D01*
X148033434Y-89056240D01*
X148109924Y-88770775D01*
X148148500Y-88477768D01*
X148148500Y-88241106D01*
X149844500Y-88241106D01*
X149844500Y-88418894D01*
X149853749Y-88477290D01*
X149872312Y-88594493D01*
X149927249Y-88763575D01*
X149961054Y-88829919D01*
X150002099Y-88910475D01*
X150007967Y-88921990D01*
X150112459Y-89065814D01*
X150238185Y-89191540D01*
X150372771Y-89289320D01*
X150382013Y-89296035D01*
X150540422Y-89376749D01*
X150540424Y-89376750D01*
X150624965Y-89404218D01*
X150709508Y-89431688D01*
X150885106Y-89459500D01*
X150885107Y-89459500D01*
X151062893Y-89459500D01*
X151062894Y-89459500D01*
X151238492Y-89431688D01*
X151407578Y-89376749D01*
X151565987Y-89296035D01*
X151646741Y-89237363D01*
X151709814Y-89191540D01*
X151709816Y-89191537D01*
X151709820Y-89191535D01*
X151835535Y-89065820D01*
X151835537Y-89065816D01*
X151835540Y-89065814D01*
X151902270Y-88973966D01*
X151940035Y-88921987D01*
X152020749Y-88763578D01*
X152075688Y-88594492D01*
X152103500Y-88418894D01*
X152103500Y-88241106D01*
X152075688Y-88065508D01*
X152025208Y-87910144D01*
X152020750Y-87896424D01*
X151992096Y-87840188D01*
X151940035Y-87738013D01*
X151933320Y-87728771D01*
X151835540Y-87594185D01*
X151709814Y-87468459D01*
X151565990Y-87363967D01*
X151565989Y-87363966D01*
X151565987Y-87363965D01*
X151462766Y-87311371D01*
X151407575Y-87283249D01*
X151238493Y-87228312D01*
X151126675Y-87210602D01*
X151062894Y-87200500D01*
X150885106Y-87200500D01*
X150826573Y-87209770D01*
X150709506Y-87228312D01*
X150540424Y-87283249D01*
X150382009Y-87363967D01*
X150238185Y-87468459D01*
X150112459Y-87594185D01*
X150007967Y-87738009D01*
X149927249Y-87896424D01*
X149872312Y-88065506D01*
X149867618Y-88095146D01*
X149844500Y-88241106D01*
X148148500Y-88241106D01*
X148148500Y-88182232D01*
X148109924Y-87889225D01*
X148033434Y-87603760D01*
X148019753Y-87570732D01*
X147961157Y-87429268D01*
X147920338Y-87330721D01*
X147920336Y-87330718D01*
X147920334Y-87330713D01*
X147781852Y-87090858D01*
X147772570Y-87074780D01*
X147684221Y-86959642D01*
X147592660Y-86840317D01*
X147592654Y-86840310D01*
X147383689Y-86631345D01*
X147361705Y-86614476D01*
X147320503Y-86558048D01*
X147316348Y-86488302D01*
X147350561Y-86427381D01*
X147412278Y-86394629D01*
X147437192Y-86392100D01*
X152829240Y-86392100D01*
X152896279Y-86411785D01*
X152916921Y-86428419D01*
X154061581Y-87573079D01*
X154095066Y-87634402D01*
X154097900Y-87660760D01*
X154097900Y-92549267D01*
X154098961Y-92557325D01*
X154095518Y-92557778D01*
X154094241Y-92611646D01*
X154055084Y-92669512D01*
X153990858Y-92697022D01*
X153976126Y-92697900D01*
X136679760Y-92697900D01*
X136612721Y-92678215D01*
X136592079Y-92661581D01*
X132904464Y-88973966D01*
X132870979Y-88912643D01*
X132870556Y-88910615D01*
X132854505Y-88829920D01*
X132797629Y-88692610D01*
X132761560Y-88638629D01*
X132715060Y-88569035D01*
X132715054Y-88569028D01*
X132609971Y-88463945D01*
X132609964Y-88463939D01*
X132486391Y-88381371D01*
X132349080Y-88324495D01*
X132349072Y-88324493D01*
X132203316Y-88295500D01*
X132203312Y-88295500D01*
X132054688Y-88295500D01*
X132054687Y-88295500D01*
X132048625Y-88296097D01*
X132048357Y-88293375D01*
X132039154Y-88292528D01*
X132018453Y-88295505D01*
X132005060Y-88289388D01*
X131990403Y-88288039D01*
X131973922Y-88275168D01*
X131954897Y-88266480D01*
X131946938Y-88254095D01*
X131935336Y-88245035D01*
X131928429Y-88225295D01*
X131917123Y-88207702D01*
X131913529Y-88182711D01*
X131912261Y-88179085D01*
X131912100Y-88172767D01*
X131912100Y-88140760D01*
X131931785Y-88073721D01*
X131948419Y-88053079D01*
X132203079Y-87798419D01*
X132264402Y-87764934D01*
X132290760Y-87762100D01*
X139149266Y-87762100D01*
X139149268Y-87762100D01*
X139302402Y-87721067D01*
X139439698Y-87641800D01*
X139551800Y-87529698D01*
X140361800Y-86719698D01*
X140364285Y-86715394D01*
X140441067Y-86582402D01*
X140447408Y-86558734D01*
X140454022Y-86546284D01*
X140468980Y-86530976D01*
X140480119Y-86512701D01*
X140492912Y-86506486D01*
X140502854Y-86496312D01*
X140523716Y-86491521D01*
X140542965Y-86482170D01*
X140557086Y-86483857D01*
X140570951Y-86480674D01*
X140591090Y-86487922D01*
X140612341Y-86490462D01*
X140623308Y-86499517D01*
X140636693Y-86504334D01*
X140649716Y-86521319D01*
X140666220Y-86534945D01*
X140674017Y-86548157D01*
X140715132Y-86628848D01*
X140863201Y-86832649D01*
X140863205Y-86832654D01*
X141022952Y-86992401D01*
X141056437Y-87053724D01*
X141051453Y-87123416D01*
X141009581Y-87179349D01*
X140944117Y-87203766D01*
X140915879Y-87202556D01*
X140902894Y-87200500D01*
X140725106Y-87200500D01*
X140666573Y-87209770D01*
X140549506Y-87228312D01*
X140380424Y-87283249D01*
X140222009Y-87363967D01*
X140078185Y-87468459D01*
X139952459Y-87594185D01*
X139847967Y-87738009D01*
X139767249Y-87896424D01*
X139712312Y-88065506D01*
X139707618Y-88095146D01*
X139684500Y-88241106D01*
X139684500Y-88418894D01*
X139693749Y-88477290D01*
X139712312Y-88594493D01*
X139767249Y-88763575D01*
X139801054Y-88829919D01*
X139842099Y-88910475D01*
X139847967Y-88921990D01*
X139952459Y-89065814D01*
X140078185Y-89191540D01*
X140212771Y-89289320D01*
X140222013Y-89296035D01*
X140380422Y-89376749D01*
X140380424Y-89376750D01*
X140464965Y-89404218D01*
X140549508Y-89431688D01*
X140725106Y-89459500D01*
X140725107Y-89459500D01*
X140902893Y-89459500D01*
X140902894Y-89459500D01*
X141078492Y-89431688D01*
X141247578Y-89376749D01*
X141405987Y-89296035D01*
X141486741Y-89237363D01*
X141549814Y-89191540D01*
X141549816Y-89191537D01*
X141549820Y-89191535D01*
X141675535Y-89065820D01*
X141675537Y-89065816D01*
X141675540Y-89065814D01*
X141742270Y-88973966D01*
X141780035Y-88921987D01*
X141860749Y-88763578D01*
X141915688Y-88594492D01*
X141943500Y-88418894D01*
X141943500Y-88241106D01*
X141915688Y-88065508D01*
X141865208Y-87910144D01*
X141860750Y-87896424D01*
X141832096Y-87840188D01*
X141780035Y-87738013D01*
X141773320Y-87728771D01*
X141675540Y-87594185D01*
X141650213Y-87568858D01*
X141616728Y-87507535D01*
X141621712Y-87437843D01*
X141663584Y-87381910D01*
X141729048Y-87357493D01*
X141757285Y-87358703D01*
X141958038Y-87390500D01*
X141958039Y-87390500D01*
X142209961Y-87390500D01*
X142209962Y-87390500D01*
X142458785Y-87351090D01*
X142698379Y-87273241D01*
X142922845Y-87158870D01*
X143126656Y-87010793D01*
X143304793Y-86832656D01*
X143452870Y-86628845D01*
X143539000Y-86459804D01*
X143586973Y-86409009D01*
X143649484Y-86392100D01*
X144350808Y-86392100D01*
X144417847Y-86411785D01*
G37*
%TD.AperFunction*%
%TA.AperFunction,Conductor*%
G36*
X166373597Y-84101785D02*
G01*
X166419352Y-84154589D01*
X166430049Y-84217322D01*
X166425779Y-84264316D01*
X166424500Y-84278386D01*
X166424500Y-84791613D01*
X166430913Y-84862192D01*
X166430913Y-84862194D01*
X166430914Y-84862196D01*
X166481522Y-85024606D01*
X166556364Y-85148410D01*
X166569530Y-85170188D01*
X166671661Y-85272319D01*
X166705146Y-85333642D01*
X166700162Y-85403334D01*
X166671661Y-85447681D01*
X166569531Y-85549810D01*
X166569530Y-85549811D01*
X166481522Y-85695393D01*
X166430913Y-85857807D01*
X166428697Y-85882196D01*
X166424500Y-85928384D01*
X166424500Y-86441616D01*
X166426423Y-86462778D01*
X166430913Y-86512192D01*
X166430913Y-86512194D01*
X166430914Y-86512196D01*
X166481522Y-86674606D01*
X166569528Y-86820185D01*
X166689815Y-86940472D01*
X166721530Y-86959644D01*
X166737596Y-86977188D01*
X166756644Y-86991446D01*
X166760761Y-87002483D01*
X166768716Y-87011170D01*
X166772747Y-87034616D01*
X166781063Y-87056910D01*
X166778559Y-87068421D01*
X166780555Y-87080029D01*
X166771269Y-87101933D01*
X166766213Y-87125183D01*
X166755150Y-87139961D01*
X166753287Y-87144358D01*
X166745063Y-87153438D01*
X166730305Y-87168197D01*
X166730302Y-87168200D01*
X166618201Y-87280300D01*
X166618199Y-87280303D01*
X166538933Y-87417597D01*
X166497900Y-87570733D01*
X166497900Y-87995080D01*
X166489255Y-88024520D01*
X166482732Y-88054507D01*
X166478977Y-88059522D01*
X166478215Y-88062119D01*
X166461581Y-88082761D01*
X166362681Y-88181661D01*
X166301358Y-88215146D01*
X166231666Y-88210162D01*
X166187319Y-88181661D01*
X166085188Y-88079530D01*
X166040354Y-88052427D01*
X165939606Y-87991522D01*
X165777196Y-87940914D01*
X165777194Y-87940913D01*
X165777192Y-87940913D01*
X165727778Y-87936423D01*
X165706616Y-87934500D01*
X165193384Y-87934500D01*
X165174145Y-87936248D01*
X165122807Y-87940913D01*
X164960393Y-87991522D01*
X164814811Y-88079530D01*
X164694530Y-88199811D01*
X164606522Y-88345393D01*
X164555913Y-88507807D01*
X164549500Y-88578386D01*
X164549500Y-89241613D01*
X164555913Y-89312192D01*
X164555913Y-89312194D01*
X164555914Y-89312196D01*
X164606522Y-89474606D01*
X164672599Y-89583911D01*
X164694530Y-89620188D01*
X164814811Y-89740469D01*
X164814813Y-89740470D01*
X164814815Y-89740472D01*
X164960394Y-89828478D01*
X165122804Y-89879086D01*
X165193384Y-89885500D01*
X165193387Y-89885500D01*
X165706613Y-89885500D01*
X165706616Y-89885500D01*
X165777196Y-89879086D01*
X165939606Y-89828478D01*
X166085185Y-89740472D01*
X166134299Y-89691358D01*
X166187319Y-89638339D01*
X166195264Y-89634000D01*
X166200690Y-89626753D01*
X166225449Y-89617518D01*
X166248642Y-89604854D01*
X166257671Y-89605499D01*
X166266154Y-89602336D01*
X166291974Y-89607952D01*
X166318334Y-89609838D01*
X166327387Y-89615656D01*
X166334427Y-89617188D01*
X166362681Y-89638339D01*
X166436181Y-89711839D01*
X166469666Y-89773162D01*
X166472500Y-89799520D01*
X166472500Y-90638500D01*
X166452815Y-90705539D01*
X166400011Y-90751294D01*
X166348500Y-90762500D01*
X162266062Y-90762500D01*
X162199023Y-90742815D01*
X162178381Y-90726181D01*
X162157200Y-90705000D01*
X161331200Y-90705000D01*
X161264161Y-90685315D01*
X161218406Y-90632511D01*
X161207200Y-90581000D01*
X161207200Y-90455000D01*
X161081200Y-90455000D01*
X161014161Y-90435315D01*
X160968406Y-90382511D01*
X160957200Y-90331000D01*
X160957200Y-90205000D01*
X161457200Y-90205000D01*
X162157199Y-90205000D01*
X162157199Y-90156692D01*
X162157198Y-90156677D01*
X162147055Y-90057392D01*
X162093747Y-89896518D01*
X162093742Y-89896507D01*
X162004775Y-89752271D01*
X162000295Y-89746605D01*
X162001393Y-89745736D01*
X161971701Y-89691358D01*
X161976685Y-89621666D01*
X162000948Y-89583911D01*
X162000295Y-89583395D01*
X162004775Y-89577728D01*
X162093742Y-89433492D01*
X162093747Y-89433481D01*
X162147055Y-89272606D01*
X162157199Y-89173322D01*
X162157200Y-89173309D01*
X162157200Y-89125000D01*
X161457200Y-89125000D01*
X161457200Y-90205000D01*
X160957200Y-90205000D01*
X160957200Y-88625000D01*
X161457200Y-88625000D01*
X162157199Y-88625000D01*
X162157199Y-88576692D01*
X162157198Y-88576677D01*
X162147055Y-88477392D01*
X162093747Y-88316518D01*
X162093742Y-88316507D01*
X162004775Y-88172271D01*
X162004772Y-88172267D01*
X161884932Y-88052427D01*
X161884928Y-88052424D01*
X161740692Y-87963457D01*
X161740681Y-87963452D01*
X161579806Y-87910144D01*
X161480522Y-87900000D01*
X161457200Y-87900000D01*
X161457200Y-88625000D01*
X160957200Y-88625000D01*
X160957200Y-87899999D01*
X160933893Y-87900000D01*
X160933874Y-87900001D01*
X160834592Y-87910144D01*
X160673718Y-87963452D01*
X160673707Y-87963457D01*
X160529471Y-88052424D01*
X160529465Y-88052428D01*
X160520231Y-88061663D01*
X160458907Y-88095146D01*
X160389215Y-88090159D01*
X160344872Y-88061660D01*
X160335244Y-88052032D01*
X160335240Y-88052029D01*
X160190905Y-87963001D01*
X160190899Y-87962998D01*
X160190897Y-87962997D01*
X160153968Y-87950760D01*
X160029909Y-87909651D01*
X159930546Y-87899500D01*
X159383862Y-87899500D01*
X159383844Y-87899501D01*
X159284492Y-87909650D01*
X159284489Y-87909651D01*
X159123505Y-87962996D01*
X159123494Y-87963001D01*
X158979159Y-88052029D01*
X158979155Y-88052032D01*
X158859232Y-88171955D01*
X158859229Y-88171959D01*
X158770201Y-88316294D01*
X158770196Y-88316305D01*
X158716851Y-88477290D01*
X158706700Y-88576647D01*
X158706700Y-89173337D01*
X158706701Y-89173355D01*
X158716850Y-89272707D01*
X158716851Y-89272710D01*
X158770196Y-89433694D01*
X158770201Y-89433705D01*
X158859229Y-89578040D01*
X158863710Y-89583707D01*
X158862512Y-89584654D01*
X158891992Y-89638642D01*
X158887008Y-89708334D01*
X158862982Y-89745717D01*
X158863710Y-89746293D01*
X158859229Y-89751959D01*
X158770201Y-89896294D01*
X158770196Y-89896305D01*
X158716851Y-90057290D01*
X158706700Y-90156647D01*
X158706700Y-90156655D01*
X158706700Y-90439521D01*
X158706701Y-90638500D01*
X158687017Y-90705539D01*
X158634213Y-90751294D01*
X158582701Y-90762500D01*
X156811281Y-90762500D01*
X156781840Y-90753855D01*
X156751854Y-90747332D01*
X156746838Y-90743577D01*
X156744242Y-90742815D01*
X156723600Y-90726181D01*
X156663819Y-90666400D01*
X156630334Y-90605077D01*
X156627500Y-90578719D01*
X156627500Y-88083500D01*
X156647185Y-88016461D01*
X156699989Y-87970706D01*
X156751500Y-87959500D01*
X156843640Y-87959500D01*
X156907788Y-87977382D01*
X157025394Y-88048478D01*
X157187804Y-88099086D01*
X157258384Y-88105500D01*
X157258387Y-88105500D01*
X157921613Y-88105500D01*
X157921616Y-88105500D01*
X157992196Y-88099086D01*
X158154606Y-88048478D01*
X158300185Y-87960472D01*
X158420472Y-87840185D01*
X158508478Y-87694606D01*
X158559086Y-87532196D01*
X158565500Y-87461616D01*
X158565500Y-86948384D01*
X158559086Y-86877804D01*
X158508478Y-86715394D01*
X158420472Y-86569815D01*
X158420470Y-86569813D01*
X158420469Y-86569811D01*
X158318339Y-86467681D01*
X158284854Y-86406358D01*
X158289838Y-86336666D01*
X158318339Y-86292319D01*
X158420468Y-86190189D01*
X158420469Y-86190188D01*
X158420472Y-86190185D01*
X158508478Y-86044606D01*
X158559086Y-85882196D01*
X158565500Y-85811616D01*
X158565500Y-85298384D01*
X158559086Y-85227804D01*
X158508478Y-85065394D01*
X158420472Y-84919815D01*
X158420470Y-84919813D01*
X158420469Y-84919811D01*
X158300188Y-84799530D01*
X158287092Y-84791613D01*
X158192510Y-84734435D01*
X158145325Y-84682910D01*
X158133486Y-84614051D01*
X158146318Y-84573026D01*
X158146298Y-84573018D01*
X158146391Y-84572791D01*
X158147310Y-84569856D01*
X158148620Y-84567402D01*
X158148629Y-84567390D01*
X158205505Y-84430080D01*
X158234500Y-84284312D01*
X158234500Y-84206100D01*
X158254185Y-84139061D01*
X158306989Y-84093306D01*
X158358500Y-84082100D01*
X166306558Y-84082100D01*
X166373597Y-84101785D01*
G37*
%TD.AperFunction*%
%TA.AperFunction,Conductor*%
G36*
X147455329Y-81921785D02*
G01*
X147475971Y-81938419D01*
X148109974Y-82572421D01*
X148078742Y-82585359D01*
X147955903Y-82667437D01*
X147851437Y-82771903D01*
X147769359Y-82894742D01*
X147756421Y-82925974D01*
X147139748Y-82309300D01*
X147139747Y-82309301D01*
X147065559Y-82411413D01*
X146951219Y-82635815D01*
X146873397Y-82875330D01*
X146834000Y-83124071D01*
X146834000Y-83375928D01*
X146873397Y-83624669D01*
X146951219Y-83864184D01*
X147065557Y-84088583D01*
X147139748Y-84190697D01*
X147139748Y-84190698D01*
X147756421Y-83574024D01*
X147769359Y-83605258D01*
X147851437Y-83728097D01*
X147955903Y-83832563D01*
X148078742Y-83914641D01*
X148109974Y-83927577D01*
X147493300Y-84544250D01*
X147595416Y-84618442D01*
X147819815Y-84732780D01*
X148059330Y-84810602D01*
X148308072Y-84850000D01*
X148559928Y-84850000D01*
X148808669Y-84810602D01*
X149048184Y-84732780D01*
X149272575Y-84618446D01*
X149272581Y-84618442D01*
X149374697Y-84544250D01*
X149374698Y-84544250D01*
X148758025Y-83927578D01*
X148789258Y-83914641D01*
X148912097Y-83832563D01*
X149016563Y-83728097D01*
X149098641Y-83605258D01*
X149111577Y-83574025D01*
X149728250Y-84190698D01*
X149728250Y-84190697D01*
X149802442Y-84088581D01*
X149802446Y-84088575D01*
X149916780Y-83864184D01*
X149994602Y-83624669D01*
X150034000Y-83375928D01*
X150034000Y-83124071D01*
X149994602Y-82875330D01*
X149916780Y-82635815D01*
X149802442Y-82411416D01*
X149728250Y-82309301D01*
X149728250Y-82309300D01*
X149111577Y-82925973D01*
X149098641Y-82894742D01*
X149016563Y-82771903D01*
X148912097Y-82667437D01*
X148789258Y-82585359D01*
X148758024Y-82572421D01*
X149392028Y-81938419D01*
X149453351Y-81904934D01*
X149479709Y-81902100D01*
X158779240Y-81902100D01*
X158846279Y-81921785D01*
X158866921Y-81938419D01*
X159184534Y-82256032D01*
X159218019Y-82317355D01*
X159218470Y-82319521D01*
X159234493Y-82400074D01*
X159234495Y-82400080D01*
X159291371Y-82537391D01*
X159373939Y-82660964D01*
X159373945Y-82660971D01*
X159379193Y-82666219D01*
X159412678Y-82727542D01*
X159407694Y-82797234D01*
X159365822Y-82853167D01*
X159300358Y-82877584D01*
X159291512Y-82877900D01*
X157560732Y-82877900D01*
X157491519Y-82896446D01*
X157407597Y-82918933D01*
X157308652Y-82976059D01*
X157270303Y-82998199D01*
X157270300Y-82998201D01*
X156998201Y-83270300D01*
X156998199Y-83270303D01*
X156918933Y-83407597D01*
X156910730Y-83438211D01*
X156879621Y-83554312D01*
X156877900Y-83560733D01*
X156877900Y-83715426D01*
X156858215Y-83782465D01*
X156857003Y-83784316D01*
X156811370Y-83852611D01*
X156754495Y-83989919D01*
X156754493Y-83989927D01*
X156725500Y-84135683D01*
X156725500Y-84284316D01*
X156754493Y-84430072D01*
X156754495Y-84430080D01*
X156811371Y-84567390D01*
X156830643Y-84596234D01*
X156851520Y-84662911D01*
X156833035Y-84730291D01*
X156781055Y-84776981D01*
X156712085Y-84788156D01*
X156663392Y-84771240D01*
X156564606Y-84711522D01*
X156402196Y-84660914D01*
X156402194Y-84660913D01*
X156402192Y-84660913D01*
X156352778Y-84656423D01*
X156331616Y-84654500D01*
X155668384Y-84654500D01*
X155649145Y-84656248D01*
X155597807Y-84660913D01*
X155435393Y-84711522D01*
X155289811Y-84799530D01*
X155169530Y-84919811D01*
X155081522Y-85065393D01*
X155030913Y-85227807D01*
X155024500Y-85298386D01*
X155024500Y-85811613D01*
X155030829Y-85881263D01*
X155017292Y-85949809D01*
X154968846Y-86000155D01*
X154900871Y-86016316D01*
X154834949Y-85993162D01*
X154819657Y-85980166D01*
X153953091Y-85113600D01*
X153919606Y-85052277D01*
X153919155Y-85001730D01*
X153944500Y-84874312D01*
X153944500Y-84725688D01*
X153915505Y-84579920D01*
X153858629Y-84442610D01*
X153857887Y-84441500D01*
X153776060Y-84319035D01*
X153776054Y-84319028D01*
X153670971Y-84213945D01*
X153670964Y-84213939D01*
X153547391Y-84131371D01*
X153410080Y-84074495D01*
X153410072Y-84074493D01*
X153264316Y-84045500D01*
X153264312Y-84045500D01*
X153115688Y-84045500D01*
X153115683Y-84045500D01*
X152969927Y-84074493D01*
X152969919Y-84074495D01*
X152832608Y-84131371D01*
X152709035Y-84213939D01*
X152709028Y-84213945D01*
X152603945Y-84319028D01*
X152603939Y-84319035D01*
X152521371Y-84442608D01*
X152464495Y-84579919D01*
X152464493Y-84579927D01*
X152435500Y-84725683D01*
X152435500Y-84874316D01*
X152464493Y-85020072D01*
X152466263Y-85025907D01*
X152464081Y-85026568D01*
X152470455Y-85085935D01*
X152439171Y-85148410D01*
X152379077Y-85184053D01*
X152348429Y-85187900D01*
X143649484Y-85187900D01*
X143582445Y-85168215D01*
X143539000Y-85120195D01*
X143452870Y-84951155D01*
X143437462Y-84929947D01*
X143304798Y-84747350D01*
X143304794Y-84747345D01*
X143126654Y-84569205D01*
X143126649Y-84569201D01*
X142922848Y-84421132D01*
X142922847Y-84421131D01*
X142922845Y-84421130D01*
X142852747Y-84385413D01*
X142698383Y-84306760D01*
X142458785Y-84228910D01*
X142364275Y-84213941D01*
X142209962Y-84189500D01*
X141958038Y-84189500D01*
X141867405Y-84203855D01*
X141709214Y-84228910D01*
X141469616Y-84306760D01*
X141245151Y-84421132D01*
X141041350Y-84569201D01*
X141041345Y-84569205D01*
X140863205Y-84747345D01*
X140863201Y-84747350D01*
X140715129Y-84951155D01*
X140712585Y-84955307D01*
X140710930Y-84954293D01*
X140668590Y-84999107D01*
X140600766Y-85015889D01*
X140534635Y-84993339D01*
X140491194Y-84938616D01*
X140482100Y-84892004D01*
X140482100Y-83070760D01*
X140501785Y-83003721D01*
X140518419Y-82983079D01*
X141563079Y-81938419D01*
X141624402Y-81904934D01*
X141650760Y-81902100D01*
X147388290Y-81902100D01*
X147455329Y-81921785D01*
G37*
%TD.AperFunction*%
%TA.AperFunction,Conductor*%
G36*
X148128128Y-60875185D02*
G01*
X148173883Y-60927989D01*
X148183827Y-60997147D01*
X148154802Y-61060703D01*
X148108542Y-61094061D01*
X148042607Y-61121371D01*
X147919035Y-61203939D01*
X147919028Y-61203945D01*
X147813945Y-61309028D01*
X147813939Y-61309035D01*
X147731371Y-61432608D01*
X147674495Y-61569919D01*
X147674493Y-61569927D01*
X147645500Y-61715683D01*
X147645500Y-61864316D01*
X147674493Y-62010072D01*
X147674495Y-62010080D01*
X147731369Y-62147387D01*
X147731375Y-62147398D01*
X147751601Y-62177667D01*
X147772480Y-62244344D01*
X147772500Y-62246559D01*
X147772500Y-64370170D01*
X147754432Y-64431701D01*
X147755441Y-64432241D01*
X147752851Y-64437086D01*
X147752815Y-64437209D01*
X147752654Y-64437454D01*
X147752571Y-64437609D01*
X147695695Y-64574919D01*
X147695693Y-64574927D01*
X147666700Y-64720683D01*
X147666700Y-64869316D01*
X147695693Y-65015072D01*
X147695695Y-65015080D01*
X147752571Y-65152391D01*
X147835139Y-65275964D01*
X147835145Y-65275971D01*
X147940228Y-65381054D01*
X147940235Y-65381060D01*
X148063806Y-65463627D01*
X148063808Y-65463628D01*
X148063810Y-65463629D01*
X148069387Y-65465939D01*
X148123790Y-65509781D01*
X148145854Y-65576076D01*
X148128574Y-65643775D01*
X148077436Y-65691385D01*
X148021933Y-65704500D01*
X147840903Y-65704500D01*
X147607631Y-65741446D01*
X147383003Y-65814433D01*
X147172566Y-65921657D01*
X147063550Y-66000862D01*
X146981490Y-66060483D01*
X146981488Y-66060485D01*
X146981487Y-66060485D01*
X146814485Y-66227487D01*
X146814485Y-66227488D01*
X146814483Y-66227490D01*
X146754862Y-66309550D01*
X146675657Y-66418566D01*
X146616232Y-66535195D01*
X146568257Y-66585991D01*
X146505747Y-66602900D01*
X142912253Y-66602900D01*
X142845214Y-66583215D01*
X142801768Y-66535195D01*
X142742342Y-66418566D01*
X142603517Y-66227490D01*
X142436510Y-66060483D01*
X142245433Y-65921657D01*
X142034996Y-65814433D01*
X141810368Y-65741446D01*
X141577097Y-65704500D01*
X141577092Y-65704500D01*
X141340908Y-65704500D01*
X141340903Y-65704500D01*
X141107631Y-65741446D01*
X140883003Y-65814433D01*
X140672566Y-65921657D01*
X140563550Y-66000862D01*
X140481490Y-66060483D01*
X140481488Y-66060485D01*
X140481487Y-66060485D01*
X140314485Y-66227487D01*
X140314485Y-66227488D01*
X140314483Y-66227490D01*
X140254862Y-66309550D01*
X140175657Y-66418566D01*
X140068433Y-66629003D01*
X139995446Y-66853631D01*
X139958500Y-67086902D01*
X139958500Y-67323097D01*
X139995446Y-67556368D01*
X140068433Y-67780996D01*
X140116232Y-67874805D01*
X140175657Y-67991433D01*
X140314483Y-68182510D01*
X140481490Y-68349517D01*
X140672567Y-68488343D01*
X140749258Y-68527419D01*
X140883003Y-68595566D01*
X140883005Y-68595566D01*
X140883008Y-68595568D01*
X141003412Y-68634689D01*
X141107631Y-68668553D01*
X141340903Y-68705500D01*
X141340908Y-68705500D01*
X141577097Y-68705500D01*
X141810368Y-68668553D01*
X142034992Y-68595568D01*
X142245433Y-68488343D01*
X142436510Y-68349517D01*
X142603517Y-68182510D01*
X142742343Y-67991433D01*
X142801768Y-67874805D01*
X142849743Y-67824009D01*
X142912253Y-67807100D01*
X146505747Y-67807100D01*
X146572786Y-67826785D01*
X146616232Y-67874805D01*
X146675657Y-67991433D01*
X146814483Y-68182510D01*
X146981490Y-68349517D01*
X147172567Y-68488343D01*
X147249258Y-68527419D01*
X147383003Y-68595566D01*
X147383005Y-68595566D01*
X147383008Y-68595568D01*
X147503412Y-68634689D01*
X147607631Y-68668553D01*
X147840903Y-68705500D01*
X147840908Y-68705500D01*
X148077097Y-68705500D01*
X148310368Y-68668553D01*
X148534992Y-68595568D01*
X148745433Y-68488343D01*
X148936510Y-68349517D01*
X149103517Y-68182510D01*
X149242343Y-67991433D01*
X149349568Y-67780992D01*
X149422553Y-67556368D01*
X149448855Y-67390305D01*
X149459500Y-67323097D01*
X149459500Y-67086902D01*
X150218500Y-67086902D01*
X150218500Y-67323097D01*
X150255446Y-67556368D01*
X150328433Y-67780996D01*
X150376232Y-67874805D01*
X150435657Y-67991433D01*
X150574483Y-68182510D01*
X150741490Y-68349517D01*
X150932567Y-68488343D01*
X151009258Y-68527419D01*
X151143003Y-68595566D01*
X151143005Y-68595566D01*
X151143008Y-68595568D01*
X151263412Y-68634689D01*
X151367631Y-68668553D01*
X151600903Y-68705500D01*
X151600908Y-68705500D01*
X151837097Y-68705500D01*
X152070368Y-68668553D01*
X152294992Y-68595568D01*
X152505433Y-68488343D01*
X152696510Y-68349517D01*
X152863517Y-68182510D01*
X153002343Y-67991433D01*
X153061768Y-67874805D01*
X153109743Y-67824009D01*
X153172253Y-67807100D01*
X156765747Y-67807100D01*
X156832786Y-67826785D01*
X156876232Y-67874805D01*
X156935657Y-67991433D01*
X157074483Y-68182510D01*
X157241490Y-68349517D01*
X157432567Y-68488343D01*
X157509258Y-68527419D01*
X157643003Y-68595566D01*
X157643005Y-68595566D01*
X157643008Y-68595568D01*
X157763412Y-68634689D01*
X157867631Y-68668553D01*
X158100903Y-68705500D01*
X158100908Y-68705500D01*
X158337097Y-68705500D01*
X158570368Y-68668553D01*
X158794992Y-68595568D01*
X159005433Y-68488343D01*
X159196510Y-68349517D01*
X159363517Y-68182510D01*
X159502343Y-67991433D01*
X159561768Y-67874805D01*
X159609743Y-67824009D01*
X159672253Y-67807100D01*
X179124240Y-67807100D01*
X179153680Y-67815744D01*
X179183667Y-67822268D01*
X179188682Y-67826022D01*
X179191279Y-67826785D01*
X179211921Y-67843419D01*
X179341581Y-67973079D01*
X179375066Y-68034402D01*
X179377900Y-68060760D01*
X179377900Y-78670460D01*
X179358215Y-78737499D01*
X179357003Y-78739350D01*
X179301370Y-78822611D01*
X179244495Y-78959919D01*
X179244493Y-78959927D01*
X179215500Y-79105683D01*
X179215500Y-79254316D01*
X179244493Y-79400072D01*
X179244495Y-79400080D01*
X179301371Y-79537391D01*
X179383939Y-79660964D01*
X179383945Y-79660971D01*
X179489028Y-79766054D01*
X179489035Y-79766060D01*
X179612608Y-79848628D01*
X179612609Y-79848628D01*
X179612610Y-79848629D01*
X179749920Y-79905505D01*
X179895683Y-79934499D01*
X179895687Y-79934500D01*
X179895688Y-79934500D01*
X180044313Y-79934500D01*
X180044314Y-79934499D01*
X180190080Y-79905505D01*
X180327390Y-79848629D01*
X180450966Y-79766059D01*
X180556059Y-79660966D01*
X180638629Y-79537390D01*
X180695505Y-79400080D01*
X180724500Y-79254312D01*
X180724500Y-79105688D01*
X180695505Y-78959920D01*
X180638629Y-78822610D01*
X180602997Y-78769282D01*
X180582120Y-78702604D01*
X180582100Y-78700392D01*
X180582100Y-68673183D01*
X188754500Y-68673183D01*
X188754500Y-68821816D01*
X188783493Y-68967572D01*
X188783495Y-68967580D01*
X188840370Y-69104889D01*
X188840371Y-69104890D01*
X188921602Y-69226462D01*
X188942480Y-69293139D01*
X188942500Y-69295352D01*
X188942500Y-69791807D01*
X188955207Y-69855688D01*
X188966614Y-69913035D01*
X188995099Y-69981803D01*
X189013917Y-70027233D01*
X189064566Y-70103035D01*
X189067081Y-70106800D01*
X189067088Y-70106811D01*
X189082585Y-70130003D01*
X189082591Y-70130011D01*
X189272589Y-70320008D01*
X189359992Y-70407411D01*
X189359994Y-70407413D01*
X189359996Y-70407414D01*
X189462756Y-70476076D01*
X189462758Y-70476077D01*
X189462767Y-70476083D01*
X189487772Y-70486440D01*
X189510071Y-70495677D01*
X189552254Y-70513149D01*
X189576966Y-70523386D01*
X189698192Y-70547499D01*
X189698196Y-70547500D01*
X189698197Y-70547500D01*
X191318474Y-70547500D01*
X191332348Y-70550954D01*
X191343411Y-70550033D01*
X191365189Y-70559132D01*
X191376622Y-70561979D01*
X191382155Y-70564917D01*
X191432610Y-70598629D01*
X191491940Y-70623204D01*
X191497166Y-70625979D01*
X191518096Y-70646424D01*
X191540874Y-70664780D01*
X191542795Y-70670551D01*
X191547146Y-70674802D01*
X191553698Y-70703312D01*
X191562939Y-70731074D01*
X191561434Y-70736968D01*
X191562797Y-70742896D01*
X191552895Y-70770423D01*
X191545660Y-70798773D01*
X191541207Y-70802918D01*
X191539149Y-70808642D01*
X191515936Y-70826446D01*
X191494523Y-70846384D01*
X191487905Y-70847947D01*
X191483710Y-70851166D01*
X191469154Y-70852378D01*
X191440194Y-70859222D01*
X191440201Y-70859372D01*
X191439407Y-70859408D01*
X191439018Y-70859500D01*
X191437384Y-70859500D01*
X191418145Y-70861248D01*
X191366807Y-70865913D01*
X191204393Y-70916522D01*
X191058811Y-71004530D01*
X191058810Y-71004531D01*
X190956327Y-71107015D01*
X190895004Y-71140500D01*
X190825312Y-71135516D01*
X190780965Y-71107015D01*
X190678877Y-71004927D01*
X190533395Y-70916980D01*
X190533396Y-70916980D01*
X190371105Y-70866409D01*
X190371106Y-70866409D01*
X190300572Y-70860000D01*
X190294000Y-70860000D01*
X190294000Y-72809999D01*
X190300581Y-72809999D01*
X190371102Y-72803591D01*
X190371107Y-72803590D01*
X190533396Y-72753018D01*
X190678877Y-72665072D01*
X190678878Y-72665071D01*
X190780963Y-72562985D01*
X190842286Y-72529499D01*
X190911977Y-72534483D01*
X190956326Y-72562984D01*
X191058811Y-72665469D01*
X191058813Y-72665470D01*
X191058815Y-72665472D01*
X191204394Y-72753478D01*
X191366804Y-72804086D01*
X191437384Y-72810500D01*
X191437387Y-72810500D01*
X191950613Y-72810500D01*
X191950616Y-72810500D01*
X192021196Y-72804086D01*
X192183606Y-72753478D01*
X192329185Y-72665472D01*
X192449472Y-72545185D01*
X192537478Y-72399606D01*
X192588086Y-72237196D01*
X192594500Y-72166616D01*
X192594500Y-71503384D01*
X192588086Y-71432804D01*
X192537478Y-71270394D01*
X192449472Y-71124815D01*
X192449470Y-71124813D01*
X192449469Y-71124811D01*
X192329188Y-71004530D01*
X192329185Y-71004528D01*
X192183606Y-70916522D01*
X192183604Y-70916521D01*
X192183602Y-70916520D01*
X192183603Y-70916520D01*
X192051930Y-70875490D01*
X191993782Y-70836753D01*
X191965808Y-70772728D01*
X191976890Y-70703742D01*
X192023508Y-70651699D01*
X192041347Y-70642553D01*
X192147390Y-70598629D01*
X192153321Y-70594666D01*
X193822000Y-70594666D01*
X193822000Y-70753834D01*
X193846799Y-70846384D01*
X193863196Y-70907579D01*
X193863197Y-70907580D01*
X193942777Y-71045418D01*
X193942779Y-71045421D01*
X193942780Y-71045422D01*
X194055328Y-71157970D01*
X194055329Y-71157971D01*
X194055331Y-71157972D01*
X194071644Y-71167390D01*
X194193172Y-71237554D01*
X194346916Y-71278750D01*
X194346919Y-71278750D01*
X194506081Y-71278750D01*
X194506084Y-71278750D01*
X194659828Y-71237554D01*
X194797672Y-71157970D01*
X194910220Y-71045422D01*
X194989804Y-70907578D01*
X195031000Y-70753834D01*
X195031000Y-70594666D01*
X194989804Y-70440922D01*
X194910220Y-70303078D01*
X194797672Y-70190530D01*
X194797671Y-70190529D01*
X194797668Y-70190527D01*
X194659830Y-70110947D01*
X194659829Y-70110946D01*
X194621392Y-70100647D01*
X194506084Y-70069750D01*
X194346916Y-70069750D01*
X194254669Y-70094467D01*
X194193170Y-70110946D01*
X194193169Y-70110947D01*
X194055331Y-70190527D01*
X194055326Y-70190531D01*
X193942781Y-70303076D01*
X193942777Y-70303081D01*
X193863197Y-70440919D01*
X193863196Y-70440920D01*
X193848524Y-70495677D01*
X193822000Y-70594666D01*
X192153321Y-70594666D01*
X192270966Y-70516059D01*
X192270971Y-70516054D01*
X192288168Y-70498858D01*
X192376054Y-70410971D01*
X192376059Y-70410966D01*
X192458629Y-70287390D01*
X192515505Y-70150080D01*
X192544500Y-70004312D01*
X192544500Y-69855688D01*
X192515505Y-69709920D01*
X192458629Y-69572610D01*
X192376059Y-69449034D01*
X192376054Y-69449028D01*
X192270971Y-69343945D01*
X192270964Y-69343939D01*
X192147391Y-69261371D01*
X192010080Y-69204495D01*
X192010072Y-69204493D01*
X191864316Y-69175500D01*
X191864312Y-69175500D01*
X191715688Y-69175500D01*
X191715683Y-69175500D01*
X191569927Y-69204493D01*
X191569919Y-69204495D01*
X191432612Y-69261369D01*
X191432607Y-69261372D01*
X191417300Y-69271601D01*
X191350622Y-69292480D01*
X191348407Y-69292500D01*
X190321500Y-69292500D01*
X190312814Y-69289949D01*
X190303853Y-69291238D01*
X190279812Y-69280259D01*
X190254461Y-69272815D01*
X190248533Y-69265974D01*
X190240297Y-69262213D01*
X190226007Y-69239978D01*
X190208706Y-69220011D01*
X190206418Y-69209496D01*
X190202523Y-69203435D01*
X190197500Y-69168500D01*
X190197500Y-69081582D01*
X190206939Y-69034129D01*
X190234505Y-68967580D01*
X190263500Y-68821812D01*
X190263500Y-68673188D01*
X190234505Y-68527420D01*
X190177629Y-68390110D01*
X190095059Y-68266534D01*
X190095054Y-68266528D01*
X189989971Y-68161445D01*
X189989964Y-68161439D01*
X189866391Y-68078871D01*
X189729080Y-68021995D01*
X189729072Y-68021993D01*
X189583316Y-67993000D01*
X189583312Y-67993000D01*
X189434688Y-67993000D01*
X189434683Y-67993000D01*
X189288927Y-68021993D01*
X189288919Y-68021995D01*
X189151608Y-68078871D01*
X189028035Y-68161439D01*
X189028028Y-68161445D01*
X188922945Y-68266528D01*
X188922939Y-68266535D01*
X188840371Y-68390108D01*
X188783495Y-68527419D01*
X188783493Y-68527427D01*
X188754500Y-68673183D01*
X180582100Y-68673183D01*
X180582100Y-67680734D01*
X180582100Y-67680732D01*
X180553688Y-67574698D01*
X180541068Y-67527599D01*
X180461800Y-67390302D01*
X179794698Y-66723200D01*
X179794697Y-66723199D01*
X179781016Y-66715301D01*
X179767336Y-66707402D01*
X179657408Y-66643936D01*
X179657403Y-66643933D01*
X179601684Y-66629003D01*
X179504268Y-66602900D01*
X179504266Y-66602900D01*
X159672253Y-66602900D01*
X159605214Y-66583215D01*
X159561768Y-66535195D01*
X159502342Y-66418566D01*
X159363517Y-66227490D01*
X159196510Y-66060483D01*
X159005433Y-65921657D01*
X158794996Y-65814433D01*
X158570368Y-65741446D01*
X158337097Y-65704500D01*
X158337092Y-65704500D01*
X158100908Y-65704500D01*
X158100903Y-65704500D01*
X157867631Y-65741446D01*
X157643003Y-65814433D01*
X157432566Y-65921657D01*
X157323550Y-66000862D01*
X157241490Y-66060483D01*
X157241488Y-66060485D01*
X157241487Y-66060485D01*
X157074485Y-66227487D01*
X157074485Y-66227488D01*
X157074483Y-66227490D01*
X157014862Y-66309550D01*
X156935657Y-66418566D01*
X156876232Y-66535195D01*
X156828257Y-66585991D01*
X156765747Y-66602900D01*
X153172253Y-66602900D01*
X153105214Y-66583215D01*
X153061768Y-66535195D01*
X153002342Y-66418566D01*
X152863517Y-66227490D01*
X152696510Y-66060483D01*
X152505433Y-65921657D01*
X152294996Y-65814433D01*
X152070368Y-65741446D01*
X151837097Y-65704500D01*
X151837092Y-65704500D01*
X151600908Y-65704500D01*
X151600903Y-65704500D01*
X151367631Y-65741446D01*
X151143003Y-65814433D01*
X150932566Y-65921657D01*
X150823550Y-66000862D01*
X150741490Y-66060483D01*
X150741488Y-66060485D01*
X150741487Y-66060485D01*
X150574485Y-66227487D01*
X150574485Y-66227488D01*
X150574483Y-66227490D01*
X150514862Y-66309550D01*
X150435657Y-66418566D01*
X150328433Y-66629003D01*
X150255446Y-66853631D01*
X150218500Y-67086902D01*
X149459500Y-67086902D01*
X149422553Y-66853631D01*
X149349566Y-66629003D01*
X149242342Y-66418566D01*
X149103517Y-66227490D01*
X148936510Y-66060483D01*
X148745433Y-65921657D01*
X148534997Y-65814434D01*
X148534994Y-65814433D01*
X148534992Y-65814432D01*
X148463987Y-65791361D01*
X148406312Y-65751922D01*
X148379115Y-65687563D01*
X148391030Y-65618717D01*
X148438275Y-65567242D01*
X148490162Y-65550026D01*
X148495502Y-65549500D01*
X148495512Y-65549500D01*
X148641280Y-65520505D01*
X148778590Y-65463629D01*
X148902166Y-65381059D01*
X149007259Y-65275966D01*
X149089829Y-65152390D01*
X149146705Y-65015080D01*
X149175700Y-64869312D01*
X149175700Y-64720688D01*
X149146705Y-64574920D01*
X149089829Y-64437610D01*
X149048396Y-64375601D01*
X149027520Y-64308924D01*
X149027500Y-64306712D01*
X149027500Y-62246559D01*
X149047185Y-62179520D01*
X149048399Y-62177667D01*
X149068624Y-62147398D01*
X149068625Y-62147395D01*
X149068629Y-62147390D01*
X149125505Y-62010080D01*
X149154500Y-61864312D01*
X149154500Y-61715688D01*
X149125505Y-61569920D01*
X149068629Y-61432610D01*
X148986059Y-61309034D01*
X148986054Y-61309028D01*
X148880971Y-61203945D01*
X148880964Y-61203939D01*
X148757391Y-61121371D01*
X148757392Y-61121371D01*
X148691458Y-61094061D01*
X148637055Y-61050220D01*
X148614990Y-60983926D01*
X148632269Y-60916227D01*
X148683406Y-60868616D01*
X148738911Y-60855500D01*
X153701089Y-60855500D01*
X153768128Y-60875185D01*
X153813883Y-60927989D01*
X153823827Y-60997147D01*
X153794802Y-61060703D01*
X153748542Y-61094061D01*
X153682607Y-61121371D01*
X153559035Y-61203939D01*
X153559028Y-61203945D01*
X153453945Y-61309028D01*
X153453939Y-61309035D01*
X153371371Y-61432608D01*
X153314495Y-61569919D01*
X153314493Y-61569927D01*
X153285500Y-61715683D01*
X153285500Y-61864316D01*
X153314493Y-62010072D01*
X153314495Y-62010080D01*
X153371369Y-62147387D01*
X153371375Y-62147398D01*
X153391601Y-62177667D01*
X153412480Y-62244344D01*
X153412500Y-62246559D01*
X153412500Y-64145337D01*
X153392815Y-64212376D01*
X153391603Y-64214227D01*
X153342570Y-64287611D01*
X153285695Y-64424919D01*
X153285693Y-64424927D01*
X153256700Y-64570683D01*
X153256700Y-64719316D01*
X153285693Y-64865072D01*
X153285695Y-64865080D01*
X153342571Y-65002391D01*
X153425139Y-65125964D01*
X153425145Y-65125971D01*
X153530228Y-65231054D01*
X153530235Y-65231060D01*
X153653808Y-65313628D01*
X153653809Y-65313628D01*
X153653810Y-65313629D01*
X153791120Y-65370505D01*
X153936883Y-65399499D01*
X153936887Y-65399500D01*
X153936888Y-65399500D01*
X154085513Y-65399500D01*
X154085514Y-65399499D01*
X154231280Y-65370505D01*
X154368590Y-65313629D01*
X154492166Y-65231059D01*
X154597259Y-65125966D01*
X154679829Y-65002390D01*
X154736705Y-64865080D01*
X154765700Y-64719312D01*
X154765700Y-64570688D01*
X154736705Y-64424920D01*
X154687741Y-64306712D01*
X154677498Y-64281982D01*
X154679444Y-64281175D01*
X154667500Y-64233483D01*
X154667500Y-62246559D01*
X154687185Y-62179520D01*
X154688399Y-62177667D01*
X154708624Y-62147398D01*
X154708625Y-62147395D01*
X154708629Y-62147390D01*
X154765505Y-62010080D01*
X154794500Y-61864312D01*
X154794500Y-61715688D01*
X154765505Y-61569920D01*
X154708629Y-61432610D01*
X154626059Y-61309034D01*
X154626054Y-61309028D01*
X154520971Y-61203945D01*
X154520964Y-61203939D01*
X154397391Y-61121371D01*
X154397392Y-61121371D01*
X154331458Y-61094061D01*
X154277055Y-61050220D01*
X154254990Y-60983926D01*
X154272269Y-60916227D01*
X154323406Y-60868616D01*
X154378911Y-60855500D01*
X200146048Y-60855500D01*
X200213087Y-60875185D01*
X200258842Y-60927989D01*
X200270048Y-60979500D01*
X200270048Y-131480500D01*
X200250363Y-131547539D01*
X200197559Y-131593294D01*
X200146048Y-131604500D01*
X109805048Y-131604500D01*
X109738009Y-131584815D01*
X109692254Y-131532011D01*
X109681048Y-131480500D01*
X109681048Y-129090683D01*
X136070500Y-129090683D01*
X136070500Y-129239316D01*
X136099493Y-129385072D01*
X136099495Y-129385080D01*
X136156371Y-129522391D01*
X136238939Y-129645964D01*
X136238945Y-129645971D01*
X136344028Y-129751054D01*
X136344035Y-129751060D01*
X136467608Y-129833628D01*
X136467609Y-129833628D01*
X136467610Y-129833629D01*
X136604920Y-129890505D01*
X136750683Y-129919499D01*
X136750687Y-129919500D01*
X136750688Y-129919500D01*
X136899313Y-129919500D01*
X136899314Y-129919499D01*
X137045080Y-129890505D01*
X137182390Y-129833629D01*
X137305966Y-129751059D01*
X137411059Y-129645966D01*
X137493629Y-129522390D01*
X137550505Y-129385080D01*
X137579500Y-129239312D01*
X137579500Y-129090688D01*
X137550505Y-128944920D01*
X137493629Y-128807610D01*
X137411059Y-128684034D01*
X137411054Y-128684028D01*
X137305971Y-128578945D01*
X137305964Y-128578939D01*
X137182391Y-128496371D01*
X137045080Y-128439495D01*
X137045072Y-128439493D01*
X136899316Y-128410500D01*
X136899312Y-128410500D01*
X136750688Y-128410500D01*
X136750683Y-128410500D01*
X136604927Y-128439493D01*
X136604919Y-128439495D01*
X136467608Y-128496371D01*
X136344035Y-128578939D01*
X136344028Y-128578945D01*
X136238945Y-128684028D01*
X136238939Y-128684035D01*
X136156371Y-128807608D01*
X136099495Y-128944919D01*
X136099493Y-128944927D01*
X136070500Y-129090683D01*
X109681048Y-129090683D01*
X109681048Y-121021106D01*
X139689500Y-121021106D01*
X139689500Y-121198893D01*
X139717312Y-121374493D01*
X139772249Y-121543575D01*
X139852967Y-121701990D01*
X139957459Y-121845814D01*
X140083185Y-121971540D01*
X140217771Y-122069320D01*
X140227013Y-122076035D01*
X140385422Y-122156749D01*
X140385424Y-122156750D01*
X140469965Y-122184218D01*
X140554508Y-122211688D01*
X140730106Y-122239500D01*
X140730107Y-122239500D01*
X140907893Y-122239500D01*
X140907894Y-122239500D01*
X141083492Y-122211688D01*
X141252578Y-122156749D01*
X141410987Y-122076035D01*
X141491741Y-122017363D01*
X141554814Y-121971540D01*
X141554816Y-121971537D01*
X141554820Y-121971535D01*
X141680535Y-121845820D01*
X141680537Y-121845816D01*
X141680540Y-121845814D01*
X141726363Y-121782741D01*
X141785035Y-121701987D01*
X141865749Y-121543578D01*
X141920688Y-121374492D01*
X141948500Y-121198894D01*
X141948500Y-121021106D01*
X141939174Y-120962224D01*
X143644500Y-120962224D01*
X143644500Y-121257775D01*
X143659867Y-121374492D01*
X143683076Y-121550775D01*
X143721321Y-121693507D01*
X143759566Y-121836242D01*
X143872660Y-122109275D01*
X143872665Y-122109286D01*
X144020425Y-122365212D01*
X144020436Y-122365228D01*
X144200339Y-122599682D01*
X144200345Y-122599689D01*
X144409310Y-122808654D01*
X144409316Y-122808659D01*
X144643780Y-122988570D01*
X144643787Y-122988574D01*
X144899713Y-123136334D01*
X144899718Y-123136336D01*
X144899721Y-123136338D01*
X145036240Y-123192886D01*
X145172757Y-123249433D01*
X145172758Y-123249433D01*
X145172760Y-123249434D01*
X145458225Y-123325924D01*
X145751232Y-123364500D01*
X145751239Y-123364500D01*
X146046761Y-123364500D01*
X146046768Y-123364500D01*
X146339775Y-123325924D01*
X146625240Y-123249434D01*
X146898279Y-123136338D01*
X147154220Y-122988570D01*
X147388684Y-122808659D01*
X147597659Y-122599684D01*
X147777570Y-122365220D01*
X147925338Y-122109279D01*
X148038434Y-121836240D01*
X148114924Y-121550775D01*
X148153500Y-121257768D01*
X148153500Y-121021106D01*
X149849500Y-121021106D01*
X149849500Y-121198893D01*
X149877312Y-121374493D01*
X149932249Y-121543575D01*
X150012967Y-121701990D01*
X150117459Y-121845814D01*
X150243185Y-121971540D01*
X150377771Y-122069320D01*
X150387013Y-122076035D01*
X150545422Y-122156749D01*
X150545424Y-122156750D01*
X150629965Y-122184218D01*
X150714508Y-122211688D01*
X150890106Y-122239500D01*
X150890107Y-122239500D01*
X151067893Y-122239500D01*
X151067894Y-122239500D01*
X151243492Y-122211688D01*
X151412578Y-122156749D01*
X151570987Y-122076035D01*
X151651741Y-122017363D01*
X151714814Y-121971540D01*
X151714816Y-121971537D01*
X151714820Y-121971535D01*
X151840535Y-121845820D01*
X151840537Y-121845816D01*
X151840540Y-121845814D01*
X151886363Y-121782741D01*
X151945035Y-121701987D01*
X152025749Y-121543578D01*
X152080688Y-121374492D01*
X152108500Y-121198894D01*
X152108500Y-121021106D01*
X152080688Y-120845508D01*
X152025749Y-120676422D01*
X151945035Y-120518013D01*
X151938320Y-120508771D01*
X151840540Y-120374185D01*
X151714814Y-120248459D01*
X151570990Y-120143967D01*
X151570989Y-120143966D01*
X151570987Y-120143965D01*
X151491782Y-120103608D01*
X151412575Y-120063249D01*
X151243493Y-120008312D01*
X151155693Y-119994406D01*
X151067894Y-119980500D01*
X150890106Y-119980500D01*
X150831573Y-119989770D01*
X150714506Y-120008312D01*
X150545424Y-120063249D01*
X150387009Y-120143967D01*
X150243185Y-120248459D01*
X150117459Y-120374185D01*
X150012967Y-120518009D01*
X149932249Y-120676424D01*
X149877312Y-120845506D01*
X149849500Y-121021106D01*
X148153500Y-121021106D01*
X148153500Y-120962232D01*
X148114924Y-120669225D01*
X148038434Y-120383760D01*
X147998576Y-120287535D01*
X147933775Y-120131090D01*
X147925338Y-120110721D01*
X147925336Y-120110718D01*
X147925334Y-120110713D01*
X147777574Y-119854787D01*
X147777570Y-119854780D01*
X147597659Y-119620316D01*
X147597654Y-119620310D01*
X147388689Y-119411345D01*
X147388682Y-119411339D01*
X147154228Y-119231436D01*
X147154226Y-119231434D01*
X147154220Y-119231430D01*
X147154215Y-119231427D01*
X147154212Y-119231425D01*
X146898286Y-119083665D01*
X146898275Y-119083660D01*
X146625242Y-118970566D01*
X146482507Y-118932321D01*
X146339775Y-118894076D01*
X146274662Y-118885503D01*
X146046775Y-118855500D01*
X146046768Y-118855500D01*
X145751232Y-118855500D01*
X145751224Y-118855500D01*
X145490781Y-118889789D01*
X145458225Y-118894076D01*
X145386858Y-118913198D01*
X145172757Y-118970566D01*
X144899724Y-119083660D01*
X144899713Y-119083665D01*
X144643787Y-119231425D01*
X144643771Y-119231436D01*
X144409317Y-119411339D01*
X144409310Y-119411345D01*
X144200345Y-119620310D01*
X144200339Y-119620317D01*
X144020436Y-119854771D01*
X144020425Y-119854787D01*
X143872665Y-120110713D01*
X143872660Y-120110724D01*
X143759566Y-120383757D01*
X143723594Y-120518009D01*
X143683076Y-120669225D01*
X143682128Y-120676424D01*
X143644500Y-120962224D01*
X141939174Y-120962224D01*
X141920688Y-120845508D01*
X141865749Y-120676422D01*
X141785035Y-120518013D01*
X141778320Y-120508771D01*
X141680540Y-120374185D01*
X141655213Y-120348858D01*
X141621728Y-120287535D01*
X141626712Y-120217843D01*
X141668584Y-120161910D01*
X141734048Y-120137493D01*
X141762285Y-120138703D01*
X141963038Y-120170500D01*
X141963039Y-120170500D01*
X142214961Y-120170500D01*
X142214962Y-120170500D01*
X142463785Y-120131090D01*
X142703379Y-120053241D01*
X142927845Y-119938870D01*
X143131656Y-119790793D01*
X143309793Y-119612656D01*
X143457870Y-119408845D01*
X143572241Y-119184379D01*
X143650090Y-118944785D01*
X143689500Y-118695962D01*
X143689500Y-118444038D01*
X143650090Y-118195215D01*
X143572241Y-117955621D01*
X143572239Y-117955618D01*
X143572239Y-117955616D01*
X143530747Y-117874184D01*
X143457870Y-117731155D01*
X143355753Y-117590602D01*
X143309798Y-117527350D01*
X143309794Y-117527345D01*
X143131654Y-117349205D01*
X143131649Y-117349201D01*
X142927848Y-117201132D01*
X142927847Y-117201131D01*
X142927845Y-117201130D01*
X142857747Y-117165413D01*
X142703383Y-117086760D01*
X142463785Y-117008910D01*
X142214962Y-116969500D01*
X141963038Y-116969500D01*
X141838626Y-116989205D01*
X141714214Y-117008910D01*
X141474616Y-117086760D01*
X141250151Y-117201132D01*
X141046350Y-117349201D01*
X141046345Y-117349205D01*
X140868205Y-117527345D01*
X140868201Y-117527350D01*
X140720132Y-117731151D01*
X140605760Y-117955616D01*
X140527910Y-118195214D01*
X140488500Y-118444038D01*
X140488500Y-118695961D01*
X140527910Y-118944785D01*
X140605760Y-119184383D01*
X140720132Y-119408848D01*
X140868201Y-119612649D01*
X140868205Y-119612654D01*
X141027952Y-119772401D01*
X141061437Y-119833724D01*
X141056453Y-119903416D01*
X141014581Y-119959349D01*
X140949117Y-119983766D01*
X140920879Y-119982556D01*
X140907894Y-119980500D01*
X140730106Y-119980500D01*
X140671573Y-119989770D01*
X140554506Y-120008312D01*
X140385424Y-120063249D01*
X140227009Y-120143967D01*
X140083185Y-120248459D01*
X139957459Y-120374185D01*
X139852967Y-120518009D01*
X139772249Y-120676424D01*
X139717312Y-120845506D01*
X139689500Y-121021106D01*
X109681048Y-121021106D01*
X109681048Y-115904071D01*
X146839000Y-115904071D01*
X146839000Y-116155928D01*
X146878397Y-116404669D01*
X146956219Y-116644184D01*
X147070557Y-116868583D01*
X147144748Y-116970697D01*
X147144748Y-116970698D01*
X147761421Y-116354024D01*
X147774359Y-116385258D01*
X147856437Y-116508097D01*
X147960903Y-116612563D01*
X148083742Y-116694641D01*
X148114974Y-116707577D01*
X147498300Y-117324250D01*
X147600416Y-117398442D01*
X147824815Y-117512780D01*
X148064330Y-117590602D01*
X148313072Y-117630000D01*
X148564928Y-117630000D01*
X148813669Y-117590602D01*
X149053184Y-117512780D01*
X149277575Y-117398446D01*
X149277581Y-117398442D01*
X149379697Y-117324250D01*
X149379698Y-117324250D01*
X148763025Y-116707578D01*
X148794258Y-116694641D01*
X148917097Y-116612563D01*
X149021563Y-116508097D01*
X149103641Y-116385258D01*
X149116577Y-116354025D01*
X149733250Y-116970698D01*
X149733250Y-116970697D01*
X149807442Y-116868581D01*
X149807446Y-116868575D01*
X149921780Y-116644184D01*
X149999602Y-116404669D01*
X150039000Y-116155928D01*
X150039000Y-115904071D01*
X149999602Y-115655330D01*
X149921780Y-115415815D01*
X149807442Y-115191416D01*
X149733250Y-115089301D01*
X149733250Y-115089300D01*
X149116577Y-115705973D01*
X149103641Y-115674742D01*
X149021563Y-115551903D01*
X148917097Y-115447437D01*
X148794258Y-115365359D01*
X148763024Y-115352421D01*
X149379698Y-114735748D01*
X149277583Y-114661557D01*
X149053184Y-114547219D01*
X148813669Y-114469397D01*
X148564928Y-114430000D01*
X148313072Y-114430000D01*
X148064330Y-114469397D01*
X147824815Y-114547219D01*
X147600413Y-114661559D01*
X147498301Y-114735747D01*
X147498300Y-114735748D01*
X148114974Y-115352421D01*
X148083742Y-115365359D01*
X147960903Y-115447437D01*
X147856437Y-115551903D01*
X147774359Y-115674742D01*
X147761421Y-115705974D01*
X147144748Y-115089300D01*
X147144747Y-115089301D01*
X147070559Y-115191413D01*
X146956219Y-115415815D01*
X146878397Y-115655330D01*
X146839000Y-115904071D01*
X109681048Y-115904071D01*
X109681048Y-113704314D01*
X172295498Y-113704314D01*
X172324493Y-113850073D01*
X172324496Y-113850083D01*
X172381366Y-113987381D01*
X172381372Y-113987392D01*
X172463942Y-114110968D01*
X172463943Y-114110969D01*
X173439600Y-115086624D01*
X173439621Y-115086647D01*
X173549028Y-115196054D01*
X173549035Y-115196060D01*
X173672608Y-115278628D01*
X173672609Y-115278628D01*
X173672610Y-115278629D01*
X173809920Y-115335505D01*
X173955683Y-115364499D01*
X173955687Y-115364500D01*
X173955688Y-115364500D01*
X174104312Y-115364500D01*
X179385688Y-115364500D01*
X182199554Y-115364500D01*
X182199574Y-115364501D01*
X182205688Y-115364501D01*
X182354314Y-115364501D01*
X182391009Y-115357200D01*
X182475894Y-115340315D01*
X182500080Y-115335505D01*
X182556955Y-115311946D01*
X182637389Y-115278630D01*
X182760966Y-115196059D01*
X183409806Y-114547219D01*
X184209594Y-113747430D01*
X185210963Y-112746060D01*
X185210966Y-112746059D01*
X185316059Y-112640966D01*
X185398629Y-112517390D01*
X185455505Y-112380080D01*
X185484500Y-112234312D01*
X185484500Y-111033886D01*
X185504185Y-110966847D01*
X185520819Y-110946205D01*
X186793819Y-109673205D01*
X186855142Y-109639720D01*
X186924834Y-109644704D01*
X186980767Y-109686576D01*
X187005184Y-109752040D01*
X187005500Y-109760886D01*
X187005500Y-111114316D01*
X187034493Y-111260072D01*
X187034495Y-111260080D01*
X187091371Y-111397391D01*
X187173939Y-111520964D01*
X187173945Y-111520971D01*
X187279028Y-111626054D01*
X187279035Y-111626060D01*
X187402608Y-111708628D01*
X187402609Y-111708628D01*
X187402610Y-111708629D01*
X187539920Y-111765505D01*
X187685683Y-111794499D01*
X187685687Y-111794500D01*
X187685688Y-111794500D01*
X187834313Y-111794500D01*
X187834314Y-111794499D01*
X187980080Y-111765505D01*
X188117390Y-111708629D01*
X188240966Y-111626059D01*
X188346059Y-111520966D01*
X188428629Y-111397390D01*
X188485505Y-111260080D01*
X188514500Y-111114312D01*
X188514500Y-108735360D01*
X188534185Y-108668321D01*
X188586989Y-108622566D01*
X188656147Y-108612622D01*
X188719703Y-108641647D01*
X188726181Y-108647679D01*
X189670302Y-109591800D01*
X189670303Y-109591801D01*
X189670305Y-109591802D01*
X189738950Y-109631434D01*
X189807599Y-109671068D01*
X189960732Y-109712100D01*
X190119268Y-109712100D01*
X191930732Y-109712100D01*
X192893240Y-109712100D01*
X192960279Y-109731785D01*
X192980921Y-109748419D01*
X193411321Y-110178819D01*
X193444806Y-110240142D01*
X193439822Y-110309834D01*
X193397950Y-110365767D01*
X193332486Y-110390184D01*
X193323640Y-110390500D01*
X193130264Y-110390500D01*
X192935236Y-110421389D01*
X192747441Y-110482408D01*
X192571495Y-110572058D01*
X192411753Y-110688115D01*
X192272115Y-110827753D01*
X192156058Y-110987495D01*
X192156056Y-110987499D01*
X192067425Y-111161446D01*
X192066408Y-111163441D01*
X192005389Y-111351236D01*
X191974500Y-111546263D01*
X191974500Y-111743736D01*
X192005389Y-111938763D01*
X192063335Y-112117100D01*
X192066409Y-112126561D01*
X192121314Y-112234316D01*
X192156058Y-112302504D01*
X192272115Y-112462246D01*
X192411753Y-112601884D01*
X192521307Y-112681478D01*
X192571499Y-112717944D01*
X192747439Y-112807591D01*
X192872637Y-112848270D01*
X192935236Y-112868610D01*
X193130264Y-112899500D01*
X193130269Y-112899500D01*
X193327736Y-112899500D01*
X193522763Y-112868610D01*
X193710561Y-112807591D01*
X193886501Y-112717944D01*
X193992453Y-112640966D01*
X194046246Y-112601884D01*
X194046248Y-112601881D01*
X194046252Y-112601879D01*
X194185879Y-112462252D01*
X194250182Y-112373744D01*
X194305510Y-112331080D01*
X194375123Y-112325099D01*
X194436919Y-112357704D01*
X194470255Y-112414464D01*
X194474500Y-112430272D01*
X194474501Y-112446872D01*
X194480909Y-112506483D01*
X194531155Y-112641202D01*
X194532681Y-112646880D01*
X194532001Y-112676174D01*
X194534092Y-112705405D01*
X194531200Y-112710699D01*
X194531061Y-112716731D01*
X194514652Y-112741006D01*
X194500607Y-112766728D01*
X194493664Y-112772054D01*
X194491933Y-112774617D01*
X194488288Y-112776180D01*
X194474928Y-112786432D01*
X194423723Y-112815995D01*
X194423709Y-112816005D01*
X194207923Y-112981583D01*
X194207916Y-112981589D01*
X194015589Y-113173916D01*
X194015583Y-113173923D01*
X193850002Y-113389713D01*
X193713999Y-113625274D01*
X193713991Y-113625290D01*
X193609903Y-113876583D01*
X193539504Y-114139320D01*
X193519007Y-114295000D01*
X194711096Y-114295000D01*
X194679000Y-114456358D01*
X194679000Y-114633642D01*
X194711096Y-114795000D01*
X193519008Y-114795000D01*
X193539504Y-114950679D01*
X193609903Y-115213416D01*
X193713991Y-115464709D01*
X193713999Y-115464725D01*
X193850002Y-115700286D01*
X194015583Y-115916076D01*
X194015589Y-115916083D01*
X194207916Y-116108410D01*
X194207923Y-116108416D01*
X194423713Y-116273997D01*
X194659274Y-116410000D01*
X194659290Y-116410008D01*
X194910583Y-116514096D01*
X195173320Y-116584496D01*
X195442987Y-116619998D01*
X195443004Y-116620000D01*
X195479000Y-116620000D01*
X195479000Y-115442740D01*
X195490358Y-115445000D01*
X195967642Y-115445000D01*
X195979000Y-115442740D01*
X195979000Y-116620000D01*
X196014996Y-116620000D01*
X196015012Y-116619998D01*
X196284679Y-116584496D01*
X196547416Y-116514096D01*
X196798709Y-116410008D01*
X196798725Y-116410000D01*
X197034286Y-116273997D01*
X197250076Y-116108416D01*
X197250083Y-116108410D01*
X197442410Y-115916083D01*
X197442416Y-115916076D01*
X197607997Y-115700286D01*
X197744000Y-115464725D01*
X197744008Y-115464709D01*
X197848096Y-115213416D01*
X197918495Y-114950679D01*
X197938992Y-114795000D01*
X196746904Y-114795000D01*
X196779000Y-114633642D01*
X196779000Y-114456358D01*
X196746904Y-114295000D01*
X197938992Y-114295000D01*
X197918495Y-114139320D01*
X197848096Y-113876583D01*
X197744008Y-113625290D01*
X197744000Y-113625274D01*
X197607997Y-113389713D01*
X197442416Y-113173923D01*
X197442410Y-113173916D01*
X197250083Y-112981589D01*
X197250076Y-112981583D01*
X197034290Y-112816005D01*
X197034281Y-112815999D01*
X196983072Y-112786433D01*
X196934857Y-112735865D01*
X196921635Y-112667258D01*
X196928891Y-112635713D01*
X196941509Y-112601884D01*
X196977091Y-112506483D01*
X196983500Y-112446873D01*
X196983499Y-110843128D01*
X196977091Y-110783517D01*
X196968946Y-110761680D01*
X196926797Y-110648671D01*
X196926793Y-110648664D01*
X196840547Y-110533455D01*
X196840544Y-110533452D01*
X196725335Y-110447206D01*
X196725328Y-110447202D01*
X196590482Y-110396908D01*
X196590483Y-110396908D01*
X196530883Y-110390501D01*
X196530881Y-110390500D01*
X196530873Y-110390500D01*
X196530865Y-110390500D01*
X196529778Y-110390500D01*
X196529534Y-110390428D01*
X196527548Y-110390322D01*
X196527573Y-110389852D01*
X196462739Y-110370815D01*
X196416984Y-110318011D01*
X196407040Y-110248853D01*
X196419651Y-110221237D01*
X196421988Y-110191541D01*
X195858408Y-109627962D01*
X195921993Y-109610925D01*
X196036007Y-109545099D01*
X196129099Y-109452007D01*
X196194925Y-109337993D01*
X196211962Y-109274409D01*
X196775541Y-109837988D01*
X196775543Y-109837988D01*
X196801516Y-109802241D01*
X196891126Y-109626373D01*
X196952123Y-109438646D01*
X196983000Y-109243697D01*
X196983000Y-109046302D01*
X196952123Y-108851353D01*
X196891126Y-108663626D01*
X196801520Y-108487768D01*
X196801512Y-108487755D01*
X196775542Y-108452010D01*
X196775541Y-108452009D01*
X196211962Y-109015589D01*
X196194925Y-108952007D01*
X196129099Y-108837993D01*
X196036007Y-108744901D01*
X195921993Y-108679075D01*
X195858409Y-108662037D01*
X196421989Y-108098457D01*
X196386239Y-108072483D01*
X196255298Y-108005765D01*
X196204502Y-107957790D01*
X196187707Y-107889969D01*
X196210245Y-107823834D01*
X196255294Y-107784797D01*
X196386501Y-107717944D01*
X196422842Y-107691541D01*
X196546246Y-107601884D01*
X196546248Y-107601881D01*
X196546252Y-107601879D01*
X196685879Y-107462252D01*
X196685881Y-107462248D01*
X196685884Y-107462246D01*
X196736779Y-107392192D01*
X196801944Y-107302501D01*
X196891591Y-107126561D01*
X196952610Y-106938763D01*
X196967540Y-106844499D01*
X196983500Y-106743736D01*
X196983500Y-106546263D01*
X196952610Y-106351236D01*
X196914589Y-106234221D01*
X196891591Y-106163439D01*
X196801944Y-105987499D01*
X196755120Y-105923051D01*
X196683016Y-105823806D01*
X196684926Y-105822418D01*
X196660284Y-105767582D01*
X196670645Y-105698485D01*
X196716719Y-105645959D01*
X196735675Y-105636116D01*
X196798714Y-105610005D01*
X196798720Y-105610002D01*
X197034286Y-105473997D01*
X197250076Y-105308416D01*
X197250083Y-105308410D01*
X197442410Y-105116083D01*
X197442416Y-105116076D01*
X197607997Y-104900286D01*
X197744000Y-104664725D01*
X197744008Y-104664709D01*
X197848096Y-104413416D01*
X197918495Y-104150679D01*
X197938992Y-103995000D01*
X196746904Y-103995000D01*
X196779000Y-103833642D01*
X196779000Y-103656358D01*
X196746904Y-103495000D01*
X197938992Y-103495000D01*
X197918495Y-103339320D01*
X197848096Y-103076583D01*
X197744008Y-102825290D01*
X197744000Y-102825274D01*
X197607997Y-102589713D01*
X197442416Y-102373923D01*
X197442410Y-102373916D01*
X197250083Y-102181589D01*
X197250076Y-102181583D01*
X197034286Y-102016002D01*
X196798725Y-101879999D01*
X196798709Y-101879991D01*
X196547416Y-101775903D01*
X196284679Y-101705503D01*
X196015012Y-101670001D01*
X196014996Y-101670000D01*
X195979000Y-101670000D01*
X195979000Y-102847259D01*
X195967642Y-102845000D01*
X195490358Y-102845000D01*
X195479000Y-102847259D01*
X195479000Y-101670000D01*
X195443004Y-101670000D01*
X195442987Y-101670001D01*
X195173320Y-101705503D01*
X194910583Y-101775903D01*
X194659290Y-101879991D01*
X194659274Y-101879999D01*
X194423713Y-102016002D01*
X194207923Y-102181583D01*
X194207916Y-102181589D01*
X194015589Y-102373916D01*
X194015583Y-102373923D01*
X193850002Y-102589713D01*
X193713999Y-102825274D01*
X193713991Y-102825290D01*
X193609903Y-103076583D01*
X193539504Y-103339320D01*
X193519007Y-103495000D01*
X194711096Y-103495000D01*
X194679000Y-103656358D01*
X194679000Y-103833642D01*
X194711096Y-103995000D01*
X193519008Y-103995000D01*
X193539504Y-104150679D01*
X193609903Y-104413416D01*
X193713991Y-104664709D01*
X193713999Y-104664725D01*
X193850002Y-104900286D01*
X194015583Y-105116076D01*
X194015589Y-105116083D01*
X194207916Y-105308410D01*
X194207923Y-105308416D01*
X194423713Y-105473997D01*
X194659279Y-105610002D01*
X194659293Y-105610009D01*
X194722324Y-105636117D01*
X194776728Y-105679957D01*
X194798793Y-105746251D01*
X194781514Y-105813951D01*
X194774657Y-105823568D01*
X194774984Y-105823806D01*
X194656056Y-105987497D01*
X194589203Y-106118702D01*
X194541229Y-106169497D01*
X194473407Y-106186292D01*
X194407273Y-106163754D01*
X194368234Y-106118701D01*
X194301520Y-105987768D01*
X194301512Y-105987755D01*
X194275542Y-105952010D01*
X194275541Y-105952009D01*
X193711962Y-106515589D01*
X193694925Y-106452007D01*
X193629099Y-106337993D01*
X193536007Y-106244901D01*
X193421993Y-106179075D01*
X193358409Y-106162037D01*
X193921989Y-105598457D01*
X193886239Y-105572483D01*
X193710373Y-105482873D01*
X193522646Y-105421876D01*
X193327697Y-105391000D01*
X193130303Y-105391000D01*
X192935353Y-105421876D01*
X192747626Y-105482873D01*
X192571762Y-105572482D01*
X192571760Y-105572483D01*
X192536010Y-105598456D01*
X192536010Y-105598457D01*
X193099591Y-106162037D01*
X193036007Y-106179075D01*
X192921993Y-106244901D01*
X192828901Y-106337993D01*
X192763075Y-106452007D01*
X192746037Y-106515590D01*
X192182457Y-105952010D01*
X192182456Y-105952010D01*
X192156483Y-105987760D01*
X192156482Y-105987762D01*
X192066873Y-106163626D01*
X192005876Y-106351353D01*
X191975000Y-106546302D01*
X191975000Y-106743697D01*
X192005876Y-106938646D01*
X192066873Y-107126373D01*
X192156483Y-107302239D01*
X192182457Y-107337988D01*
X192182457Y-107337989D01*
X192746037Y-106774409D01*
X192763075Y-106837993D01*
X192828901Y-106952007D01*
X192921993Y-107045099D01*
X193036007Y-107110925D01*
X193099590Y-107127962D01*
X192536009Y-107691541D01*
X192536010Y-107691542D01*
X192571755Y-107717512D01*
X192571768Y-107717520D01*
X192747626Y-107807126D01*
X192935353Y-107868123D01*
X193130303Y-107899000D01*
X193327697Y-107899000D01*
X193522646Y-107868123D01*
X193710373Y-107807126D01*
X193886241Y-107717516D01*
X193921988Y-107691543D01*
X193921988Y-107691541D01*
X193358410Y-107127962D01*
X193421993Y-107110925D01*
X193536007Y-107045099D01*
X193629099Y-106952007D01*
X193694925Y-106837993D01*
X193711962Y-106774409D01*
X194275541Y-107337988D01*
X194275543Y-107337988D01*
X194301516Y-107302241D01*
X194368235Y-107171298D01*
X194416209Y-107120502D01*
X194484030Y-107103707D01*
X194550165Y-107126244D01*
X194589202Y-107171294D01*
X194614692Y-107221320D01*
X194656058Y-107302505D01*
X194772115Y-107462246D01*
X194911753Y-107601884D01*
X195035158Y-107691541D01*
X195071499Y-107717944D01*
X195202702Y-107784796D01*
X195253497Y-107832770D01*
X195270292Y-107900591D01*
X195247754Y-107966726D01*
X195202701Y-108005765D01*
X195071762Y-108072482D01*
X195071760Y-108072483D01*
X195036010Y-108098456D01*
X195036010Y-108098457D01*
X195599591Y-108662037D01*
X195536007Y-108679075D01*
X195421993Y-108744901D01*
X195328901Y-108837993D01*
X195263075Y-108952007D01*
X195246037Y-109015591D01*
X194682457Y-108452010D01*
X194682456Y-108452010D01*
X194656483Y-108487760D01*
X194656482Y-108487762D01*
X194566873Y-108663626D01*
X194505876Y-108851353D01*
X194475000Y-109046302D01*
X194475000Y-109240140D01*
X194455315Y-109307179D01*
X194402511Y-109352934D01*
X194333353Y-109362878D01*
X194269797Y-109333853D01*
X194263319Y-109327821D01*
X193563699Y-108628201D01*
X193563698Y-108628200D01*
X193426402Y-108548933D01*
X193426403Y-108548933D01*
X193375357Y-108535255D01*
X193273268Y-108507900D01*
X193273266Y-108507900D01*
X190340760Y-108507900D01*
X190273721Y-108488215D01*
X190253079Y-108471581D01*
X183625812Y-101844314D01*
X186825498Y-101844314D01*
X186854493Y-101990073D01*
X186854496Y-101990083D01*
X186911366Y-102127381D01*
X186911372Y-102127392D01*
X186993942Y-102250968D01*
X187099031Y-102356057D01*
X187099034Y-102356059D01*
X187222611Y-102438630D01*
X187303045Y-102471946D01*
X187359920Y-102495505D01*
X187384105Y-102500315D01*
X187432994Y-102510040D01*
X187505686Y-102524501D01*
X187505688Y-102524501D01*
X187654314Y-102524501D01*
X187691009Y-102517200D01*
X187775894Y-102500315D01*
X187800080Y-102495505D01*
X187856955Y-102471946D01*
X187937389Y-102438630D01*
X188060966Y-102356059D01*
X190550963Y-99866060D01*
X190550966Y-99866059D01*
X190656059Y-99760966D01*
X190738629Y-99637390D01*
X190738630Y-99637389D01*
X190738633Y-99637385D01*
X190791395Y-99510001D01*
X190795505Y-99500079D01*
X190812204Y-99416131D01*
X190824501Y-99354314D01*
X190824501Y-99200578D01*
X190824500Y-99200552D01*
X190824500Y-99195687D01*
X190824499Y-99195683D01*
X190795506Y-99049927D01*
X190795505Y-99049920D01*
X190738629Y-98912610D01*
X190681967Y-98827809D01*
X190656060Y-98789035D01*
X190656054Y-98789028D01*
X190550971Y-98683945D01*
X190550964Y-98683939D01*
X190427391Y-98601371D01*
X190290080Y-98544495D01*
X190290072Y-98544493D01*
X190144316Y-98515500D01*
X190144312Y-98515500D01*
X189995688Y-98515500D01*
X189995683Y-98515500D01*
X189849927Y-98544493D01*
X189849919Y-98544495D01*
X189712608Y-98601371D01*
X189589035Y-98683939D01*
X189589028Y-98683945D01*
X189483945Y-98789028D01*
X189483937Y-98789037D01*
X189470583Y-98809023D01*
X189455165Y-98827809D01*
X186993943Y-101289030D01*
X186993942Y-101289031D01*
X186911372Y-101412607D01*
X186911366Y-101412618D01*
X186854496Y-101549916D01*
X186854493Y-101549926D01*
X186825499Y-101695685D01*
X186825499Y-101695688D01*
X186825499Y-101844312D01*
X186825499Y-101844314D01*
X186825498Y-101844314D01*
X183625812Y-101844314D01*
X182738419Y-100956921D01*
X182704934Y-100895598D01*
X182702100Y-100869240D01*
X182702100Y-93480733D01*
X182695301Y-93455359D01*
X182661067Y-93327598D01*
X182581800Y-93190302D01*
X182469698Y-93078200D01*
X180845147Y-91453649D01*
X180811662Y-91392326D01*
X180816646Y-91322634D01*
X180858518Y-91266701D01*
X180923982Y-91242284D01*
X180932828Y-91241968D01*
X184509610Y-91241968D01*
X184576649Y-91261653D01*
X184622404Y-91314457D01*
X184631227Y-91341777D01*
X184646536Y-91418740D01*
X184646538Y-91418748D01*
X184700934Y-91550072D01*
X184703414Y-91556058D01*
X184728810Y-91594066D01*
X184747003Y-91621294D01*
X184767880Y-91687971D01*
X184767900Y-91690184D01*
X184767900Y-100245426D01*
X184748215Y-100312465D01*
X184747003Y-100314316D01*
X184701370Y-100382611D01*
X184644495Y-100519919D01*
X184644493Y-100519927D01*
X184615500Y-100665683D01*
X184615500Y-100814316D01*
X184644493Y-100960072D01*
X184644495Y-100960080D01*
X184701371Y-101097391D01*
X184783939Y-101220964D01*
X184783945Y-101220971D01*
X184889028Y-101326054D01*
X184889035Y-101326060D01*
X185012608Y-101408628D01*
X185012609Y-101408628D01*
X185012610Y-101408629D01*
X185149920Y-101465505D01*
X185295683Y-101494499D01*
X185295687Y-101494500D01*
X185295688Y-101494500D01*
X185444313Y-101494500D01*
X185444314Y-101494499D01*
X185590080Y-101465505D01*
X185727390Y-101408629D01*
X185850966Y-101326059D01*
X185956059Y-101220966D01*
X186038629Y-101097390D01*
X186095505Y-100960080D01*
X186124500Y-100814312D01*
X186124500Y-100665688D01*
X186095505Y-100519920D01*
X186038629Y-100382610D01*
X185992996Y-100314315D01*
X185972120Y-100247638D01*
X185972100Y-100245426D01*
X185972100Y-91696298D01*
X185991785Y-91629259D01*
X185992998Y-91627407D01*
X185997083Y-91621294D01*
X186040672Y-91556058D01*
X186097548Y-91418748D01*
X186126543Y-91272980D01*
X186126543Y-91124356D01*
X186097548Y-90978588D01*
X186096436Y-90972996D01*
X186102663Y-90903405D01*
X186130369Y-90861127D01*
X186971800Y-90019698D01*
X189161800Y-87829698D01*
X189241068Y-87692401D01*
X189282100Y-87539268D01*
X189282100Y-87380732D01*
X189282100Y-81080732D01*
X189282100Y-80265683D01*
X191755500Y-80265683D01*
X191755500Y-80414316D01*
X191784493Y-80560072D01*
X191784495Y-80560080D01*
X191841371Y-80697391D01*
X191923939Y-80820964D01*
X191923945Y-80820971D01*
X192029028Y-80926054D01*
X192029035Y-80926060D01*
X192152608Y-81008628D01*
X192152609Y-81008628D01*
X192152610Y-81008629D01*
X192289920Y-81065505D01*
X192435683Y-81094499D01*
X192435687Y-81094500D01*
X192435688Y-81094500D01*
X192584313Y-81094500D01*
X192584314Y-81094499D01*
X192730080Y-81065505D01*
X192867390Y-81008629D01*
X192990966Y-80926059D01*
X193096059Y-80820966D01*
X193178629Y-80697390D01*
X193235505Y-80560080D01*
X193264500Y-80414312D01*
X193264500Y-80265688D01*
X193235505Y-80119920D01*
X193178629Y-79982610D01*
X193146483Y-79934500D01*
X193096060Y-79859035D01*
X193096054Y-79859028D01*
X192990971Y-79753945D01*
X192990964Y-79753939D01*
X192867391Y-79671371D01*
X192730080Y-79614495D01*
X192730072Y-79614493D01*
X192584316Y-79585500D01*
X192584312Y-79585500D01*
X192435688Y-79585500D01*
X192435683Y-79585500D01*
X192289927Y-79614493D01*
X192289919Y-79614495D01*
X192152608Y-79671371D01*
X192029035Y-79753939D01*
X192029028Y-79753945D01*
X191923945Y-79859028D01*
X191923939Y-79859035D01*
X191841371Y-79982608D01*
X191784495Y-80119919D01*
X191784493Y-80119927D01*
X191755500Y-80265683D01*
X189282100Y-80265683D01*
X189282100Y-76374666D01*
X193822000Y-76374666D01*
X193822000Y-76533834D01*
X193852897Y-76649142D01*
X193863196Y-76687579D01*
X193863197Y-76687580D01*
X193942777Y-76825418D01*
X193942779Y-76825421D01*
X193942780Y-76825422D01*
X194055328Y-76937970D01*
X194193172Y-77017554D01*
X194346916Y-77058750D01*
X194346919Y-77058750D01*
X194506081Y-77058750D01*
X194506084Y-77058750D01*
X194659828Y-77017554D01*
X194797672Y-76937970D01*
X194910220Y-76825422D01*
X194989804Y-76687578D01*
X195031000Y-76533834D01*
X195031000Y-76374666D01*
X194989804Y-76220922D01*
X194910220Y-76083078D01*
X194797672Y-75970530D01*
X194797671Y-75970529D01*
X194797668Y-75970527D01*
X194659830Y-75890947D01*
X194659829Y-75890946D01*
X194621392Y-75880647D01*
X194506084Y-75849750D01*
X194346916Y-75849750D01*
X194254669Y-75874467D01*
X194193170Y-75890946D01*
X194193169Y-75890947D01*
X194055331Y-75970527D01*
X194055326Y-75970531D01*
X193942781Y-76083076D01*
X193942777Y-76083081D01*
X193863197Y-76220919D01*
X193863196Y-76220920D01*
X193855899Y-76248153D01*
X193822000Y-76374666D01*
X189282100Y-76374666D01*
X189282100Y-75782097D01*
X189301785Y-75715058D01*
X189354589Y-75669303D01*
X189423747Y-75659359D01*
X189470250Y-75675980D01*
X189564604Y-75733019D01*
X189564603Y-75733019D01*
X189726894Y-75783590D01*
X189726893Y-75783590D01*
X189797408Y-75789998D01*
X189797426Y-75789999D01*
X189803999Y-75789998D01*
X189804000Y-75789998D01*
X189804000Y-73840000D01*
X190304000Y-73840000D01*
X190304000Y-75789999D01*
X190310581Y-75789999D01*
X190381102Y-75783591D01*
X190381107Y-75783590D01*
X190543396Y-75733018D01*
X190688877Y-75645072D01*
X190688878Y-75645071D01*
X190790963Y-75542985D01*
X190852286Y-75509499D01*
X190921977Y-75514483D01*
X190966326Y-75542984D01*
X191068811Y-75645469D01*
X191068813Y-75645470D01*
X191068815Y-75645472D01*
X191214394Y-75733478D01*
X191376804Y-75784086D01*
X191447384Y-75790500D01*
X191447387Y-75790500D01*
X191960613Y-75790500D01*
X191960616Y-75790500D01*
X192031196Y-75784086D01*
X192193606Y-75733478D01*
X192339185Y-75645472D01*
X192459472Y-75525185D01*
X192547478Y-75379606D01*
X192598086Y-75217196D01*
X192604500Y-75146616D01*
X192604500Y-74483384D01*
X192598086Y-74412804D01*
X192547478Y-74250394D01*
X192459472Y-74104815D01*
X192459470Y-74104813D01*
X192459469Y-74104811D01*
X192339188Y-73984530D01*
X192305136Y-73963945D01*
X192193606Y-73896522D01*
X192031196Y-73845914D01*
X192031194Y-73845913D01*
X192031192Y-73845913D01*
X191981778Y-73841423D01*
X191960616Y-73839500D01*
X191447384Y-73839500D01*
X191428145Y-73841248D01*
X191376807Y-73845913D01*
X191214393Y-73896522D01*
X191068811Y-73984530D01*
X191068810Y-73984531D01*
X190966327Y-74087015D01*
X190905004Y-74120500D01*
X190835312Y-74115516D01*
X190790965Y-74087015D01*
X190688877Y-73984927D01*
X190543395Y-73896980D01*
X190543396Y-73896980D01*
X190381105Y-73846409D01*
X190381106Y-73846409D01*
X190310572Y-73840000D01*
X190304000Y-73840000D01*
X189804000Y-73840000D01*
X189803999Y-73839999D01*
X189797436Y-73840000D01*
X189797417Y-73840001D01*
X189726897Y-73846408D01*
X189726892Y-73846409D01*
X189564603Y-73896981D01*
X189419122Y-73984927D01*
X189298927Y-74105122D01*
X189210980Y-74250604D01*
X189160409Y-74412893D01*
X189154000Y-74483427D01*
X189154000Y-74493140D01*
X189134315Y-74560179D01*
X189081511Y-74605934D01*
X189012353Y-74615878D01*
X188948797Y-74586853D01*
X188942319Y-74580821D01*
X188479699Y-74118201D01*
X188479691Y-74118195D01*
X188419783Y-74083608D01*
X188419780Y-74083607D01*
X188342404Y-74038934D01*
X188342403Y-74038933D01*
X188291357Y-74025255D01*
X188189268Y-73997900D01*
X188189266Y-73997900D01*
X186746288Y-73997900D01*
X186679249Y-73978215D01*
X186665942Y-73967491D01*
X186665681Y-73967810D01*
X186660964Y-73963939D01*
X186537391Y-73881371D01*
X186400080Y-73824495D01*
X186400072Y-73824493D01*
X186254316Y-73795500D01*
X186254312Y-73795500D01*
X186105688Y-73795500D01*
X186105683Y-73795500D01*
X185959927Y-73824493D01*
X185959919Y-73824495D01*
X185822608Y-73881371D01*
X185699035Y-73963939D01*
X185699028Y-73963945D01*
X185593945Y-74069028D01*
X185593939Y-74069035D01*
X185511371Y-74192608D01*
X185454495Y-74329919D01*
X185454493Y-74329927D01*
X185425500Y-74475683D01*
X185425500Y-74624316D01*
X185454493Y-74770072D01*
X185454495Y-74770080D01*
X185511371Y-74907391D01*
X185593939Y-75030964D01*
X185593945Y-75030971D01*
X185699028Y-75136054D01*
X185699035Y-75136060D01*
X185822608Y-75218628D01*
X185822609Y-75218628D01*
X185822610Y-75218629D01*
X185959920Y-75275505D01*
X186105683Y-75304499D01*
X186105687Y-75304500D01*
X186105688Y-75304500D01*
X186254313Y-75304500D01*
X186254314Y-75304499D01*
X186400080Y-75275505D01*
X186537390Y-75218629D01*
X186537394Y-75218625D01*
X186540918Y-75216743D01*
X186599374Y-75202100D01*
X187096368Y-75202100D01*
X187163407Y-75221785D01*
X187209162Y-75274589D01*
X187220368Y-75326100D01*
X187220368Y-75329448D01*
X187249361Y-75475204D01*
X187249363Y-75475212D01*
X187306238Y-75612521D01*
X187306239Y-75612522D01*
X187377002Y-75718428D01*
X187397880Y-75785104D01*
X187397900Y-75787317D01*
X187397900Y-81099239D01*
X187389255Y-81128679D01*
X187382732Y-81158666D01*
X187378977Y-81163681D01*
X187378215Y-81166278D01*
X187361581Y-81186920D01*
X187215586Y-81332915D01*
X187154263Y-81366400D01*
X187084571Y-81361416D01*
X187059015Y-81348336D01*
X187048592Y-81341371D01*
X186911280Y-81284495D01*
X186911272Y-81284493D01*
X186765516Y-81255500D01*
X186765512Y-81255500D01*
X186616888Y-81255500D01*
X186616883Y-81255500D01*
X186471127Y-81284493D01*
X186471119Y-81284495D01*
X186333808Y-81341371D01*
X186210235Y-81423939D01*
X186210228Y-81423945D01*
X186105145Y-81529028D01*
X186105139Y-81529035D01*
X186022571Y-81652608D01*
X185965695Y-81789919D01*
X185965693Y-81789927D01*
X185936700Y-81935683D01*
X185936700Y-82084316D01*
X185965693Y-82230072D01*
X185965695Y-82230080D01*
X186022571Y-82367391D01*
X186105139Y-82490964D01*
X186105145Y-82490971D01*
X186210228Y-82596054D01*
X186210235Y-82596060D01*
X186333808Y-82678628D01*
X186333809Y-82678628D01*
X186333810Y-82678629D01*
X186471120Y-82735505D01*
X186607266Y-82762586D01*
X186616883Y-82764499D01*
X186616887Y-82764500D01*
X186616888Y-82764500D01*
X186765513Y-82764500D01*
X186765514Y-82764499D01*
X186911280Y-82735505D01*
X187048590Y-82678629D01*
X187116884Y-82632996D01*
X187183562Y-82612120D01*
X187185774Y-82612100D01*
X187469266Y-82612100D01*
X187469268Y-82612100D01*
X187622402Y-82571067D01*
X187759698Y-82491800D01*
X187866219Y-82385279D01*
X187927542Y-82351794D01*
X187997234Y-82356778D01*
X188053167Y-82398650D01*
X188077584Y-82464114D01*
X188077900Y-82472960D01*
X188077900Y-84441500D01*
X188058215Y-84508539D01*
X188005411Y-84554294D01*
X187953900Y-84565500D01*
X187825683Y-84565500D01*
X187679927Y-84594493D01*
X187679919Y-84594495D01*
X187542611Y-84651370D01*
X187474316Y-84697003D01*
X187407638Y-84717880D01*
X187405426Y-84717900D01*
X184229532Y-84717900D01*
X184152965Y-84738416D01*
X184076396Y-84758933D01*
X184076391Y-84758936D01*
X184038099Y-84781044D01*
X183970199Y-84797517D01*
X183904172Y-84774664D01*
X183860982Y-84719743D01*
X183852100Y-84673657D01*
X183852100Y-72166582D01*
X189144001Y-72166582D01*
X189150408Y-72237102D01*
X189150409Y-72237107D01*
X189200981Y-72399396D01*
X189288927Y-72544877D01*
X189409122Y-72665072D01*
X189554604Y-72753019D01*
X189554603Y-72753019D01*
X189716894Y-72803590D01*
X189716893Y-72803590D01*
X189787408Y-72809998D01*
X189787426Y-72809999D01*
X189793999Y-72809998D01*
X189794000Y-72809998D01*
X189794000Y-72085000D01*
X189144001Y-72085000D01*
X189144001Y-72166582D01*
X183852100Y-72166582D01*
X183852100Y-71503427D01*
X189144000Y-71503427D01*
X189144000Y-71585000D01*
X189794000Y-71585000D01*
X189794000Y-70860000D01*
X189793999Y-70859999D01*
X189787436Y-70860000D01*
X189787417Y-70860001D01*
X189716897Y-70866408D01*
X189716892Y-70866409D01*
X189554603Y-70916981D01*
X189409122Y-71004927D01*
X189288927Y-71125122D01*
X189200980Y-71270604D01*
X189150409Y-71432893D01*
X189144000Y-71503427D01*
X183852100Y-71503427D01*
X183852100Y-71304573D01*
X183871785Y-71237534D01*
X183872998Y-71235682D01*
X183918625Y-71167396D01*
X183918625Y-71167395D01*
X183918629Y-71167390D01*
X183975505Y-71030080D01*
X184004500Y-70884312D01*
X184004500Y-70735688D01*
X183975505Y-70589920D01*
X183918629Y-70452610D01*
X183910819Y-70440922D01*
X183836060Y-70329035D01*
X183836054Y-70329028D01*
X183730971Y-70223945D01*
X183730964Y-70223939D01*
X183607391Y-70141371D01*
X183470080Y-70084495D01*
X183470072Y-70084493D01*
X183324316Y-70055500D01*
X183324312Y-70055500D01*
X183175688Y-70055500D01*
X183175683Y-70055500D01*
X183029927Y-70084493D01*
X183029919Y-70084495D01*
X182892608Y-70141371D01*
X182769035Y-70223939D01*
X182769028Y-70223945D01*
X182663945Y-70329028D01*
X182663939Y-70329035D01*
X182581371Y-70452608D01*
X182524495Y-70589919D01*
X182524493Y-70589927D01*
X182495500Y-70735683D01*
X182495500Y-70884316D01*
X182524493Y-71030072D01*
X182524495Y-71030080D01*
X182581369Y-71167387D01*
X182581374Y-71167396D01*
X182627002Y-71235682D01*
X182647880Y-71302359D01*
X182647900Y-71304573D01*
X182647900Y-72822791D01*
X182628215Y-72889830D01*
X182575411Y-72935585D01*
X182506253Y-72945529D01*
X182442697Y-72916504D01*
X182428045Y-72901454D01*
X182426054Y-72899028D01*
X182320971Y-72793945D01*
X182320964Y-72793939D01*
X182197391Y-72711371D01*
X182060080Y-72654495D01*
X182060072Y-72654493D01*
X181914316Y-72625500D01*
X181914312Y-72625500D01*
X181765688Y-72625500D01*
X181765683Y-72625500D01*
X181619927Y-72654493D01*
X181619919Y-72654495D01*
X181482608Y-72711371D01*
X181359035Y-72793939D01*
X181359028Y-72793945D01*
X181253945Y-72899028D01*
X181253939Y-72899035D01*
X181171371Y-73022608D01*
X181114495Y-73159919D01*
X181114493Y-73159927D01*
X181085500Y-73305683D01*
X181085500Y-73454316D01*
X181114493Y-73600072D01*
X181114495Y-73600080D01*
X181171369Y-73737387D01*
X181171374Y-73737396D01*
X181217002Y-73805682D01*
X181237880Y-73872359D01*
X181237900Y-73874573D01*
X181237900Y-81989240D01*
X181218215Y-82056279D01*
X181201581Y-82076921D01*
X175098201Y-88180300D01*
X175098199Y-88180303D01*
X175018933Y-88317597D01*
X175013627Y-88337398D01*
X174977900Y-88470732D01*
X174977900Y-89320732D01*
X174977900Y-92029268D01*
X174997901Y-92103912D01*
X175018933Y-92182403D01*
X175018934Y-92182404D01*
X175045621Y-92228627D01*
X175045622Y-92228630D01*
X175098195Y-92319691D01*
X175098201Y-92319699D01*
X177220581Y-94442079D01*
X177254066Y-94503402D01*
X177256900Y-94529760D01*
X177256900Y-103640500D01*
X177237215Y-103707539D01*
X177184411Y-103753294D01*
X177132902Y-103764500D01*
X177061130Y-103764500D01*
X177061123Y-103764501D01*
X177001516Y-103770908D01*
X176866671Y-103821202D01*
X176866664Y-103821206D01*
X176751455Y-103907452D01*
X176751452Y-103907455D01*
X176665206Y-104022664D01*
X176665202Y-104022671D01*
X176614908Y-104157517D01*
X176608501Y-104217116D01*
X176608501Y-104217123D01*
X176608500Y-104217135D01*
X176608500Y-105812870D01*
X176608501Y-105812876D01*
X176614908Y-105872483D01*
X176665202Y-106007328D01*
X176665206Y-106007335D01*
X176751452Y-106122544D01*
X176751455Y-106122547D01*
X176866664Y-106208793D01*
X176866671Y-106208797D01*
X177001517Y-106259091D01*
X177001516Y-106259091D01*
X177008444Y-106259835D01*
X177061127Y-106265500D01*
X178656872Y-106265499D01*
X178716483Y-106259091D01*
X178851331Y-106208796D01*
X178966546Y-106122546D01*
X179052796Y-106007331D01*
X179060194Y-105987495D01*
X179067690Y-105967399D01*
X179067690Y-105967398D01*
X179085895Y-105943079D01*
X179109561Y-105911465D01*
X179175025Y-105887048D01*
X179175026Y-105887048D01*
X179176731Y-105887419D01*
X179243298Y-105901899D01*
X179271553Y-105923051D01*
X179291581Y-105943079D01*
X179325066Y-106004402D01*
X179327900Y-106030760D01*
X179327900Y-110359239D01*
X179308215Y-110426278D01*
X179291581Y-110446920D01*
X179010305Y-110728195D01*
X178948982Y-110761680D01*
X178879290Y-110756696D01*
X178823357Y-110714824D01*
X178822307Y-110713400D01*
X178812832Y-110700360D01*
X178812828Y-110700354D01*
X178673646Y-110561172D01*
X178514405Y-110445476D01*
X178476727Y-110426278D01*
X178339029Y-110356117D01*
X178151826Y-110295290D01*
X177957422Y-110264500D01*
X177957417Y-110264500D01*
X177760583Y-110264500D01*
X177760578Y-110264500D01*
X177566173Y-110295290D01*
X177378970Y-110356117D01*
X177203594Y-110445476D01*
X177112741Y-110511485D01*
X177044354Y-110561172D01*
X177044352Y-110561174D01*
X177044351Y-110561174D01*
X176905174Y-110700351D01*
X176905174Y-110700352D01*
X176905172Y-110700354D01*
X176873231Y-110744317D01*
X176789476Y-110859594D01*
X176700117Y-111034970D01*
X176639290Y-111222173D01*
X176608500Y-111416577D01*
X176608500Y-111613422D01*
X176639290Y-111807826D01*
X176700117Y-111995029D01*
X176788360Y-112168214D01*
X176789476Y-112170405D01*
X176905172Y-112329646D01*
X177044354Y-112468828D01*
X177203595Y-112584524D01*
X177286455Y-112626743D01*
X177378970Y-112673882D01*
X177378972Y-112673882D01*
X177378975Y-112673884D01*
X177475986Y-112705405D01*
X177566173Y-112734709D01*
X177760578Y-112765500D01*
X177760583Y-112765500D01*
X177957422Y-112765500D01*
X178151826Y-112734709D01*
X178153328Y-112734221D01*
X178339025Y-112673884D01*
X178514405Y-112584524D01*
X178673646Y-112468828D01*
X178812828Y-112329646D01*
X178928524Y-112170405D01*
X178928523Y-112170405D01*
X178930116Y-112168214D01*
X178985447Y-112125549D01*
X179030434Y-112117100D01*
X179154266Y-112117100D01*
X179154268Y-112117100D01*
X179307402Y-112076067D01*
X179444698Y-111996800D01*
X179556800Y-111884698D01*
X180411800Y-111029698D01*
X180491068Y-110892401D01*
X180532100Y-110739268D01*
X180532100Y-110580732D01*
X180532100Y-108166577D01*
X181558500Y-108166577D01*
X181558500Y-108363422D01*
X181589290Y-108557826D01*
X181650117Y-108745029D01*
X181697485Y-108837993D01*
X181739476Y-108920405D01*
X181855172Y-109079646D01*
X181994354Y-109218828D01*
X182153595Y-109334524D01*
X182236455Y-109376743D01*
X182328970Y-109423882D01*
X182328972Y-109423882D01*
X182328975Y-109423884D01*
X182415528Y-109452007D01*
X182516173Y-109484709D01*
X182710578Y-109515500D01*
X182710583Y-109515500D01*
X182907422Y-109515500D01*
X183101826Y-109484709D01*
X183103328Y-109484221D01*
X183289025Y-109423884D01*
X183464405Y-109334524D01*
X183623646Y-109218828D01*
X183762828Y-109079646D01*
X183878524Y-108920405D01*
X183967884Y-108745025D01*
X184028709Y-108557826D01*
X184028728Y-108557705D01*
X184059500Y-108363422D01*
X184059500Y-108166577D01*
X184028709Y-107972173D01*
X183993854Y-107864901D01*
X183967884Y-107784975D01*
X183967882Y-107784972D01*
X183967882Y-107784970D01*
X183920277Y-107691541D01*
X183878524Y-107609595D01*
X183762828Y-107450354D01*
X183623646Y-107311172D01*
X183464405Y-107195476D01*
X183415524Y-107170570D01*
X183289029Y-107106117D01*
X183101826Y-107045290D01*
X182907422Y-107014500D01*
X182907417Y-107014500D01*
X182710583Y-107014500D01*
X182710578Y-107014500D01*
X182516173Y-107045290D01*
X182328970Y-107106117D01*
X182153594Y-107195476D01*
X182062741Y-107261485D01*
X181994354Y-107311172D01*
X181994352Y-107311174D01*
X181994351Y-107311174D01*
X181855174Y-107450351D01*
X181855174Y-107450352D01*
X181855172Y-107450354D01*
X181846532Y-107462246D01*
X181739476Y-107609594D01*
X181650117Y-107784970D01*
X181589290Y-107972173D01*
X181558500Y-108166577D01*
X180532100Y-108166577D01*
X180532100Y-105650732D01*
X180522994Y-105616749D01*
X180491068Y-105497599D01*
X180443437Y-105415099D01*
X180411802Y-105360305D01*
X180411798Y-105360300D01*
X179968115Y-104916617D01*
X181109000Y-104916617D01*
X181109000Y-105113382D01*
X181139778Y-105307705D01*
X181200581Y-105494835D01*
X181289905Y-105670145D01*
X181315319Y-105705125D01*
X181315320Y-105705125D01*
X181876037Y-105144408D01*
X181893075Y-105207993D01*
X181958901Y-105322007D01*
X182051993Y-105415099D01*
X182166007Y-105480925D01*
X182229590Y-105497962D01*
X181668873Y-106058677D01*
X181668873Y-106058678D01*
X181703858Y-106084096D01*
X181879164Y-106173418D01*
X182066294Y-106234221D01*
X182260618Y-106265000D01*
X182457382Y-106265000D01*
X182651705Y-106234221D01*
X182838835Y-106173418D01*
X183014143Y-106084095D01*
X183049125Y-106058678D01*
X183049126Y-106058678D01*
X182488410Y-105497962D01*
X182551993Y-105480925D01*
X182666007Y-105415099D01*
X182759099Y-105322007D01*
X182824925Y-105207993D01*
X182841962Y-105144410D01*
X183402678Y-105705126D01*
X183402678Y-105705125D01*
X183428095Y-105670143D01*
X183517418Y-105494835D01*
X183578221Y-105307705D01*
X183609000Y-105113382D01*
X183609000Y-104916617D01*
X183578221Y-104722294D01*
X183517418Y-104535164D01*
X183428096Y-104359858D01*
X183402678Y-104324873D01*
X183402677Y-104324873D01*
X182841962Y-104885589D01*
X182824925Y-104822007D01*
X182759099Y-104707993D01*
X182666007Y-104614901D01*
X182551993Y-104549075D01*
X182488409Y-104532037D01*
X183049125Y-103971320D01*
X183049125Y-103971319D01*
X183014145Y-103945905D01*
X182838835Y-103856581D01*
X182651705Y-103795778D01*
X182457382Y-103765000D01*
X182260618Y-103765000D01*
X182066294Y-103795778D01*
X181879161Y-103856582D01*
X181703863Y-103945899D01*
X181703859Y-103945902D01*
X181668873Y-103971320D01*
X181668872Y-103971320D01*
X182229590Y-104532037D01*
X182166007Y-104549075D01*
X182051993Y-104614901D01*
X181958901Y-104707993D01*
X181893075Y-104822007D01*
X181876037Y-104885590D01*
X181315320Y-104324872D01*
X181315320Y-104324873D01*
X181289902Y-104359859D01*
X181289899Y-104359863D01*
X181200582Y-104535161D01*
X181139778Y-104722294D01*
X181109000Y-104916617D01*
X179968115Y-104916617D01*
X179584699Y-104533201D01*
X179584694Y-104533197D01*
X179550212Y-104513289D01*
X179529109Y-104501106D01*
X179453702Y-104457570D01*
X179447404Y-104453934D01*
X179447403Y-104453933D01*
X179386336Y-104437570D01*
X179294268Y-104412900D01*
X179294266Y-104412900D01*
X179233499Y-104412900D01*
X179166460Y-104393215D01*
X179120705Y-104340411D01*
X179109499Y-104288900D01*
X179109499Y-104217129D01*
X179109498Y-104217123D01*
X179109497Y-104217116D01*
X179103091Y-104157517D01*
X179102683Y-104156424D01*
X179067433Y-104061912D01*
X179052797Y-104022671D01*
X179052793Y-104022664D01*
X178966547Y-103907455D01*
X178966544Y-103907452D01*
X178851335Y-103821206D01*
X178851328Y-103821202D01*
X178716482Y-103770908D01*
X178716483Y-103770908D01*
X178656883Y-103764501D01*
X178656881Y-103764500D01*
X178656873Y-103764500D01*
X178656865Y-103764500D01*
X178585100Y-103764500D01*
X178518061Y-103744815D01*
X178472306Y-103692011D01*
X178461100Y-103640500D01*
X178461100Y-94149734D01*
X178461099Y-94149730D01*
X178449398Y-94106058D01*
X178449398Y-94106059D01*
X178420068Y-93996599D01*
X178341819Y-93861067D01*
X178340802Y-93859305D01*
X178340798Y-93859300D01*
X176218419Y-91736921D01*
X176203715Y-91709993D01*
X176187123Y-91684175D01*
X176186231Y-91677974D01*
X176184934Y-91675598D01*
X176182100Y-91649240D01*
X176182100Y-91499025D01*
X176201785Y-91431986D01*
X176254589Y-91386231D01*
X176323747Y-91376287D01*
X176330293Y-91377408D01*
X176415554Y-91394367D01*
X176415555Y-91394368D01*
X176415556Y-91394368D01*
X176564181Y-91394368D01*
X176564182Y-91394367D01*
X176709948Y-91365373D01*
X176847258Y-91308497D01*
X176915552Y-91262864D01*
X176982230Y-91241988D01*
X176984442Y-91241968D01*
X178991500Y-91241968D01*
X179058539Y-91261653D01*
X179104294Y-91314457D01*
X179115500Y-91365968D01*
X179115500Y-91404316D01*
X179144493Y-91550072D01*
X179144495Y-91550080D01*
X179201371Y-91687391D01*
X179283939Y-91810964D01*
X179283945Y-91810971D01*
X179389028Y-91916054D01*
X179389035Y-91916060D01*
X179512608Y-91998628D01*
X179512609Y-91998628D01*
X179512610Y-91998629D01*
X179649920Y-92055505D01*
X179730479Y-92071529D01*
X179792386Y-92103912D01*
X179793966Y-92105464D01*
X181461581Y-93773079D01*
X181495066Y-93834402D01*
X181497900Y-93860760D01*
X181497900Y-101249268D01*
X181518475Y-101326054D01*
X181538933Y-101402403D01*
X181542528Y-101408629D01*
X181573738Y-101462686D01*
X181592105Y-101494500D01*
X181618199Y-101539696D01*
X181618201Y-101539699D01*
X187118057Y-107039555D01*
X187151542Y-107100878D01*
X187146558Y-107170570D01*
X187118057Y-107214917D01*
X184143943Y-110189030D01*
X184143942Y-110189031D01*
X184061372Y-110312607D01*
X184061366Y-110312618D01*
X184004496Y-110449916D01*
X184004493Y-110449926D01*
X183975499Y-110595685D01*
X183975499Y-110750425D01*
X183975500Y-110750446D01*
X183975500Y-111796113D01*
X183955815Y-111863152D01*
X183939181Y-111883794D01*
X183733085Y-112089889D01*
X183671762Y-112123374D01*
X183602070Y-112118390D01*
X183546137Y-112076518D01*
X183521720Y-112011054D01*
X183527473Y-111963889D01*
X183578221Y-111807703D01*
X183609000Y-111613382D01*
X183609000Y-111416617D01*
X183578221Y-111222294D01*
X183517418Y-111035164D01*
X183428096Y-110859858D01*
X183402678Y-110824873D01*
X183402677Y-110824873D01*
X182841962Y-111385590D01*
X182824925Y-111322007D01*
X182759099Y-111207993D01*
X182666007Y-111114901D01*
X182551993Y-111049075D01*
X182488409Y-111032037D01*
X183049125Y-110471320D01*
X183049125Y-110471319D01*
X183014145Y-110445905D01*
X182838835Y-110356581D01*
X182651705Y-110295778D01*
X182457382Y-110265000D01*
X182260618Y-110265000D01*
X182066294Y-110295778D01*
X181879161Y-110356582D01*
X181703863Y-110445899D01*
X181703859Y-110445902D01*
X181668873Y-110471320D01*
X181668872Y-110471320D01*
X182229590Y-111032037D01*
X182166007Y-111049075D01*
X182051993Y-111114901D01*
X181958901Y-111207993D01*
X181893075Y-111322007D01*
X181876037Y-111385590D01*
X181315320Y-110824872D01*
X181315320Y-110824873D01*
X181289902Y-110859859D01*
X181289899Y-110859863D01*
X181200582Y-111035161D01*
X181139778Y-111222294D01*
X181109000Y-111416617D01*
X181109000Y-111613382D01*
X181139778Y-111807705D01*
X181200581Y-111994835D01*
X181289905Y-112170145D01*
X181315319Y-112205125D01*
X181315320Y-112205125D01*
X181876037Y-111644408D01*
X181893075Y-111707993D01*
X181958901Y-111822007D01*
X182051993Y-111915099D01*
X182166007Y-111980925D01*
X182229590Y-111997962D01*
X181668873Y-112558677D01*
X181668873Y-112558678D01*
X181703858Y-112584096D01*
X181879164Y-112673418D01*
X182066294Y-112734221D01*
X182260618Y-112765000D01*
X182457382Y-112765000D01*
X182651703Y-112734221D01*
X182807889Y-112683473D01*
X182877730Y-112681478D01*
X182937563Y-112717558D01*
X182968392Y-112780258D01*
X182960428Y-112849673D01*
X182933889Y-112889085D01*
X182003794Y-113819181D01*
X181942471Y-113852666D01*
X181916113Y-113855500D01*
X174393886Y-113855500D01*
X174326847Y-113835815D01*
X174306205Y-113819181D01*
X173840819Y-113353794D01*
X173807334Y-113292471D01*
X173804500Y-113266113D01*
X173804500Y-110707069D01*
X173806883Y-110682877D01*
X173824500Y-110594314D01*
X173824500Y-110445687D01*
X173824499Y-110445683D01*
X173795506Y-110299923D01*
X173795504Y-110299918D01*
X173793588Y-110295291D01*
X173738629Y-110162610D01*
X173669422Y-110059034D01*
X173656060Y-110039035D01*
X173656054Y-110039028D01*
X173550971Y-109933945D01*
X173550964Y-109933939D01*
X173427391Y-109851371D01*
X173290080Y-109794495D01*
X173290072Y-109794493D01*
X173144316Y-109765500D01*
X173144312Y-109765500D01*
X172995688Y-109765500D01*
X172995683Y-109765500D01*
X172849927Y-109794493D01*
X172849919Y-109794495D01*
X172712608Y-109851371D01*
X172589035Y-109933939D01*
X172589029Y-109933944D01*
X172569036Y-109953939D01*
X172569034Y-109953941D01*
X172521604Y-110001371D01*
X172492771Y-110030204D01*
X172463938Y-110059036D01*
X172463937Y-110059038D01*
X172381372Y-110182605D01*
X172381369Y-110182611D01*
X172378793Y-110188833D01*
X172378710Y-110189034D01*
X172334698Y-110295291D01*
X172332781Y-110299918D01*
X172332779Y-110299923D01*
X172324495Y-110319918D01*
X172324493Y-110319925D01*
X172295499Y-110465685D01*
X172295499Y-110465687D01*
X172295499Y-110465688D01*
X172295499Y-110614312D01*
X172295499Y-110614316D01*
X172295500Y-110620436D01*
X172295500Y-113550552D01*
X172295499Y-113550578D01*
X172295499Y-113555688D01*
X172295499Y-113704312D01*
X172295499Y-113704314D01*
X172295498Y-113704314D01*
X109681048Y-113704314D01*
X109681048Y-108166617D01*
X176159000Y-108166617D01*
X176159000Y-108363382D01*
X176189778Y-108557705D01*
X176250581Y-108744835D01*
X176339905Y-108920145D01*
X176365319Y-108955125D01*
X176365320Y-108955125D01*
X176926037Y-108394408D01*
X176943075Y-108457993D01*
X177008901Y-108572007D01*
X177101993Y-108665099D01*
X177216007Y-108730925D01*
X177279590Y-108747962D01*
X176718873Y-109308677D01*
X176718873Y-109308678D01*
X176753858Y-109334096D01*
X176929164Y-109423418D01*
X177116294Y-109484221D01*
X177310618Y-109515000D01*
X177507382Y-109515000D01*
X177701705Y-109484221D01*
X177888835Y-109423418D01*
X178064143Y-109334095D01*
X178099125Y-109308678D01*
X178099126Y-109308678D01*
X177538410Y-108747962D01*
X177601993Y-108730925D01*
X177716007Y-108665099D01*
X177809099Y-108572007D01*
X177874925Y-108457993D01*
X177891962Y-108394409D01*
X178452678Y-108955126D01*
X178452678Y-108955125D01*
X178478095Y-108920143D01*
X178567418Y-108744835D01*
X178628221Y-108557705D01*
X178659000Y-108363382D01*
X178659000Y-108166617D01*
X178628221Y-107972294D01*
X178567418Y-107785164D01*
X178478096Y-107609858D01*
X178452678Y-107574873D01*
X178452677Y-107574873D01*
X177891962Y-108135589D01*
X177874925Y-108072007D01*
X177809099Y-107957993D01*
X177716007Y-107864901D01*
X177601993Y-107799075D01*
X177538409Y-107782037D01*
X178099125Y-107221320D01*
X178099125Y-107221319D01*
X178064145Y-107195905D01*
X177888835Y-107106581D01*
X177701705Y-107045778D01*
X177507382Y-107015000D01*
X177310618Y-107015000D01*
X177116294Y-107045778D01*
X176929161Y-107106582D01*
X176753863Y-107195899D01*
X176753859Y-107195902D01*
X176718873Y-107221320D01*
X176718872Y-107221320D01*
X177279590Y-107782037D01*
X177216007Y-107799075D01*
X177101993Y-107864901D01*
X177008901Y-107957993D01*
X176943075Y-108072007D01*
X176926037Y-108135590D01*
X176365320Y-107574872D01*
X176365320Y-107574873D01*
X176339902Y-107609859D01*
X176339899Y-107609863D01*
X176250582Y-107785161D01*
X176189778Y-107972294D01*
X176159000Y-108166617D01*
X109681048Y-108166617D01*
X109681048Y-104481106D01*
X123154500Y-104481106D01*
X123154500Y-104658893D01*
X123182312Y-104834493D01*
X123237249Y-105003575D01*
X123276611Y-105080826D01*
X123293199Y-105113382D01*
X123317967Y-105161990D01*
X123422459Y-105305814D01*
X123548185Y-105431540D01*
X123682771Y-105529320D01*
X123692013Y-105536035D01*
X123837186Y-105610005D01*
X123850424Y-105616750D01*
X123910028Y-105636116D01*
X124019508Y-105671688D01*
X124195106Y-105699500D01*
X124195107Y-105699500D01*
X124372893Y-105699500D01*
X124372894Y-105699500D01*
X124548492Y-105671688D01*
X124717578Y-105616749D01*
X124875987Y-105536035D01*
X124961376Y-105473997D01*
X125019814Y-105431540D01*
X125019816Y-105431537D01*
X125019820Y-105431535D01*
X125145535Y-105305820D01*
X125145537Y-105305816D01*
X125145540Y-105305814D01*
X125216610Y-105207993D01*
X125250035Y-105161987D01*
X125330749Y-105003578D01*
X125385688Y-104834492D01*
X125413500Y-104658894D01*
X125413500Y-104481106D01*
X125404174Y-104422224D01*
X127109500Y-104422224D01*
X127109500Y-104717775D01*
X127139503Y-104945662D01*
X127148076Y-105010775D01*
X127176291Y-105116076D01*
X127224566Y-105296242D01*
X127337660Y-105569275D01*
X127337665Y-105569286D01*
X127485425Y-105825212D01*
X127485436Y-105825228D01*
X127665339Y-106059682D01*
X127665345Y-106059689D01*
X127874310Y-106268654D01*
X127874317Y-106268660D01*
X127981932Y-106351236D01*
X128108780Y-106448570D01*
X128108787Y-106448574D01*
X128364713Y-106596334D01*
X128364718Y-106596336D01*
X128364721Y-106596338D01*
X128413008Y-106616339D01*
X128637757Y-106709433D01*
X128637758Y-106709433D01*
X128637760Y-106709434D01*
X128923225Y-106785924D01*
X129216232Y-106824500D01*
X129216239Y-106824500D01*
X129511761Y-106824500D01*
X129511768Y-106824500D01*
X129804775Y-106785924D01*
X130090240Y-106709434D01*
X130363279Y-106596338D01*
X130619220Y-106448570D01*
X130853684Y-106268659D01*
X131062659Y-106059684D01*
X131242570Y-105825220D01*
X131390338Y-105569279D01*
X131503434Y-105296240D01*
X131579924Y-105010775D01*
X131618500Y-104717768D01*
X131618500Y-104481106D01*
X133314500Y-104481106D01*
X133314500Y-104658893D01*
X133342312Y-104834493D01*
X133397249Y-105003575D01*
X133436611Y-105080826D01*
X133453199Y-105113382D01*
X133477967Y-105161990D01*
X133582459Y-105305814D01*
X133708185Y-105431540D01*
X133842771Y-105529320D01*
X133852013Y-105536035D01*
X133997186Y-105610005D01*
X134010424Y-105616750D01*
X134070028Y-105636116D01*
X134179508Y-105671688D01*
X134355106Y-105699500D01*
X134355107Y-105699500D01*
X134532893Y-105699500D01*
X134532894Y-105699500D01*
X134708492Y-105671688D01*
X134877578Y-105616749D01*
X135035987Y-105536035D01*
X135121376Y-105473997D01*
X135179814Y-105431540D01*
X135179816Y-105431537D01*
X135179820Y-105431535D01*
X135305535Y-105305820D01*
X135305537Y-105305816D01*
X135305540Y-105305814D01*
X135376610Y-105207993D01*
X135410035Y-105161987D01*
X135490749Y-105003578D01*
X135545688Y-104834492D01*
X135573500Y-104658894D01*
X135573500Y-104501106D01*
X139684500Y-104501106D01*
X139684500Y-104678893D01*
X139712312Y-104854493D01*
X139767249Y-105023575D01*
X139807608Y-105102782D01*
X139837774Y-105161987D01*
X139847967Y-105181990D01*
X139952459Y-105325814D01*
X140078185Y-105451540D01*
X140194481Y-105536032D01*
X140222013Y-105556035D01*
X140379180Y-105636116D01*
X140380424Y-105636750D01*
X140464965Y-105664218D01*
X140549508Y-105691688D01*
X140725106Y-105719500D01*
X140725107Y-105719500D01*
X140902893Y-105719500D01*
X140902894Y-105719500D01*
X141078492Y-105691688D01*
X141247578Y-105636749D01*
X141405987Y-105556035D01*
X141506687Y-105482873D01*
X141549814Y-105451540D01*
X141549816Y-105451537D01*
X141549820Y-105451535D01*
X141675535Y-105325820D01*
X141675537Y-105325816D01*
X141675540Y-105325814D01*
X141721363Y-105262741D01*
X141780035Y-105181987D01*
X141860749Y-105023578D01*
X141915688Y-104854492D01*
X141943500Y-104678894D01*
X141943500Y-104501106D01*
X141934174Y-104442224D01*
X143639500Y-104442224D01*
X143639500Y-104737775D01*
X143652234Y-104834492D01*
X143678076Y-105030775D01*
X143700934Y-105116083D01*
X143754566Y-105316242D01*
X143867660Y-105589275D01*
X143867665Y-105589286D01*
X144015425Y-105845212D01*
X144015436Y-105845228D01*
X144195339Y-106079682D01*
X144195345Y-106079689D01*
X144404310Y-106288654D01*
X144404316Y-106288659D01*
X144638780Y-106468570D01*
X144638787Y-106468574D01*
X144894713Y-106616334D01*
X144894718Y-106616336D01*
X144894721Y-106616338D01*
X144963920Y-106645001D01*
X145167757Y-106729433D01*
X145167758Y-106729433D01*
X145167760Y-106729434D01*
X145453225Y-106805924D01*
X145746232Y-106844500D01*
X145746239Y-106844500D01*
X146041761Y-106844500D01*
X146041768Y-106844500D01*
X146334775Y-106805924D01*
X146620240Y-106729434D01*
X146893279Y-106616338D01*
X147149220Y-106468570D01*
X147383684Y-106288659D01*
X147592659Y-106079684D01*
X147772570Y-105845220D01*
X147920338Y-105589279D01*
X148033434Y-105316240D01*
X148109924Y-105030775D01*
X148148500Y-104737768D01*
X148148500Y-104501106D01*
X149844500Y-104501106D01*
X149844500Y-104678893D01*
X149872312Y-104854493D01*
X149927249Y-105023575D01*
X149967608Y-105102782D01*
X149997774Y-105161987D01*
X150007967Y-105181990D01*
X150112459Y-105325814D01*
X150238185Y-105451540D01*
X150354481Y-105536032D01*
X150382013Y-105556035D01*
X150539180Y-105636116D01*
X150540424Y-105636750D01*
X150624965Y-105664218D01*
X150709508Y-105691688D01*
X150885106Y-105719500D01*
X150885107Y-105719500D01*
X151062893Y-105719500D01*
X151062894Y-105719500D01*
X151238492Y-105691688D01*
X151407578Y-105636749D01*
X151565987Y-105556035D01*
X151666687Y-105482873D01*
X151709814Y-105451540D01*
X151709816Y-105451537D01*
X151709820Y-105451535D01*
X151835535Y-105325820D01*
X151835537Y-105325816D01*
X151835540Y-105325814D01*
X151881363Y-105262741D01*
X151940035Y-105181987D01*
X152020749Y-105023578D01*
X152075688Y-104854492D01*
X152103500Y-104678894D01*
X152103500Y-104501106D01*
X155944500Y-104501106D01*
X155944500Y-104678893D01*
X155972312Y-104854493D01*
X156027249Y-105023575D01*
X156067608Y-105102782D01*
X156097774Y-105161987D01*
X156107967Y-105181990D01*
X156212459Y-105325814D01*
X156338185Y-105451540D01*
X156454481Y-105536032D01*
X156482013Y-105556035D01*
X156639180Y-105636116D01*
X156640424Y-105636750D01*
X156724965Y-105664218D01*
X156809508Y-105691688D01*
X156985106Y-105719500D01*
X156985107Y-105719500D01*
X157162893Y-105719500D01*
X157162894Y-105719500D01*
X157338492Y-105691688D01*
X157507578Y-105636749D01*
X157665987Y-105556035D01*
X157766687Y-105482873D01*
X157809814Y-105451540D01*
X157809816Y-105451537D01*
X157809820Y-105451535D01*
X157935535Y-105325820D01*
X157935537Y-105325816D01*
X157935540Y-105325814D01*
X157981363Y-105262741D01*
X158040035Y-105181987D01*
X158120749Y-105023578D01*
X158175688Y-104854492D01*
X158203500Y-104678894D01*
X158203500Y-104501106D01*
X158194174Y-104442224D01*
X159899500Y-104442224D01*
X159899500Y-104737775D01*
X159912234Y-104834492D01*
X159938076Y-105030775D01*
X159960934Y-105116083D01*
X160014566Y-105316242D01*
X160127660Y-105589275D01*
X160127665Y-105589286D01*
X160275425Y-105845212D01*
X160275436Y-105845228D01*
X160455339Y-106079682D01*
X160455345Y-106079689D01*
X160664310Y-106288654D01*
X160664316Y-106288659D01*
X160898780Y-106468570D01*
X160898787Y-106468574D01*
X161154713Y-106616334D01*
X161154718Y-106616336D01*
X161154721Y-106616338D01*
X161223920Y-106645001D01*
X161427757Y-106729433D01*
X161427758Y-106729433D01*
X161427760Y-106729434D01*
X161713225Y-106805924D01*
X162006232Y-106844500D01*
X162006239Y-106844500D01*
X162301761Y-106844500D01*
X162301768Y-106844500D01*
X162594775Y-106805924D01*
X162880240Y-106729434D01*
X163153279Y-106616338D01*
X163409220Y-106468570D01*
X163643684Y-106288659D01*
X163852659Y-106079684D01*
X164032570Y-105845220D01*
X164180338Y-105589279D01*
X164293434Y-105316240D01*
X164369924Y-105030775D01*
X164408500Y-104737768D01*
X164408500Y-104501106D01*
X166104500Y-104501106D01*
X166104500Y-104678893D01*
X166132312Y-104854493D01*
X166187249Y-105023575D01*
X166227608Y-105102782D01*
X166257774Y-105161987D01*
X166267967Y-105181990D01*
X166372459Y-105325814D01*
X166498185Y-105451540D01*
X166614481Y-105536032D01*
X166642013Y-105556035D01*
X166799180Y-105636116D01*
X166800424Y-105636750D01*
X166884965Y-105664218D01*
X166969508Y-105691688D01*
X167145106Y-105719500D01*
X167145107Y-105719500D01*
X167322893Y-105719500D01*
X167322894Y-105719500D01*
X167498492Y-105691688D01*
X167667578Y-105636749D01*
X167825987Y-105556035D01*
X167926687Y-105482873D01*
X167969814Y-105451540D01*
X167969816Y-105451537D01*
X167969820Y-105451535D01*
X168095535Y-105325820D01*
X168095537Y-105325816D01*
X168095540Y-105325814D01*
X168141363Y-105262741D01*
X168200035Y-105181987D01*
X168280749Y-105023578D01*
X168335688Y-104854492D01*
X168363500Y-104678894D01*
X168363500Y-104501106D01*
X168335688Y-104325508D01*
X168300474Y-104217129D01*
X168280750Y-104156424D01*
X168232593Y-104061912D01*
X168200035Y-103998013D01*
X168162177Y-103945905D01*
X168095540Y-103854185D01*
X167969814Y-103728459D01*
X167825990Y-103623967D01*
X167825989Y-103623966D01*
X167825987Y-103623965D01*
X167746782Y-103583608D01*
X167667575Y-103543249D01*
X167498493Y-103488312D01*
X167372217Y-103468312D01*
X167322894Y-103460500D01*
X167145106Y-103460500D01*
X167095783Y-103468312D01*
X166969506Y-103488312D01*
X166800424Y-103543249D01*
X166642009Y-103623967D01*
X166498185Y-103728459D01*
X166372459Y-103854185D01*
X166267967Y-103998009D01*
X166187249Y-104156424D01*
X166132312Y-104325506D01*
X166104500Y-104501106D01*
X164408500Y-104501106D01*
X164408500Y-104442232D01*
X164369924Y-104149225D01*
X164293434Y-103863760D01*
X164290460Y-103856581D01*
X164224709Y-103697843D01*
X164180338Y-103590721D01*
X164180336Y-103590718D01*
X164180334Y-103590713D01*
X164032574Y-103334787D01*
X164032570Y-103334780D01*
X163852659Y-103100316D01*
X163852654Y-103100310D01*
X163643689Y-102891345D01*
X163643682Y-102891339D01*
X163409228Y-102711436D01*
X163409226Y-102711434D01*
X163409220Y-102711430D01*
X163409215Y-102711427D01*
X163409212Y-102711425D01*
X163153286Y-102563665D01*
X163153275Y-102563660D01*
X162880242Y-102450566D01*
X162730633Y-102410479D01*
X162594775Y-102374076D01*
X162529662Y-102365503D01*
X162301775Y-102335500D01*
X162301768Y-102335500D01*
X162006232Y-102335500D01*
X162006224Y-102335500D01*
X161745781Y-102369789D01*
X161713225Y-102374076D01*
X161641858Y-102393198D01*
X161427757Y-102450566D01*
X161154724Y-102563660D01*
X161154713Y-102563665D01*
X160898787Y-102711425D01*
X160898771Y-102711436D01*
X160664317Y-102891339D01*
X160664310Y-102891345D01*
X160455345Y-103100310D01*
X160455339Y-103100317D01*
X160275436Y-103334771D01*
X160275425Y-103334787D01*
X160127665Y-103590713D01*
X160127660Y-103590724D01*
X160014566Y-103863757D01*
X159971986Y-104022671D01*
X159938076Y-104149225D01*
X159936984Y-104157517D01*
X159899500Y-104442224D01*
X158194174Y-104442224D01*
X158175688Y-104325508D01*
X158140474Y-104217129D01*
X158120750Y-104156424D01*
X158072593Y-104061912D01*
X158040035Y-103998013D01*
X158002177Y-103945905D01*
X157935540Y-103854185D01*
X157910213Y-103828858D01*
X157876728Y-103767535D01*
X157881712Y-103697843D01*
X157923584Y-103641910D01*
X157989048Y-103617493D01*
X158017285Y-103618703D01*
X158218038Y-103650500D01*
X158218039Y-103650500D01*
X158469961Y-103650500D01*
X158469962Y-103650500D01*
X158718785Y-103611090D01*
X158958379Y-103533241D01*
X159182845Y-103418870D01*
X159386656Y-103270793D01*
X159564793Y-103092656D01*
X159712870Y-102888845D01*
X159827241Y-102664379D01*
X159905090Y-102424785D01*
X159944500Y-102175962D01*
X159944500Y-101924038D01*
X159905090Y-101675215D01*
X159827241Y-101435621D01*
X159827239Y-101435618D01*
X159827239Y-101435616D01*
X159752551Y-101289034D01*
X159712870Y-101211155D01*
X159673204Y-101156559D01*
X159564798Y-101007350D01*
X159564794Y-101007345D01*
X159386654Y-100829205D01*
X159386649Y-100829201D01*
X159182848Y-100681132D01*
X159182847Y-100681131D01*
X159182845Y-100681130D01*
X159074032Y-100625687D01*
X158958383Y-100566760D01*
X158718785Y-100488910D01*
X158662025Y-100479920D01*
X158469962Y-100449500D01*
X158218038Y-100449500D01*
X158095489Y-100468910D01*
X157969214Y-100488910D01*
X157729616Y-100566760D01*
X157505151Y-100681132D01*
X157301350Y-100829201D01*
X157301345Y-100829205D01*
X157123205Y-101007345D01*
X157123201Y-101007350D01*
X156975132Y-101211151D01*
X156860760Y-101435616D01*
X156789408Y-101655215D01*
X156782910Y-101675215D01*
X156743500Y-101924038D01*
X156743500Y-102175962D01*
X156772025Y-102356059D01*
X156782910Y-102424785D01*
X156860760Y-102664383D01*
X156891997Y-102725688D01*
X156970412Y-102879586D01*
X156975132Y-102888848D01*
X157123201Y-103092649D01*
X157123205Y-103092654D01*
X157282952Y-103252401D01*
X157316437Y-103313724D01*
X157311453Y-103383416D01*
X157269581Y-103439349D01*
X157204117Y-103463766D01*
X157175879Y-103462556D01*
X157162894Y-103460500D01*
X156985106Y-103460500D01*
X156935783Y-103468312D01*
X156809506Y-103488312D01*
X156640424Y-103543249D01*
X156482009Y-103623967D01*
X156338185Y-103728459D01*
X156212459Y-103854185D01*
X156107967Y-103998009D01*
X156027249Y-104156424D01*
X155972312Y-104325506D01*
X155944500Y-104501106D01*
X152103500Y-104501106D01*
X152075688Y-104325508D01*
X152040474Y-104217129D01*
X152020750Y-104156424D01*
X151972593Y-104061912D01*
X151940035Y-103998013D01*
X151902177Y-103945905D01*
X151835540Y-103854185D01*
X151709814Y-103728459D01*
X151565990Y-103623967D01*
X151565989Y-103623966D01*
X151565987Y-103623965D01*
X151486782Y-103583608D01*
X151407575Y-103543249D01*
X151238493Y-103488312D01*
X151112217Y-103468312D01*
X151062894Y-103460500D01*
X150885106Y-103460500D01*
X150835783Y-103468312D01*
X150709506Y-103488312D01*
X150540424Y-103543249D01*
X150382009Y-103623967D01*
X150238185Y-103728459D01*
X150112459Y-103854185D01*
X150007967Y-103998009D01*
X149927249Y-104156424D01*
X149872312Y-104325506D01*
X149844500Y-104501106D01*
X148148500Y-104501106D01*
X148148500Y-104442232D01*
X148109924Y-104149225D01*
X148033434Y-103863760D01*
X148030460Y-103856581D01*
X147964709Y-103697843D01*
X147920338Y-103590721D01*
X147920336Y-103590718D01*
X147920334Y-103590713D01*
X147772574Y-103334787D01*
X147772570Y-103334780D01*
X147592659Y-103100316D01*
X147592654Y-103100310D01*
X147383689Y-102891345D01*
X147383682Y-102891339D01*
X147149228Y-102711436D01*
X147149226Y-102711434D01*
X147149220Y-102711430D01*
X147149215Y-102711427D01*
X147149212Y-102711425D01*
X146893286Y-102563665D01*
X146893275Y-102563660D01*
X146620242Y-102450566D01*
X146470633Y-102410479D01*
X146334775Y-102374076D01*
X146269662Y-102365503D01*
X146041775Y-102335500D01*
X146041768Y-102335500D01*
X145746232Y-102335500D01*
X145746224Y-102335500D01*
X145485781Y-102369789D01*
X145453225Y-102374076D01*
X145381858Y-102393198D01*
X145167757Y-102450566D01*
X144894724Y-102563660D01*
X144894713Y-102563665D01*
X144638787Y-102711425D01*
X144638771Y-102711436D01*
X144404317Y-102891339D01*
X144404310Y-102891345D01*
X144195345Y-103100310D01*
X144195339Y-103100317D01*
X144015436Y-103334771D01*
X144015425Y-103334787D01*
X143867665Y-103590713D01*
X143867660Y-103590724D01*
X143754566Y-103863757D01*
X143711986Y-104022671D01*
X143678076Y-104149225D01*
X143676984Y-104157517D01*
X143639500Y-104442224D01*
X141934174Y-104442224D01*
X141915688Y-104325508D01*
X141880474Y-104217129D01*
X141860750Y-104156424D01*
X141812593Y-104061912D01*
X141780035Y-103998013D01*
X141742177Y-103945905D01*
X141675540Y-103854185D01*
X141650213Y-103828858D01*
X141616728Y-103767535D01*
X141621712Y-103697843D01*
X141663584Y-103641910D01*
X141729048Y-103617493D01*
X141757285Y-103618703D01*
X141958038Y-103650500D01*
X141958039Y-103650500D01*
X142209961Y-103650500D01*
X142209962Y-103650500D01*
X142458785Y-103611090D01*
X142698379Y-103533241D01*
X142922845Y-103418870D01*
X143126656Y-103270793D01*
X143304793Y-103092656D01*
X143452870Y-102888845D01*
X143567241Y-102664379D01*
X143645090Y-102424785D01*
X143684500Y-102175962D01*
X143684500Y-101924038D01*
X143645090Y-101675215D01*
X143567241Y-101435621D01*
X143567239Y-101435618D01*
X143567239Y-101435616D01*
X143492551Y-101289034D01*
X143452870Y-101211155D01*
X143413204Y-101156559D01*
X143304798Y-101007350D01*
X143304794Y-101007345D01*
X143126654Y-100829205D01*
X143126649Y-100829201D01*
X142922848Y-100681132D01*
X142922847Y-100681131D01*
X142922845Y-100681130D01*
X142814032Y-100625687D01*
X142698383Y-100566760D01*
X142458785Y-100488910D01*
X142402025Y-100479920D01*
X142209962Y-100449500D01*
X141958038Y-100449500D01*
X141835489Y-100468910D01*
X141709214Y-100488910D01*
X141469616Y-100566760D01*
X141245151Y-100681132D01*
X141041350Y-100829201D01*
X141041345Y-100829205D01*
X140863205Y-101007345D01*
X140863201Y-101007350D01*
X140715132Y-101211151D01*
X140600760Y-101435616D01*
X140529408Y-101655215D01*
X140522910Y-101675215D01*
X140483500Y-101924038D01*
X140483500Y-102175962D01*
X140512025Y-102356059D01*
X140522910Y-102424785D01*
X140600760Y-102664383D01*
X140631997Y-102725688D01*
X140710412Y-102879586D01*
X140715132Y-102888848D01*
X140863201Y-103092649D01*
X140863205Y-103092654D01*
X141022952Y-103252401D01*
X141056437Y-103313724D01*
X141051453Y-103383416D01*
X141009581Y-103439349D01*
X140944117Y-103463766D01*
X140915879Y-103462556D01*
X140902894Y-103460500D01*
X140725106Y-103460500D01*
X140675783Y-103468312D01*
X140549506Y-103488312D01*
X140380424Y-103543249D01*
X140222009Y-103623967D01*
X140078185Y-103728459D01*
X139952459Y-103854185D01*
X139847967Y-103998009D01*
X139767249Y-104156424D01*
X139712312Y-104325506D01*
X139684500Y-104501106D01*
X135573500Y-104501106D01*
X135573500Y-104481106D01*
X135545688Y-104305508D01*
X135497248Y-104156424D01*
X135490750Y-104136424D01*
X135452784Y-104061912D01*
X135410035Y-103978013D01*
X135403320Y-103968771D01*
X135305540Y-103834185D01*
X135179814Y-103708459D01*
X135035990Y-103603967D01*
X135035989Y-103603966D01*
X135035987Y-103603965D01*
X134916826Y-103543249D01*
X134877575Y-103523249D01*
X134708493Y-103468312D01*
X134620693Y-103454406D01*
X134532894Y-103440500D01*
X134355106Y-103440500D01*
X134296573Y-103449770D01*
X134179506Y-103468312D01*
X134010424Y-103523249D01*
X133852009Y-103603967D01*
X133708185Y-103708459D01*
X133582459Y-103834185D01*
X133477967Y-103978009D01*
X133397249Y-104136424D01*
X133342312Y-104305506D01*
X133314500Y-104481106D01*
X131618500Y-104481106D01*
X131618500Y-104422232D01*
X131579924Y-104129225D01*
X131503434Y-103843760D01*
X131497261Y-103828858D01*
X131410213Y-103618704D01*
X131390338Y-103570721D01*
X131390336Y-103570718D01*
X131390334Y-103570713D01*
X131242574Y-103314787D01*
X131242570Y-103314780D01*
X131121800Y-103157390D01*
X131062660Y-103080317D01*
X131062654Y-103080310D01*
X130853689Y-102871345D01*
X130853682Y-102871339D01*
X130619228Y-102691436D01*
X130619226Y-102691434D01*
X130619220Y-102691430D01*
X130619215Y-102691427D01*
X130619212Y-102691425D01*
X130363286Y-102543665D01*
X130363275Y-102543660D01*
X130090242Y-102430566D01*
X129905462Y-102381055D01*
X129804775Y-102354076D01*
X129739662Y-102345503D01*
X129511775Y-102315500D01*
X129511768Y-102315500D01*
X129216232Y-102315500D01*
X129216224Y-102315500D01*
X128955781Y-102349789D01*
X128923225Y-102354076D01*
X128851858Y-102373198D01*
X128637757Y-102430566D01*
X128364724Y-102543660D01*
X128364713Y-102543665D01*
X128108787Y-102691425D01*
X128108771Y-102691436D01*
X127874317Y-102871339D01*
X127874310Y-102871345D01*
X127665345Y-103080310D01*
X127665339Y-103080317D01*
X127485436Y-103314771D01*
X127485425Y-103314787D01*
X127337665Y-103570713D01*
X127337660Y-103570724D01*
X127224566Y-103843757D01*
X127176627Y-104022671D01*
X127148076Y-104129225D01*
X127144495Y-104156422D01*
X127109500Y-104422224D01*
X125404174Y-104422224D01*
X125385688Y-104305508D01*
X125337248Y-104156424D01*
X125330750Y-104136424D01*
X125292784Y-104061912D01*
X125250035Y-103978013D01*
X125243320Y-103968771D01*
X125145540Y-103834185D01*
X125120213Y-103808858D01*
X125086728Y-103747535D01*
X125091712Y-103677843D01*
X125133584Y-103621910D01*
X125199048Y-103597493D01*
X125227285Y-103598703D01*
X125428038Y-103630500D01*
X125428039Y-103630500D01*
X125679961Y-103630500D01*
X125679962Y-103630500D01*
X125928785Y-103591090D01*
X126168379Y-103513241D01*
X126392845Y-103398870D01*
X126596656Y-103250793D01*
X126774793Y-103072656D01*
X126922870Y-102868845D01*
X127037241Y-102644379D01*
X127115090Y-102404785D01*
X127154500Y-102155962D01*
X127154500Y-101904038D01*
X127115090Y-101655215D01*
X127037241Y-101415621D01*
X127037239Y-101415618D01*
X127037239Y-101415616D01*
X126991604Y-101326054D01*
X126922870Y-101191155D01*
X126847682Y-101087667D01*
X126774798Y-100987350D01*
X126774794Y-100987345D01*
X126596654Y-100809205D01*
X126596649Y-100809201D01*
X126392848Y-100661132D01*
X126392847Y-100661131D01*
X126392845Y-100661130D01*
X126322747Y-100625413D01*
X126168383Y-100546760D01*
X125928785Y-100468910D01*
X125679962Y-100429500D01*
X125428038Y-100429500D01*
X125303626Y-100449205D01*
X125179214Y-100468910D01*
X124939616Y-100546760D01*
X124715151Y-100661132D01*
X124511350Y-100809201D01*
X124511345Y-100809205D01*
X124333205Y-100987345D01*
X124333201Y-100987350D01*
X124185132Y-101191151D01*
X124070760Y-101415616D01*
X123992910Y-101655214D01*
X123992910Y-101655215D01*
X123953500Y-101904038D01*
X123953500Y-102155962D01*
X123988021Y-102373916D01*
X123992910Y-102404785D01*
X124070760Y-102644383D01*
X124149413Y-102798747D01*
X124172980Y-102845000D01*
X124185132Y-102868848D01*
X124333201Y-103072649D01*
X124333205Y-103072654D01*
X124492952Y-103232401D01*
X124526437Y-103293724D01*
X124521453Y-103363416D01*
X124479581Y-103419349D01*
X124414117Y-103443766D01*
X124385879Y-103442556D01*
X124372894Y-103440500D01*
X124195106Y-103440500D01*
X124136573Y-103449770D01*
X124019506Y-103468312D01*
X123850424Y-103523249D01*
X123692009Y-103603967D01*
X123548185Y-103708459D01*
X123422459Y-103834185D01*
X123317967Y-103978009D01*
X123237249Y-104136424D01*
X123182312Y-104305506D01*
X123154500Y-104481106D01*
X109681048Y-104481106D01*
X109681048Y-99364071D01*
X130304000Y-99364071D01*
X130304000Y-99615928D01*
X130343397Y-99864669D01*
X130421219Y-100104184D01*
X130535557Y-100328583D01*
X130609748Y-100430697D01*
X130609748Y-100430698D01*
X131226421Y-99814024D01*
X131239359Y-99845258D01*
X131321437Y-99968097D01*
X131425903Y-100072563D01*
X131548742Y-100154641D01*
X131579974Y-100167577D01*
X130963300Y-100784250D01*
X131065416Y-100858442D01*
X131289815Y-100972780D01*
X131529330Y-101050602D01*
X131778072Y-101090000D01*
X132029928Y-101090000D01*
X132278669Y-101050602D01*
X132518184Y-100972780D01*
X132742575Y-100858446D01*
X132742581Y-100858442D01*
X132844697Y-100784250D01*
X132844698Y-100784250D01*
X132228025Y-100167578D01*
X132259258Y-100154641D01*
X132382097Y-100072563D01*
X132486563Y-99968097D01*
X132568641Y-99845258D01*
X132581577Y-99814025D01*
X133198250Y-100430698D01*
X133198250Y-100430697D01*
X133272442Y-100328581D01*
X133272446Y-100328575D01*
X133386780Y-100104184D01*
X133464602Y-99864669D01*
X133504000Y-99615928D01*
X133504000Y-99384071D01*
X146834000Y-99384071D01*
X146834000Y-99635928D01*
X146873397Y-99884669D01*
X146951219Y-100124184D01*
X147065557Y-100348583D01*
X147139748Y-100450697D01*
X147139748Y-100450698D01*
X147756421Y-99834024D01*
X147769359Y-99865258D01*
X147851437Y-99988097D01*
X147955903Y-100092563D01*
X148078742Y-100174641D01*
X148109974Y-100187577D01*
X147493300Y-100804250D01*
X147595416Y-100878442D01*
X147819815Y-100992780D01*
X148059330Y-101070602D01*
X148308072Y-101110000D01*
X148559928Y-101110000D01*
X148808669Y-101070602D01*
X149048184Y-100992780D01*
X149272575Y-100878446D01*
X149272581Y-100878442D01*
X149374697Y-100804250D01*
X149374698Y-100804250D01*
X148758025Y-100187578D01*
X148789258Y-100174641D01*
X148912097Y-100092563D01*
X149016563Y-99988097D01*
X149098641Y-99865258D01*
X149111577Y-99834025D01*
X149728250Y-100450698D01*
X149728250Y-100450697D01*
X149802442Y-100348581D01*
X149802446Y-100348575D01*
X149916780Y-100124184D01*
X149994602Y-99884669D01*
X150034000Y-99635928D01*
X150034000Y-99384071D01*
X163094000Y-99384071D01*
X163094000Y-99635928D01*
X163133397Y-99884669D01*
X163211219Y-100124184D01*
X163325557Y-100348583D01*
X163399748Y-100450697D01*
X163399748Y-100450698D01*
X164016421Y-99834024D01*
X164029359Y-99865258D01*
X164111437Y-99988097D01*
X164215903Y-100092563D01*
X164338742Y-100174641D01*
X164369974Y-100187577D01*
X163753300Y-100804250D01*
X163855416Y-100878442D01*
X164079815Y-100992780D01*
X164319330Y-101070602D01*
X164568072Y-101110000D01*
X164819928Y-101110000D01*
X165068669Y-101070602D01*
X165308184Y-100992780D01*
X165532575Y-100878446D01*
X165532581Y-100878442D01*
X165634697Y-100804250D01*
X165634698Y-100804250D01*
X165537725Y-100707277D01*
X165456131Y-100625683D01*
X173785500Y-100625683D01*
X173785500Y-100774316D01*
X173814493Y-100920072D01*
X173814495Y-100920080D01*
X173871369Y-101057387D01*
X173871375Y-101057398D01*
X173891601Y-101087667D01*
X173912480Y-101154344D01*
X173912500Y-101156559D01*
X173912500Y-102343440D01*
X173892815Y-102410479D01*
X173891603Y-102412329D01*
X173871371Y-102442608D01*
X173814495Y-102579919D01*
X173814493Y-102579927D01*
X173785500Y-102725683D01*
X173785500Y-102874316D01*
X173814493Y-103020072D01*
X173814495Y-103020080D01*
X173871371Y-103157391D01*
X173953939Y-103280964D01*
X173953945Y-103280971D01*
X174059028Y-103386054D01*
X174059035Y-103386060D01*
X174182608Y-103468628D01*
X174182609Y-103468628D01*
X174182610Y-103468629D01*
X174319920Y-103525505D01*
X174465683Y-103554499D01*
X174465687Y-103554500D01*
X174465688Y-103554500D01*
X174614313Y-103554500D01*
X174614314Y-103554499D01*
X174760080Y-103525505D01*
X174897390Y-103468629D01*
X175020966Y-103386059D01*
X175126059Y-103280966D01*
X175208629Y-103157390D01*
X175265505Y-103020080D01*
X175294500Y-102874312D01*
X175294500Y-102725688D01*
X175265505Y-102579920D01*
X175208629Y-102442610D01*
X175200582Y-102430566D01*
X175188397Y-102412329D01*
X175167520Y-102345651D01*
X175167500Y-102343440D01*
X175167500Y-101156559D01*
X175187185Y-101089520D01*
X175188399Y-101087667D01*
X175208624Y-101057398D01*
X175208625Y-101057395D01*
X175208629Y-101057390D01*
X175265505Y-100920080D01*
X175294500Y-100774312D01*
X175294500Y-100625688D01*
X175265505Y-100479920D01*
X175208629Y-100342610D01*
X175199255Y-100328581D01*
X175126060Y-100219035D01*
X175126054Y-100219028D01*
X175020971Y-100113945D01*
X175020964Y-100113939D01*
X174897391Y-100031371D01*
X174760080Y-99974495D01*
X174760072Y-99974493D01*
X174614316Y-99945500D01*
X174614312Y-99945500D01*
X174465688Y-99945500D01*
X174465683Y-99945500D01*
X174319927Y-99974493D01*
X174319919Y-99974495D01*
X174182608Y-100031371D01*
X174059035Y-100113939D01*
X174059028Y-100113945D01*
X173953945Y-100219028D01*
X173953939Y-100219035D01*
X173871371Y-100342608D01*
X173814495Y-100479919D01*
X173814493Y-100479927D01*
X173785500Y-100625683D01*
X165456131Y-100625683D01*
X165018025Y-100187578D01*
X165049258Y-100174641D01*
X165172097Y-100092563D01*
X165276563Y-99988097D01*
X165358641Y-99865258D01*
X165371578Y-99834025D01*
X165988250Y-100450698D01*
X165988250Y-100450697D01*
X166062442Y-100348581D01*
X166062446Y-100348575D01*
X166176780Y-100124184D01*
X166254602Y-99884669D01*
X166294000Y-99635928D01*
X166294000Y-99384071D01*
X166254602Y-99135330D01*
X166176780Y-98895815D01*
X166062442Y-98671416D01*
X165988250Y-98569301D01*
X165988250Y-98569300D01*
X165371577Y-99185973D01*
X165358641Y-99154742D01*
X165276563Y-99031903D01*
X165172097Y-98927437D01*
X165049258Y-98845359D01*
X165018024Y-98832421D01*
X165634698Y-98215748D01*
X165532583Y-98141557D01*
X165308184Y-98027219D01*
X165068669Y-97949397D01*
X164819928Y-97910000D01*
X164568072Y-97910000D01*
X164319330Y-97949397D01*
X164079815Y-98027219D01*
X163855413Y-98141559D01*
X163753301Y-98215747D01*
X163753300Y-98215748D01*
X164369974Y-98832421D01*
X164338742Y-98845359D01*
X164215903Y-98927437D01*
X164111437Y-99031903D01*
X164029359Y-99154742D01*
X164016421Y-99185974D01*
X163399748Y-98569300D01*
X163399747Y-98569301D01*
X163325559Y-98671413D01*
X163211219Y-98895815D01*
X163133397Y-99135330D01*
X163094000Y-99384071D01*
X150034000Y-99384071D01*
X149994602Y-99135330D01*
X149916780Y-98895815D01*
X149802442Y-98671416D01*
X149728250Y-98569301D01*
X149728250Y-98569300D01*
X149111577Y-99185973D01*
X149098641Y-99154742D01*
X149016563Y-99031903D01*
X148912097Y-98927437D01*
X148789258Y-98845359D01*
X148758024Y-98832421D01*
X149374698Y-98215748D01*
X149272583Y-98141557D01*
X149048184Y-98027219D01*
X148808669Y-97949397D01*
X148559928Y-97910000D01*
X148308072Y-97910000D01*
X148059330Y-97949397D01*
X147819815Y-98027219D01*
X147595413Y-98141559D01*
X147493301Y-98215747D01*
X147493300Y-98215748D01*
X148109974Y-98832421D01*
X148078742Y-98845359D01*
X147955903Y-98927437D01*
X147851437Y-99031903D01*
X147769359Y-99154742D01*
X147756421Y-99185974D01*
X147139748Y-98569300D01*
X147139747Y-98569301D01*
X147065559Y-98671413D01*
X146951219Y-98895815D01*
X146873397Y-99135330D01*
X146834000Y-99384071D01*
X133504000Y-99384071D01*
X133504000Y-99364071D01*
X133464602Y-99115330D01*
X133386780Y-98875815D01*
X133272442Y-98651416D01*
X133198250Y-98549301D01*
X133198250Y-98549300D01*
X132581577Y-99165973D01*
X132568641Y-99134742D01*
X132486563Y-99011903D01*
X132382097Y-98907437D01*
X132259258Y-98825359D01*
X132228024Y-98812421D01*
X132844698Y-98195748D01*
X132742583Y-98121557D01*
X132518184Y-98007219D01*
X132278669Y-97929397D01*
X132029928Y-97890000D01*
X131778072Y-97890000D01*
X131529330Y-97929397D01*
X131289815Y-98007219D01*
X131065413Y-98121559D01*
X130963301Y-98195747D01*
X130963300Y-98195748D01*
X131579974Y-98812421D01*
X131548742Y-98825359D01*
X131425903Y-98907437D01*
X131321437Y-99011903D01*
X131239359Y-99134742D01*
X131226421Y-99165974D01*
X130609748Y-98549300D01*
X130609747Y-98549301D01*
X130535559Y-98651413D01*
X130421219Y-98875815D01*
X130343397Y-99115330D01*
X130304000Y-99364071D01*
X109681048Y-99364071D01*
X109681048Y-94968386D01*
X116564500Y-94968386D01*
X116564500Y-95631613D01*
X116570913Y-95702192D01*
X116570913Y-95702194D01*
X116570914Y-95702196D01*
X116621522Y-95864606D01*
X116667197Y-95940162D01*
X116709530Y-96010188D01*
X116829811Y-96130469D01*
X116829813Y-96130470D01*
X116829815Y-96130472D01*
X116975394Y-96218478D01*
X117137804Y-96269086D01*
X117208384Y-96275500D01*
X117208387Y-96275500D01*
X117721613Y-96275500D01*
X117721616Y-96275500D01*
X117792196Y-96269086D01*
X117954606Y-96218478D01*
X118100185Y-96130472D01*
X118100189Y-96130468D01*
X118202319Y-96028339D01*
X118263642Y-95994854D01*
X118333334Y-95999838D01*
X118377681Y-96028339D01*
X118479811Y-96130469D01*
X118479813Y-96130470D01*
X118479815Y-96130472D01*
X118625394Y-96218478D01*
X118787804Y-96269086D01*
X118858384Y-96275500D01*
X118858387Y-96275500D01*
X119371613Y-96275500D01*
X119371616Y-96275500D01*
X119442196Y-96269086D01*
X119604606Y-96218478D01*
X119750185Y-96130472D01*
X119870472Y-96010185D01*
X119884277Y-95987349D01*
X119935805Y-95940162D01*
X119990393Y-95927500D01*
X123461804Y-95927500D01*
X123461805Y-95927499D01*
X123583035Y-95903386D01*
X123663784Y-95869937D01*
X123697233Y-95856083D01*
X123800008Y-95787411D01*
X123887411Y-95700008D01*
X125237411Y-94350008D01*
X125403600Y-94183819D01*
X125464923Y-94150334D01*
X125491281Y-94147500D01*
X126643440Y-94147500D01*
X126710479Y-94167185D01*
X126712329Y-94168397D01*
X126742608Y-94188628D01*
X126742609Y-94188628D01*
X126742610Y-94188629D01*
X126879920Y-94245505D01*
X127025683Y-94274499D01*
X127025687Y-94274500D01*
X127025688Y-94274500D01*
X127174313Y-94274500D01*
X127174314Y-94274499D01*
X127320080Y-94245505D01*
X127457390Y-94188629D01*
X127580966Y-94106059D01*
X127686059Y-94000966D01*
X127768629Y-93877390D01*
X127825505Y-93740080D01*
X127854500Y-93594312D01*
X127854500Y-93445688D01*
X127825505Y-93299920D01*
X127768629Y-93162610D01*
X127686059Y-93039034D01*
X127686054Y-93039028D01*
X127580971Y-92933945D01*
X127580964Y-92933939D01*
X127457391Y-92851371D01*
X127320080Y-92794495D01*
X127320072Y-92794493D01*
X127174316Y-92765500D01*
X127174312Y-92765500D01*
X127025688Y-92765500D01*
X127025683Y-92765500D01*
X126879927Y-92794493D01*
X126879919Y-92794495D01*
X126742608Y-92851371D01*
X126712329Y-92871603D01*
X126645651Y-92892480D01*
X126643440Y-92892500D01*
X125118192Y-92892500D01*
X124996973Y-92916611D01*
X124996973Y-92916612D01*
X124996970Y-92916613D01*
X124996966Y-92916614D01*
X124930070Y-92944323D01*
X124930068Y-92944323D01*
X124882770Y-92963915D01*
X124882760Y-92963920D01*
X124799581Y-93019500D01*
X124799580Y-93019501D01*
X124779989Y-93032590D01*
X124779988Y-93032591D01*
X124349992Y-93462589D01*
X123176400Y-94636181D01*
X123115077Y-94669666D01*
X123088719Y-94672500D01*
X119990393Y-94672500D01*
X119923354Y-94652815D01*
X119898117Y-94631332D01*
X119890317Y-94622642D01*
X119870472Y-94589815D01*
X119776460Y-94495803D01*
X119774224Y-94493312D01*
X119760538Y-94464682D01*
X119745334Y-94436838D01*
X119744784Y-94431726D01*
X119744090Y-94430274D01*
X119744380Y-94427968D01*
X119742500Y-94410480D01*
X119742500Y-88429076D01*
X119762185Y-88362037D01*
X119763399Y-88360184D01*
X119778624Y-88337398D01*
X119778625Y-88337395D01*
X119778629Y-88337390D01*
X119835505Y-88200080D01*
X119864500Y-88054312D01*
X119864500Y-87905688D01*
X119835505Y-87759920D01*
X119778629Y-87622610D01*
X119775682Y-87618200D01*
X119696060Y-87499035D01*
X119696054Y-87499028D01*
X119590971Y-87393945D01*
X119590964Y-87393939D01*
X119467391Y-87311371D01*
X119330080Y-87254495D01*
X119330072Y-87254493D01*
X119184316Y-87225500D01*
X119184312Y-87225500D01*
X119035688Y-87225500D01*
X119035683Y-87225500D01*
X118889927Y-87254493D01*
X118889919Y-87254495D01*
X118752608Y-87311371D01*
X118629035Y-87393939D01*
X118629028Y-87393945D01*
X118523945Y-87499028D01*
X118523939Y-87499035D01*
X118441371Y-87622608D01*
X118384495Y-87759919D01*
X118384493Y-87759927D01*
X118355500Y-87905683D01*
X118355500Y-88054316D01*
X118384493Y-88200072D01*
X118384495Y-88200080D01*
X118441369Y-88337387D01*
X118441371Y-88337390D01*
X118466602Y-88375151D01*
X118487480Y-88441828D01*
X118487500Y-88444042D01*
X118487500Y-94410480D01*
X118478855Y-94439920D01*
X118472332Y-94469907D01*
X118468577Y-94474922D01*
X118467815Y-94477519D01*
X118451181Y-94498161D01*
X118377681Y-94571661D01*
X118316358Y-94605146D01*
X118246666Y-94600162D01*
X118202319Y-94571661D01*
X118100188Y-94469530D01*
X118092499Y-94464882D01*
X117954606Y-94381522D01*
X117792196Y-94330914D01*
X117792194Y-94330913D01*
X117792192Y-94330913D01*
X117742778Y-94326423D01*
X117721616Y-94324500D01*
X117208384Y-94324500D01*
X117189145Y-94326248D01*
X117137807Y-94330913D01*
X116975393Y-94381522D01*
X116829811Y-94469530D01*
X116709530Y-94589811D01*
X116621522Y-94735393D01*
X116570913Y-94897807D01*
X116564500Y-94968386D01*
X109681048Y-94968386D01*
X109681048Y-78245683D01*
X117865500Y-78245683D01*
X117865500Y-78394316D01*
X117894493Y-78540072D01*
X117894495Y-78540080D01*
X117951371Y-78677391D01*
X118033939Y-78800964D01*
X118033945Y-78800971D01*
X118139028Y-78906054D01*
X118139035Y-78906060D01*
X118262608Y-78988628D01*
X118262609Y-78988628D01*
X118262610Y-78988629D01*
X118399920Y-79045505D01*
X118545683Y-79074499D01*
X118545687Y-79074500D01*
X118545688Y-79074500D01*
X118694313Y-79074500D01*
X118694314Y-79074499D01*
X118840080Y-79045505D01*
X118977390Y-78988629D01*
X118999963Y-78973546D01*
X119016052Y-78962797D01*
X119082729Y-78941920D01*
X119084941Y-78941900D01*
X132961319Y-78941900D01*
X133028358Y-78961585D01*
X133074113Y-79014389D01*
X133084057Y-79083547D01*
X133055032Y-79147103D01*
X133049005Y-79153574D01*
X131729992Y-80472589D01*
X131642589Y-80559992D01*
X131573915Y-80662770D01*
X131567358Y-80678597D01*
X131567359Y-80678598D01*
X131526614Y-80776964D01*
X131526612Y-80776972D01*
X131502500Y-80898192D01*
X131502500Y-81931943D01*
X131482815Y-81998982D01*
X131481604Y-82000832D01*
X131460369Y-82032612D01*
X131403494Y-82169921D01*
X131403493Y-82169923D01*
X131396141Y-82206886D01*
X131363755Y-82268797D01*
X131362206Y-82270374D01*
X131046398Y-82586182D01*
X130985077Y-82619666D01*
X130958719Y-82622500D01*
X127948192Y-82622500D01*
X127826973Y-82646611D01*
X127826973Y-82646612D01*
X127826970Y-82646613D01*
X127826966Y-82646614D01*
X127760070Y-82674323D01*
X127760068Y-82674323D01*
X127712769Y-82693915D01*
X127622106Y-82754495D01*
X127622104Y-82754496D01*
X127609995Y-82762586D01*
X127609990Y-82762590D01*
X126196400Y-84176181D01*
X126135077Y-84209666D01*
X126108719Y-84212500D01*
X123741281Y-84212500D01*
X123711840Y-84203855D01*
X123681854Y-84197332D01*
X123676838Y-84193577D01*
X123674242Y-84192815D01*
X123653600Y-84176181D01*
X123546545Y-84069126D01*
X123513060Y-84007803D01*
X123512622Y-84005702D01*
X123505505Y-83969920D01*
X123448629Y-83832610D01*
X123426893Y-83800080D01*
X123366060Y-83709035D01*
X123366054Y-83709028D01*
X123260971Y-83603945D01*
X123260964Y-83603939D01*
X123137391Y-83521371D01*
X123000080Y-83464495D01*
X123000072Y-83464493D01*
X122854316Y-83435500D01*
X122854312Y-83435500D01*
X122705688Y-83435500D01*
X122705683Y-83435500D01*
X122559927Y-83464493D01*
X122559919Y-83464495D01*
X122422608Y-83521371D01*
X122299035Y-83603939D01*
X122299028Y-83603945D01*
X122193945Y-83709028D01*
X122193939Y-83709035D01*
X122111371Y-83832608D01*
X122054495Y-83969919D01*
X122054493Y-83969927D01*
X122025500Y-84115683D01*
X122025500Y-84264316D01*
X122054493Y-84410072D01*
X122054495Y-84410080D01*
X122111371Y-84547391D01*
X122193939Y-84670964D01*
X122193945Y-84670971D01*
X122299028Y-84776054D01*
X122299035Y-84776060D01*
X122422608Y-84858628D01*
X122422609Y-84858628D01*
X122422610Y-84858629D01*
X122559920Y-84915505D01*
X122595635Y-84922609D01*
X122657546Y-84954992D01*
X122659126Y-84956545D01*
X122942589Y-85240008D01*
X122993053Y-85290472D01*
X123029993Y-85327412D01*
X123132760Y-85396079D01*
X123132773Y-85396086D01*
X123168132Y-85410732D01*
X123168133Y-85410732D01*
X123246966Y-85443386D01*
X123368192Y-85467499D01*
X123368196Y-85467500D01*
X123368197Y-85467500D01*
X125781640Y-85467500D01*
X125848679Y-85487185D01*
X125894434Y-85539989D01*
X125904378Y-85609147D01*
X125875353Y-85672703D01*
X125869321Y-85679181D01*
X120763966Y-90784534D01*
X120702643Y-90818019D01*
X120700477Y-90818470D01*
X120619925Y-90834493D01*
X120619921Y-90834494D01*
X120482608Y-90891371D01*
X120359035Y-90973939D01*
X120359028Y-90973945D01*
X120253945Y-91079028D01*
X120253939Y-91079035D01*
X120171371Y-91202608D01*
X120114495Y-91339919D01*
X120114493Y-91339927D01*
X120085500Y-91485683D01*
X120085500Y-91634316D01*
X120114493Y-91780072D01*
X120114495Y-91780080D01*
X120171371Y-91917391D01*
X120253939Y-92040964D01*
X120253945Y-92040971D01*
X120359028Y-92146054D01*
X120359035Y-92146060D01*
X120482608Y-92228628D01*
X120482609Y-92228628D01*
X120482610Y-92228629D01*
X120619920Y-92285505D01*
X120765683Y-92314499D01*
X120765687Y-92314500D01*
X120765688Y-92314500D01*
X120914313Y-92314500D01*
X120914314Y-92314499D01*
X121060080Y-92285505D01*
X121197390Y-92228629D01*
X121320966Y-92146059D01*
X121426059Y-92040966D01*
X121508629Y-91917390D01*
X121565505Y-91780080D01*
X121581529Y-91699519D01*
X121613911Y-91637612D01*
X121615406Y-91636090D01*
X128523079Y-84728419D01*
X128584402Y-84694934D01*
X128610760Y-84692100D01*
X138075426Y-84692100D01*
X138142465Y-84711785D01*
X138144315Y-84712996D01*
X138212610Y-84758629D01*
X138349920Y-84815505D01*
X138464016Y-84838200D01*
X138495683Y-84844499D01*
X138495687Y-84844500D01*
X138495688Y-84844500D01*
X138644313Y-84844500D01*
X138644314Y-84844499D01*
X138790080Y-84815505D01*
X138927390Y-84758629D01*
X139050966Y-84676059D01*
X139056418Y-84670607D01*
X139066219Y-84660807D01*
X139127542Y-84627322D01*
X139197234Y-84632306D01*
X139253167Y-84674178D01*
X139277584Y-84739642D01*
X139277900Y-84748488D01*
X139277900Y-86049240D01*
X139258215Y-86116279D01*
X139241581Y-86136921D01*
X138856921Y-86521581D01*
X138795598Y-86555066D01*
X138769240Y-86557900D01*
X131910732Y-86557900D01*
X131834165Y-86578416D01*
X131757596Y-86598933D01*
X131757591Y-86598936D01*
X131640049Y-86666798D01*
X131640050Y-86666799D01*
X131620301Y-86678200D01*
X130828201Y-87470300D01*
X130828199Y-87470303D01*
X130748933Y-87607597D01*
X130746092Y-87618200D01*
X130707900Y-87760732D01*
X130707900Y-89560268D01*
X130723955Y-89620185D01*
X130748933Y-89713403D01*
X130748936Y-89713408D01*
X130818332Y-89833608D01*
X130818333Y-89833608D01*
X130828200Y-89850698D01*
X130828202Y-89850700D01*
X131353534Y-90376032D01*
X131387019Y-90437355D01*
X131387470Y-90439521D01*
X131403493Y-90520074D01*
X131403495Y-90520080D01*
X131460371Y-90657391D01*
X131542939Y-90780964D01*
X131542945Y-90780971D01*
X131648028Y-90886054D01*
X131648035Y-90886060D01*
X131771608Y-90968628D01*
X131771609Y-90968628D01*
X131771610Y-90968629D01*
X131908920Y-91025505D01*
X132054683Y-91054499D01*
X132054687Y-91054500D01*
X132054688Y-91054500D01*
X132203313Y-91054500D01*
X132203314Y-91054499D01*
X132349080Y-91025505D01*
X132486390Y-90968629D01*
X132609966Y-90886059D01*
X132715059Y-90780966D01*
X132748639Y-90730709D01*
X132802248Y-90685905D01*
X132871573Y-90677196D01*
X132934601Y-90707350D01*
X132939421Y-90711919D01*
X136009302Y-93781800D01*
X136146599Y-93861068D01*
X136299732Y-93902100D01*
X136299735Y-93902100D01*
X170659266Y-93902100D01*
X170659268Y-93902100D01*
X170812402Y-93861067D01*
X170949698Y-93781800D01*
X171061800Y-93669698D01*
X171363820Y-93367677D01*
X171425142Y-93334193D01*
X171494833Y-93339177D01*
X171550767Y-93381048D01*
X171575184Y-93446513D01*
X171575500Y-93455359D01*
X171575500Y-93524316D01*
X171604493Y-93670072D01*
X171604495Y-93670080D01*
X171661369Y-93807387D01*
X171661374Y-93807396D01*
X171707002Y-93875682D01*
X171727880Y-93942359D01*
X171727900Y-93944573D01*
X171727900Y-94577976D01*
X171708215Y-94645015D01*
X171707003Y-94646866D01*
X171646370Y-94737611D01*
X171589495Y-94874919D01*
X171589493Y-94874927D01*
X171560500Y-95020683D01*
X171560500Y-95169316D01*
X171589493Y-95315072D01*
X171589495Y-95315080D01*
X171646371Y-95452391D01*
X171728939Y-95575964D01*
X171728945Y-95575971D01*
X171834028Y-95681054D01*
X171834035Y-95681060D01*
X171957608Y-95763628D01*
X171957609Y-95763628D01*
X171957610Y-95763629D01*
X172094920Y-95820505D01*
X172240683Y-95849499D01*
X172240687Y-95849500D01*
X172240688Y-95849500D01*
X172389313Y-95849500D01*
X172389314Y-95849499D01*
X172535080Y-95820505D01*
X172672390Y-95763629D01*
X172795966Y-95681059D01*
X172901059Y-95575966D01*
X172983629Y-95452390D01*
X173040505Y-95315080D01*
X173069500Y-95169312D01*
X173069500Y-95020688D01*
X173040505Y-94874920D01*
X172983629Y-94737610D01*
X172974327Y-94723689D01*
X172952997Y-94691764D01*
X172932120Y-94625087D01*
X172932100Y-94622875D01*
X172932100Y-93944573D01*
X172951785Y-93877534D01*
X172952998Y-93875682D01*
X172998625Y-93807396D01*
X172998625Y-93807395D01*
X172998629Y-93807390D01*
X173055505Y-93670080D01*
X173084500Y-93524312D01*
X173084500Y-93375688D01*
X173055505Y-93229920D01*
X172998629Y-93092610D01*
X172958525Y-93032590D01*
X172916060Y-92969035D01*
X172916054Y-92969028D01*
X172810971Y-92863945D01*
X172810964Y-92863939D01*
X172687391Y-92781371D01*
X172550080Y-92724495D01*
X172550072Y-92724493D01*
X172404316Y-92695500D01*
X172404312Y-92695500D01*
X172335359Y-92695500D01*
X172268320Y-92675815D01*
X172222565Y-92623011D01*
X172212621Y-92553853D01*
X172241646Y-92490297D01*
X172247678Y-92483819D01*
X172847000Y-91884498D01*
X172897867Y-91796392D01*
X172926267Y-91747202D01*
X172967300Y-91594068D01*
X172967300Y-86236100D01*
X172986985Y-86169061D01*
X173039789Y-86123306D01*
X173091300Y-86112100D01*
X176439266Y-86112100D01*
X176439268Y-86112100D01*
X176592402Y-86071067D01*
X176729698Y-85991800D01*
X176841800Y-85879698D01*
X177241800Y-85479698D01*
X177321067Y-85342402D01*
X177362100Y-85189268D01*
X177362100Y-85030732D01*
X177362100Y-81410661D01*
X177381785Y-81343622D01*
X177382999Y-81341769D01*
X177402624Y-81312398D01*
X177402625Y-81312395D01*
X177402629Y-81312390D01*
X177459505Y-81175080D01*
X177488500Y-81029312D01*
X177488500Y-80880688D01*
X177459505Y-80734920D01*
X177402629Y-80597610D01*
X177377547Y-80560072D01*
X177320060Y-80474035D01*
X177320054Y-80474028D01*
X177214971Y-80368945D01*
X177214964Y-80368939D01*
X177091391Y-80286371D01*
X176954080Y-80229495D01*
X176954072Y-80229493D01*
X176808316Y-80200500D01*
X176808312Y-80200500D01*
X176659688Y-80200500D01*
X176659683Y-80200500D01*
X176513927Y-80229493D01*
X176513919Y-80229495D01*
X176376608Y-80286371D01*
X176253035Y-80368939D01*
X176253028Y-80368945D01*
X176147945Y-80474028D01*
X176147939Y-80474035D01*
X176065371Y-80597608D01*
X176008495Y-80734919D01*
X176008493Y-80734927D01*
X175979500Y-80880683D01*
X175979500Y-81029316D01*
X176008493Y-81175072D01*
X176008495Y-81175080D01*
X176065370Y-81312389D01*
X176065371Y-81312390D01*
X176137002Y-81419595D01*
X176157880Y-81486271D01*
X176157900Y-81488484D01*
X176157900Y-84783900D01*
X176138215Y-84850939D01*
X176085411Y-84896694D01*
X176033900Y-84907900D01*
X172889705Y-84907900D01*
X172822666Y-84888215D01*
X172820851Y-84887026D01*
X172722590Y-84821371D01*
X172722591Y-84821371D01*
X172722589Y-84821370D01*
X172585280Y-84764495D01*
X172585272Y-84764493D01*
X172439516Y-84735500D01*
X172439512Y-84735500D01*
X172290888Y-84735500D01*
X172290883Y-84735500D01*
X172145127Y-84764493D01*
X172145119Y-84764495D01*
X172007808Y-84821371D01*
X171884235Y-84903939D01*
X171884228Y-84903945D01*
X171779145Y-85009028D01*
X171779139Y-85009035D01*
X171696571Y-85132608D01*
X171639695Y-85269919D01*
X171639693Y-85269927D01*
X171610700Y-85415683D01*
X171610700Y-85564316D01*
X171639693Y-85710072D01*
X171639695Y-85710080D01*
X171696569Y-85847387D01*
X171696574Y-85847396D01*
X171742202Y-85915682D01*
X171763080Y-85982359D01*
X171763100Y-85984573D01*
X171763100Y-91214039D01*
X171754455Y-91243478D01*
X171747932Y-91273466D01*
X171744177Y-91278481D01*
X171743415Y-91281078D01*
X171726781Y-91301721D01*
X171629082Y-91399419D01*
X171567758Y-91432903D01*
X171498067Y-91427919D01*
X171472512Y-91414840D01*
X171407258Y-91371239D01*
X171407259Y-91371239D01*
X171407257Y-91371238D01*
X171269948Y-91314363D01*
X171269940Y-91314361D01*
X171124184Y-91285368D01*
X171124180Y-91285368D01*
X170975556Y-91285368D01*
X170975551Y-91285368D01*
X170829795Y-91314361D01*
X170829787Y-91314363D01*
X170692476Y-91371239D01*
X170568903Y-91453807D01*
X170568896Y-91453813D01*
X170523781Y-91498929D01*
X170462458Y-91532414D01*
X170392766Y-91527430D01*
X170336833Y-91485558D01*
X170312416Y-91420094D01*
X170312100Y-91411248D01*
X170312100Y-86600734D01*
X170312100Y-86600732D01*
X170292780Y-86528629D01*
X170271068Y-86447599D01*
X170231434Y-86378950D01*
X170191802Y-86310305D01*
X170191798Y-86310300D01*
X169584700Y-85703201D01*
X169584698Y-85703200D01*
X169571180Y-85695396D01*
X169571175Y-85695393D01*
X169447404Y-85623934D01*
X169447403Y-85623933D01*
X169392221Y-85609147D01*
X169294268Y-85582900D01*
X169294266Y-85582900D01*
X168314920Y-85582900D01*
X168285479Y-85574255D01*
X168255493Y-85567732D01*
X168250477Y-85563977D01*
X168247881Y-85563215D01*
X168227239Y-85546581D01*
X168128339Y-85447681D01*
X168094854Y-85386358D01*
X168099838Y-85316666D01*
X168128339Y-85272319D01*
X168230468Y-85170189D01*
X168230469Y-85170188D01*
X168230472Y-85170185D01*
X168318478Y-85024606D01*
X168369086Y-84862196D01*
X168375500Y-84791616D01*
X168375500Y-84278384D01*
X168369951Y-84217322D01*
X168383488Y-84148776D01*
X168431934Y-84098430D01*
X168493442Y-84082100D01*
X173375426Y-84082100D01*
X173442465Y-84101785D01*
X173444315Y-84102996D01*
X173512610Y-84148629D01*
X173649920Y-84205505D01*
X173777670Y-84230916D01*
X173795683Y-84234499D01*
X173795687Y-84234500D01*
X173795688Y-84234500D01*
X173944313Y-84234500D01*
X173944314Y-84234499D01*
X174090080Y-84205505D01*
X174227390Y-84148629D01*
X174350966Y-84066059D01*
X174456059Y-83960966D01*
X174538629Y-83837390D01*
X174595505Y-83700080D01*
X174624500Y-83554312D01*
X174624500Y-83405688D01*
X174595505Y-83259920D01*
X174538629Y-83122610D01*
X174533880Y-83115503D01*
X174456060Y-82999035D01*
X174456054Y-82999028D01*
X174350971Y-82893945D01*
X174350966Y-82893941D01*
X174339072Y-82885994D01*
X174294266Y-82832382D01*
X174285557Y-82763058D01*
X174315711Y-82700030D01*
X174345957Y-82675506D01*
X174369698Y-82661800D01*
X174481800Y-82549698D01*
X174675800Y-82355698D01*
X174755067Y-82218402D01*
X174796100Y-82065268D01*
X174796100Y-81906732D01*
X174796100Y-81449573D01*
X174815785Y-81382534D01*
X174816998Y-81380682D01*
X174862625Y-81312396D01*
X174862625Y-81312395D01*
X174862629Y-81312390D01*
X174919505Y-81175080D01*
X174948500Y-81029312D01*
X174948500Y-80880688D01*
X174919505Y-80734920D01*
X174862629Y-80597610D01*
X174837547Y-80560072D01*
X174780060Y-80474035D01*
X174780054Y-80474028D01*
X174674971Y-80368945D01*
X174674964Y-80368939D01*
X174551391Y-80286371D01*
X174414080Y-80229495D01*
X174414072Y-80229493D01*
X174268316Y-80200500D01*
X174268312Y-80200500D01*
X174119688Y-80200500D01*
X174119683Y-80200500D01*
X173973927Y-80229493D01*
X173973919Y-80229495D01*
X173836608Y-80286371D01*
X173713035Y-80368939D01*
X173713028Y-80368945D01*
X173607945Y-80474028D01*
X173607939Y-80474035D01*
X173525371Y-80597608D01*
X173468495Y-80734919D01*
X173468493Y-80734927D01*
X173439500Y-80880683D01*
X173439500Y-81029316D01*
X173468493Y-81175072D01*
X173468495Y-81175080D01*
X173525369Y-81312387D01*
X173525374Y-81312396D01*
X173571002Y-81380682D01*
X173576652Y-81398728D01*
X173586877Y-81414638D01*
X173591328Y-81445597D01*
X173591880Y-81447359D01*
X173591900Y-81449573D01*
X173591900Y-81453900D01*
X173572215Y-81520939D01*
X173519411Y-81566694D01*
X173467900Y-81577900D01*
X172377209Y-81577900D01*
X172310170Y-81558215D01*
X172264415Y-81505411D01*
X172254471Y-81436253D01*
X172274106Y-81385010D01*
X172322629Y-81312390D01*
X172379505Y-81175080D01*
X172408500Y-81029312D01*
X172408500Y-80880688D01*
X172379505Y-80734920D01*
X172322629Y-80597610D01*
X172240059Y-80474034D01*
X172236675Y-80468969D01*
X172237701Y-80468282D01*
X172212931Y-80409931D01*
X172212100Y-80395597D01*
X172212100Y-80010733D01*
X172212100Y-80010732D01*
X172171067Y-79857598D01*
X172091800Y-79720302D01*
X171979698Y-79608200D01*
X171729698Y-79358200D01*
X171592402Y-79278933D01*
X171592403Y-79278933D01*
X171541357Y-79265255D01*
X171439268Y-79237900D01*
X170460732Y-79237900D01*
X170358642Y-79265255D01*
X170307597Y-79278933D01*
X170170303Y-79358199D01*
X170170300Y-79358201D01*
X169896921Y-79631581D01*
X169835598Y-79665066D01*
X169809240Y-79667900D01*
X165304505Y-79667900D01*
X165237466Y-79648215D01*
X165235651Y-79647026D01*
X165137390Y-79581371D01*
X165137391Y-79581371D01*
X165137389Y-79581370D01*
X165000080Y-79524495D01*
X165000072Y-79524493D01*
X164854316Y-79495500D01*
X164854312Y-79495500D01*
X164705688Y-79495500D01*
X164705683Y-79495500D01*
X164559927Y-79524493D01*
X164559919Y-79524495D01*
X164422608Y-79581371D01*
X164299035Y-79663939D01*
X164299028Y-79663945D01*
X164193945Y-79769028D01*
X164193939Y-79769035D01*
X164111371Y-79892608D01*
X164054495Y-80029919D01*
X164054493Y-80029927D01*
X164025500Y-80175683D01*
X164025500Y-80324316D01*
X164054493Y-80470072D01*
X164054495Y-80470080D01*
X164111371Y-80607391D01*
X164193939Y-80730964D01*
X164193945Y-80730971D01*
X164299028Y-80836054D01*
X164299035Y-80836060D01*
X164422608Y-80918628D01*
X164422609Y-80918628D01*
X164422610Y-80918629D01*
X164559920Y-80975505D01*
X164705683Y-81004499D01*
X164705687Y-81004500D01*
X164705688Y-81004500D01*
X164854313Y-81004500D01*
X164854314Y-81004499D01*
X165000080Y-80975505D01*
X165137390Y-80918629D01*
X165175750Y-80892997D01*
X165242426Y-80872120D01*
X165244640Y-80872100D01*
X170189266Y-80872100D01*
X170189268Y-80872100D01*
X170342402Y-80831067D01*
X170479698Y-80751800D01*
X170591800Y-80639698D01*
X170753079Y-80478419D01*
X170780006Y-80463715D01*
X170805825Y-80447123D01*
X170812025Y-80446231D01*
X170814402Y-80444934D01*
X170840760Y-80442100D01*
X170864206Y-80442100D01*
X170931245Y-80461785D01*
X170977000Y-80514589D01*
X170986944Y-80583747D01*
X170978767Y-80613553D01*
X170928495Y-80734919D01*
X170928493Y-80734927D01*
X170899500Y-80880683D01*
X170899500Y-81029316D01*
X170928493Y-81175072D01*
X170928495Y-81175080D01*
X170973815Y-81284493D01*
X170985371Y-81312390D01*
X171032239Y-81382534D01*
X171033894Y-81385010D01*
X171054771Y-81451687D01*
X171036286Y-81519067D01*
X170984307Y-81565757D01*
X170930791Y-81577900D01*
X160454574Y-81577900D01*
X160387535Y-81558215D01*
X160385684Y-81557003D01*
X160343816Y-81529028D01*
X160317390Y-81511371D01*
X160303001Y-81505411D01*
X160180080Y-81454495D01*
X160180074Y-81454493D01*
X160099521Y-81438470D01*
X160037610Y-81406085D01*
X160036032Y-81404534D01*
X159449699Y-80818201D01*
X159449694Y-80818197D01*
X159427884Y-80805606D01*
X159414537Y-80797900D01*
X159312404Y-80738934D01*
X159312403Y-80738933D01*
X159261357Y-80725255D01*
X159159268Y-80697900D01*
X141270732Y-80697900D01*
X141194165Y-80718416D01*
X141117596Y-80738933D01*
X141117595Y-80738934D01*
X141095311Y-80751800D01*
X141015463Y-80797900D01*
X141006672Y-80802975D01*
X140980305Y-80818197D01*
X140980300Y-80818201D01*
X139398201Y-82400300D01*
X139398199Y-82400303D01*
X139318933Y-82537597D01*
X139318933Y-82537598D01*
X139281144Y-82678628D01*
X139277900Y-82690733D01*
X139277900Y-83431512D01*
X139258215Y-83498551D01*
X139205411Y-83544306D01*
X139136253Y-83554250D01*
X139072697Y-83525225D01*
X139066219Y-83519193D01*
X139050971Y-83503945D01*
X139050964Y-83503939D01*
X138927391Y-83421371D01*
X138790080Y-83364495D01*
X138790072Y-83364493D01*
X138644316Y-83335500D01*
X138644312Y-83335500D01*
X138495688Y-83335500D01*
X138495683Y-83335500D01*
X138349927Y-83364493D01*
X138349919Y-83364495D01*
X138212611Y-83421370D01*
X138144316Y-83467003D01*
X138077638Y-83487880D01*
X138075426Y-83487900D01*
X135757208Y-83487900D01*
X135690169Y-83468215D01*
X135644414Y-83415411D01*
X135634470Y-83346253D01*
X135663495Y-83282697D01*
X135678552Y-83268040D01*
X135680961Y-83266062D01*
X135680966Y-83266059D01*
X135786059Y-83160966D01*
X135868629Y-83037390D01*
X135925505Y-82900080D01*
X135954500Y-82754312D01*
X135954500Y-82605688D01*
X135925505Y-82459920D01*
X135868629Y-82322610D01*
X135859736Y-82309301D01*
X135786060Y-82199035D01*
X135786054Y-82199028D01*
X135680971Y-82093945D01*
X135680964Y-82093939D01*
X135557391Y-82011371D01*
X135420080Y-81954495D01*
X135420072Y-81954493D01*
X135384363Y-81947390D01*
X135373278Y-81942419D01*
X135364734Y-81941772D01*
X135348586Y-81931346D01*
X135333828Y-81924728D01*
X135326962Y-81919543D01*
X135310008Y-81902589D01*
X135265255Y-81872686D01*
X135262278Y-81870697D01*
X135262273Y-81870693D01*
X135207238Y-81833920D01*
X135207226Y-81833913D01*
X135173785Y-81820062D01*
X135093035Y-81786614D01*
X135093027Y-81786612D01*
X134971807Y-81762500D01*
X134971803Y-81762500D01*
X132881500Y-81762500D01*
X132814461Y-81742815D01*
X132768706Y-81690011D01*
X132757500Y-81638500D01*
X132757500Y-81271281D01*
X132777185Y-81204242D01*
X132793819Y-81183600D01*
X136417408Y-77560011D01*
X136417411Y-77560008D01*
X136425703Y-77547598D01*
X136486083Y-77457233D01*
X136525488Y-77362100D01*
X136533386Y-77343034D01*
X136557500Y-77221803D01*
X136557500Y-77098196D01*
X136557500Y-73858197D01*
X136557500Y-73858194D01*
X136533386Y-73736970D01*
X136533385Y-73736969D01*
X136533385Y-73736965D01*
X136504567Y-73667391D01*
X136486086Y-73622773D01*
X136486079Y-73622760D01*
X136417412Y-73519993D01*
X136417411Y-73519992D01*
X136330008Y-73432589D01*
X136102419Y-73205000D01*
X135866215Y-72968795D01*
X135866182Y-72968763D01*
X135720008Y-72822589D01*
X135714536Y-72818933D01*
X135705184Y-72812684D01*
X135705182Y-72812682D01*
X135617239Y-72753920D01*
X135617226Y-72753913D01*
X135583785Y-72740062D01*
X135503035Y-72706614D01*
X135503027Y-72706612D01*
X135381807Y-72682500D01*
X135381803Y-72682500D01*
X134536560Y-72682500D01*
X134469521Y-72662815D01*
X134467671Y-72661603D01*
X134437391Y-72641371D01*
X134300080Y-72584495D01*
X134300072Y-72584493D01*
X134154316Y-72555500D01*
X134154312Y-72555500D01*
X134005688Y-72555500D01*
X134005683Y-72555500D01*
X133859927Y-72584493D01*
X133859919Y-72584495D01*
X133722608Y-72641371D01*
X133599035Y-72723939D01*
X133599028Y-72723945D01*
X133493945Y-72829028D01*
X133493939Y-72829035D01*
X133411371Y-72952608D01*
X133354495Y-73089919D01*
X133354493Y-73089927D01*
X133325500Y-73235683D01*
X133325500Y-73384316D01*
X133354493Y-73530072D01*
X133354495Y-73530080D01*
X133411371Y-73667391D01*
X133493939Y-73790964D01*
X133493945Y-73790971D01*
X133599028Y-73896054D01*
X133599035Y-73896060D01*
X133722608Y-73978628D01*
X133722609Y-73978628D01*
X133722610Y-73978629D01*
X133859920Y-74035505D01*
X134005683Y-74064499D01*
X134005687Y-74064500D01*
X134005688Y-74064500D01*
X134154313Y-74064500D01*
X134154314Y-74064499D01*
X134300080Y-74035505D01*
X134437390Y-73978629D01*
X134453582Y-73967810D01*
X134467671Y-73958397D01*
X134534349Y-73937520D01*
X134536560Y-73937500D01*
X135008719Y-73937500D01*
X135038159Y-73946144D01*
X135068146Y-73952668D01*
X135073161Y-73956422D01*
X135075758Y-73957185D01*
X135096400Y-73973819D01*
X135266181Y-74143600D01*
X135299666Y-74204923D01*
X135302500Y-74231281D01*
X135302500Y-75085369D01*
X135282815Y-75152408D01*
X135230011Y-75198163D01*
X135160853Y-75208107D01*
X135109610Y-75188471D01*
X135007392Y-75120171D01*
X134870080Y-75063295D01*
X134870072Y-75063293D01*
X134724316Y-75034300D01*
X134724312Y-75034300D01*
X134575688Y-75034300D01*
X134575683Y-75034300D01*
X134429927Y-75063293D01*
X134429919Y-75063295D01*
X134292608Y-75120171D01*
X134169035Y-75202739D01*
X134169028Y-75202745D01*
X134063945Y-75307828D01*
X134063939Y-75307835D01*
X133981371Y-75431408D01*
X133924495Y-75568719D01*
X133924493Y-75568725D01*
X133900723Y-75688225D01*
X133868338Y-75750136D01*
X133866787Y-75751714D01*
X133340302Y-76278200D01*
X132476921Y-77141581D01*
X132415598Y-77175066D01*
X132389240Y-77177900D01*
X120974574Y-77177900D01*
X120907535Y-77158215D01*
X120905684Y-77157003D01*
X120882603Y-77141581D01*
X120837390Y-77111371D01*
X120700080Y-77054495D01*
X120700072Y-77054493D01*
X120554316Y-77025500D01*
X120554312Y-77025500D01*
X120405688Y-77025500D01*
X120405683Y-77025500D01*
X120259927Y-77054493D01*
X120259919Y-77054495D01*
X120122608Y-77111371D01*
X119999035Y-77193939D01*
X119999028Y-77193945D01*
X119893945Y-77299028D01*
X119893939Y-77299035D01*
X119811371Y-77422608D01*
X119754495Y-77559919D01*
X119754493Y-77559927D01*
X119738985Y-77637891D01*
X119706600Y-77699802D01*
X119645884Y-77734376D01*
X119617368Y-77737700D01*
X119144206Y-77737700D01*
X119077167Y-77718015D01*
X119075316Y-77716802D01*
X118977391Y-77651371D01*
X118840080Y-77594495D01*
X118840072Y-77594493D01*
X118694316Y-77565500D01*
X118694312Y-77565500D01*
X118545688Y-77565500D01*
X118545683Y-77565500D01*
X118399927Y-77594493D01*
X118399919Y-77594495D01*
X118262608Y-77651371D01*
X118139035Y-77733939D01*
X118139028Y-77733945D01*
X118033945Y-77839028D01*
X118033939Y-77839035D01*
X117951371Y-77962608D01*
X117894495Y-78099919D01*
X117894493Y-78099927D01*
X117865500Y-78245683D01*
X109681048Y-78245683D01*
X109681048Y-71586947D01*
X139959000Y-71586947D01*
X139959000Y-71823052D01*
X139995934Y-72056247D01*
X140068897Y-72280802D01*
X140176087Y-72491174D01*
X140236338Y-72574104D01*
X140236340Y-72574105D01*
X140935212Y-71875233D01*
X140946482Y-71917292D01*
X141018890Y-72042708D01*
X141121292Y-72145110D01*
X141246708Y-72217518D01*
X141288765Y-72228787D01*
X140589893Y-72927658D01*
X140672828Y-72987914D01*
X140883197Y-73095102D01*
X141107752Y-73168065D01*
X141107751Y-73168065D01*
X141340948Y-73205000D01*
X141577052Y-73205000D01*
X141810247Y-73168065D01*
X142034802Y-73095102D01*
X142245163Y-72987918D01*
X142245169Y-72987914D01*
X142328104Y-72927658D01*
X142328105Y-72927658D01*
X141629233Y-72228787D01*
X141671292Y-72217518D01*
X141796708Y-72145110D01*
X141899110Y-72042708D01*
X141971518Y-71917292D01*
X141982787Y-71875234D01*
X142681658Y-72574105D01*
X142681658Y-72574104D01*
X142741914Y-72491169D01*
X142741918Y-72491163D01*
X142849102Y-72280802D01*
X142922065Y-72056247D01*
X142959000Y-71823052D01*
X142959000Y-71586947D01*
X146459000Y-71586947D01*
X146459000Y-71823052D01*
X146495934Y-72056247D01*
X146568897Y-72280802D01*
X146676087Y-72491174D01*
X146736338Y-72574104D01*
X146736340Y-72574105D01*
X147435212Y-71875233D01*
X147446482Y-71917292D01*
X147518890Y-72042708D01*
X147621292Y-72145110D01*
X147746708Y-72217518D01*
X147788765Y-72228787D01*
X147089893Y-72927658D01*
X147172828Y-72987914D01*
X147383197Y-73095102D01*
X147607752Y-73168065D01*
X147607751Y-73168065D01*
X147840948Y-73205000D01*
X148077052Y-73205000D01*
X148310247Y-73168065D01*
X148534802Y-73095102D01*
X148745163Y-72987918D01*
X148745169Y-72987914D01*
X148828104Y-72927658D01*
X148828105Y-72927658D01*
X148129233Y-72228787D01*
X148171292Y-72217518D01*
X148296708Y-72145110D01*
X148399110Y-72042708D01*
X148471518Y-71917292D01*
X148482787Y-71875234D01*
X149181658Y-72574105D01*
X149181658Y-72574104D01*
X149241914Y-72491169D01*
X149241918Y-72491163D01*
X149349102Y-72280802D01*
X149422065Y-72056247D01*
X149459000Y-71823052D01*
X149459000Y-71586947D01*
X150219000Y-71586947D01*
X150219000Y-71823052D01*
X150255934Y-72056247D01*
X150328897Y-72280802D01*
X150436087Y-72491174D01*
X150496338Y-72574104D01*
X150496340Y-72574105D01*
X151195212Y-71875233D01*
X151206482Y-71917292D01*
X151278890Y-72042708D01*
X151381292Y-72145110D01*
X151506708Y-72217518D01*
X151548765Y-72228787D01*
X150849893Y-72927658D01*
X150932828Y-72987914D01*
X151143197Y-73095102D01*
X151367752Y-73168065D01*
X151367751Y-73168065D01*
X151600948Y-73205000D01*
X151837052Y-73205000D01*
X152070247Y-73168065D01*
X152294802Y-73095102D01*
X152505163Y-72987918D01*
X152505169Y-72987914D01*
X152588104Y-72927658D01*
X152588105Y-72927658D01*
X151889233Y-72228787D01*
X151931292Y-72217518D01*
X152056708Y-72145110D01*
X152159110Y-72042708D01*
X152231518Y-71917292D01*
X152242787Y-71875234D01*
X152941658Y-72574105D01*
X152941658Y-72574104D01*
X153001914Y-72491169D01*
X153001918Y-72491163D01*
X153109102Y-72280802D01*
X153182065Y-72056247D01*
X153219000Y-71823052D01*
X153219000Y-71586947D01*
X156719000Y-71586947D01*
X156719000Y-71823052D01*
X156755934Y-72056247D01*
X156828897Y-72280802D01*
X156936087Y-72491174D01*
X156996338Y-72574104D01*
X156996340Y-72574105D01*
X157695212Y-71875233D01*
X157706482Y-71917292D01*
X157778890Y-72042708D01*
X157881292Y-72145110D01*
X158006708Y-72217518D01*
X158048765Y-72228787D01*
X157349893Y-72927658D01*
X157432828Y-72987914D01*
X157643197Y-73095102D01*
X157867752Y-73168065D01*
X157867751Y-73168065D01*
X158100948Y-73205000D01*
X158337052Y-73205000D01*
X158570247Y-73168065D01*
X158794802Y-73095102D01*
X159005163Y-72987918D01*
X159005169Y-72987914D01*
X159088104Y-72927658D01*
X159088105Y-72927658D01*
X158389233Y-72228787D01*
X158431292Y-72217518D01*
X158556708Y-72145110D01*
X158659110Y-72042708D01*
X158731518Y-71917292D01*
X158742787Y-71875234D01*
X159441658Y-72574105D01*
X159441658Y-72574104D01*
X159501914Y-72491169D01*
X159501918Y-72491163D01*
X159609102Y-72280802D01*
X159682065Y-72056247D01*
X159719000Y-71823052D01*
X159719000Y-71586947D01*
X159682065Y-71353752D01*
X159609102Y-71129197D01*
X159501914Y-70918828D01*
X159441658Y-70835894D01*
X159441658Y-70835893D01*
X158742787Y-71534765D01*
X158731518Y-71492708D01*
X158659110Y-71367292D01*
X158556708Y-71264890D01*
X158431292Y-71192482D01*
X158389234Y-71181212D01*
X159088105Y-70482340D01*
X159088104Y-70482338D01*
X159005174Y-70422087D01*
X158794802Y-70314897D01*
X158570247Y-70241934D01*
X158570248Y-70241934D01*
X158337052Y-70205000D01*
X158100948Y-70205000D01*
X157867752Y-70241934D01*
X157643197Y-70314897D01*
X157432830Y-70422084D01*
X157349894Y-70482340D01*
X158048766Y-71181212D01*
X158006708Y-71192482D01*
X157881292Y-71264890D01*
X157778890Y-71367292D01*
X157706482Y-71492708D01*
X157695212Y-71534766D01*
X156996340Y-70835894D01*
X156936084Y-70918830D01*
X156828897Y-71129197D01*
X156755934Y-71353752D01*
X156719000Y-71586947D01*
X153219000Y-71586947D01*
X153182065Y-71353752D01*
X153109102Y-71129197D01*
X153001914Y-70918828D01*
X152941658Y-70835894D01*
X152941658Y-70835893D01*
X152242787Y-71534765D01*
X152231518Y-71492708D01*
X152159110Y-71367292D01*
X152056708Y-71264890D01*
X151931292Y-71192482D01*
X151889234Y-71181212D01*
X152588105Y-70482340D01*
X152588104Y-70482339D01*
X152505174Y-70422087D01*
X152294802Y-70314897D01*
X152070247Y-70241934D01*
X152070248Y-70241934D01*
X151837052Y-70205000D01*
X151600948Y-70205000D01*
X151367752Y-70241934D01*
X151143197Y-70314897D01*
X150932830Y-70422084D01*
X150849894Y-70482340D01*
X151548766Y-71181212D01*
X151506708Y-71192482D01*
X151381292Y-71264890D01*
X151278890Y-71367292D01*
X151206482Y-71492708D01*
X151195212Y-71534766D01*
X150496340Y-70835894D01*
X150436084Y-70918830D01*
X150328897Y-71129197D01*
X150255934Y-71353752D01*
X150219000Y-71586947D01*
X149459000Y-71586947D01*
X149422065Y-71353752D01*
X149349102Y-71129197D01*
X149241914Y-70918828D01*
X149181658Y-70835894D01*
X149181658Y-70835893D01*
X148482787Y-71534765D01*
X148471518Y-71492708D01*
X148399110Y-71367292D01*
X148296708Y-71264890D01*
X148171292Y-71192482D01*
X148129234Y-71181212D01*
X148828105Y-70482340D01*
X148828104Y-70482339D01*
X148745174Y-70422087D01*
X148534802Y-70314897D01*
X148310247Y-70241934D01*
X148310248Y-70241934D01*
X148077052Y-70205000D01*
X147840948Y-70205000D01*
X147607752Y-70241934D01*
X147383197Y-70314897D01*
X147172830Y-70422084D01*
X147089894Y-70482340D01*
X147788766Y-71181212D01*
X147746708Y-71192482D01*
X147621292Y-71264890D01*
X147518890Y-71367292D01*
X147446482Y-71492708D01*
X147435212Y-71534766D01*
X146736340Y-70835894D01*
X146676084Y-70918830D01*
X146568897Y-71129197D01*
X146495934Y-71353752D01*
X146459000Y-71586947D01*
X142959000Y-71586947D01*
X142922065Y-71353752D01*
X142849102Y-71129197D01*
X142741914Y-70918828D01*
X142681658Y-70835894D01*
X142681658Y-70835893D01*
X141982787Y-71534765D01*
X141971518Y-71492708D01*
X141899110Y-71367292D01*
X141796708Y-71264890D01*
X141671292Y-71192482D01*
X141629234Y-71181212D01*
X142328105Y-70482340D01*
X142328104Y-70482339D01*
X142245174Y-70422087D01*
X142034802Y-70314897D01*
X141810247Y-70241934D01*
X141810248Y-70241934D01*
X141577052Y-70205000D01*
X141340948Y-70205000D01*
X141107752Y-70241934D01*
X140883197Y-70314897D01*
X140672830Y-70422084D01*
X140589894Y-70482340D01*
X141288766Y-71181212D01*
X141246708Y-71192482D01*
X141121292Y-71264890D01*
X141018890Y-71367292D01*
X140946482Y-71492708D01*
X140935212Y-71534766D01*
X140236340Y-70835894D01*
X140176084Y-70918830D01*
X140068897Y-71129197D01*
X139995934Y-71353752D01*
X139959000Y-71586947D01*
X109681048Y-71586947D01*
X109681048Y-60979500D01*
X109700733Y-60912461D01*
X109753537Y-60866706D01*
X109805048Y-60855500D01*
X148061089Y-60855500D01*
X148128128Y-60875185D01*
G37*
%TD.AperFunction*%
%TD*%
M02*
